<?xml version="1.0" encoding="UTF-8" standalone="no"?>
<!DOCTYPE svg PUBLIC "-//W3C//DTD SVG 1.1//EN" "http://www.w3.org/Graphics/SVG/1.1/DTD/svg11.dtd">
<svg width="100%" height="100%" viewBox="0 0 2596 3838" version="1.1" xmlns="http://www.w3.org/2000/svg" xmlns:xlink="http://www.w3.org/1999/xlink" xml:space="preserve" xmlns:serif="http://www.serif.com/" style="fill-rule:evenodd;clip-rule:evenodd;stroke-linejoin:round;stroke-miterlimit:2;">
    <g transform="matrix(1,0,0,1,-456.436,-533.733)">
        <g transform="matrix(4.16667,0,0,4.16667,-3285.14,0)">
            <path d="M1008.47,727.861C1008.47,727.861 988.105,724.05 981.253,739.295C974.4,754.539 991.146,777.405 984.582,778.93C978.017,780.456 956.888,784.838 955.746,784.647C954.604,784.457 943.374,734.72 958.221,715.093C973.068,695.466 1006.19,692.227 1008.28,694.132C1010.38,696.037 1014.94,712.426 1014.94,712.426L1008.47,727.861Z" style="fill:rgb(233,30,97);"/>
        </g>
        <g transform="matrix(4.16667,0,0,4.16667,-3285.14,0)">
            <path d="M1385.56,597.327C1385.56,597.327 1397.93,600.186 1400.41,606.093C1402.88,612 1403.83,719.476 1403.83,719.476L1412.97,759.303C1412.97,759.303 1454.28,784.647 1454.28,793.985C1454.28,803.322 1456.56,824.284 1434.48,823.522C1412.4,822.76 1360.43,804.085 1360.43,804.085C1360.43,804.085 1368.81,858.585 1335.88,902.223C1302.95,945.861 1288.86,959.391 1288.86,959.391C1288.86,959.391 1297.21,1022.36 1257.26,1034.47C1217.31,1046.58 1195.08,1034.75 1171.05,1031.95C1147.01,1029.16 1130.87,1011.6 1125.16,981.115C1119.45,950.625 1117.25,949.952 1112.45,941.713C1107.65,933.475 1063.1,852.678 1060.44,843.531C1057.77,834.384 1053.6,811.179 1053.6,811.179C1053.6,811.179 977.446,835.146 972.497,824.093C967.548,813.041 969.833,794.366 971.736,788.268C973.639,782.171 1002.95,770.737 1002.95,770.737C1002.95,770.737 1013.61,717.761 1013.23,707.09C1012.85,696.418 1021.06,584.274 1021.06,584.274L1385.56,597.327Z" style="fill:rgb(239,239,240);"/>
        </g>
        <g transform="matrix(4.16667,0,0,4.16667,-3285.14,0)">
            <path d="M1194.13,742.08C1197.63,742.08 1200.8,743.499 1203.09,745.791C1205.38,748.084 1206.8,751.252 1206.8,754.748C1206.8,758.244 1205.38,761.412 1203.09,763.705C1200.8,765.997 1197.63,767.416 1194.13,767.416C1190.64,767.416 1187.47,765.997 1185.18,763.705C1182.89,761.412 1181.47,758.244 1181.47,754.748C1181.47,751.252 1182.89,748.084 1185.18,745.791C1187.47,743.499 1190.64,742.08 1194.13,742.08ZM1199.04,749.842C1197.79,748.586 1196.05,747.81 1194.13,747.81C1192.22,747.81 1190.48,748.586 1189.23,749.842C1187.97,751.097 1187.2,752.832 1187.2,754.748C1187.2,756.664 1187.97,758.399 1189.23,759.654C1190.48,760.91 1192.22,761.686 1194.13,761.686C1196.05,761.686 1197.79,760.91 1199.04,759.654C1200.3,758.399 1201.07,756.664 1201.07,754.748C1201.07,752.832 1200.3,751.097 1199.04,749.842Z" style="fill:rgb(46,50,99);fill-rule:nonzero;"/>
        </g>
        <g transform="matrix(4.16667,0,0,4.16667,-3285.14,0)">
            <path d="M1230.32,741.657C1233.81,741.657 1236.98,743.075 1239.27,745.368C1241.57,747.661 1242.98,750.828 1242.98,754.324C1242.98,757.821 1241.57,760.988 1239.27,763.281C1236.98,765.573 1233.81,766.992 1230.32,766.992C1226.82,766.992 1223.65,765.573 1221.36,763.281C1219.07,760.988 1217.65,757.821 1217.65,754.324C1217.65,750.828 1219.07,747.661 1221.36,745.368C1223.65,743.075 1226.82,741.657 1230.32,741.657ZM1235.22,749.418C1233.97,748.163 1232.23,747.386 1230.32,747.386C1228.4,747.386 1226.67,748.163 1225.41,749.418C1224.16,750.673 1223.38,752.408 1223.38,754.324C1223.38,756.241 1224.16,757.975 1225.41,759.231C1226.67,760.486 1228.4,761.263 1230.32,761.263C1232.23,761.263 1233.97,760.486 1235.22,759.231C1236.48,757.975 1237.26,756.241 1237.26,754.324C1237.26,752.408 1236.48,750.673 1235.22,749.418Z" style="fill:rgb(46,50,99);fill-rule:nonzero;"/>
        </g>
        <g transform="matrix(4.16667,0,0,4.16667,-3285.14,0)">
            <path d="M1235.22,759.231C1236.48,757.975 1237.26,756.241 1237.26,754.324C1237.26,752.408 1236.48,750.673 1235.22,749.418C1233.97,748.163 1232.23,747.386 1230.32,747.386C1228.4,747.386 1226.67,748.163 1225.41,749.418C1224.16,750.673 1223.38,752.408 1223.38,754.324C1223.38,756.241 1224.16,757.975 1225.41,759.231C1226.67,760.486 1228.4,761.263 1230.32,761.263C1232.23,761.263 1233.97,760.486 1235.22,759.231Z" style="fill:rgb(30,182,232);"/>
        </g>
        <g transform="matrix(4.16667,0,0,4.16667,-3285.14,0)">
            <path d="M1201.07,754.748C1201.07,752.832 1200.3,751.097 1199.04,749.842C1197.79,748.586 1196.05,747.81 1194.13,747.81C1192.22,747.81 1190.48,748.586 1189.23,749.842C1187.97,751.097 1187.2,752.832 1187.2,754.748C1187.2,756.664 1187.97,758.399 1189.23,759.654C1190.48,760.91 1192.22,761.686 1194.13,761.686C1196.05,761.686 1197.79,760.91 1199.04,759.654C1200.3,758.399 1201.07,756.664 1201.07,754.748Z" style="fill:rgb(233,30,97);"/>
        </g>
        <g transform="matrix(4.16667,0,0,4.16667,-3285.14,0)">
            <path d="M1169.2,777.847L1186.83,777.847C1186.96,777.847 1187.07,778.361 1187.07,778.989L1187.07,788.132C1187.07,788.761 1186.96,789.275 1186.83,789.275L1169.2,789.275C1169.06,789.275 1168.95,788.761 1168.95,788.132L1168.95,778.989C1168.95,778.361 1169.06,777.847 1169.2,777.847Z" style="fill:rgb(30,182,232);"/>
        </g>
        <g transform="matrix(4.16667,0,0,4.16667,-3285.14,0)">
            <path d="M1169.2,774.982L1186.83,774.982C1188.43,774.982 1189.45,775.978 1189.79,777.59L1189.8,777.589C1189.88,777.992 1189.94,778.491 1189.94,778.989L1189.94,788.132C1189.94,788.63 1189.88,789.129 1189.8,789.532L1189.79,789.532C1189.45,791.143 1188.43,792.14 1186.83,792.14L1169.2,792.14C1167.59,792.14 1166.57,791.143 1166.23,789.532C1166.14,789.129 1166.09,788.63 1166.09,788.132L1166.09,778.989C1166.09,778.491 1166.14,777.992 1166.23,777.589L1166.23,777.59C1166.57,775.978 1167.59,774.982 1169.2,774.982ZM1184.21,780.711L1171.82,780.711L1171.82,786.41L1184.21,786.41L1184.21,780.711Z" style="fill:rgb(46,50,99);fill-rule:nonzero;"/>
        </g>
        <g transform="matrix(4.16667,0,0,4.16667,-3285.14,0)">
            <path d="M1203.26,777.722L1220.89,777.722C1221.02,777.722 1221.13,778.236 1221.13,778.865L1221.13,788.007C1221.13,788.636 1221.02,789.15 1220.89,789.15L1203.26,789.15C1203.13,789.15 1203.02,788.636 1203.02,788.007L1203.02,778.865C1203.02,778.236 1203.13,777.722 1203.26,777.722Z" style="fill:rgb(30,182,232);"/>
        </g>
        <g transform="matrix(4.16667,0,0,4.16667,-3285.14,0)">
            <path d="M1203.26,774.857L1220.89,774.857C1222.49,774.857 1223.51,775.853 1223.86,777.465L1223.86,777.464C1223.94,777.867 1224,778.367 1224,778.865L1224,788.007C1224,788.505 1223.94,789.005 1223.86,789.408L1223.86,789.407C1223.51,791.019 1222.49,792.015 1220.89,792.015L1203.26,792.015C1201.65,792.015 1200.64,791.018 1200.29,789.407L1200.29,789.408C1200.2,789.005 1200.15,788.505 1200.15,788.007L1200.15,778.865C1200.15,778.367 1200.2,777.867 1200.29,777.464L1200.29,777.465C1200.64,775.854 1201.65,774.857 1203.26,774.857ZM1218.27,780.587L1205.88,780.587L1205.88,786.286L1218.27,786.286L1218.27,780.587Z" style="fill:rgb(46,50,99);fill-rule:nonzero;"/>
        </g>
        <g transform="matrix(4.16667,0,0,4.16667,-3285.14,0)">
            <path d="M1236.82,777.659L1254.46,777.659C1254.59,777.659 1254.7,778.173 1254.7,778.802L1254.7,787.945C1254.7,788.574 1254.59,789.088 1254.46,789.088L1236.82,789.088C1236.69,789.088 1236.58,788.574 1236.58,787.945L1236.58,778.802C1236.58,778.173 1236.69,777.659 1236.82,777.659Z" style="fill:rgb(30,182,232);"/>
        </g>
        <g transform="matrix(4.16667,0,0,4.16667,-3285.14,0)">
            <path d="M1236.82,774.795L1254.46,774.795C1256.06,774.795 1257.08,775.791 1257.42,777.402C1257.51,777.805 1257.56,778.304 1257.56,778.802L1257.56,787.945C1257.56,788.443 1257.51,788.942 1257.42,789.345C1257.08,790.956 1256.06,791.952 1254.46,791.952L1236.82,791.952C1235.22,791.952 1234.2,790.956 1233.86,789.345L1233.85,789.345C1233.77,788.942 1233.72,788.443 1233.72,787.945L1233.72,778.802C1233.72,778.304 1233.77,777.805 1233.85,777.402L1233.86,777.402C1234.2,775.791 1235.22,774.795 1236.82,774.795ZM1251.83,780.524L1239.45,780.524L1239.45,786.223L1251.83,786.223L1251.83,780.524Z" style="fill:rgb(46,50,99);fill-rule:nonzero;"/>
        </g>
        <g transform="matrix(4.16667,0,0,4.16667,-3285.14,0)">
            <path d="M1403.26,676.657C1403.66,699.704 1403.83,719.476 1403.83,719.476L1412.97,759.303C1412.97,759.303 1454.28,784.647 1454.28,793.985C1454.28,803.322 1456.56,824.284 1434.48,823.522C1431.99,823.436 1429.13,823.122 1426,822.634C1446.13,810.775 1460.49,798.895 1446.47,795.128C1415.25,786.744 1371.85,774.548 1374.29,769.41C1376.73,764.272 1399.26,769.974 1399.26,769.974C1399.26,769.974 1399.64,769.974 1389.75,728.051C1379.85,686.129 1345.13,631.181 1345.13,631.181C1353.08,619.87 1366.14,633.915 1368.81,635.82C1371.47,637.726 1398.28,676.776 1398.28,676.776C1398.28,676.776 1400.07,676.644 1403.26,676.657ZM1361.08,829.925C1359.85,849.711 1354.4,877.684 1335.88,902.223C1302.95,945.861 1288.86,959.391 1288.86,959.391C1288.86,959.391 1292.26,985.024 1284.34,1006.73C1267.94,1007.81 1239.78,1005.88 1233.66,981.115C1224.9,945.671 1259.03,958.938 1266.26,958.229C1273.49,957.52 1324.84,867.16 1334.93,828.857C1345.01,790.555 1330.74,769.022 1340.64,780.074C1346.69,786.83 1355.23,811.526 1361.08,829.925ZM1210.61,1039.1C1195.99,1037.45 1183.77,1033.43 1171.05,1031.95C1147.01,1029.16 1130.87,1011.6 1125.16,981.115C1122.77,968.385 1121,960.856 1119.4,955.8C1161.54,971.645 1178.5,941.57 1182.62,929.348C1187.73,914.208 1183.41,881.643 1147.62,818.376C1111.83,755.11 1128.97,762.352 1141.53,771.88C1154.09,781.408 1203.96,878.974 1207.01,899.174C1210.05,919.373 1199.78,923.566 1184.55,951.387C1174.2,970.285 1190.21,1011.86 1210.61,1039.1ZM1051.7,811.765C1048.54,812.733 1041.69,814.793 1033.27,817.093C1052.3,790.435 1073.38,775.31 1073.38,775.31C1073.38,775.31 1083.92,750.68 1092.04,716.999C1100.16,683.318 1127.44,681.174 1127.44,681.174L1108.42,745.12C1108.42,745.12 1111.89,745.196 1082.9,759.303C1071.45,764.878 1058.72,785.59 1051.7,811.765Z" style="fill:white;"/>
        </g>
        <g transform="matrix(4.16667,0,0,4.16667,-3285.14,0)">
            <path d="M1403.09,666.999C1403.25,675.661 1403.39,684.184 1403.5,691.764C1395.03,680.409 1388.44,671.492 1385.94,667.453C1376.04,651.447 1367.66,615.993 1367.66,615.993C1367.66,615.993 1377.53,609.029 1379.47,606.474C1381.41,603.92 1387.08,660.975 1387.08,660.975L1403.09,666.999ZM1453.85,807.511C1452.6,815.909 1448.35,824.001 1434.48,823.522C1414.12,822.819 1368.36,806.89 1361.34,804.409C1353.86,794.078 1337.02,774.492 1328.83,761.209C1317.79,743.296 1318.41,751.188 1310.56,718.905C1302.71,686.622 1298.04,677.309 1298.04,677.309C1298.04,677.309 1327.31,668.597 1333.4,711.664C1339.49,754.73 1352.3,786.7 1405.35,798.94C1428.46,804.271 1443.86,807.27 1453.85,807.511ZM1361.3,825.147C1360.81,840.62 1357.83,862.612 1347.06,884.144C1352.79,860.098 1357.99,838.502 1361.3,825.147ZM1270.17,1027.7C1266.56,1030.61 1262.3,1032.95 1257.26,1034.47C1217.31,1046.58 1195.08,1034.75 1171.05,1031.95C1147.01,1029.16 1130.87,1011.6 1125.16,981.115C1119.45,950.625 1117.25,949.952 1112.45,941.713C1107.65,933.475 1063.1,852.678 1060.44,843.531C1057.77,834.384 1053.6,811.179 1053.6,811.179C1053.6,811.179 1022.16,821.072 998.372,825.215C1000.88,824.765 986.966,793.79 990.988,782.825C995.013,771.855 1033.03,761.781 1033.03,761.781C1033.03,761.781 1041.4,712.426 1054.73,682.127C1068.05,651.827 1084.62,635.445 1084.62,635.445L1033.41,594.849L1028.26,677.028C1028.26,677.028 1023.09,679.403 1014.26,683.991C1013.56,695.704 1013.14,704.467 1013.23,707.09C1013.61,717.761 1002.95,770.737 1002.95,770.737C1002.95,770.737 973.639,782.171 971.736,788.268C969.833,794.366 967.548,813.041 972.497,824.093C974.266,828.044 985.134,827.52 998.368,825.215C995.912,825.596 1062.34,784.076 1062.34,784.076C1062.34,784.076 1095.84,893.457 1119.45,915.181C1143.05,936.905 1178.15,935.737 1178.15,935.737C1178.15,935.737 1220.33,875.545 1221.1,873.258C1221.86,870.971 1254.49,778.811 1275.48,769.819C1296.47,760.828 1304.86,759.054 1304.86,759.054C1304.86,759.054 1265.26,816.09 1243.56,870.209C1221.86,924.328 1256.88,939.572 1256.88,939.572L1239.76,945.089C1239.76,945.089 1222.24,922.041 1203.58,939.192C1184.93,956.342 1189.88,1006.27 1235.56,1021.51C1248.15,1025.71 1259.84,1027.42 1270.17,1027.7Z" style="fill:rgb(183,200,220);"/>
        </g>
        <g transform="matrix(4.16667,0,0,4.16667,-3285.14,0)">
            <path d="M1162.56,721.169L1262.5,721.169C1269.24,721.169 1275.37,723.922 1279.8,728.356C1284.24,732.79 1286.99,738.916 1286.99,745.66L1286.99,763.409C1281.85,765.94 1275.63,769.417 1269.41,773.905L1269.41,745.66C1269.41,743.768 1268.63,742.04 1267.37,740.783C1266.12,739.526 1264.39,738.745 1262.5,738.745L1162.56,738.745C1160.67,738.745 1158.94,739.526 1157.68,740.783C1156.43,742.04 1155.65,743.768 1155.65,745.66L1155.65,780.255C1151.99,774.224 1149.36,769.805 1149.14,769.212C1148.88,768.48 1144.61,765.469 1138.07,762.3L1138.07,745.66C1138.07,738.916 1140.82,732.79 1145.26,728.356C1149.69,723.922 1155.82,721.169 1162.56,721.169ZM1238.11,817.256L1178.38,817.256C1175.9,813.249 1171.85,806.687 1167.53,799.68L1245.8,799.68C1245.14,800.928 1244.51,802.204 1243.94,803.513C1241.71,808.594 1239.76,813.164 1238.11,817.256Z" style="fill:rgb(46,50,99);fill-rule:nonzero;"/>
        </g>
        <g transform="matrix(4.16667,0,0,4.16667,-3285.14,0)">
            <path d="M952.273,334.551C950.057,333.875 945.567,376.467 947.397,424.491C949.227,472.516 957.334,496.15 955.318,496.907C953.301,497.665 917.247,479.757 910.395,453.841C903.542,427.925 906.587,366.183 913.44,357.418C920.294,348.652 952.273,334.551 952.273,334.551Z" style="fill:rgb(234,234,235);"/>
        </g>
        <g transform="matrix(4.16667,0,0,4.16667,-3285.14,0)">
            <path d="M947.572,428.621C949.69,473.87 957.276,496.172 955.318,496.907C953.301,497.665 917.247,479.757 910.395,453.841C903.542,427.925 906.587,366.183 913.44,357.418C915.227,355.133 918.721,352.486 922.91,349.82C919.43,377.363 916.587,417.139 925.242,438.215C930.273,450.465 938.75,443.121 947.572,428.621Z" style="fill:rgb(183,200,220);"/>
        </g>
        <g transform="matrix(4.16667,0,0,4.16667,-3285.14,0)">
            <path d="M1467.93,337.6C1467.93,337.6 1500.29,336.265 1508.86,356.465C1517.43,376.664 1514.76,443.36 1504.29,462.416C1493.82,481.472 1462.6,490.047 1462.6,490.047L1467.93,337.6Z" style="fill:rgb(234,234,235);"/>
        </g>
        <g transform="matrix(4.16667,0,0,4.16667,-3285.14,0)">
            <path d="M1494.6,342.669C1500.6,345.466 1506.03,349.788 1508.86,356.465C1517.43,376.664 1514.76,443.36 1504.29,462.416C1493.82,481.472 1462.6,490.047 1462.6,490.047L1464.62,432.303C1475.95,437.079 1487.63,439.452 1494.01,433.261C1504.2,423.384 1499,373.681 1494.6,342.669Z" style="fill:rgb(183,200,220);"/>
        </g>
        <g transform="matrix(4.16667,0,0,4.16667,-3285.14,0)">
            <path d="M976.255,266.712C976.255,266.712 1051.83,184.771 1101.13,160.379C1150.43,135.988 1214.77,132.939 1267.87,143.229C1320.98,153.519 1402.28,200.464 1436.18,259.556C1470.08,318.649 1499.34,443.169 1425.48,543.023C1351.63,642.877 1290.34,658.502 1241.99,668.03C1193.64,677.558 1086.09,653.929 1033.55,597.714C981.014,541.498 904.52,462.925 976.255,266.712Z" style="fill:rgb(239,239,240);"/>
        </g>
        <g transform="matrix(4.16667,0,0,4.16667,-3285.14,0)">
            <path d="M1168.89,592.994C1168.89,592.994 1173.84,626.869 1243.51,637.54C1313.18,648.212 1342.2,627.919 1342.2,627.919C1342.2,627.919 1239.32,681.369 1164.32,665.743C1089.32,650.118 1035.37,592.404 1035.37,592.404L1168.89,592.994Z" style="fill:rgb(183,200,220);"/>
        </g>
        <g transform="matrix(4.16667,0,0,4.16667,-3285.14,0)">
            <path d="M976.255,266.712C976.255,266.712 1051.83,184.771 1101.13,160.379C1150.43,135.988 1214.77,132.939 1267.87,143.229C1270.95,143.825 1274.13,144.55 1277.38,145.387C1275.92,145.194 1193.28,134.324 1141.8,154.701C1089.87,175.26 1082.85,184.771 1082.85,184.771L1253.79,179.435C1253.79,179.435 1116.76,184.989 1137.67,205.733C1158.59,226.476 1269.42,217.437 1269.42,217.437C1269.42,217.437 1063.9,267.063 971.895,279.072C973.291,274.998 974.727,270.891 976.255,266.712Z" style="fill:rgb(183,200,220);"/>
        </g>
        <g transform="matrix(4.16667,0,0,4.16667,-3285.14,0)">
            <path d="M945.419,350.939C945.419,350.939 963.466,269.991 1000.7,253.487C1037.93,236.984 1099.6,227.075 1099.6,227.075C1099.6,227.075 1228.09,205.542 1324.03,223.836C1419.97,242.129 1448.9,279.669 1456.89,304.252C1464.89,328.834 1482.97,408.107 1457.08,492.715C1431.19,577.324 1377.06,594.885 1377.06,594.885C1377.06,594.885 1210.83,615.683 1127.01,605.908C1043.2,596.132 1004.23,576.277 998.81,565.938C993.388,555.6 935.331,476.419 945.419,350.939Z" style="fill:rgb(40,65,148);"/>
        </g>
        <g transform="matrix(4.16667,0,0,4.16667,-3285.14,0)">
            <path d="M1400.81,494.621C1400.81,494.621 1398.04,535.16 1331.12,563.204C1264.2,591.249 1192.84,557.929 1192.84,557.929C1192.84,557.929 1276.97,557.374 1312.79,533.216C1348.61,509.06 1364.16,483.514 1380.82,481.848C1397.48,480.182 1400.81,494.621 1400.81,494.621Z" style="fill:rgb(0,107,182);"/>
        </g>
        <g transform="matrix(4.16667,0,0,4.16667,-3285.14,0)">
            <path d="M945.419,350.939C945.419,350.939 963.466,269.991 1000.7,253.487C1037.93,236.984 1099.6,227.075 1099.6,227.075C1099.6,227.075 1104.09,226.323 1112.01,225.22C1090.46,265.245 1075.72,314.643 1075.47,375.018C1074.92,508.044 1162.15,589.947 1265.93,605.322C1217.91,608.553 1164.31,610.257 1127.01,605.908C1043.2,596.132 1004.23,576.277 998.81,565.938C993.388,555.6 935.331,476.419 945.419,350.939Z" style="fill:rgb(49,53,119);"/>
        </g>
        <g transform="matrix(4.16667,0,0,4.16667,-3285.14,0)">
            <path d="M945.419,350.939C945.419,350.939 963.466,269.991 1000.7,253.487C1006.86,250.755 1013.7,248.203 1020.82,245.848C1001.83,274.906 986.325,306.101 980.431,336.258C960.258,439.49 987.377,499.814 1032.81,565.884C1039.98,576.313 1046.65,584.965 1052.77,592.17C1019.28,582.937 1002.26,572.513 998.81,565.938C993.388,555.6 935.331,476.419 945.419,350.939Z" style="fill:rgb(40,65,148);"/>
        </g>
        <g transform="matrix(4.16667,0,0,4.16667,-3285.14,0)">
            <path d="M1330.69,267.473C1379.25,267.473 1418.63,296.061 1418.63,331.311C1418.63,366.562 1379.25,395.149 1330.69,395.149C1282.13,395.149 1242.75,366.562 1242.75,331.311C1242.75,296.061 1282.13,267.473 1330.69,267.473Z" style="fill:rgb(0,107,182);"/>
        </g>
        <g transform="matrix(4.16667,0,0,4.16667,-3285.14,0)">
            <path d="M1372.57,417.306C1385.81,417.306 1396.55,425.102 1396.55,434.716C1396.55,444.33 1385.81,452.126 1372.57,452.126C1359.32,452.126 1348.58,444.33 1348.58,434.716C1348.58,425.102 1359.32,417.306 1372.57,417.306Z" style="fill:rgb(0,107,182);"/>
        </g>
        <g transform="matrix(4.16667,0,0,4.16667,-3285.14,0)">
            <path d="M1239.17,431.085C1243.65,431.085 1247.29,434.719 1247.29,439.201C1247.29,443.682 1243.65,447.316 1239.17,447.316C1234.69,447.316 1231.05,443.682 1231.05,439.201C1231.05,434.719 1234.69,431.085 1239.17,431.085Z" style="fill:white;"/>
        </g>
        <g transform="matrix(4.16667,0,0,4.16667,-3285.14,0)">
            <path d="M1277.8,419.878C1280.12,419.878 1282,421.76 1282,424.081C1282,426.402 1280.12,428.284 1277.8,428.284C1275.47,428.284 1273.59,426.402 1273.59,424.081C1273.59,421.76 1275.47,419.878 1277.8,419.878Z" style="fill:white;"/>
        </g>
        <g transform="matrix(4.16667,0,0,4.16667,-3285.14,0)">
            <path d="M1281.99,448.455C1283.85,448.455 1285.35,449.961 1285.35,451.817C1285.35,453.673 1283.85,455.179 1281.99,455.179C1280.14,455.179 1278.63,453.673 1278.63,451.817C1278.63,449.961 1280.14,448.455 1281.99,448.455Z" style="fill:white;"/>
        </g>
        <g transform="matrix(4.16667,0,0,4.16667,-3285.14,0)">
            <path d="M1247.29,482.074C1248.53,482.074 1249.53,483.078 1249.53,484.316C1249.53,485.554 1248.53,486.557 1247.29,486.557C1246.05,486.557 1245.05,485.554 1245.05,484.316C1245.05,483.078 1246.05,482.074 1247.29,482.074Z" style="fill:white;"/>
        </g>
        <g transform="matrix(4.16667,0,0,4.16667,-3285.14,0)">
            <path d="M1299.62,498.884C1301.63,498.884 1303.26,500.515 1303.26,502.526C1303.26,504.537 1301.63,506.168 1299.62,506.168C1297.61,506.168 1295.98,504.537 1295.98,502.526C1295.98,500.515 1297.61,498.884 1299.62,498.884Z" style="fill:white;"/>
        </g>
        <g transform="matrix(4.16667,0,0,4.16667,-3285.14,0)">
            <path d="M1322.01,463.584C1323.4,463.584 1324.53,464.712 1324.53,466.103C1324.53,467.494 1323.4,468.622 1322.01,468.622C1320.62,468.622 1319.49,467.494 1319.49,466.103C1319.49,464.712 1320.62,463.584 1322.01,463.584Z" style="fill:white;"/>
        </g>
        <g transform="matrix(4.16667,0,0,4.16667,-3285.14,0)">
            <path d="M1309.14,395.785C1310.53,395.785 1311.66,396.914 1311.66,398.306C1311.66,399.699 1310.53,400.828 1309.14,400.828C1307.74,400.828 1306.61,399.699 1306.61,398.306C1306.61,396.914 1307.74,395.785 1309.14,395.785Z" style="fill:white;"/>
        </g>
        <g transform="matrix(4.16667,0,0,4.16667,-3285.14,0)">
            <path d="M1332.36,414.836C1333.91,414.836 1335.17,416.091 1335.17,417.638C1335.17,419.184 1333.91,420.439 1332.36,420.439C1330.82,420.439 1329.56,419.184 1329.56,417.638C1329.56,416.091 1330.82,414.836 1332.36,414.836Z" style="fill:white;"/>
        </g>
        <g transform="matrix(4.16667,0,0,4.16667,-3285.14,0)">
            <path d="M1371.52,436.695C1373.53,436.695 1375.16,438.325 1375.16,440.333C1375.16,442.342 1373.53,443.972 1371.52,443.972C1369.51,443.972 1367.88,442.342 1367.88,440.333C1367.88,438.325 1369.51,436.695 1371.52,436.695Z" style="fill:white;"/>
        </g>
        <g transform="matrix(4.16667,0,0,4.16667,-3285.14,0)">
            <path d="M1349.16,517.375C1350.39,517.375 1351.4,518.379 1351.4,519.617C1351.4,520.854 1350.39,521.857 1349.16,521.857C1347.92,521.857 1346.91,520.854 1346.91,519.617C1346.91,518.379 1347.92,517.375 1349.16,517.375Z" style="fill:white;"/>
        </g>
        <g transform="matrix(4.16667,0,0,4.16667,-3285.14,0)">
            <path d="M1364.83,495.522C1366.68,495.522 1368.18,497.026 1368.18,498.881C1368.18,500.735 1366.68,502.238 1364.83,502.238C1362.97,502.238 1361.47,500.735 1361.47,498.881C1361.47,497.026 1362.97,495.522 1364.83,495.522Z" style="fill:white;"/>
        </g>
        <g transform="matrix(4.16667,0,0,4.16667,-3285.14,0)">
            <path d="M1353.07,387.38C1354.31,387.38 1355.31,388.384 1355.31,389.621C1355.31,390.859 1354.31,391.862 1353.07,391.862C1351.84,391.862 1350.83,390.859 1350.83,389.621C1350.83,388.384 1351.84,387.38 1353.07,387.38Z" style="fill:white;"/>
        </g>
        <g transform="matrix(4.16667,0,0,4.16667,-3285.14,0)">
            <path d="M1383.58,397.466C1386.21,397.466 1388.34,399.598 1388.34,402.229C1388.34,404.859 1386.21,406.991 1383.58,406.991C1380.95,406.991 1378.82,404.859 1378.82,402.229C1378.82,399.598 1380.95,397.466 1383.58,397.466Z" style="fill:white;"/>
        </g>
        <g transform="matrix(4.16667,0,0,4.16667,-3285.14,0)">
            <path d="M1399.81,442.852C1402.44,442.852 1404.58,444.985 1404.58,447.615C1404.58,450.244 1402.44,452.378 1399.81,452.378C1397.18,452.378 1395.05,450.244 1395.05,447.615C1395.05,444.985 1397.18,442.852 1399.81,442.852Z" style="fill:white;"/>
        </g>
        <g transform="matrix(4.16667,0,0,4.16667,-3285.14,0)">
            <path d="M1362.59,460.222C1364.76,460.222 1366.51,461.978 1366.51,464.144C1366.51,466.31 1364.76,468.066 1362.59,468.066C1360.42,468.066 1358.67,466.31 1358.67,464.144C1358.67,461.978 1360.42,460.222 1362.59,460.222Z" style="fill:white;"/>
        </g>
        <g transform="matrix(4.16667,0,0,4.16667,-3285.14,0)">
            <path d="M1327.14,436.695C1329.92,436.695 1332.18,438.952 1332.18,441.734C1332.18,444.517 1329.92,446.774 1327.14,446.774C1324.36,446.774 1322.1,444.517 1322.1,441.734C1322.1,438.952 1324.36,436.695 1327.14,436.695Z" style="fill:white;"/>
        </g>
        <g transform="matrix(4.16667,0,0,4.16667,-3285.14,0)">
            <path d="M1240.57,523.538C1242.42,523.538 1243.93,525.042 1243.93,526.897C1243.93,528.751 1242.42,530.254 1240.57,530.254C1238.71,530.254 1237.21,528.751 1237.21,526.897C1237.21,525.042 1238.71,523.538 1240.57,523.538Z" style="fill:white;"/>
        </g>
        <g transform="matrix(4.16667,0,0,4.16667,-3285.14,0)">
            <path d="M1285.63,545.391C1287.02,545.391 1288.15,546.52 1288.15,547.912C1288.15,549.305 1287.02,550.434 1285.63,550.434C1284.24,550.434 1283.11,549.305 1283.11,547.912C1283.11,546.52 1284.24,545.391 1285.63,545.391Z" style="fill:white;"/>
        </g>
        <g transform="matrix(4.16667,0,0,4.16667,-3285.14,0)">
            <path d="M1352.23,567.244C1353.62,567.244 1354.75,568.372 1354.75,569.762C1354.75,571.153 1353.62,572.281 1352.23,572.281C1350.84,572.281 1349.71,571.153 1349.71,569.762C1349.71,568.372 1350.84,567.244 1352.23,567.244Z" style="fill:white;"/>
        </g>
        <g transform="matrix(4.16667,0,0,4.16667,-3285.14,0)">
            <path d="M1399.25,528.582C1400.64,528.582 1401.77,529.71 1401.77,531.1C1401.77,532.49 1400.64,533.619 1399.25,533.619C1397.86,533.619 1396.73,532.49 1396.73,531.1C1396.73,529.71 1397.86,528.582 1399.25,528.582Z" style="fill:white;"/>
        </g>
        <g transform="matrix(4.16667,0,0,4.16667,-3285.14,0)">
            <path d="M1413.8,487.678C1415.19,487.678 1416.32,488.806 1416.32,490.197C1416.32,491.588 1415.19,492.716 1413.8,492.716C1412.41,492.716 1411.28,491.588 1411.28,490.197C1411.28,488.806 1412.41,487.678 1413.8,487.678Z" style="fill:white;"/>
        </g>
        <g transform="matrix(4.16667,0,0,4.16667,-3285.14,0)">
            <path d="M1389.18,475.911C1390.57,475.911 1391.7,477.04 1391.7,478.433C1391.7,479.824 1390.57,480.953 1389.18,480.953C1387.78,480.953 1386.65,479.824 1386.65,478.433C1386.65,477.04 1387.78,475.911 1389.18,475.911Z" style="fill:white;"/>
        </g>
        <g transform="matrix(4.16667,0,0,4.16667,-3285.14,0)">
            <path d="M1414.08,443.412C1416.25,443.412 1418.01,445.168 1418.01,447.335C1418.01,449.501 1416.25,451.257 1414.08,451.257C1411.92,451.257 1410.16,449.501 1410.16,447.335C1410.16,445.168 1411.92,443.412 1414.08,443.412Z" style="fill:white;"/>
        </g>
        <g transform="matrix(4.16667,0,0,4.16667,-3285.14,0)">
            <path d="M1399.81,416.517C1400.58,416.517 1401.21,417.144 1401.21,417.918C1401.21,418.691 1400.58,419.318 1399.81,419.318C1399.03,419.318 1398.41,418.691 1398.41,417.918C1398.41,417.144 1399.03,416.517 1399.81,416.517Z" style="fill:white;"/>
        </g>
        <g transform="matrix(4.16667,0,0,4.16667,-3285.14,0)">
            <path d="M1364.83,412.034C1366.69,412.034 1368.19,413.54 1368.19,415.396C1368.19,417.252 1366.69,418.758 1364.83,418.758C1362.97,418.758 1361.47,417.252 1361.47,415.396C1361.47,413.54 1362.97,412.034 1364.83,412.034Z" style="fill:white;"/>
        </g>
        <g transform="matrix(4.16667,0,0,4.16667,-3285.14,0)">
            <path d="M1279.15,390.914C1280.72,390.914 1281.99,392.182 1281.99,393.747C1281.99,395.312 1280.72,396.581 1279.15,396.581C1277.59,396.581 1276.32,395.312 1276.32,393.747C1276.32,392.182 1277.59,390.914 1279.15,390.914Z" style="fill:white;"/>
        </g>
        <g transform="matrix(4.16667,0,0,4.16667,-3285.14,0)">
            <path d="M1248.69,397.466C1250.39,397.466 1251.77,398.846 1251.77,400.548C1251.77,402.25 1250.39,403.63 1248.69,403.63C1246.99,403.63 1245.61,402.25 1245.61,400.548C1245.61,398.846 1246.99,397.466 1248.69,397.466Z" style="fill:white;"/>
        </g>
        <g transform="matrix(4.16667,0,0,4.16667,-3285.14,0)">
            <path d="M1222.66,418.197C1224.83,418.197 1226.59,419.953 1226.59,422.12C1226.59,424.286 1224.83,426.042 1222.66,426.042C1220.5,426.042 1218.74,424.286 1218.74,422.12C1218.74,419.953 1220.5,418.197 1222.66,418.197Z" style="fill:white;"/>
        </g>
        <g transform="matrix(4.16667,0,0,4.16667,-3285.14,0)">
            <path d="M1200.28,448.455C1202.75,448.455 1204.76,450.462 1204.76,452.938C1204.76,455.413 1202.75,457.42 1200.28,457.42C1197.8,457.42 1195.79,455.413 1195.79,452.938C1195.79,450.462 1197.8,448.455 1200.28,448.455Z" style="fill:white;"/>
        </g>
        <g transform="matrix(4.16667,0,0,4.16667,-3285.14,0)">
            <path d="M1202.51,488.238C1204.37,488.238 1205.87,489.743 1205.87,491.6C1205.87,493.457 1204.37,494.962 1202.51,494.962C1200.66,494.962 1199.15,493.457 1199.15,491.6C1199.15,489.743 1200.66,488.238 1202.51,488.238Z" style="fill:white;"/>
        </g>
        <g transform="matrix(4.16667,0,0,4.16667,-3285.14,0)">
            <path d="M1202.23,519.616C1203,519.616 1203.63,520.242 1203.63,521.015C1203.63,521.789 1203,522.415 1202.23,522.415C1201.46,522.415 1200.83,521.789 1200.83,521.015C1200.83,520.242 1201.46,519.616 1202.23,519.616Z" style="fill:white;"/>
        </g>
        <g transform="matrix(4.16667,0,0,4.16667,-3285.14,0)">
            <path d="M1233.57,548.753C1235.27,548.753 1236.65,550.132 1236.65,551.831C1236.65,553.532 1235.27,554.911 1233.57,554.911C1231.87,554.911 1230.49,553.532 1230.49,551.831C1230.49,550.132 1231.87,548.753 1233.57,548.753Z" style="fill:white;"/>
        </g>
        <g transform="matrix(4.16667,0,0,4.16667,-3285.14,0)">
            <path d="M1267.16,526.34C1268.55,526.34 1269.68,527.469 1269.68,528.862C1269.68,530.254 1268.55,531.384 1267.16,531.384C1265.77,531.384 1264.64,530.254 1264.64,528.862C1264.64,527.469 1265.77,526.34 1267.16,526.34Z" style="fill:white;"/>
        </g>
        <g transform="matrix(4.16667,0,0,4.16667,-3285.14,0)">
            <path d="M1266.6,500.005C1267.99,500.005 1269.12,501.134 1269.12,502.526C1269.12,503.919 1267.99,505.048 1266.6,505.048C1265.21,505.048 1264.08,503.919 1264.08,502.526C1264.08,501.134 1265.21,500.005 1266.6,500.005Z" style="fill:white;"/>
        </g>
        <g transform="matrix(4.16667,0,0,4.16667,-3285.14,0)">
            <path d="M1273.28,477.032C1274.96,477.032 1276.32,478.394 1276.32,480.076C1276.32,481.756 1274.96,483.118 1273.28,483.118C1271.6,483.118 1270.23,481.756 1270.23,480.076C1270.23,478.394 1271.6,477.032 1273.28,477.032Z" style="fill:white;"/>
        </g>
        <g transform="matrix(4.16667,0,0,4.16667,-3285.14,0)">
            <path d="M1302.14,474.79C1304.3,474.79 1306.06,476.545 1306.06,478.708C1306.06,480.872 1304.3,482.626 1302.14,482.626C1299.97,482.626 1298.22,480.872 1298.22,478.708C1298.22,476.545 1299.97,474.79 1302.14,474.79Z" style="fill:white;"/>
        </g>
        <g transform="matrix(4.16667,0,0,4.16667,-3285.14,0)">
            <path d="M1331.81,499.445C1333.97,499.445 1335.73,501.201 1335.73,503.367C1335.73,505.533 1333.97,507.289 1331.81,507.289C1329.64,507.289 1327.88,505.533 1327.88,503.367C1327.88,501.201 1329.64,499.445 1331.81,499.445Z" style="fill:white;"/>
        </g>
        <g transform="matrix(4.16667,0,0,4.16667,-3285.14,0)">
            <path d="M1302.7,544.831C1301.46,544.831 1300.45,545.834 1300.45,547.072C1300.45,548.31 1301.46,549.314 1302.7,549.314C1303.93,549.314 1304.94,548.31 1304.94,547.072C1304.94,545.834 1303.93,544.831 1302.7,544.831Z" style="fill:white;"/>
        </g>
        <g transform="matrix(4.16667,0,0,4.16667,-3285.14,0)">
            <path d="M1313.34,517.936C1315.5,517.936 1317.26,519.692 1317.26,521.858C1317.26,524.024 1315.5,525.78 1313.34,525.78C1311.17,525.78 1309.41,524.024 1309.41,521.858C1309.41,519.692 1311.17,517.936 1313.34,517.936Z" style="fill:white;"/>
        </g>
        <g transform="matrix(4.16667,0,0,4.16667,-3285.14,0)">
            <path d="M1325.93,543.711C1327.94,543.711 1329.57,545.341 1329.57,547.353C1329.57,549.364 1327.94,550.994 1325.93,550.994C1323.92,550.994 1322.29,549.364 1322.29,547.353C1322.29,545.341 1323.92,543.711 1325.93,543.711Z" style="fill:white;"/>
        </g>
        <g transform="matrix(4.16667,0,0,4.16667,-3285.14,0)">
            <path d="M1027.89,459.627C1032.06,457.982 1036.78,460.029 1038.42,464.198C1040.07,468.366 1038.02,473.081 1033.85,474.725C1029.68,476.37 1024.97,474.323 1023.32,470.155C1021.68,465.986 1023.72,461.272 1027.89,459.627Z" style="fill:white;"/>
        </g>
        <g transform="matrix(4.16667,0,0,4.16667,-3285.14,0)">
            <path d="M1059.71,435.026C1061.87,434.174 1064.31,435.233 1065.16,437.392C1066.01,439.551 1064.95,441.992 1062.8,442.844C1060.64,443.696 1058.2,442.637 1057.34,440.478C1056.49,438.318 1057.55,435.878 1059.71,435.026Z" style="fill:white;"/>
        </g>
        <g transform="matrix(4.16667,0,0,4.16667,-3285.14,0)">
            <path d="M1074.1,460.067C1075.83,459.386 1077.78,460.234 1078.46,461.961C1079.14,463.688 1078.3,465.64 1076.57,466.322C1074.84,467.003 1072.89,466.155 1072.21,464.429C1071.53,462.702 1072.37,460.749 1074.1,460.067Z" style="fill:white;"/>
        </g>
        <g transform="matrix(4.16667,0,0,4.16667,-3285.14,0)">
            <path d="M1054.16,504.078C1055.31,503.623 1056.61,504.188 1057.07,505.34C1057.52,506.492 1056.96,507.793 1055.81,508.248C1054.65,508.702 1053.35,508.137 1052.9,506.985C1052.44,505.834 1053.01,504.532 1054.16,504.078Z" style="fill:white;"/>
        </g>
        <g transform="matrix(4.16667,0,0,4.16667,-3285.14,0)">
            <path d="M1109.01,500.505C1110.88,499.768 1113,500.686 1113.74,502.557C1114.47,504.427 1113.56,506.543 1111.69,507.281C1109.81,508.019 1107.7,507.101 1106.96,505.231C1106.22,503.359 1107.14,501.244 1109.01,500.505Z" style="fill:white;"/>
        </g>
        <g transform="matrix(4.16667,0,0,4.16667,-3285.14,0)">
            <path d="M1116.88,459.453C1118.17,458.943 1119.64,459.578 1120.15,460.872C1120.66,462.165 1120.02,463.629 1118.73,464.139C1117.43,464.65 1115.97,464.014 1115.46,462.721C1114.95,461.427 1115.58,459.964 1116.88,459.453Z" style="fill:white;"/>
        </g>
        <g transform="matrix(4.16667,0,0,4.16667,-3285.14,0)">
            <path d="M1080.02,401.11C1081.32,400.599 1082.78,401.234 1083.29,402.53C1083.8,403.826 1083.17,405.29 1081.87,405.801C1080.58,406.312 1079.11,405.677 1078.6,404.381C1078.09,403.086 1078.72,401.621 1080.02,401.11Z" style="fill:white;"/>
        </g>
        <g transform="matrix(4.16667,0,0,4.16667,-3285.14,0)">
            <path d="M1108.62,410.306C1110.06,409.738 1111.69,410.445 1112.25,411.884C1112.82,413.323 1112.11,414.95 1110.68,415.518C1109.24,416.085 1107.61,415.379 1107.04,413.94C1106.47,412.501 1107.18,410.874 1108.62,410.306Z" style="fill:white;"/>
        </g>
        <g transform="matrix(4.16667,0,0,4.16667,-3285.14,0)">
            <path d="M1153.07,416.267C1154.94,415.53 1157.05,416.447 1157.79,418.316C1158.52,420.185 1157.61,422.299 1155.74,423.036C1153.87,423.774 1151.76,422.856 1151.02,420.987C1150.28,419.119 1151.2,417.004 1153.07,416.267Z" style="fill:white;"/>
        </g>
        <g transform="matrix(4.16667,0,0,4.16667,-3285.14,0)">
            <path d="M1161.88,499.525C1163.03,499.071 1164.33,499.637 1164.78,500.788C1165.24,501.939 1164.67,503.24 1163.52,503.695C1162.37,504.149 1161.07,503.584 1160.61,502.433C1160.16,501.282 1160.72,499.98 1161.88,499.525Z" style="fill:white;"/>
        </g>
        <g transform="matrix(4.16667,0,0,4.16667,-3285.14,0)">
            <path d="M1168.43,473.446C1170.16,472.765 1172.11,473.612 1172.79,475.338C1173.47,477.062 1172.62,479.013 1170.9,479.693C1169.17,480.374 1167.22,479.528 1166.54,477.803C1165.86,476.077 1166.7,474.127 1168.43,473.446Z" style="fill:white;"/>
        </g>
        <g transform="matrix(4.16667,0,0,4.16667,-3285.14,0)">
            <path d="M1117.81,377.165C1118.96,376.711 1120.26,377.276 1120.71,378.428C1121.17,379.579 1120.6,380.88 1119.45,381.334C1118.3,381.789 1117,381.223 1116.54,380.073C1116.09,378.921 1116.65,377.619 1117.81,377.165Z" style="fill:white;"/>
        </g>
        <g transform="matrix(4.16667,0,0,4.16667,-3285.14,0)">
            <path d="M1149.89,375.349C1152.33,374.384 1155.1,375.585 1156.06,378.032C1157.03,380.479 1155.83,383.245 1153.38,384.21C1150.93,385.176 1148.17,383.974 1147.2,381.529C1146.24,379.082 1147.44,376.315 1149.89,375.349Z" style="fill:white;"/>
        </g>
        <g transform="matrix(4.16667,0,0,4.16667,-3285.14,0)">
            <path d="M1181.64,411.61C1184.09,410.645 1186.86,411.846 1187.82,414.292C1188.79,416.739 1187.59,419.506 1185.14,420.471C1182.69,421.436 1179.93,420.235 1178.96,417.789C1178,415.343 1179.2,412.575 1181.64,411.61Z" style="fill:white;"/>
        </g>
        <g transform="matrix(4.16667,0,0,4.16667,-3285.14,0)">
            <path d="M1153.39,441.43C1155.41,440.635 1157.69,441.624 1158.48,443.639C1159.28,445.654 1158.29,447.932 1156.27,448.727C1154.26,449.522 1151.98,448.533 1151.19,446.518C1150.39,444.503 1151.38,442.225 1153.39,441.43Z" style="fill:white;"/>
        </g>
        <g transform="matrix(4.16667,0,0,4.16667,-3285.14,0)">
            <path d="M1111.78,432.556C1114.37,431.535 1117.3,432.806 1118.32,435.394C1119.34,437.983 1118.07,440.911 1115.48,441.932C1112.9,442.953 1109.97,441.682 1108.95,439.094C1107.92,436.506 1109.2,433.578 1111.78,432.556Z" style="fill:white;"/>
        </g>
        <g transform="matrix(4.16667,0,0,4.16667,-3285.14,0)">
            <path d="M1063.13,545.114C1064.85,544.433 1066.8,545.28 1067.49,547.006C1068.17,548.73 1067.32,550.681 1065.59,551.361C1063.87,552.042 1061.92,551.196 1061.24,549.471C1060.56,547.745 1061.4,545.795 1063.13,545.114Z" style="fill:white;"/>
        </g>
        <g transform="matrix(4.16667,0,0,4.16667,-3285.14,0)">
            <path d="M1113.06,548.903C1114.36,548.392 1115.82,549.027 1116.34,550.323C1116.85,551.618 1116.21,553.083 1114.92,553.594C1113.62,554.105 1112.16,553.469 1111.64,552.174C1111.13,550.879 1111.77,549.414 1113.06,548.903Z" style="fill:white;"/>
        </g>
        <g transform="matrix(4.16667,0,0,4.16667,-3285.14,0)">
            <path d="M1183.04,544.785C1184.33,544.274 1185.8,544.91 1186.31,546.202C1186.82,547.496 1186.18,548.96 1184.89,549.47C1183.6,549.98 1182.13,549.345 1181.62,548.051C1181.11,546.758 1181.75,545.295 1183.04,544.785Z" style="fill:white;"/>
        </g>
        <g transform="matrix(4.16667,0,0,4.16667,-3285.14,0)">
            <path d="M1212.58,491.564C1213.88,491.054 1215.34,491.689 1215.85,492.982C1216.36,494.276 1215.73,495.739 1214.43,496.249C1213.14,496.76 1211.68,496.124 1211.17,494.831C1210.66,493.538 1211.29,492.074 1212.58,491.564Z" style="fill:white;"/>
        </g>
        <g transform="matrix(4.16667,0,0,4.16667,-3285.14,0)">
            <path d="M1211.11,448.174C1212.4,447.663 1213.86,448.299 1214.38,449.592C1214.89,450.886 1214.25,452.349 1212.96,452.86C1211.66,453.37 1210.2,452.735 1209.69,451.441C1209.18,450.148 1209.81,448.684 1211.11,448.174Z" style="fill:white;"/>
        </g>
        <g transform="matrix(4.16667,0,0,4.16667,-3285.14,0)">
            <path d="M1183.88,446.266C1185.18,445.756 1186.64,446.391 1187.15,447.687C1187.66,448.982 1187.03,450.446 1185.73,450.957C1184.44,451.468 1182.97,450.833 1182.46,449.538C1181.95,448.242 1182.59,446.778 1183.88,446.266Z" style="fill:white;"/>
        </g>
        <g transform="matrix(4.16667,0,0,4.16667,-3285.14,0)">
            <path d="M1195.12,406.893C1197.14,406.098 1199.42,407.087 1200.21,409.102C1201.01,411.117 1200.02,413.395 1198,414.191C1195.99,414.986 1193.71,413.997 1192.91,411.982C1192.12,409.966 1193.11,407.688 1195.12,406.893Z" style="fill:white;"/>
        </g>
        <g transform="matrix(4.16667,0,0,4.16667,-3285.14,0)">
            <path d="M1171.97,387.115C1172.69,386.832 1173.51,387.185 1173.79,387.905C1174.07,388.623 1173.72,389.437 1173,389.721C1172.28,390.005 1171.47,389.651 1171.18,388.933C1170.9,388.213 1171.25,387.399 1171.97,387.115Z" style="fill:white;"/>
        </g>
        <g transform="matrix(4.16667,0,0,4.16667,-3285.14,0)">
            <path d="M1137.79,395.784C1139.52,395.103 1141.47,395.95 1142.15,397.677C1142.83,399.404 1141.98,401.357 1140.26,402.038C1138.53,402.719 1136.58,401.872 1135.9,400.145C1135.22,398.418 1136.06,396.465 1137.79,395.784Z" style="fill:white;"/>
        </g>
        <g transform="matrix(4.16667,0,0,4.16667,-3285.14,0)">
            <path d="M1050.34,407.583C1051.8,407.009 1053.44,407.724 1054.02,409.179C1054.59,410.635 1053.88,412.281 1052.42,412.856C1050.97,413.43 1049.32,412.715 1048.75,411.26C1048.17,409.804 1048.89,408.158 1050.34,407.583Z" style="fill:white;"/>
        </g>
        <g transform="matrix(4.16667,0,0,4.16667,-3285.14,0)">
            <path d="M1024.41,424.861C1025.99,424.236 1027.78,425.013 1028.41,426.596C1029.03,428.18 1028.25,429.969 1026.67,430.594C1025.09,431.219 1023.3,430.442 1022.67,428.859C1022.05,427.275 1022.82,425.485 1024.41,424.861Z" style="fill:white;"/>
        </g>
        <g transform="matrix(4.16667,0,0,4.16667,-3285.14,0)">
            <path d="M1007.81,453.698C1009.82,452.903 1012.1,453.892 1012.9,455.907C1013.69,457.922 1012.7,460.2 1010.69,460.995C1008.67,461.79 1006.39,460.801 1005.6,458.786C1004.8,456.771 1005.79,454.493 1007.81,453.698Z" style="fill:white;"/>
        </g>
        <g transform="matrix(4.16667,0,0,4.16667,-3285.14,0)">
            <path d="M998.089,490.061C1000.39,489.152 1003,490.283 1003.9,492.586C1004.81,494.888 1003.68,497.492 1001.38,498.4C999.077,499.309 996.473,498.178 995.565,495.876C994.656,493.573 995.786,490.969 998.089,490.061Z" style="fill:white;"/>
        </g>
        <g transform="matrix(4.16667,0,0,4.16667,-3285.14,0)">
            <path d="M1014.77,526.246C1016.5,525.565 1018.45,526.413 1019.13,528.14C1019.81,529.866 1018.97,531.819 1017.24,532.5C1015.51,533.182 1013.56,532.334 1012.88,530.608C1012.2,528.88 1013.05,526.928 1014.77,526.246Z" style="fill:white;"/>
        </g>
        <g transform="matrix(4.16667,0,0,4.16667,-3285.14,0)">
            <path d="M1026.03,555.538C1026.74,555.254 1027.56,555.607 1027.84,556.326C1028.12,557.045 1027.77,557.858 1027.05,558.142C1026.33,558.425 1025.52,558.072 1025.24,557.353C1024.95,556.634 1025.31,555.822 1026.03,555.538Z" style="fill:white;"/>
        </g>
        <g transform="matrix(4.16667,0,0,4.16667,-3285.14,0)">
            <path d="M1065.88,571.137C1067.46,570.513 1069.25,571.289 1069.87,572.87C1070.49,574.452 1069.72,576.241 1068.14,576.865C1066.55,577.488 1064.77,576.712 1064.14,575.13C1063.52,573.549 1064.29,571.761 1065.88,571.137Z" style="fill:white;"/>
        </g>
        <g transform="matrix(4.16667,0,0,4.16667,-3285.14,0)">
            <path d="M1088.89,537.961C1090.19,537.45 1091.65,538.086 1092.16,539.381C1092.67,540.677 1092.04,542.141 1090.74,542.652C1089.45,543.163 1087.98,542.528 1087.47,541.232C1086.96,539.937 1087.6,538.472 1088.89,537.961Z" style="fill:white;"/>
        </g>
        <g transform="matrix(4.16667,0,0,4.16667,-3285.14,0)">
            <path d="M1078.7,513.669C1080,513.158 1081.46,513.794 1081.98,515.089C1082.49,516.385 1081.85,517.849 1080.56,518.361C1079.26,518.872 1077.8,518.236 1077.28,516.94C1076.77,515.645 1077.41,514.18 1078.7,513.669Z" style="fill:white;"/>
        </g>
        <g transform="matrix(4.16667,0,0,4.16667,-3285.14,0)">
            <path d="M1076.49,489.848C1078.05,489.231 1079.82,489.999 1080.43,491.562C1081.05,493.125 1080.28,494.893 1078.72,495.51C1077.16,496.126 1075.39,495.359 1074.77,493.796C1074.15,492.233 1074.92,490.465 1076.49,489.848Z" style="fill:white;"/>
        </g>
        <g transform="matrix(4.16667,0,0,4.16667,-3285.14,0)">
            <path d="M1102.51,477.171C1104.52,476.376 1106.8,477.364 1107.59,479.377C1108.38,481.39 1107.4,483.665 1105.38,484.46C1103.37,485.254 1101.1,484.266 1100.3,482.253C1099.51,480.24 1100.5,477.965 1102.51,477.171Z" style="fill:white;"/>
        </g>
        <g transform="matrix(4.16667,0,0,4.16667,-3285.14,0)">
            <path d="M1139.16,489.214C1141.17,488.419 1143.45,489.408 1144.24,491.424C1145.04,493.438 1144.05,495.716 1142.03,496.511C1140.02,497.306 1137.74,496.317 1136.95,494.303C1136.15,492.288 1137.14,490.009 1139.16,489.214Z" style="fill:white;"/>
        </g>
        <g transform="matrix(4.16667,0,0,4.16667,-3285.14,0)">
            <path d="M1128.73,542.117C1127.58,542.572 1127.02,543.874 1127.47,545.025C1127.93,546.177 1129.23,546.742 1130.38,546.288C1131.53,545.833 1132.1,544.531 1131.64,543.38C1131.19,542.228 1129.89,541.663 1128.73,542.117Z" style="fill:white;"/>
        </g>
        <g transform="matrix(4.16667,0,0,4.16667,-3285.14,0)">
            <path d="M1128.76,513.194C1130.78,512.399 1133.05,513.388 1133.85,515.403C1134.64,517.417 1133.65,519.696 1131.64,520.49C1129.63,521.286 1127.35,520.297 1126.55,518.282C1125.76,516.267 1126.75,513.989 1128.76,513.194Z" style="fill:white;"/>
        </g>
        <g transform="matrix(4.16667,0,0,4.16667,-3285.14,0)">
            <path d="M1149.94,532.548C1151.81,531.81 1153.92,532.728 1154.66,534.599C1155.4,536.47 1154.48,538.585 1152.61,539.323C1150.74,540.062 1148.62,539.143 1147.88,537.273C1147.15,535.402 1148.06,533.286 1149.94,532.548Z" style="fill:white;"/>
        </g>
        <g transform="matrix(4.16667,0,0,4.16667,-3285.14,0)">
            <path d="M1239.17,296.1C1243.65,296.1 1247.29,299.734 1247.29,304.216C1247.29,308.698 1243.65,312.332 1239.17,312.332C1234.69,312.332 1231.05,308.698 1231.05,304.216C1231.05,299.734 1234.69,296.1 1239.17,296.1Z" style="fill:white;"/>
        </g>
        <g transform="matrix(4.16667,0,0,4.16667,-3285.14,0)">
            <path d="M1277.8,284.894C1280.12,284.894 1282,286.776 1282,289.097C1282,291.418 1280.12,293.299 1277.8,293.299C1275.47,293.299 1273.59,291.418 1273.59,289.097C1273.59,286.776 1275.47,284.894 1277.8,284.894Z" style="fill:white;"/>
        </g>
        <g transform="matrix(4.16667,0,0,4.16667,-3285.14,0)">
            <path d="M1281.99,313.471C1283.85,313.471 1285.35,314.976 1285.35,316.833C1285.35,318.689 1283.85,320.194 1281.99,320.194C1280.14,320.194 1278.63,318.689 1278.63,316.833C1278.63,314.976 1280.14,313.471 1281.99,313.471Z" style="fill:white;"/>
        </g>
        <g transform="matrix(4.16667,0,0,4.16667,-3285.14,0)">
            <path d="M1247.29,347.09C1248.53,347.09 1249.53,348.093 1249.53,349.331C1249.53,350.569 1248.53,351.573 1247.29,351.573C1246.05,351.573 1245.05,350.569 1245.05,349.331C1245.05,348.093 1246.05,347.09 1247.29,347.09Z" style="fill:white;"/>
        </g>
        <g transform="matrix(4.16667,0,0,4.16667,-3285.14,0)">
            <path d="M1299.62,363.9C1301.63,363.9 1303.26,365.531 1303.26,367.542C1303.26,369.553 1301.63,371.184 1299.62,371.184C1297.61,371.184 1295.98,369.553 1295.98,367.542C1295.98,365.531 1297.61,363.9 1299.62,363.9Z" style="fill:white;"/>
        </g>
        <g transform="matrix(4.16667,0,0,4.16667,-3285.14,0)">
            <path d="M1322.01,328.6C1323.4,328.6 1324.53,329.728 1324.53,331.119C1324.53,332.509 1323.4,333.638 1322.01,333.638C1320.62,333.638 1319.49,332.509 1319.49,331.119C1319.49,329.728 1320.62,328.6 1322.01,328.6Z" style="fill:white;"/>
        </g>
        <g transform="matrix(4.16667,0,0,4.16667,-3285.14,0)">
            <path d="M1309.14,260.8C1310.53,260.8 1311.66,261.929 1311.66,263.322C1311.66,264.715 1310.53,265.843 1309.14,265.843C1307.74,265.843 1306.61,264.715 1306.61,263.322C1306.61,261.929 1307.74,260.8 1309.14,260.8Z" style="fill:white;"/>
        </g>
        <g transform="matrix(4.16667,0,0,4.16667,-3285.14,0)">
            <path d="M1332.36,279.852C1333.91,279.852 1335.17,281.106 1335.17,282.654C1335.17,284.2 1333.91,285.454 1332.36,285.454C1330.82,285.454 1329.56,284.2 1329.56,282.654C1329.56,281.106 1330.82,279.852 1332.36,279.852Z" style="fill:white;"/>
        </g>
        <g transform="matrix(4.16667,0,0,4.16667,-3285.14,0)">
            <path d="M1371.52,301.71C1373.53,301.71 1375.16,303.34 1375.16,305.349C1375.16,307.358 1373.53,308.988 1371.52,308.988C1369.51,308.988 1367.88,307.358 1367.88,305.349C1367.88,303.34 1369.51,301.71 1371.52,301.71Z" style="fill:white;"/>
        </g>
        <g transform="matrix(4.16667,0,0,4.16667,-3285.14,0)">
            <path d="M1349.16,382.391C1350.39,382.391 1351.4,383.395 1351.4,384.632C1351.4,385.869 1350.39,386.873 1349.16,386.873C1347.92,386.873 1346.91,385.869 1346.91,384.632C1346.91,383.395 1347.92,382.391 1349.16,382.391Z" style="fill:white;"/>
        </g>
        <g transform="matrix(4.16667,0,0,4.16667,-3285.14,0)">
            <path d="M1364.83,360.538C1366.68,360.538 1368.18,362.041 1368.18,363.896C1368.18,365.75 1366.68,367.254 1364.83,367.254C1362.97,367.254 1361.47,365.75 1361.47,363.896C1361.47,362.041 1362.97,360.538 1364.83,360.538Z" style="fill:white;"/>
        </g>
        <g transform="matrix(4.16667,0,0,4.16667,-3285.14,0)">
            <path d="M1353.07,252.396C1354.31,252.396 1355.31,253.399 1355.31,254.637C1355.31,255.874 1354.31,256.878 1353.07,256.878C1351.84,256.878 1350.83,255.874 1350.83,254.637C1350.83,253.399 1351.84,252.396 1353.07,252.396Z" style="fill:white;"/>
        </g>
        <g transform="matrix(4.16667,0,0,4.16667,-3285.14,0)">
            <path d="M1383.58,262.481C1386.21,262.481 1388.34,264.614 1388.34,267.244C1388.34,269.874 1386.21,272.007 1383.58,272.007C1380.95,272.007 1378.82,269.874 1378.82,267.244C1378.82,264.614 1380.95,262.481 1383.58,262.481Z" style="fill:white;"/>
        </g>
        <g transform="matrix(4.16667,0,0,4.16667,-3285.14,0)">
            <path d="M1399.81,307.867C1402.44,307.867 1404.58,310 1404.58,312.63C1404.58,315.26 1402.44,317.393 1399.81,317.393C1397.18,317.393 1395.05,315.26 1395.05,312.63C1395.05,310 1397.18,307.867 1399.81,307.867Z" style="fill:white;"/>
        </g>
        <g transform="matrix(4.16667,0,0,4.16667,-3285.14,0)">
            <path d="M1362.59,325.238C1364.76,325.238 1366.51,326.994 1366.51,329.16C1366.51,331.326 1364.76,333.082 1362.59,333.082C1360.42,333.082 1358.67,331.326 1358.67,329.16C1358.67,326.994 1360.42,325.238 1362.59,325.238Z" style="fill:white;"/>
        </g>
        <g transform="matrix(4.16667,0,0,4.16667,-3285.14,0)">
            <path d="M1327.14,301.71C1329.92,301.71 1332.18,303.968 1332.18,306.75C1332.18,309.533 1329.92,311.79 1327.14,311.79C1324.36,311.79 1322.1,309.533 1322.1,306.75C1322.1,303.968 1324.36,301.71 1327.14,301.71Z" style="fill:white;"/>
        </g>
        <g transform="matrix(4.16667,0,0,4.16667,-3285.14,0)">
            <path d="M1240.57,388.554C1242.42,388.554 1243.93,390.057 1243.93,391.912C1243.93,393.766 1242.42,395.27 1240.57,395.27C1238.71,395.27 1237.21,393.766 1237.21,391.912C1237.21,390.057 1238.71,388.554 1240.57,388.554Z" style="fill:white;"/>
        </g>
        <g transform="matrix(4.16667,0,0,4.16667,-3285.14,0)">
            <path d="M1285.63,410.406C1287.02,410.406 1288.15,411.535 1288.15,412.928C1288.15,414.321 1287.02,415.45 1285.63,415.45C1284.24,415.45 1283.11,414.321 1283.11,412.928C1283.11,411.535 1284.24,410.406 1285.63,410.406Z" style="fill:white;"/>
        </g>
        <g transform="matrix(4.16667,0,0,4.16667,-3285.14,0)">
            <path d="M1352.23,432.26C1353.62,432.26 1354.75,433.388 1354.75,434.778C1354.75,436.169 1353.62,437.296 1352.23,437.296C1350.84,437.296 1349.71,436.169 1349.71,434.778C1349.71,433.388 1350.84,432.26 1352.23,432.26Z" style="fill:white;"/>
        </g>
        <g transform="matrix(4.16667,0,0,4.16667,-3285.14,0)">
            <path d="M1399.25,393.597C1400.64,393.597 1401.77,394.725 1401.77,396.115C1401.77,397.506 1400.64,398.634 1399.25,398.634C1397.86,398.634 1396.73,397.506 1396.73,396.115C1396.73,394.725 1397.86,393.597 1399.25,393.597Z" style="fill:white;"/>
        </g>
        <g transform="matrix(4.16667,0,0,4.16667,-3285.14,0)">
            <path d="M1413.8,352.693C1415.19,352.693 1416.32,353.822 1416.32,355.212C1416.32,356.603 1415.19,357.731 1413.8,357.731C1412.41,357.731 1411.28,356.603 1411.28,355.212C1411.28,353.822 1412.41,352.693 1413.8,352.693Z" style="fill:white;"/>
        </g>
        <g transform="matrix(4.16667,0,0,4.16667,-3285.14,0)">
            <path d="M1389.18,340.927C1390.57,340.927 1391.7,342.056 1391.7,343.448C1391.7,344.84 1390.57,345.969 1389.18,345.969C1387.78,345.969 1386.65,344.84 1386.65,343.448C1386.65,342.056 1387.78,340.927 1389.18,340.927Z" style="fill:white;"/>
        </g>
        <g transform="matrix(4.16667,0,0,4.16667,-3285.14,0)">
            <path d="M1414.08,308.427C1416.25,308.427 1418.01,310.184 1418.01,312.35C1418.01,314.516 1416.25,316.272 1414.08,316.272C1411.92,316.272 1410.16,314.516 1410.16,312.35C1410.16,310.184 1411.92,308.427 1414.08,308.427Z" style="fill:white;"/>
        </g>
        <g transform="matrix(4.16667,0,0,4.16667,-3285.14,0)">
            <path d="M1399.81,281.533C1400.58,281.533 1401.21,282.16 1401.21,282.934C1401.21,283.706 1400.58,284.334 1399.81,284.334C1399.03,284.334 1398.41,283.706 1398.41,282.934C1398.41,282.16 1399.03,281.533 1399.81,281.533Z" style="fill:white;"/>
        </g>
        <g transform="matrix(4.16667,0,0,4.16667,-3285.14,0)">
            <path d="M1364.83,277.05C1366.69,277.05 1368.19,278.555 1368.19,280.412C1368.19,282.268 1366.69,283.773 1364.83,283.773C1362.97,283.773 1361.47,282.268 1361.47,280.412C1361.47,278.555 1362.97,277.05 1364.83,277.05Z" style="fill:white;"/>
        </g>
        <g transform="matrix(4.16667,0,0,4.16667,-3285.14,0)">
            <path d="M1279.15,255.929C1280.72,255.929 1281.99,257.198 1281.99,258.763C1281.99,260.328 1280.72,261.597 1279.15,261.597C1277.59,261.597 1276.32,260.328 1276.32,258.763C1276.32,257.198 1277.59,255.929 1279.15,255.929Z" style="fill:white;"/>
        </g>
        <g transform="matrix(4.16667,0,0,4.16667,-3285.14,0)">
            <path d="M1248.69,262.481C1250.39,262.481 1251.77,263.861 1251.77,265.563C1251.77,267.265 1250.39,268.645 1248.69,268.645C1246.99,268.645 1245.61,267.265 1245.61,265.563C1245.61,263.861 1246.99,262.481 1248.69,262.481Z" style="fill:white;"/>
        </g>
        <g transform="matrix(4.16667,0,0,4.16667,-3285.14,0)">
            <path d="M1222.66,283.213C1224.83,283.213 1226.59,284.969 1226.59,287.135C1226.59,289.302 1224.83,291.058 1222.66,291.058C1220.5,291.058 1218.74,289.302 1218.74,287.135C1218.74,284.969 1220.5,283.213 1222.66,283.213Z" style="fill:white;"/>
        </g>
        <g transform="matrix(4.16667,0,0,4.16667,-3285.14,0)">
            <path d="M1200.28,313.471C1202.75,313.471 1204.76,315.478 1204.76,317.954C1204.76,320.429 1202.75,322.436 1200.28,322.436C1197.8,322.436 1195.79,320.429 1195.79,317.954C1195.79,315.478 1197.8,313.471 1200.28,313.471Z" style="fill:white;"/>
        </g>
        <g transform="matrix(4.16667,0,0,4.16667,-3285.14,0)">
            <path d="M1202.51,353.254C1204.37,353.254 1205.87,354.759 1205.87,356.616C1205.87,358.472 1204.37,359.977 1202.51,359.977C1200.66,359.977 1199.15,358.472 1199.15,356.616C1199.15,354.759 1200.66,353.254 1202.51,353.254Z" style="fill:white;"/>
        </g>
        <g transform="matrix(4.16667,0,0,4.16667,-3285.14,0)">
            <path d="M1202.23,384.631C1203,384.631 1203.63,385.258 1203.63,386.03C1203.63,386.804 1203,387.431 1202.23,387.431C1201.46,387.431 1200.83,386.804 1200.83,386.03C1200.83,385.258 1201.46,384.631 1202.23,384.631Z" style="fill:white;"/>
        </g>
        <g transform="matrix(4.16667,0,0,4.16667,-3285.14,0)">
            <path d="M1233.57,413.769C1235.27,413.769 1236.65,415.147 1236.65,416.847C1236.65,418.547 1235.27,419.926 1233.57,419.926C1231.87,419.926 1230.49,418.547 1230.49,416.847C1230.49,415.147 1231.87,413.769 1233.57,413.769Z" style="fill:white;"/>
        </g>
        <g transform="matrix(4.16667,0,0,4.16667,-3285.14,0)">
            <path d="M1267.16,391.356C1268.55,391.356 1269.68,392.485 1269.68,393.877C1269.68,395.27 1268.55,396.399 1267.16,396.399C1265.77,396.399 1264.64,395.27 1264.64,393.877C1264.64,392.485 1265.77,391.356 1267.16,391.356Z" style="fill:white;"/>
        </g>
        <g transform="matrix(4.16667,0,0,4.16667,-3285.14,0)">
            <path d="M1266.6,365.021C1267.99,365.021 1269.12,366.149 1269.12,367.542C1269.12,368.935 1267.99,370.064 1266.6,370.064C1265.21,370.064 1264.08,368.935 1264.08,367.542C1264.08,366.149 1265.21,365.021 1266.6,365.021Z" style="fill:white;"/>
        </g>
        <g transform="matrix(4.16667,0,0,4.16667,-3285.14,0)">
            <path d="M1273.28,342.048C1274.96,342.048 1276.32,343.41 1276.32,345.091C1276.32,346.771 1274.96,348.134 1273.28,348.134C1271.6,348.134 1270.23,346.771 1270.23,345.091C1270.23,343.41 1271.6,342.048 1273.28,342.048Z" style="fill:white;"/>
        </g>
        <g transform="matrix(4.16667,0,0,4.16667,-3285.14,0)">
            <path d="M1302.14,339.806C1304.3,339.806 1306.06,341.56 1306.06,343.724C1306.06,345.888 1304.3,347.642 1302.14,347.642C1299.97,347.642 1298.22,345.888 1298.22,343.724C1298.22,341.56 1299.97,339.806 1302.14,339.806Z" style="fill:white;"/>
        </g>
        <g transform="matrix(4.16667,0,0,4.16667,-3285.14,0)">
            <path d="M1331.81,364.46C1333.97,364.46 1335.73,366.216 1335.73,368.383C1335.73,370.548 1333.97,372.304 1331.81,372.304C1329.64,372.304 1327.88,370.548 1327.88,368.383C1327.88,366.216 1329.64,364.46 1331.81,364.46Z" style="fill:white;"/>
        </g>
        <g transform="matrix(4.16667,0,0,4.16667,-3285.14,0)">
            <path d="M1302.7,409.846C1301.46,409.846 1300.45,410.849 1300.45,412.087C1300.45,413.325 1301.46,414.329 1302.7,414.329C1303.93,414.329 1304.94,413.325 1304.94,412.087C1304.94,410.849 1303.93,409.846 1302.7,409.846Z" style="fill:white;"/>
        </g>
        <g transform="matrix(4.16667,0,0,4.16667,-3285.14,0)">
            <path d="M1313.34,382.951C1315.5,382.951 1317.26,384.708 1317.26,386.874C1317.26,389.039 1315.5,390.796 1313.34,390.796C1311.17,390.796 1309.41,389.039 1309.41,386.874C1309.41,384.708 1311.17,382.951 1313.34,382.951Z" style="fill:white;"/>
        </g>
        <g transform="matrix(4.16667,0,0,4.16667,-3285.14,0)">
            <path d="M1325.93,408.726C1327.94,408.726 1329.57,410.357 1329.57,412.369C1329.57,414.379 1327.94,416.01 1325.93,416.01C1323.92,416.01 1322.29,414.379 1322.29,412.369C1322.29,410.357 1323.92,408.726 1325.93,408.726Z" style="fill:white;"/>
        </g>
        <g transform="matrix(4.16667,0,0,4.16667,-3285.14,0)">
            <path d="M1027.89,324.642C1032.06,322.998 1036.78,325.044 1038.42,329.213C1040.07,333.382 1038.02,338.096 1033.85,339.741C1029.68,341.386 1024.97,339.339 1023.32,335.171C1021.68,331.002 1023.72,326.287 1027.89,324.642Z" style="fill:white;"/>
        </g>
        <g transform="matrix(4.16667,0,0,4.16667,-3285.14,0)">
            <path d="M1059.71,300.041C1061.87,299.189 1064.31,300.249 1065.16,302.408C1066.01,304.567 1064.95,307.008 1062.8,307.86C1060.64,308.712 1058.2,307.652 1057.34,305.493C1056.49,303.334 1057.55,300.893 1059.71,300.041Z" style="fill:white;"/>
        </g>
        <g transform="matrix(4.16667,0,0,4.16667,-3285.14,0)">
            <path d="M1074.1,325.083C1075.83,324.402 1077.78,325.25 1078.46,326.977C1079.14,328.703 1078.3,330.656 1076.57,331.337C1074.84,332.019 1072.89,331.171 1072.21,329.445C1071.53,327.717 1072.37,325.765 1074.1,325.083Z" style="fill:white;"/>
        </g>
        <g transform="matrix(4.16667,0,0,4.16667,-3285.14,0)">
            <path d="M1054.16,369.093C1055.31,368.639 1056.61,369.204 1057.07,370.356C1057.52,371.507 1056.96,372.809 1055.81,373.263C1054.65,373.718 1053.35,373.152 1052.9,372.001C1052.44,370.849 1053.01,369.548 1054.16,369.093Z" style="fill:white;"/>
        </g>
        <g transform="matrix(4.16667,0,0,4.16667,-3285.14,0)">
            <path d="M1109.01,365.521C1110.88,364.783 1113,365.702 1113.74,367.573C1114.47,369.443 1113.56,371.559 1111.69,372.297C1109.81,373.035 1107.7,372.117 1106.96,370.246C1106.22,368.375 1107.14,366.259 1109.01,365.521Z" style="fill:white;"/>
        </g>
        <g transform="matrix(4.16667,0,0,4.16667,-3285.14,0)">
            <path d="M1116.88,324.469C1118.17,323.958 1119.64,324.593 1120.15,325.887C1120.66,327.181 1120.02,328.645 1118.73,329.155C1117.43,329.665 1115.97,329.03 1115.46,327.736C1114.95,326.443 1115.58,324.979 1116.88,324.469Z" style="fill:white;"/>
        </g>
        <g transform="matrix(4.16667,0,0,4.16667,-3285.14,0)">
            <path d="M1080.02,266.125C1081.32,265.614 1082.78,266.25 1083.29,267.546C1083.8,268.841 1083.17,270.306 1081.87,270.817C1080.58,271.328 1079.11,270.692 1078.6,269.397C1078.09,268.101 1078.72,266.637 1080.02,266.125Z" style="fill:white;"/>
        </g>
        <g transform="matrix(4.16667,0,0,4.16667,-3285.14,0)">
            <path d="M1108.62,275.321C1110.06,274.754 1111.69,275.46 1112.25,276.9C1112.82,278.338 1112.11,279.965 1110.68,280.533C1109.24,281.101 1107.61,280.395 1107.04,278.956C1106.47,277.517 1107.18,275.89 1108.62,275.321Z" style="fill:white;"/>
        </g>
        <g transform="matrix(4.16667,0,0,4.16667,-3285.14,0)">
            <path d="M1153.07,281.282C1154.94,280.545 1157.05,281.463 1157.79,283.332C1158.52,285.2 1157.61,287.315 1155.74,288.052C1153.87,288.789 1151.76,287.871 1151.02,286.003C1150.28,284.134 1151.2,282.02 1153.07,281.282Z" style="fill:white;"/>
        </g>
        <g transform="matrix(4.16667,0,0,4.16667,-3285.14,0)">
            <path d="M1161.88,364.541C1163.03,364.087 1164.33,364.652 1164.78,365.804C1165.24,366.955 1164.67,368.256 1163.52,368.71C1162.37,369.165 1161.07,368.599 1160.61,367.449C1160.16,366.297 1160.72,364.995 1161.88,364.541Z" style="fill:white;"/>
        </g>
        <g transform="matrix(4.16667,0,0,4.16667,-3285.14,0)">
            <path d="M1168.43,338.462C1170.16,337.781 1172.11,338.628 1172.79,340.353C1173.47,342.078 1172.62,344.028 1170.9,344.709C1169.17,345.39 1167.22,344.543 1166.54,342.818C1165.86,341.093 1166.7,339.142 1168.43,338.462Z" style="fill:white;"/>
        </g>
        <g transform="matrix(4.16667,0,0,4.16667,-3285.14,0)">
            <path d="M1117.81,242.181C1118.96,241.727 1120.26,242.292 1120.71,243.443C1121.17,244.594 1120.6,245.896 1119.45,246.35C1118.3,246.804 1117,246.239 1116.54,245.088C1116.09,243.937 1116.65,242.635 1117.81,242.181Z" style="fill:white;"/>
        </g>
        <g transform="matrix(4.16667,0,0,4.16667,-3285.14,0)">
            <path d="M1149.89,240.365C1152.33,239.4 1155.1,240.601 1156.06,243.048C1157.03,245.494 1155.83,248.26 1153.38,249.226C1150.93,250.191 1148.17,248.99 1147.2,246.544C1146.24,244.097 1147.44,241.331 1149.89,240.365Z" style="fill:white;"/>
        </g>
        <g transform="matrix(4.16667,0,0,4.16667,-3285.14,0)">
            <path d="M1181.64,276.625C1184.09,275.66 1186.86,276.862 1187.82,279.308C1188.79,281.754 1187.59,284.521 1185.14,285.487C1182.69,286.452 1179.93,285.25 1178.96,282.804C1178,280.358 1179.2,277.591 1181.64,276.625Z" style="fill:white;"/>
        </g>
        <g transform="matrix(4.16667,0,0,4.16667,-3285.14,0)">
            <path d="M1153.39,306.446C1155.41,305.651 1157.69,306.64 1158.48,308.655C1159.28,310.669 1158.29,312.947 1156.27,313.742C1154.26,314.537 1151.98,313.548 1151.19,311.534C1150.39,309.519 1151.38,307.241 1153.39,306.446Z" style="fill:white;"/>
        </g>
        <g transform="matrix(4.16667,0,0,4.16667,-3285.14,0)">
            <path d="M1111.78,297.572C1114.37,296.551 1117.3,297.822 1118.32,300.41C1119.34,302.998 1118.07,305.926 1115.48,306.948C1112.9,307.969 1109.97,306.698 1108.95,304.109C1107.92,301.521 1109.2,298.593 1111.78,297.572Z" style="fill:white;"/>
        </g>
        <g transform="matrix(4.16667,0,0,4.16667,-3285.14,0)">
            <path d="M1063.13,410.129C1064.85,409.449 1066.8,410.296 1067.49,412.021C1068.17,413.746 1067.32,415.697 1065.59,416.377C1063.87,417.058 1061.92,416.211 1061.24,414.486C1060.56,412.761 1061.4,410.81 1063.13,410.129Z" style="fill:white;"/>
        </g>
        <g transform="matrix(4.16667,0,0,4.16667,-3285.14,0)">
            <path d="M1113.06,413.918C1114.36,413.407 1115.82,414.043 1116.34,415.338C1116.85,416.634 1116.21,418.098 1114.92,418.61C1113.62,419.121 1112.16,418.485 1111.64,417.19C1111.13,415.894 1111.77,414.429 1113.06,413.918Z" style="fill:white;"/>
        </g>
        <g transform="matrix(4.16667,0,0,4.16667,-3285.14,0)">
            <path d="M1183.04,409.8C1184.33,409.29 1185.8,409.925 1186.31,411.218C1186.82,412.512 1186.18,413.975 1184.89,414.486C1183.6,414.996 1182.13,414.361 1181.62,413.067C1181.11,411.774 1181.75,410.31 1183.04,409.8Z" style="fill:white;"/>
        </g>
        <g transform="matrix(4.16667,0,0,4.16667,-3285.14,0)">
            <path d="M1212.58,356.58C1213.88,356.069 1215.34,356.704 1215.85,357.998C1216.36,359.291 1215.73,360.754 1214.43,361.265C1213.14,361.775 1211.68,361.14 1211.17,359.846C1210.66,358.553 1211.29,357.09 1212.58,356.58Z" style="fill:white;"/>
        </g>
        <g transform="matrix(4.16667,0,0,4.16667,-3285.14,0)">
            <path d="M1211.11,313.189C1212.4,312.679 1213.86,313.314 1214.38,314.608C1214.89,315.902 1214.25,317.365 1212.96,317.875C1211.66,318.386 1210.2,317.751 1209.69,316.457C1209.18,315.163 1209.81,313.7 1211.11,313.189Z" style="fill:white;"/>
        </g>
        <g transform="matrix(4.16667,0,0,4.16667,-3285.14,0)">
            <path d="M1183.88,311.282C1185.18,310.771 1186.64,311.407 1187.15,312.702C1187.66,313.997 1187.03,315.462 1185.73,315.973C1184.44,316.484 1182.97,315.848 1182.46,314.553C1181.95,313.258 1182.59,311.793 1183.88,311.282Z" style="fill:white;"/>
        </g>
        <g transform="matrix(4.16667,0,0,4.16667,-3285.14,0)">
            <path d="M1195.12,271.909C1197.14,271.113 1199.42,272.102 1200.21,274.118C1201.01,276.133 1200.02,278.411 1198,279.206C1195.99,280.001 1193.71,279.012 1192.91,276.997C1192.12,274.982 1193.11,272.704 1195.12,271.909Z" style="fill:white;"/>
        </g>
        <g transform="matrix(4.16667,0,0,4.16667,-3285.14,0)">
            <path d="M1171.97,252.131C1172.69,251.847 1173.51,252.2 1173.79,252.92C1174.07,253.639 1173.72,254.452 1173,254.736C1172.28,255.02 1171.47,254.667 1171.18,253.948C1170.9,253.228 1171.25,252.415 1171.97,252.131Z" style="fill:white;"/>
        </g>
        <g transform="matrix(4.16667,0,0,4.16667,-3285.14,0)">
            <path d="M1137.79,260.799C1139.52,260.118 1141.47,260.966 1142.15,262.693C1142.83,264.42 1141.98,266.372 1140.26,267.054C1138.53,267.735 1136.58,266.888 1135.9,265.161C1135.22,263.434 1136.06,261.481 1137.79,260.799Z" style="fill:white;"/>
        </g>
        <g transform="matrix(4.16667,0,0,4.16667,-3285.14,0)">
            <path d="M1050.34,272.599C1051.8,272.025 1053.44,272.739 1054.02,274.195C1054.59,275.65 1053.88,277.297 1052.42,277.871C1050.97,278.446 1049.32,277.731 1048.75,276.275C1048.17,274.82 1048.89,273.173 1050.34,272.599Z" style="fill:white;"/>
        </g>
        <g transform="matrix(4.16667,0,0,4.16667,-3285.14,0)">
            <path d="M1024.41,289.876C1025.99,289.251 1027.78,290.028 1028.41,291.612C1029.03,293.195 1028.25,294.985 1026.67,295.61C1025.09,296.235 1023.3,295.458 1022.67,293.874C1022.05,292.291 1022.82,290.501 1024.41,289.876Z" style="fill:white;"/>
        </g>
        <g transform="matrix(4.16667,0,0,4.16667,-3285.14,0)">
            <path d="M1007.81,318.713C1009.82,317.918 1012.1,318.907 1012.9,320.922C1013.69,322.937 1012.7,325.216 1010.69,326.011C1008.67,326.806 1006.39,325.817 1005.6,323.802C1004.8,321.787 1005.79,319.508 1007.81,318.713Z" style="fill:white;"/>
        </g>
        <g transform="matrix(4.16667,0,0,4.16667,-3285.14,0)">
            <path d="M998.089,355.076C1000.39,354.168 1003,355.298 1003.9,357.601C1004.81,359.904 1003.68,362.507 1001.38,363.415C999.077,364.324 996.473,363.194 995.565,360.892C994.656,358.589 995.786,355.985 998.089,355.076Z" style="fill:white;"/>
        </g>
        <g transform="matrix(4.16667,0,0,4.16667,-3285.14,0)">
            <path d="M1014.77,391.262C1016.5,390.58 1018.45,391.428 1019.13,393.155C1019.81,394.882 1018.97,396.835 1017.24,397.516C1015.51,398.197 1013.56,397.35 1012.88,395.623C1012.2,393.896 1013.05,391.943 1014.77,391.262Z" style="fill:white;"/>
        </g>
        <g transform="matrix(4.16667,0,0,4.16667,-3285.14,0)">
            <path d="M1026.03,420.553C1026.74,420.27 1027.56,420.622 1027.84,421.341C1028.12,422.061 1027.77,422.873 1027.05,423.157C1026.33,423.441 1025.52,423.088 1025.24,422.368C1024.95,421.65 1025.31,420.837 1026.03,420.553Z" style="fill:white;"/>
        </g>
        <g transform="matrix(4.16667,0,0,4.16667,-3285.14,0)">
            <path d="M1065.88,436.152C1067.46,435.529 1069.25,436.305 1069.87,437.886C1070.49,439.468 1069.72,441.256 1068.14,441.88C1066.55,442.504 1064.77,441.728 1064.14,440.146C1063.52,438.565 1064.29,436.776 1065.88,436.152Z" style="fill:white;"/>
        </g>
        <g transform="matrix(4.16667,0,0,4.16667,-3285.14,0)">
            <path d="M1088.89,402.977C1090.19,402.466 1091.65,403.101 1092.16,404.397C1092.67,405.692 1092.04,407.157 1090.74,407.668C1089.45,408.179 1087.98,407.543 1087.47,406.248C1086.96,404.952 1087.6,403.488 1088.89,402.977Z" style="fill:white;"/>
        </g>
        <g transform="matrix(4.16667,0,0,4.16667,-3285.14,0)">
            <path d="M1078.7,378.685C1080,378.174 1081.46,378.809 1081.98,380.105C1082.49,381.4 1081.85,382.865 1080.56,383.376C1079.26,383.887 1077.8,383.251 1077.28,381.956C1076.77,380.661 1077.41,379.196 1078.7,378.685Z" style="fill:white;"/>
        </g>
        <g transform="matrix(4.16667,0,0,4.16667,-3285.14,0)">
            <path d="M1076.49,354.864C1078.05,354.247 1079.82,355.014 1080.43,356.578C1081.05,358.141 1080.28,359.908 1078.72,360.525C1077.16,361.142 1075.39,360.375 1074.77,358.812C1074.15,357.248 1074.92,355.481 1076.49,354.864Z" style="fill:white;"/>
        </g>
        <g transform="matrix(4.16667,0,0,4.16667,-3285.14,0)">
            <path d="M1102.51,342.186C1104.52,341.392 1106.8,342.38 1107.59,344.392C1108.38,346.405 1107.4,348.681 1105.38,349.475C1103.37,350.269 1101.1,349.281 1100.3,347.269C1099.51,345.256 1100.5,342.98 1102.51,342.186Z" style="fill:white;"/>
        </g>
        <g transform="matrix(4.16667,0,0,4.16667,-3285.14,0)">
            <path d="M1139.16,354.23C1141.17,353.435 1143.45,354.424 1144.24,356.439C1145.04,358.453 1144.05,360.732 1142.03,361.526C1140.02,362.322 1137.74,361.333 1136.95,359.318C1136.15,357.303 1137.14,355.025 1139.16,354.23Z" style="fill:white;"/>
        </g>
        <g transform="matrix(4.16667,0,0,4.16667,-3285.14,0)">
            <path d="M1128.73,407.133C1127.58,407.587 1127.02,408.889 1127.47,410.041C1127.93,411.192 1129.23,411.758 1130.38,411.303C1131.53,410.849 1132.1,409.547 1131.64,408.395C1131.19,407.244 1129.89,406.679 1128.73,407.133Z" style="fill:white;"/>
        </g>
        <g transform="matrix(4.16667,0,0,4.16667,-3285.14,0)">
            <path d="M1128.76,378.209C1130.78,377.415 1133.05,378.404 1133.85,380.419C1134.64,382.433 1133.65,384.711 1131.64,385.506C1129.63,386.301 1127.35,385.312 1126.55,383.298C1125.76,381.283 1126.75,379.004 1128.76,378.209Z" style="fill:white;"/>
        </g>
        <g transform="matrix(4.16667,0,0,4.16667,-3285.14,0)">
            <path d="M1149.94,397.564C1151.81,396.825 1153.92,397.744 1154.66,399.615C1155.4,401.485 1154.48,403.601 1152.61,404.339C1150.74,405.077 1148.62,404.159 1147.88,402.289C1147.15,400.417 1148.06,398.302 1149.94,397.564Z" style="fill:white;"/>
        </g>
        <g transform="matrix(4.16667,0,0,4.16667,-3285.14,0)">
            <path d="M1209.41,128.096C1284.91,128.096 1353.28,158.713 1402.77,208.205C1452.26,257.697 1482.88,326.066 1482.88,401.57C1482.88,477.073 1452.26,545.442 1402.77,594.934C1353.28,644.426 1284.91,675.043 1209.41,675.043C1133.9,675.043 1065.53,644.426 1016.04,594.934C966.55,545.442 935.934,477.073 935.934,401.57C935.934,326.066 966.55,257.697 1016.04,208.205C1065.53,158.713 1133.9,128.096 1209.41,128.096ZM1390.34,220.632C1344.03,174.322 1280.06,145.673 1209.41,145.673C1138.75,145.673 1074.78,174.322 1028.47,220.632C982.159,266.943 953.51,330.918 953.51,401.57C953.51,472.221 982.159,536.196 1028.47,582.507C1074.78,628.818 1138.75,657.467 1209.41,657.467C1280.06,657.467 1344.03,628.818 1390.34,582.507C1436.65,536.196 1465.3,472.221 1465.3,401.57C1465.3,330.918 1436.65,266.943 1390.34,220.632Z" style="fill:rgb(46,50,99);fill-rule:nonzero;"/>
        </g>
        <g transform="matrix(4.16667,0,0,4.16667,-3285.14,0)">
            <path d="M1209.41,184.292C1204.57,184.292 1200.65,180.373 1200.65,175.539C1200.65,170.705 1204.57,166.785 1209.41,166.785C1209.78,166.783 1339.91,166.004 1401.15,207.489C1405.15,210.201 1406.2,215.642 1403.49,219.642C1400.78,223.642 1395.33,224.688 1391.33,221.977C1334.61,183.555 1209.77,184.292 1209.41,184.292Z" style="fill:rgb(46,50,99);fill-rule:nonzero;"/>
        </g>
        <g transform="matrix(4.16667,0,0,4.16667,-3285.14,0)">
            <path d="M1209.03,621.34C1204.2,621.132 1200.44,617.042 1200.65,612.209C1200.86,607.374 1204.95,603.624 1209.78,603.832C1210.13,603.847 1331.33,609.718 1407.14,564.812C1411.31,562.348 1416.69,563.731 1419.16,567.902C1421.62,572.073 1420.24,577.453 1416.07,579.917C1335.76,627.487 1209.4,621.355 1209.03,621.34Z" style="fill:rgb(46,50,99);fill-rule:nonzero;"/>
        </g>
        <g transform="matrix(4.16667,0,0,4.16667,-3285.14,0)">
            <path d="M1209.41,166.785C1214.24,166.785 1218.16,170.705 1218.16,175.539C1218.16,180.373 1214.24,184.292 1209.41,184.292C1209.05,184.292 1084.2,183.555 1027.48,221.977C1023.48,224.688 1018.04,223.642 1015.33,219.642C1012.62,215.642 1013.66,210.201 1017.66,207.489C1078.9,166.004 1209.03,166.783 1209.41,166.785Z" style="fill:rgb(46,50,99);fill-rule:nonzero;"/>
        </g>
        <g transform="matrix(4.16667,0,0,4.16667,-3285.14,0)">
            <path d="M1209.03,603.832C1213.86,603.624 1217.95,607.374 1218.16,612.209C1218.37,617.042 1214.62,621.132 1209.78,621.34C1209.42,621.355 1083.05,627.487 1002.75,579.917C998.577,577.453 997.193,572.073 999.658,567.902C1002.12,563.731 1007.5,562.348 1011.67,564.812C1087.48,609.718 1208.68,603.847 1209.03,603.832Z" style="fill:rgb(46,50,99);fill-rule:nonzero;"/>
        </g>
        <g transform="matrix(4.16667,0,0,4.16667,-3285.14,0)">
            <path d="M1209.34,223.487C1204.5,223.45 1200.62,219.499 1200.65,214.665C1200.69,209.831 1204.64,205.942 1209.48,205.979C1209.96,205.984 1376.43,207.042 1447.66,268.393C1451.32,271.559 1451.71,277.092 1448.55,280.751C1445.38,284.41 1439.85,284.809 1436.19,281.644C1369.89,224.531 1209.8,223.491 1209.34,223.487Z" style="fill:rgb(46,50,99);fill-rule:nonzero;"/>
        </g>
        <g transform="matrix(4.16667,0,0,4.16667,-3285.14,0)">
            <path d="M1209.34,205.979C1214.17,205.942 1218.12,209.831 1218.16,214.665C1218.2,219.499 1214.31,223.45 1209.48,223.487C1209.01,223.491 1048.93,224.531 982.622,281.644C978.963,284.809 973.43,284.41 970.264,280.751C967.099,277.092 967.498,271.559 971.157,268.393C1042.38,207.042 1208.86,205.984 1209.34,205.979Z" style="fill:rgb(46,50,99);fill-rule:nonzero;"/>
        </g>
        <g transform="matrix(4.16667,0,0,4.16667,-3285.14,0)">
            <path d="M1463.19,341.296C1458.45,340.272 1455.44,335.599 1456.46,330.859C1457.48,326.12 1462.16,323.108 1466.9,324.132C1467.01,324.156 1511.94,332.429 1518.78,367.112C1523.04,388.71 1521.06,461.806 1507.27,480.032C1495.68,495.336 1459.42,502.046 1459.32,502.065C1454.56,502.955 1449.98,499.82 1449.09,495.062C1448.2,490.304 1451.33,485.723 1456.09,484.832C1456.18,484.817 1485.81,479.305 1493.26,469.458C1503.55,455.863 1504.71,386.556 1501.54,370.476C1496.96,347.231 1463.27,341.313 1463.19,341.296Z" style="fill:rgb(46,50,99);fill-rule:nonzero;"/>
        </g>
        <g transform="matrix(4.16667,0,0,4.16667,-3285.14,0)">
            <path d="M951.917,324.132C956.656,323.108 961.329,326.12 962.353,330.859C963.377,335.599 960.364,340.272 955.625,341.296C955.545,341.313 921.852,345.325 917.269,368.57C914.061,384.843 915.059,455.589 925.554,469.458C933.007,479.305 962.639,484.817 962.723,484.832C967.482,485.723 970.617,490.304 969.726,495.062C968.835,499.82 964.254,502.955 959.496,502.065C959.391,502.046 923.129,495.336 911.548,480.032C897.536,461.515 895.738,387.012 900.037,365.206C906.874,330.523 951.805,324.156 951.917,324.132Z" style="fill:rgb(46,50,99);fill-rule:nonzero;"/>
        </g>
        <g transform="matrix(4.16667,0,0,4.16667,-3285.14,0)">
            <path d="M1357.2,628.359C1354.98,624.056 1356.67,618.768 1360.97,616.551C1365.28,614.333 1370.57,616.023 1372.78,620.326C1372.83,620.411 1388.01,649.884 1404.01,691.165C1420.19,732.924 1425.45,769.585 1425.46,769.692C1426.14,774.489 1422.72,777.145 1417.93,777.827C1413.13,778.509 1408.77,776.96 1408.09,772.163C1408.08,772.062 1403.09,737.279 1387.67,697.481C1372.06,657.204 1357.24,628.443 1357.2,628.359Z" style="fill:rgb(46,50,99);fill-rule:nonzero;"/>
        </g>
        <g transform="matrix(4.16667,0,0,4.16667,-3285.14,0)">
            <path d="M1374.29,769.41C1369.55,768.443 1366.49,763.817 1367.46,759.077C1368.43,754.337 1373.05,751.279 1377.79,752.246C1377.99,752.287 1448.26,766.521 1456.53,780.825C1459.23,785.498 1461.04,792.527 1461.43,799.808C1461.74,805.764 1461.13,812.121 1459.32,817.722C1457.21,824.221 1453.5,829.81 1447.76,833.132C1444.81,834.838 1441.43,835.885 1437.59,836.087C1426.62,836.665 1396.57,829.098 1369.53,819.233C1365.59,817.795 1361.69,816.3 1357.9,814.765C1359.09,810.416 1359.26,803.892 1357.54,795.672C1363.13,798.075 1369.23,800.466 1375.51,802.755C1400.71,811.948 1427.75,819.05 1436.7,818.579C1437.61,818.531 1438.36,818.311 1438.97,817.958C1440.59,817.021 1441.8,814.953 1442.64,812.368C1443.76,808.886 1444.13,804.725 1443.92,800.701C1443.68,796.091 1442.73,791.984 1441.36,789.614C1437.07,782.196 1374.47,769.446 1374.29,769.41ZM1304.86,759.054C1303.41,752.985 1302.07,746.562 1300.7,740.051C1296.39,719.434 1291.87,697.84 1284.24,688.088C1281.27,684.278 1281.94,678.775 1285.75,675.799C1289.56,672.822 1295.07,673.498 1298.04,677.309C1308.21,690.301 1313.15,713.926 1317.87,736.481C1319.36,743.59 1320.82,750.58 1322.36,756.898C1316.21,756.74 1310.06,757.758 1304.86,759.054Z" style="fill:rgb(46,50,99);fill-rule:nonzero;"/>
        </g>
        <g transform="matrix(4.16667,0,0,4.16667,-3285.14,0)">
            <path d="M1239.76,945.089C1236.08,941.942 1235.65,936.408 1238.8,932.731C1241.95,929.053 1247.48,928.623 1251.16,931.77C1251.23,931.827 1274.3,951.718 1284.57,950.733C1285.27,950.339 1286.04,950.039 1286.86,949.851C1292.69,946.194 1303.98,931.408 1315.76,912.495C1328.52,892.028 1340.78,867.269 1346.66,846.151C1350.52,832.292 1351,817.791 1348.25,804.926C1346.31,795.825 1342.76,787.626 1337.65,781.199C1332.79,775.081 1326.49,770.549 1318.8,768.41C1312.41,766.631 1304.94,766.441 1296.39,768.266C1250.04,778.16 1217.9,909.655 1217.81,910.034L1217.04,913.117L1214.44,915.011C1214.27,915.14 1152.2,959.566 1180.87,1000.27C1184.62,1005.59 1188.59,1010.08 1192.67,1013.82C1205.88,1025.9 1220.92,1030.91 1234.65,1031.49C1248.21,1032.06 1260.32,1028.39 1267.97,1023.01C1269.58,1021.87 1270.92,1020.73 1271.94,1019.61C1281.98,1008.63 1281.74,981.756 1280.86,967.942C1263.04,965.242 1239.84,945.153 1239.76,945.089ZM1330.66,921.764C1319.58,939.545 1307.63,954.424 1298.03,962.239C1299.13,975.793 1300.64,1014.15 1284.85,1031.42C1282.87,1033.58 1280.59,1035.57 1278.06,1037.35C1267.62,1044.7 1251.54,1049.73 1233.96,1048.99C1216.54,1048.26 1197.5,1041.95 1180.86,1026.73C1175.77,1022.07 1170.94,1016.64 1166.52,1010.36C1132.09,961.478 1188.51,913.05 1201.55,902.835C1206.92,882.271 1240.39,762.279 1292.75,751.102C1304.17,748.666 1314.43,749.002 1323.47,751.52C1334.97,754.722 1344.3,761.365 1351.38,770.283C1358.22,778.892 1362.92,789.595 1365.42,801.288C1368.73,816.808 1368.16,834.23 1363.55,850.819C1357.18,873.706 1344.14,900.124 1330.66,921.764Z" style="fill:rgb(46,50,99);fill-rule:nonzero;"/>
        </g>
        <g transform="matrix(4.16667,0,0,4.16667,-3285.14,0)">
            <path d="M1308.45,717.091C1304.72,720.162 1299.2,719.625 1296.13,715.89C1293.06,712.155 1293.6,706.636 1297.33,703.565C1297.44,703.473 1336.39,670.893 1390.33,677.028C1395.14,677.558 1398.62,681.893 1398.08,686.708C1397.55,691.524 1393.22,694.998 1388.4,694.467C1341.83,689.17 1308.55,717.012 1308.45,717.091Z" style="fill:rgb(46,50,99);fill-rule:nonzero;"/>
        </g>
        <g transform="matrix(4.16667,0,0,4.16667,-3285.14,0)">
            <path d="M1230.01,834.959C1226.69,831.432 1226.86,825.884 1230.39,822.566C1233.91,819.248 1239.46,819.418 1242.78,822.944C1242.93,823.104 1295,879.223 1339.08,880.389C1343.91,880.503 1347.74,884.515 1347.63,889.349C1347.52,894.184 1343.5,898.011 1338.67,897.897C1287.1,896.534 1230.17,835.135 1230.01,834.959Z" style="fill:rgb(46,50,99);fill-rule:nonzero;"/>
        </g>
        <g transform="matrix(4.16667,0,0,4.16667,-3285.14,0)">
            <path d="M1045.8,620.326C1048.02,616.023 1053.31,614.333 1057.61,616.551C1061.92,618.768 1063.61,624.056 1061.39,628.359C1061.35,628.443 1046.52,657.204 1030.92,697.481C1015.5,737.279 1010.51,772.062 1010.5,772.163C1009.81,776.96 1005.03,775.018 1000.23,774.336C995.432,773.654 992.443,774.489 993.125,769.692C993.141,769.585 998.401,732.924 1014.58,691.165C1030.57,649.884 1045.76,620.411 1045.8,620.326Z" style="fill:rgb(46,50,99);fill-rule:nonzero;"/>
        </g>
        <g transform="matrix(4.16667,0,0,4.16667,-3285.14,0)">
            <path d="M1040.79,752.246C1045.53,751.279 1050.16,754.337 1051.13,759.077C1052.09,763.817 1049.04,768.443 1044.3,769.41C1044.12,769.446 981.518,782.196 977.228,789.614C975.857,791.984 974.911,796.091 974.669,800.701C974.457,804.725 974.823,808.886 975.95,812.368C976.788,814.953 977.995,817.021 979.615,817.958C980.225,818.311 980.979,818.531 981.89,818.579C990.833,819.05 1017.88,811.948 1043.08,802.755C1049.91,800.263 1056.54,797.648 1062.53,795.03C1060.55,803.662 1059.72,811.474 1059.41,815.279C1056.02,816.634 1052.55,817.956 1049.05,819.233C1022.01,829.098 991.969,836.665 980.997,836.087C977.154,835.885 973.775,834.838 970.826,833.132C965.084,829.81 961.373,824.221 959.267,817.722C957.453,812.121 956.847,805.764 957.161,799.808C957.544,792.527 959.352,785.498 962.055,780.825C970.328,766.521 1040.59,752.287 1040.79,752.246ZM1096.65,755.151C1098.04,749.302 1099.37,742.94 1100.72,736.481C1105.44,713.926 1110.38,690.301 1120.54,677.309C1123.52,673.498 1129.02,672.822 1132.83,675.799C1136.64,678.775 1137.32,684.278 1134.34,688.088C1126.71,697.84 1122.2,719.434 1117.88,740.051C1116.9,744.752 1115.93,749.408 1114.91,753.918C1109.72,753.179 1103.35,753.477 1096.65,755.151Z" style="fill:rgb(46,50,99);fill-rule:nonzero;"/>
        </g>
        <g transform="matrix(4.16667,0,0,4.16667,-3285.14,0)">
            <path d="M1121.26,703.565C1124.99,706.636 1125.53,712.155 1122.46,715.89C1119.39,719.625 1113.87,720.162 1110.13,717.091C1110.04,717.012 1076.76,689.17 1030.18,694.467C1025.37,694.998 1021.03,691.524 1020.5,686.708C1019.97,681.893 1023.45,677.558 1028.26,677.028C1082.19,670.893 1121.14,703.473 1121.26,703.565Z" style="fill:rgb(46,50,99);fill-rule:nonzero;"/>
        </g>
        <g transform="matrix(4.16667,0,0,4.16667,-3285.14,0)">
            <path d="M1174.75,824.05C1178.05,820.505 1183.6,820.305 1187.15,823.603C1190.69,826.902 1190.89,832.452 1187.59,835.996C1187.43,836.17 1131.48,896.534 1079.92,897.897C1075.08,898.011 1071.07,894.184 1070.96,889.349C1070.85,884.515 1074.67,880.503 1079.51,880.389C1123.59,879.223 1174.61,824.208 1174.75,824.05Z" style="fill:rgb(46,50,99);fill-rule:nonzero;"/>
        </g>
        <g transform="matrix(4.16667,0,0,4.16667,-3285.14,0)">
            <path d="M1178.4,923.469C1182.07,920.322 1187.61,920.752 1190.76,924.43C1193.9,928.107 1193.47,933.641 1189.79,936.788C1189.72,936.852 1153.52,960.919 1135.7,963.619C1134.82,977.432 1134.58,1004.3 1144.62,1015.29C1145.64,1016.4 1146.98,1017.54 1148.59,1018.68C1156.23,1024.06 1168.35,1027.73 1181.91,1027.16C1185.9,1027 1190,1026.45 1194.13,1025.47C1199.82,1029.95 1206.65,1033.79 1214.86,1036.59C1204.1,1041.78 1193.06,1044.23 1182.6,1044.67C1165.02,1045.41 1148.93,1040.38 1138.5,1033.03C1135.97,1031.25 1133.69,1029.25 1131.71,1027.1C1115.92,1009.83 1117.43,971.47 1118.53,957.916C1108.93,950.101 1096.98,935.222 1085.9,917.44C1072.42,895.801 1059.38,869.383 1053.01,846.496C1048.39,829.907 1047.83,812.484 1051.14,796.964C1053.64,785.271 1058.34,774.568 1065.18,765.96C1072.26,757.042 1081.59,750.398 1093.09,747.196C1102.13,744.679 1112.39,744.343 1123.81,746.779C1175.08,757.724 1208.24,873.003 1214.64,897.091C1211.67,900.285 1207.26,905.118 1202.28,910.808L1202.12,910.688L1199.52,908.794L1198.75,905.71C1198.66,905.332 1166.52,773.836 1120.17,763.943C1111.62,762.117 1104.15,762.308 1097.76,764.086C1090.07,766.225 1083.77,770.757 1078.91,776.876C1073.8,783.303 1070.25,791.502 1068.31,800.603C1065.56,813.468 1066.04,827.968 1069.9,841.828C1075.78,862.946 1088.04,887.705 1100.79,908.172C1112.58,927.084 1123.87,941.87 1129.7,945.528C1130.52,945.716 1131.29,946.016 1131.99,946.409C1142.26,947.394 1178.33,923.525 1178.4,923.469Z" style="fill:rgb(46,50,99);fill-rule:nonzero;"/>
        </g>
        <g transform="matrix(4.16667,0,0,4.16667,-3285.14,0)">
            <path d="M1386.84,605.701C1382,605.776 1378.02,601.918 1377.95,597.083C1377.87,592.249 1381.73,588.268 1386.56,588.193C1386.61,588.192 1404.87,587.548 1409.16,601.163C1411.81,609.556 1412.11,713.462 1412.11,713.759C1412.11,718.593 1408.19,722.513 1403.36,722.513C1398.52,722.513 1394.6,718.593 1394.6,713.759C1394.6,713.469 1394.33,612.539 1392.41,606.45C1392.14,605.584 1386.85,605.701 1386.84,605.701Z" style="fill:rgb(46,50,99);fill-rule:nonzero;"/>
        </g>
        <g transform="matrix(4.16667,0,0,4.16667,-3285.14,0)">
            <path d="M1032.02,588.193C1036.86,588.268 1040.72,592.249 1040.64,597.083C1040.57,601.918 1036.58,605.776 1031.75,605.701C1031.74,605.701 1026.45,605.584 1026.18,606.45C1024.28,612.48 1023.7,716.293 1023.7,716.591C1023.68,721.425 1019.74,725.329 1014.91,725.311C1010.08,725.292 1006.17,721.357 1006.19,716.522C1006.19,716.217 1006.76,609.615 1009.42,601.163C1013.72,587.548 1031.97,588.192 1032.02,588.193Z" style="fill:rgb(46,50,99);fill-rule:nonzero;"/>
        </g>
        <g transform="matrix(4.16667,0,0,4.16667,-3285.14,0)">
            <path d="M1067.8,629.425C1066.01,627.785 1065.9,625.011 1067.54,623.229C1069.18,621.447 1071.95,621.332 1073.74,622.971L1073.85,623.075C1076.78,625.78 1137.56,681.865 1209.12,678.998C1236.53,677.901 1258.87,673.519 1279.4,664.839C1299.92,656.159 1318.8,643.101 1339.26,624.658C1341.06,623.037 1343.84,623.183 1345.46,624.984C1347.08,626.785 1346.93,629.56 1345.13,631.181C1323.98,650.243 1304.34,663.795 1282.79,672.907C1261.25,682.018 1237.94,686.612 1209.47,687.752C1134.27,690.764 1070.96,632.346 1067.91,629.528L1067.8,629.425Z" style="fill:rgb(46,50,99);fill-rule:nonzero;"/>
        </g>
        <g transform="matrix(4.16667,0,0,4.16667,-3285.14,0)">
            <path d="M1014.98,690.208C1019.51,691.933 1021.79,697.006 1020.06,701.536C1018.34,706.067 1013.27,708.342 1008.73,706.617C1001.75,703.948 993.627,702.991 986.041,704.588C979.802,705.902 973.911,709.004 969.4,714.398C968.711,715.222 968.084,716.046 967.521,716.863C961.482,725.62 956.978,739.448 956.203,753.074C955.483,765.748 958.02,777.864 965.749,784.325C966.28,784.77 966.765,785.145 967.196,785.442C971.177,788.191 972.176,793.648 969.427,797.629C966.678,801.61 961.221,802.609 957.241,799.86C956.214,799.151 955.296,798.458 954.488,797.783C941.935,787.287 937.691,769.795 938.696,752.112C939.647,735.382 945.382,718.103 953.103,706.907C954.072,705.503 955.021,704.241 955.943,703.138C963.187,694.474 972.571,689.509 982.471,687.425C993.48,685.107 1005.11,686.432 1014.98,690.208Z" style="fill:rgb(46,50,99);fill-rule:nonzero;"/>
        </g>
        <g transform="matrix(4.16667,0,0,4.16667,-3285.14,0)">
            <path d="M1010.57,718.992C1015.37,719.693 1018.69,724.15 1017.99,728.947C1017.28,733.744 1012.83,737.064 1008.03,736.363C1000.43,735.234 995.99,736.689 993.679,739.753C990.755,743.631 989.797,750.246 989.871,757.991C989.902,761.247 990.22,764.262 990.863,766.598C991.158,767.666 991.3,768.277 991.314,768.288C995.087,771.321 995.686,776.839 992.653,780.612C989.62,784.385 984.102,784.984 980.329,781.951C977.285,779.506 975.212,775.757 973.974,771.266C972.923,767.455 972.409,762.874 972.363,758.128C972.255,746.819 974.102,736.566 979.673,729.179C985.856,720.978 995.604,716.77 1010.57,718.992Z" style="fill:rgb(46,50,99);fill-rule:nonzero;"/>
        </g>
        <g transform="matrix(4.16667,0,0,4.16667,-3285.14,0)">
            <path d="M954.941,763.26C953.283,765.023 950.508,765.107 948.745,763.448C946.982,761.79 946.898,759.015 948.556,757.252C948.592,757.214 960.978,743.81 978.56,749.303C980.873,750.023 982.164,752.483 981.444,754.796C980.723,757.109 978.264,758.4 975.951,757.68C963.65,753.836 954.966,763.233 954.941,763.26Z" style="fill:rgb(46,50,99);fill-rule:nonzero;"/>
        </g>
        <g transform="matrix(4.16667,0,0,4.16667,-3285.14,0)">
            <path d="M960.68,718.925C958.3,719.389 955.994,717.837 955.53,715.457C955.066,713.078 956.619,710.772 958.998,710.308C959.07,710.295 984.035,705.084 994.295,723.013C995.498,725.117 994.768,727.8 992.665,729.003C990.561,730.206 987.878,729.476 986.675,727.373C979.594,714.999 960.734,718.915 960.68,718.925Z" style="fill:rgb(46,50,99);fill-rule:nonzero;"/>
        </g>
    </g>
</svg>
