<?xml version="1.0" encoding="UTF-8" standalone="no"?>
<!DOCTYPE svg PUBLIC "-//W3C//DTD SVG 1.1//EN" "http://www.w3.org/Graphics/SVG/1.1/DTD/svg11.dtd">
<svg width="100%" height="100%" viewBox="0 0 1756 1740" version="1.1" xmlns="http://www.w3.org/2000/svg" xmlns:xlink="http://www.w3.org/1999/xlink" xml:space="preserve" xmlns:serif="http://www.serif.com/" style="fill-rule:evenodd;clip-rule:evenodd;stroke-linejoin:round;stroke-miterlimit:2;">
    <g transform="matrix(1,0,0,1,-644.683,-1610.61)">
        <g transform="matrix(4.16667,0,0,4.16667,-2635.84,-4380.68)">
            <path d="M1005.29,1669.48C1013.88,1678.07 1026.93,1680.75 1038.79,1676.24C1066.95,1665.52 1115.97,1627.29 1145.61,1597.65C1204.95,1538.31 1204.76,1441.91 1204.76,1441.91C1204.76,1441.91 1108.35,1441.71 1049.01,1501.06C1019.38,1530.69 981.141,1579.72 970.426,1607.88C965.914,1619.74 968.594,1632.78 977.187,1641.37L1005.29,1669.48Z" style="fill:white;fill-rule:nonzero;"/>
        </g>
        <g transform="matrix(4.16667,0,0,4.16667,-2635.84,-4380.68)">
            <path d="M1147.67,1498.99C1160.23,1511.55 1173.99,1521.62 1188.02,1529.02C1204.84,1483.6 1204.76,1441.91 1204.76,1441.91C1204.76,1441.91 1163.06,1441.83 1117.64,1458.65C1125.05,1472.67 1135.11,1486.44 1147.67,1498.99Z" style="fill:rgb(195,63,46);fill-rule:nonzero;"/>
        </g>
        <g transform="matrix(4.16667,0,0,4.16667,-2635.84,-4380.68)">
            <path d="M1131.03,1566.87C1116.88,1581.01 1093.94,1581.01 1079.8,1566.87C1065.65,1552.72 1065.65,1529.78 1079.8,1515.64C1093.94,1501.49 1116.88,1501.49 1131.03,1515.64C1145.17,1529.78 1145.17,1552.72 1131.03,1566.87Z" style="fill:rgb(252,210,15);fill-rule:nonzero;"/>
        </g>
        <g transform="matrix(4.16667,0,0,4.16667,-2635.84,-4380.68)">
            <path d="M1089.98,1556.68C1081.48,1548.17 1081.48,1534.33 1089.98,1525.82C1098.49,1517.31 1112.33,1517.31 1120.84,1525.82C1129.35,1534.33 1129.35,1548.17 1120.84,1556.68C1112.33,1565.19 1098.49,1565.19 1089.98,1556.68Z" style="fill:rgb(146,214,229);fill-rule:nonzero;"/>
        </g>
        <g transform="matrix(4.16667,0,0,4.16667,-2635.84,-4380.68)">
            <path d="M1065.12,1622.59C1053.78,1633.93 1035.41,1633.93 1024.07,1622.59C1012.74,1611.26 1012.74,1592.88 1024.07,1581.55C1035.41,1570.21 1053.78,1570.21 1065.12,1581.55C1076.45,1592.88 1076.45,1611.26 1065.12,1622.59Z" style="fill:rgb(252,210,15);fill-rule:nonzero;"/>
        </g>
        <g transform="matrix(4.16667,0,0,4.16667,-2635.84,-4380.68)">
            <path d="M1032.23,1614.43C1025.42,1607.61 1025.42,1596.52 1032.23,1589.71C1039.05,1582.89 1050.14,1582.89 1056.96,1589.71C1063.77,1596.52 1063.77,1607.61 1056.96,1614.43C1050.14,1621.25 1039.05,1621.25 1032.23,1614.43Z" style="fill:rgb(146,214,229);fill-rule:nonzero;"/>
        </g>
        <g transform="matrix(4.16667,0,0,4.16667,-2635.84,-4380.68)">
            <path d="M1005.29,1669.48L977.187,1641.37C972.647,1636.83 969.777,1631.05 968.727,1624.86L957.15,1636.43C953.66,1639.92 953.66,1645.58 957.15,1649.07L997.592,1689.51C1001.08,1693 1006.74,1693 1010.23,1689.51L1021.81,1677.94C1015.61,1676.89 1009.83,1674.02 1005.29,1669.48Z" style="fill:rgb(151,153,157);fill-rule:nonzero;"/>
        </g>
        <g transform="matrix(4.16667,0,0,4.16667,-2635.84,-4380.68)">
            <path d="M1125.93,1680.22C1131.57,1671.91 1134.24,1661.94 1133.5,1651.93L1130.54,1611.95C1105.4,1634.73 1073.36,1659.09 1049.74,1671.26L1050.53,1672.73L1075.83,1744.51L1125.93,1680.22Z" style="fill:rgb(127,28,24);fill-rule:nonzero;"/>
        </g>
        <g transform="matrix(4.16667,0,0,4.16667,-2635.84,-4380.68)">
            <path d="M1034.71,1516.12L994.732,1513.17C984.72,1512.43 974.752,1515.09 966.448,1520.74L902.153,1570.84L973.929,1596.13L975.405,1596.92C987.576,1573.31 1011.93,1541.26 1034.71,1516.12Z" style="fill:rgb(127,28,24);fill-rule:nonzero;"/>
        </g>
        <g transform="matrix(4.16667,0,0,4.16667,-2635.84,-4380.68)">
            <path d="M975.454,1703.17C966.958,1711.67 923.343,1724.52 923.343,1724.52C923.343,1724.52 936.192,1680.9 944.688,1672.4C953.184,1663.91 966.958,1663.91 975.454,1672.4C983.949,1680.9 983.949,1694.67 975.454,1703.17Z" style="fill:rgb(247,147,32);fill-rule:nonzero;"/>
        </g>
        <g transform="matrix(4.16667,0,0,4.16667,-2635.84,-4380.68)">
            <path d="M975.454,1687.79C971.206,1692.04 949.398,1698.46 949.398,1698.46C949.398,1698.46 955.823,1676.65 960.071,1672.4C964.319,1668.16 971.206,1668.16 975.454,1672.4C979.702,1676.65 979.702,1683.54 975.454,1687.79Z" style="fill:rgb(252,210,15);fill-rule:nonzero;"/>
        </g>
        <g transform="matrix(4.16667,0,0,4.16667,-2635.84,-4380.68)">
            <path d="M1142.78,1594.82C1138.23,1599.37 1133.21,1604.14 1127.86,1608.98C1127.66,1609.16 1127.47,1609.33 1127.28,1609.51C1126.5,1610.21 1125.72,1610.91 1124.93,1611.62C1124.6,1611.91 1124.27,1612.2 1123.94,1612.5C1123.21,1613.15 1122.47,1613.79 1121.73,1614.44C1121.46,1614.68 1121.19,1614.92 1120.91,1615.16C1119.95,1616 1118.98,1616.84 1118.01,1617.68L1117.86,1617.81C1116.74,1618.78 1115.6,1619.75 1114.46,1620.71L1114.45,1620.72C1113.41,1621.61 1112.35,1622.49 1111.29,1623.38C1111.06,1623.57 1110.82,1623.77 1110.58,1623.97C1109.77,1624.65 1108.95,1625.32 1108.13,1625.99C1107.8,1626.27 1107.46,1626.54 1107.13,1626.82C1106.44,1627.38 1105.75,1627.94 1105.06,1628.5C1084.34,1645.27 1063.46,1659.69 1047.91,1667.7L1047.9,1667.71C1044.14,1669.64 1040.6,1671.27 1037.36,1672.5C1032.33,1674.41 1027.02,1674.83 1022.04,1673.9C1021.73,1673.84 1021.43,1673.78 1021.13,1673.71C1020.76,1673.63 1020.4,1673.55 1020.05,1673.46C1019.78,1673.39 1019.52,1673.31 1019.26,1673.23C1018.87,1673.11 1018.49,1673 1018.1,1672.87C1017.89,1672.79 1017.68,1672.71 1017.47,1672.63C1017.06,1672.47 1016.64,1672.32 1016.24,1672.14C1016.07,1672.07 1015.9,1671.99 1015.73,1671.91C1015.3,1671.71 1014.87,1671.51 1014.45,1671.29C1014.3,1671.22 1014.16,1671.13 1014.01,1671.05C1013.59,1670.81 1013.16,1670.58 1012.75,1670.32C1012.59,1670.22 1012.44,1670.11 1012.28,1670.01C1011.89,1669.75 1011.5,1669.5 1011.13,1669.23C1010.9,1669.06 1010.68,1668.87 1010.45,1668.69C1010.16,1668.46 1009.86,1668.24 1009.58,1668C1009.08,1667.57 1008.59,1667.12 1008.12,1666.65L980.015,1638.55C979.542,1638.07 979.091,1637.58 978.659,1637.08C978.422,1636.8 978.206,1636.51 977.981,1636.23C977.8,1636 977.61,1635.77 977.436,1635.53C977.167,1635.17 976.919,1634.78 976.669,1634.4C976.561,1634.24 976.445,1634.08 976.34,1633.91C976.088,1633.51 975.858,1633.09 975.629,1632.67C975.543,1632.52 975.45,1632.36 975.367,1632.21C975.153,1631.8 974.959,1631.38 974.767,1630.96C974.684,1630.78 974.595,1630.6 974.516,1630.42C974.347,1630.03 974.196,1629.62 974.045,1629.22C973.961,1629 973.871,1628.77 973.792,1628.55C973.666,1628.18 973.555,1627.81 973.444,1627.44C973.362,1627.16 973.277,1626.88 973.203,1626.6C973.113,1626.26 973.036,1625.92 972.96,1625.57C972.888,1625.25 972.818,1624.93 972.757,1624.6C971.833,1619.62 972.255,1614.32 974.165,1609.3C975.398,1606.06 977.021,1602.52 978.95,1598.77L978.961,1598.75C987.021,1583.12 1001.55,1562.09 1018.45,1541.25C1018.9,1540.7 1019.35,1540.14 1019.81,1539.58C1020.12,1539.2 1020.43,1538.82 1020.74,1538.44C1021.38,1537.68 1022.01,1536.91 1022.64,1536.14C1022.87,1535.87 1023.1,1535.6 1023.33,1535.32C1024.17,1534.31 1025.02,1533.31 1025.86,1532.31L1025.97,1532.18C1026.93,1531.05 1027.88,1529.93 1028.84,1528.82L1029.02,1528.61C1029.85,1527.65 1030.67,1526.7 1031.5,1525.75C1031.74,1525.48 1031.98,1525.21 1032.21,1524.94C1032.87,1524.19 1033.53,1523.44 1034.19,1522.7C1034.47,1522.39 1034.75,1522.07 1035.03,1521.76C1035.78,1520.92 1036.53,1520.09 1037.27,1519.26C1037.41,1519.11 1037.54,1518.96 1037.68,1518.81L1037.68,1518.8C1042.53,1513.46 1047.29,1508.43 1051.84,1503.88C1070.71,1485.01 1093.59,1472.28 1115.83,1463.7C1123.45,1477.36 1133.19,1490.17 1144.84,1501.82C1156.5,1513.48 1169.32,1523.22 1182.98,1530.84C1174.39,1553.07 1161.66,1575.94 1142.78,1594.82ZM1014.14,1679.94L1007.4,1686.69C1006.47,1687.62 1005.23,1688.13 1003.91,1688.13C1002.59,1688.13 1001.35,1687.62 1000.42,1686.69L959.978,1646.24C959.046,1645.31 958.533,1644.07 958.533,1642.75C958.533,1641.43 959.046,1640.19 959.979,1639.26L966.719,1632.52C967.494,1634.5 968.455,1636.39 969.574,1638.18L969.652,1638.3C970.492,1639.63 971.425,1640.9 972.447,1642.11C972.56,1642.24 972.673,1642.38 972.789,1642.51C973.294,1643.09 973.812,1643.66 974.358,1644.2L1002.46,1672.3C1002.87,1672.72 1003.29,1673.12 1003.72,1673.5C1006.78,1676.27 1010.3,1678.44 1014.14,1679.94ZM929.371,1718.49C934.586,1702.01 942.609,1680.14 947.517,1675.23C950.593,1672.16 954.604,1670.37 958.907,1670.09C958.704,1670.27 958.497,1670.44 958.303,1670.64C953.832,1675.11 948.104,1694.01 947,1697.75C946.742,1698.63 946.983,1699.58 947.631,1700.23C948.106,1700.7 948.745,1700.96 949.398,1700.96C949.634,1700.96 949.872,1700.93 950.105,1700.86C953.849,1699.75 972.75,1694.03 977.221,1689.56C977.415,1689.36 977.589,1689.16 977.768,1688.95C977.491,1693.26 975.702,1697.27 972.625,1700.34C967.721,1705.25 945.85,1713.27 929.371,1718.49ZM961.838,1674.17C963.385,1672.63 965.43,1671.77 967.61,1671.73C969.446,1672.59 971.148,1673.76 972.625,1675.23C974.103,1676.71 975.269,1678.41 976.132,1680.25C976.093,1682.43 975.232,1684.47 973.686,1686.02C971.38,1688.33 961.24,1692.09 953.182,1694.68C955.769,1686.62 959.532,1676.48 961.838,1674.17ZM973.607,1591.78L910.382,1569.5L968.802,1523.97C976.307,1518.91 985.404,1516.48 994.437,1517.16L1026.33,1519.51C1009.16,1539.06 993.145,1560.17 981.755,1578.08L981.663,1578.22C980.933,1579.37 980.226,1580.5 979.535,1581.63L979.512,1581.66C977.342,1585.19 975.349,1588.58 973.607,1591.78ZM1200.64,1446.02C1200.17,1457.04 1197.78,1488.71 1185.77,1523.23C1173.16,1516.07 1161.32,1506.98 1150.5,1496.16C1139.69,1485.35 1130.6,1473.51 1123.44,1460.91C1157.96,1448.91 1189.62,1446.5 1200.64,1446.02ZM1122.69,1677.86L1077.17,1736.28L1054.88,1673.06C1074.98,1662.1 1102.34,1642.13 1127.15,1620.33L1129.51,1652.23C1130.18,1661.26 1127.75,1670.36 1122.69,1677.86ZM1208.76,1441.9C1208.75,1439.7 1206.97,1437.91 1204.76,1437.91L1204.11,1437.91C1198.53,1437.97 1159.36,1438.93 1116.25,1454.9C1116.13,1454.94 1116.02,1455.01 1115.91,1455.07C1092.58,1463.78 1067.12,1477.29 1046.19,1498.23C1041.97,1502.45 1037.56,1507.08 1033.08,1511.99L995.027,1509.18C984.156,1508.38 973.212,1511.3 964.2,1517.43L963.99,1517.58L899.695,1567.68C898.542,1568.58 897.97,1570.04 898.206,1571.48C898.44,1572.92 899.444,1574.12 900.824,1574.61L969.94,1598.97C968.686,1601.59 967.584,1604.1 966.687,1606.46C964.579,1612 963.9,1617.81 964.512,1623.41L954.321,1633.61C951.878,1636.05 950.533,1639.3 950.533,1642.75C950.533,1646.21 951.878,1649.46 954.321,1651.9L964.911,1662.49C963.331,1662.19 961.714,1662.03 960.071,1662.03C953.191,1662.03 946.724,1664.71 941.86,1669.58C932.902,1678.53 920.851,1718.82 919.506,1723.38C919.092,1724.79 919.479,1726.31 920.514,1727.34C921.275,1728.11 922.297,1728.52 923.343,1728.52C923.72,1728.52 924.101,1728.46 924.473,1728.35C929.038,1727.01 969.324,1714.96 978.282,1706C983.146,1701.13 985.825,1694.67 985.825,1687.79C985.825,1686.15 985.668,1684.53 985.369,1682.95L994.764,1692.34C997.207,1694.79 1000.46,1696.13 1003.91,1696.13C1007.37,1696.13 1010.62,1694.79 1013.06,1692.34L1023.24,1682.16C1024.54,1682.3 1025.85,1682.38 1027.17,1682.38C1031.53,1682.38 1035.95,1681.6 1040.21,1679.98C1042.56,1679.08 1045.07,1677.98 1047.69,1676.72L1072.05,1745.84C1072.54,1747.22 1073.74,1748.22 1075.18,1748.46C1075.4,1748.49 1075.61,1748.51 1075.83,1748.51C1077.05,1748.51 1078.22,1747.95 1078.98,1746.97L1129.08,1682.67L1129.24,1682.46C1135.36,1673.45 1138.29,1662.5 1137.49,1651.64L1134.67,1613.58C1139.58,1609.1 1144.22,1604.7 1148.44,1600.48C1169.37,1579.54 1182.89,1554.08 1191.6,1530.76C1191.65,1530.64 1191.72,1530.53 1191.77,1530.41C1208.64,1484.84 1208.76,1443.63 1208.76,1441.9Z" style="fill:rgb(42,44,43);fill-rule:nonzero;"/>
        </g>
        <g transform="matrix(4.16667,0,0,4.16667,-2635.84,-4380.68)">
            <path d="M1128.2,1564.04C1115.63,1576.6 1095.19,1576.6 1082.63,1564.04C1070.06,1551.47 1070.06,1531.03 1082.63,1518.46C1088.91,1512.18 1097.16,1509.04 1105.41,1509.04C1113.66,1509.04 1121.92,1512.18 1128.2,1518.46C1140.76,1531.03 1140.76,1551.47 1128.2,1564.04ZM1133.86,1512.81C1118.17,1497.12 1092.65,1497.12 1076.97,1512.81C1061.28,1528.49 1061.28,1554.01 1076.97,1569.7C1084.81,1577.54 1095.11,1581.46 1105.41,1581.46C1115.71,1581.46 1126.01,1577.54 1133.86,1569.7C1149.54,1554.01 1149.54,1528.49 1133.86,1512.81Z" style="fill:rgb(42,44,43);fill-rule:nonzero;"/>
        </g>
        <g transform="matrix(4.16667,0,0,4.16667,-2635.84,-4380.68)">
            <path d="M1119.07,1554.91C1115.43,1558.56 1110.58,1560.56 1105.41,1560.56C1100.24,1560.56 1095.39,1558.56 1091.75,1554.91C1084.22,1547.38 1084.22,1535.12 1091.75,1527.59C1095.52,1523.82 1100.46,1521.94 1105.41,1521.94C1110.36,1521.94 1115.31,1523.82 1119.07,1527.59C1126.61,1535.12 1126.61,1547.38 1119.07,1554.91ZM1122.61,1524.05C1113.13,1514.57 1097.7,1514.57 1088.21,1524.05C1078.73,1533.54 1078.73,1548.97 1088.21,1558.45C1092.8,1563.04 1098.91,1565.56 1105.41,1565.56C1111.92,1565.56 1118.02,1563.04 1122.61,1558.45C1132.09,1548.97 1132.09,1533.54 1122.61,1524.05Z" style="fill:rgb(42,44,43);fill-rule:nonzero;"/>
        </g>
        <g transform="matrix(4.16667,0,0,4.16667,-2635.84,-4380.68)">
            <path d="M1062.29,1619.76C1052.53,1629.52 1036.66,1629.52 1026.9,1619.76C1017.14,1610.01 1017.14,1594.13 1026.9,1584.38C1031.78,1579.5 1038.19,1577.06 1044.59,1577.06C1051,1577.06 1057.41,1579.5 1062.29,1584.38C1067.01,1589.1 1069.62,1595.38 1069.62,1602.07C1069.62,1608.75 1067.01,1615.04 1062.29,1619.76ZM1021.24,1578.72C1008.37,1591.59 1008.37,1612.54 1021.24,1625.42C1027.68,1631.86 1036.14,1635.08 1044.59,1635.08C1053.05,1635.08 1061.51,1631.86 1067.94,1625.42C1074.18,1619.18 1077.62,1610.89 1077.62,1602.07C1077.62,1593.25 1074.18,1584.96 1067.94,1578.72C1055.07,1565.84 1034.12,1565.84 1021.24,1578.72Z" style="fill:rgb(42,44,43);fill-rule:nonzero;"/>
        </g>
        <g transform="matrix(4.16667,0,0,4.16667,-2635.84,-4380.68)">
            <path d="M1055.19,1612.66C1052.36,1615.49 1048.6,1617.04 1044.59,1617.04C1040.59,1617.04 1036.83,1615.49 1034,1612.66C1028.16,1606.82 1028.16,1597.32 1034,1591.48C1036.83,1588.65 1040.59,1587.1 1044.59,1587.1C1048.6,1587.1 1052.36,1588.65 1055.19,1591.48C1058.01,1594.3 1059.57,1598.06 1059.57,1602.07C1059.57,1606.08 1058.01,1609.84 1055.19,1612.66ZM1044.59,1582.1C1039.25,1582.1 1034.23,1584.17 1030.46,1587.94C1022.67,1595.73 1022.67,1608.41 1030.46,1616.2C1034.23,1619.97 1039.25,1622.04 1044.59,1622.04C1049.94,1622.04 1054.95,1619.97 1058.72,1616.2C1062.49,1612.43 1064.57,1607.41 1064.57,1602.07C1064.57,1596.73 1062.49,1591.71 1058.72,1587.94C1054.95,1584.17 1049.94,1582.1 1044.59,1582.1Z" style="fill:rgb(42,44,43);fill-rule:nonzero;"/>
        </g>
        <g transform="matrix(4.16667,0,0,4.16667,-2635.84,-4380.68)">
            <path d="M938.433,1807.88C938.224,1807.7 938.01,1807.53 937.793,1807.35C940.252,1794.46 935.574,1781.04 925.454,1772.51C920.829,1768.61 915.395,1765.95 909.551,1764.71C910.911,1750.45 905.218,1736.28 894.155,1726.96C878.797,1714.01 856.421,1713.34 840.361,1724.79C838.933,1722.96 837.313,1721.28 835.519,1719.77C828.669,1713.99 819.98,1711.23 811.058,1712C802.133,1712.75 794.039,1716.95 788.266,1723.79C786.842,1725.48 787.058,1728.01 788.747,1729.43C790.436,1730.86 792.959,1730.64 794.383,1728.95C798.779,1723.74 804.942,1720.54 811.738,1719.97C818.53,1719.39 825.147,1721.49 830.362,1725.88C832.631,1727.8 834.53,1730.06 836.007,1732.61C836.608,1733.65 837.644,1734.36 838.829,1734.56C840.012,1734.75 841.221,1734.4 842.12,1733.6C855.333,1721.91 875.486,1721.68 888.999,1733.07C898.912,1741.43 903.552,1754.54 901.107,1767.3C900.895,1768.41 901.159,1769.55 901.834,1770.45C902.509,1771.35 903.532,1771.93 904.652,1772.04C910.437,1772.59 915.847,1774.87 920.297,1778.62C928.761,1785.76 932.352,1797.28 929.445,1807.97C928.995,1809.63 929.652,1811.39 931.077,1812.34C931.861,1812.87 932.601,1813.42 933.276,1813.99C938.32,1818.25 941.406,1824.21 941.966,1830.78C942.526,1837.35 940.493,1843.75 936.242,1848.79C934.818,1850.48 935.033,1853.01 936.722,1854.43C937.472,1855.06 938.388,1855.37 939.298,1855.37C940.436,1855.37 941.567,1854.89 942.358,1853.95C947.987,1847.27 950.679,1838.8 949.937,1830.1C949.196,1821.4 945.11,1813.51 938.433,1807.88Z" style="fill:rgb(42,44,43);fill-rule:nonzero;"/>
        </g>
        <g transform="matrix(4.16667,0,0,4.16667,-2635.84,-4380.68)">
            <path d="M934.857,1763.49L965.677,1736.17C966.71,1735.26 966.806,1733.68 965.89,1732.64C964.973,1731.61 963.393,1731.51 962.361,1732.43L931.541,1759.75C930.508,1760.67 930.413,1762.25 931.329,1763.28C931.823,1763.84 932.51,1764.12 933.2,1764.12C933.79,1764.12 934.382,1763.92 934.857,1763.49Z" style="fill:rgb(42,44,43);fill-rule:nonzero;"/>
        </g>
        <g transform="matrix(4.16667,0,0,4.16667,-2635.84,-4380.68)">
            <path d="M986.186,1728.98L955.366,1756.3C954.333,1757.21 954.238,1758.79 955.154,1759.83C955.647,1760.39 956.335,1760.67 957.025,1760.67C957.615,1760.67 958.207,1760.46 958.683,1760.04L989.502,1732.72C990.535,1731.8 990.63,1730.22 989.714,1729.19C988.799,1728.16 987.218,1728.06 986.186,1728.98Z" style="fill:rgb(42,44,43);fill-rule:nonzero;"/>
        </g>
        <g transform="matrix(4.16667,0,0,4.16667,-2635.84,-4380.68)">
            <path d="M919.315,1682.6L888.495,1709.92C887.462,1710.84 887.367,1712.42 888.283,1713.45C888.776,1714.01 889.464,1714.29 890.154,1714.29C890.744,1714.29 891.336,1714.08 891.812,1713.66L922.631,1686.34C923.665,1685.43 923.76,1683.85 922.844,1682.81C921.929,1681.78 920.348,1681.68 919.315,1682.6Z" style="fill:rgb(42,44,43);fill-rule:nonzero;"/>
        </g>
        <g transform="matrix(4.16667,0,0,4.16667,-2635.84,-4380.68)">
            <path d="M875.634,1708.55C876.223,1708.55 876.815,1708.34 877.291,1707.92L922.43,1667.9C923.463,1666.99 923.559,1665.41 922.643,1664.38C921.727,1663.34 920.146,1663.25 919.114,1664.16L873.975,1704.18C872.941,1705.09 872.846,1706.67 873.762,1707.71C874.256,1708.26 874.943,1708.55 875.634,1708.55Z" style="fill:rgb(42,44,43);fill-rule:nonzero;"/>
        </g>
    </g>
</svg>
