<?xml version="1.0" encoding="UTF-8" standalone="no"?>
<!DOCTYPE svg PUBLIC "-//W3C//DTD SVG 1.1//EN" "http://www.w3.org/Graphics/SVG/1.1/DTD/svg11.dtd">
<svg width="100%" height="100%" viewBox="0 0 1248 1248" version="1.1" xmlns="http://www.w3.org/2000/svg" xmlns:xlink="http://www.w3.org/1999/xlink" xml:space="preserve" xmlns:serif="http://www.serif.com/" style="fill-rule:evenodd;clip-rule:evenodd;stroke-linejoin:round;stroke-miterlimit:2;">
    <g transform="matrix(1,0,0,1,-4335.33,-6271.41)">
        <g transform="matrix(4.16667,0,0,4.16667,0,0)">
            <g transform="matrix(1,0,0,1,50.5497,-3.53252)">
                <path d="M1163.39,1800.11L1163.39,1800.1L1163.26,1800.13L1163.39,1800.11Z" style="fill:url(#_Radial1);"/>
                <path d="M1139.73,1802.06L1140.41,1802.04L1138.92,1802.04L1139.73,1802.06Z" style="fill:url(#_Radial2);"/>
                <path d="M1139.44,1514.6L1138.75,1514.61L1140.24,1514.61L1139.44,1514.6Z" style="fill:url(#_Radial3);"/>
                <path d="M1094.26,1794.76L1095.15,1795.05L1094.52,1794.83L1094.26,1794.76Z" style="fill:rgb(236,234,106);fill-rule:nonzero;"/>
                <path d="M1083.89,1790.88L1084.23,1791.02L1084.01,1790.91L1083.89,1790.88Z" style="fill:rgb(236,234,106);fill-rule:nonzero;"/>
                <path d="M1084.26,1791.03L1085.04,1791.34L1084.89,1791.27L1084.26,1791.03Z" style="fill:rgb(236,234,106);fill-rule:nonzero;"/>
                <path d="M1064.97,1781.19L1066.3,1781.99L1066.29,1781.98L1064.97,1781.19Z" style="fill:rgb(236,234,106);fill-rule:nonzero;"/>
                <path d="M1107.81,1798.52L1108.8,1798.73L1108.71,1798.71L1107.81,1798.52Z" style="fill:rgb(236,234,106);fill-rule:nonzero;"/>
                <path d="M1062.41,1779.61L1063.23,1780.13L1062.61,1779.73L1062.41,1779.61Z" style="fill:rgb(236,234,106);fill-rule:nonzero;"/>
                <path d="M1039.04,1761.04L1039.38,1761.37L1039.21,1761.2L1039.04,1761.04Z" style="fill:rgb(236,234,106);fill-rule:nonzero;"/>
                <path d="M1042.75,1764.55C1042.94,1764.71 1043.14,1764.88 1043.33,1765.05C1043.18,1764.92 1043.03,1764.79 1042.88,1764.65L1042.75,1764.55Z" style="fill:rgb(236,234,106);fill-rule:nonzero;"/>
                <path d="M1053.16,1773.19L1053.96,1773.79L1053.68,1773.57L1053.16,1773.19Z" style="fill:rgb(236,234,106);fill-rule:nonzero;"/>
                <path d="M1125.64,1801.37L1126.66,1801.47L1125.66,1801.37L1125.64,1801.37Z" style="fill:rgb(236,234,106);fill-rule:nonzero;"/>
                <path d="M1280.56,1630.18L1280.38,1629.33L1280.41,1629.47L1280.56,1630.18Z" style="fill:rgb(236,234,106);fill-rule:nonzero;"/>
                <path d="M1280.92,1632.13L1280.78,1631.37L1280.87,1631.87L1280.92,1632.13Z" style="fill:rgb(236,234,106);fill-rule:nonzero;"/>
                <path d="M1282.41,1642.19L1282.38,1641.9L1282.38,1641.95L1282.41,1642.19Z" style="fill:rgb(236,234,106);fill-rule:nonzero;"/>
                <path d="M1247.61,1563.54L1247.26,1563.14L1247.6,1563.54L1247.61,1563.54Z" style="fill:rgb(236,234,106);fill-rule:nonzero;"/>
                <path d="M1218.49,1582.92C1219.6,1566.38 1217.85,1550.36 1213.7,1535.24C1194.7,1523.79 1172.81,1516.5 1149.14,1514.92C1147.67,1514.82 1146.21,1514.74 1144.76,1514.7L1143.42,1514.66C1142.35,1514.64 1141.3,1514.61 1140.24,1514.61L1138.75,1514.61C1138.17,1514.61 1137.6,1514.61 1137.03,1514.63C1136.41,1514.64 1135.8,1514.64 1135.18,1514.67C1134.6,1514.69 1134.01,1514.7 1133.42,1514.73C1132.83,1514.74 1132.24,1514.79 1131.65,1514.82C1131.04,1514.84 1130.44,1514.89 1129.84,1514.92C1129.27,1514.96 1128.71,1515 1128.13,1515.05C1127.52,1515.09 1126.9,1515.15 1126.29,1515.21C1125.74,1515.26 1125.2,1515.31 1124.64,1515.36C1124.02,1515.44 1123.4,1515.49 1122.77,1515.56C1122.23,1515.63 1121.71,1515.69 1121.18,1515.77C1120.54,1515.86 1119.91,1515.93 1119.27,1516.02C1118.77,1516.1 1118.25,1516.17 1117.74,1516.25C1117.09,1516.35 1116.45,1516.44 1115.8,1516.56C1115.31,1516.64 1114.84,1516.72 1114.35,1516.81C1113.68,1516.93 1113.02,1517.05 1112.35,1517.18L1110.99,1517.46C1110.3,1517.58 1109.62,1517.72 1108.93,1517.88L1107.68,1518.17C1106.97,1518.33 1106.26,1518.47 1105.56,1518.65L1104.43,1518.93C1103.68,1519.13 1102.94,1519.31 1102.21,1519.52L1101.25,1519.78C1100.46,1519.99 1099.66,1520.21 1098.88,1520.45L1098.22,1520.65C1097.34,1520.91 1096.46,1521.19 1095.58,1521.47L1095.51,1521.49C1089.22,1523.52 1083.13,1525.96 1077.24,1528.81L1076.93,1528.96C1076.08,1529.36 1075.24,1529.8 1074.41,1530.21L1073.89,1530.47C1073.11,1530.88 1072.32,1531.29 1071.54,1531.72L1070.91,1532.05C1070.16,1532.46 1069.41,1532.88 1068.67,1533.31L1067.97,1533.7C1067.24,1534.13 1066.52,1534.55 1065.8,1534.98L1065.07,1535.42C1064.37,1535.84 1063.67,1536.29 1062.97,1536.71L1062.21,1537.2C1061.53,1537.63 1060.85,1538.09 1060.17,1538.54L1059.41,1539.05C1058.74,1539.49 1058.07,1539.94 1057.41,1540.42L1056.64,1540.96C1055.98,1541.42 1055.33,1541.89 1054.7,1542.36L1053.93,1542.92C1053.29,1543.39 1052.64,1543.89 1052.01,1544.36L1051.26,1544.96C1050.63,1545.44 1050.01,1545.93 1049.38,1546.45L1048.65,1547.04C1048.03,1547.54 1047.41,1548.05 1046.79,1548.59L1046.08,1549.17C1045.48,1549.71 1044.87,1550.23 1044.25,1550.77L1043.58,1551.38C1042.97,1551.92 1042.37,1552.47 1041.77,1553.03L1041.13,1553.63C1040.53,1554.2 1039.93,1554.77 1039.34,1555.35L1038.75,1555.91C1038.14,1556.5 1037.55,1557.11 1036.95,1557.71L1036.44,1558.25C1035.82,1558.88 1035.22,1559.5 1034.63,1560.14L1034.2,1560.6C1033.58,1561.26 1032.96,1561.95 1032.35,1562.62L1032.08,1562.92C1027.8,1567.75 1023.84,1572.84 1020.22,1578.23L1020.11,1578.39C1019.62,1579.12 1019.14,1579.86 1018.66,1580.62L1018.24,1581.25C1017.82,1581.91 1017.4,1582.59 1016.98,1583.28L1016.45,1584.14C1016.07,1584.79 1015.7,1585.44 1015.32,1586.06L1014.71,1587.09C1014.37,1587.71 1014.02,1588.33 1013.68,1588.93L1013.05,1590.09C1012.73,1590.69 1012.41,1591.29 1012.09,1591.9L1011.46,1593.11C1011.16,1593.72 1010.87,1594.32 1010.56,1594.92L1009.94,1596.21C1009.66,1596.79 1009.38,1597.38 1009.1,1597.97L1008.49,1599.33C1008.22,1599.92 1007.97,1600.5 1007.71,1601.09L1007.11,1602.49C1006.86,1603.08 1006.63,1603.66 1006.38,1604.24C1006.2,1604.73 1005.99,1605.22 1005.8,1605.71C1005.57,1606.29 1005.35,1606.87 1005.13,1607.45C1004.94,1607.95 1004.75,1608.46 1004.57,1608.96C1004.35,1609.54 1004.16,1610.11 1003.94,1610.68C1003.77,1611.21 1003.59,1611.73 1003.41,1612.25C1003.22,1612.81 1003.03,1613.39 1002.84,1613.97C1002.67,1614.5 1002.51,1615.05 1002.34,1615.58C1002.16,1616.15 1001.98,1616.73 1001.81,1617.29C1001.64,1617.85 1001.49,1618.4 1001.33,1618.96C1001.18,1619.52 1001.01,1620.09 1000.86,1620.65C1000.71,1621.23 1000.56,1621.8 1000.41,1622.36C1000.27,1622.93 1000.12,1623.48 999.982,1624.05C999.839,1624.64 999.708,1625.22 999.569,1625.8C999.438,1626.37 999.307,1626.92 999.188,1627.49C999.053,1628.09 998.928,1628.68 998.813,1629.29C998.695,1629.84 998.585,1630.4 998.473,1630.96C998.354,1631.58 998.247,1632.2 998.129,1632.84C998.037,1633.37 997.934,1633.92 997.842,1634.45C997.736,1635.1 997.637,1635.76 997.535,1636.42C997.454,1636.94 997.37,1637.46 997.295,1637.98C997.191,1638.68 997.111,1639.37 997.024,1640.06C996.962,1640.57 996.894,1641.05 996.836,1641.55C996.742,1642.33 996.674,1643.12 996.59,1643.89L996.459,1645.15C996.35,1646.35 996.252,1647.56 996.176,1648.77C995.255,1662.48 996.299,1675.89 999.059,1688.68C1000.52,1690.68 1001.81,1693.34 1003.34,1694.14C1005.6,1695.31 1008.7,1695.02 1011.04,1696.04C1011.73,1696.35 1012.27,1696.78 1012.75,1697.24C1012.57,1696.63 1012.51,1695.96 1012.62,1695.14L1012.73,1686.4C1013.33,1683.8 1014.69,1681.35 1016.23,1679.02L1016,1678.79C991.069,1651.09 1005.37,1597.57 1047.94,1559.26C1090.1,1521.31 1144.17,1512.54 1169.41,1539.28C1169.96,1538.64 1170.59,1538.03 1171.32,1537.5C1175.53,1534.46 1180.92,1535.11 1183.35,1539.01L1183.97,1540.26L1184.24,1540.4C1185.02,1540.22 1185.8,1540.17 1186.56,1540.29L1186.56,1540.26L1186.6,1540.29L1187.64,1540.53L1187.7,1540.54L1188.56,1540.96L1188.81,1541.1L1189.41,1541.59L1189.62,1541.81L1190.29,1542.63L1190.49,1542.99L1190.56,1542.69C1191.13,1540.47 1191.77,1538.06 1192.01,1535.64C1192.71,1535.98 1196.83,1554.04 1194.84,1561.76C1193.82,1565.59 1192.97,1569.37 1191.61,1573.12C1189.98,1577.57 1187.23,1587.38 1182.15,1589.24L1180.97,1589.38C1179.31,1598.02 1176.26,1606.93 1171.89,1615.82C1174.96,1613.79 1176.68,1612.59 1178.31,1608.49C1180.44,1603.23 1182.58,1598.15 1186.77,1593.89C1190.07,1590.55 1192.38,1587.49 1192.51,1583.27C1192.66,1578.82 1194.67,1575.17 1196.43,1570.5C1196.71,1573.8 1196.67,1577.2 1196.36,1580.62C1196.9,1579.28 1197.48,1577.9 1198.04,1576.42C1198.63,1583.28 1197.82,1590.49 1196.1,1597.64C1195.66,1599.51 1194.91,1600.94 1194.54,1602.57L1194.39,1603.49L1194.38,1603.56L1194.33,1604.63C1194.39,1606.79 1195.3,1608.74 1194.91,1611.02C1194.37,1614.22 1193.15,1613.86 1191.08,1616.37C1189.2,1618.65 1189.38,1620.69 1188.67,1623.27C1187.86,1626.21 1186.4,1627.53 1184.41,1629.99C1182.23,1632.69 1182.05,1633.94 1181.67,1636.94C1181.3,1639.84 1180.44,1640.91 1177.72,1642.96C1175.88,1644.34 1172.46,1645.42 1171.15,1647.29C1169.88,1649.13 1169.9,1652.59 1168.9,1654.73C1166.79,1659.26 1164.03,1662.18 1160.02,1665.27C1156.08,1668.32 1153.18,1672.33 1148.99,1675.13C1146.7,1676.68 1145.51,1678.8 1143.6,1680.72C1138.82,1685.47 1132.53,1684.05 1129.42,1690.3C1127.95,1693.22 1127.78,1693.76 1125.14,1695.31C1122.85,1696.68 1121.97,1697.25 1120.1,1699.49C1119.01,1700.78 1117.52,1703.12 1115.89,1703.79C1113.95,1704.59 1112.05,1703.12 1110,1704.2C1108.53,1704.99 1107.23,1706.57 1105.88,1708.16C1109.05,1708.16 1112.03,1709.38 1114.14,1711.69C1171.02,1695.66 1214.33,1645.26 1218.49,1582.92Z" style="fill:rgb(236,234,106);fill-rule:nonzero;"/>
                <path d="M1283.17,1664.46L1283.2,1663.78L1283.18,1663.94L1283.17,1664.46Z" style="fill:rgb(236,234,106);fill-rule:nonzero;"/>
                <path d="M1283.25,1654.05L1283.2,1652.77L1283.24,1654.01L1283.25,1654.05Z" style="fill:rgb(236,234,106);fill-rule:nonzero;"/>
                <path d="M1283.3,1657.25L1283.28,1656.19L1283.29,1656.97L1283.3,1657.25Z" style="fill:rgb(236,234,106);fill-rule:nonzero;"/>
                <path d="M1118.77,1800.54L1119.27,1800.61L1119.13,1800.59L1118.77,1800.54Z" style="fill:rgb(236,234,106);fill-rule:nonzero;"/>
                <path d="M1032.61,1754.32C1033.44,1755.23 1034.28,1756.16 1035.13,1757.05L1035.02,1756.93C1034.22,1756.06 1033.4,1755.2 1032.61,1754.32Z" style="fill:rgb(236,234,106);fill-rule:nonzero;"/>
                <path d="M1023.89,1743.59C1024.43,1744.32 1024.98,1745.06 1025.54,1745.79L1025.5,1745.73C1024.95,1745.03 1024.41,1744.31 1023.89,1743.59Z" style="fill:rgb(236,234,106);fill-rule:nonzero;"/>
                <path d="M1022.19,1741.24C1022.32,1741.43 1022.46,1741.61 1022.59,1741.8L1022.45,1741.6L1022.19,1741.24Z" style="fill:rgb(236,234,106);fill-rule:nonzero;"/>
                <path d="M1020.08,1738.19C1020.67,1739.07 1021.27,1739.94 1021.88,1740.8C1021.3,1739.98 1020.73,1739.15 1020.17,1738.3L1020.08,1738.19Z" style="fill:rgb(236,234,106);fill-rule:nonzero;"/>
                <path d="M1014.78,1729.63C1015.19,1730.35 1015.61,1731.06 1016.02,1731.76C1015.62,1731.06 1015.21,1730.37 1014.81,1729.67L1014.78,1729.63Z" style="fill:rgb(236,234,106);fill-rule:nonzero;"/>
                <path d="M1028.85,1749.95C1029.28,1750.46 1029.71,1750.96 1030.14,1751.49L1029.08,1750.21L1028.85,1749.95Z" style="fill:rgb(236,234,106);fill-rule:nonzero;"/>
                <path d="M1008.57,1717.48C1008.9,1718.22 1009.25,1718.96 1009.6,1719.7C1009.25,1718.96 1008.91,1718.22 1008.58,1717.48L1008.57,1717.48Z" style="fill:rgb(236,234,106);fill-rule:nonzero;"/>
                <path d="M1012.56,1725.6L1012.29,1725.11C1013.01,1726.47 1013.75,1727.82 1014.5,1729.15L1014.41,1728.95C1013.77,1727.84 1013.17,1726.72 1012.56,1725.6Z" style="fill:rgb(236,234,106);fill-rule:nonzero;"/>
                <path d="M1037.29,1692.15C1034.27,1695.44 1030.71,1698.23 1026.21,1697.54C1023.79,1697.17 1021.97,1696.39 1019.57,1697.51C1018.12,1698.18 1017.23,1699.56 1015.85,1700.27L1016.19,1700.49C1019.47,1702.17 1022.28,1699.73 1025.9,1698.66C1033.06,1696.55 1035.91,1703.32 1043.57,1698.81C1048.02,1696.2 1051.7,1695.05 1056.4,1695.19C1059.14,1695.29 1062.83,1696.26 1065.73,1694.95L1066.7,1694.44C1056.11,1695.67 1046.11,1694.92 1037.29,1692.15Z" style="fill:rgb(236,234,106);fill-rule:nonzero;"/>
                <path d="M1096.01,1712.17L1095.84,1712.22C1094.32,1712.81 1092.8,1714.82 1091.38,1716.17C1091.91,1716.12 1092.44,1716.04 1092.96,1715.98C1093.76,1714.6 1094.77,1713.3 1096.01,1712.17Z" style="fill:rgb(236,234,106);fill-rule:nonzero;"/>
                <path d="M1010.31,1721.19L1010.07,1720.7C1010.77,1722.15 1011.5,1723.58 1012.24,1725.02L1012.15,1724.81C1011.52,1723.61 1010.91,1722.41 1010.31,1721.19Z" style="fill:rgb(236,234,106);fill-rule:nonzero;"/>
                <path d="M1009.73,1719.97L1009.9,1720.35L1009.83,1720.18L1009.73,1719.97Z" style="fill:rgb(236,234,106);fill-rule:nonzero;"/>
                <path d="M994.946,1686.53L995.734,1686.34C997.012,1686.29 998.077,1687.35 999.059,1688.68C996.299,1675.89 995.255,1662.48 996.176,1648.77C996.252,1647.56 996.35,1646.35 996.459,1645.15L996.59,1643.89C996.674,1643.12 996.742,1642.33 996.836,1641.55C996.894,1641.05 996.962,1640.57 997.024,1640.06C997.111,1639.37 997.191,1638.68 997.295,1637.98C997.37,1637.46 997.454,1636.94 997.535,1636.42C997.637,1635.76 997.736,1635.1 997.842,1634.45C997.934,1633.92 998.037,1633.37 998.129,1632.84C998.247,1632.2 998.354,1631.58 998.473,1630.96C998.585,1630.4 998.695,1629.84 998.813,1629.29C998.928,1628.68 999.053,1628.09 999.188,1627.49C999.307,1626.92 999.438,1626.37 999.569,1625.8C999.708,1625.22 999.839,1624.64 999.982,1624.05C1000.12,1623.48 1000.27,1622.93 1000.41,1622.36C1000.56,1621.8 1000.71,1621.23 1000.86,1620.65C1001.01,1620.09 1001.18,1619.52 1001.33,1618.96C1001.49,1618.4 1001.64,1617.85 1001.81,1617.29C1001.98,1616.73 1002.16,1616.15 1002.34,1615.58C1002.51,1615.05 1002.67,1614.5 1002.84,1613.97C1003.03,1613.39 1003.22,1612.81 1003.41,1612.25C1003.59,1611.73 1003.77,1611.21 1003.94,1610.68C1004.16,1610.11 1004.35,1609.54 1004.57,1608.96C1004.75,1608.46 1004.94,1607.95 1005.13,1607.45C1005.35,1606.87 1005.57,1606.29 1005.8,1605.71C1005.99,1605.22 1006.2,1604.73 1006.38,1604.24C1006.63,1603.66 1006.86,1603.08 1007.11,1602.49L1007.71,1601.09C1007.97,1600.5 1008.22,1599.92 1008.49,1599.33L1009.1,1597.97C1009.38,1597.38 1009.66,1596.79 1009.94,1596.21L1010.56,1594.92C1010.87,1594.32 1011.16,1593.72 1011.46,1593.11L1012.09,1591.9C1012.41,1591.29 1012.73,1590.69 1013.05,1590.09L1013.68,1588.93C1014.02,1588.33 1014.37,1587.71 1014.71,1587.09L1015.32,1586.06C1015.7,1585.44 1016.07,1584.79 1016.45,1584.14L1016.98,1583.28C1017.4,1582.59 1017.82,1581.91 1018.24,1581.25L1018.66,1580.62C1019.14,1579.86 1019.62,1579.12 1020.11,1578.39L1020.22,1578.23C1023.84,1572.84 1027.8,1567.75 1032.08,1562.92L1032.35,1562.62C1032.96,1561.95 1033.58,1561.26 1034.2,1560.6L1034.63,1560.14C1035.22,1559.5 1035.82,1558.88 1036.44,1558.25L1036.95,1557.71C1037.55,1557.11 1038.14,1556.5 1038.75,1555.91L1039.34,1555.35C1039.93,1554.77 1040.53,1554.2 1041.13,1553.63L1041.77,1553.03C1042.37,1552.47 1042.97,1551.92 1043.58,1551.38L1044.25,1550.77C1044.87,1550.23 1045.48,1549.71 1046.08,1549.17L1046.79,1548.59C1047.41,1548.05 1048.03,1547.54 1048.65,1547.04L1049.38,1546.45C1050.01,1545.93 1050.63,1545.44 1051.26,1544.96L1052.01,1544.36C1052.64,1543.89 1053.29,1543.39 1053.93,1542.92L1054.7,1542.36C1055.33,1541.89 1055.98,1541.42 1056.64,1540.96L1057.41,1540.42C1058.07,1539.94 1058.74,1539.49 1059.41,1539.05L1060.17,1538.54C1060.85,1538.09 1061.53,1537.63 1062.21,1537.2L1062.97,1536.71C1063.67,1536.29 1064.37,1535.84 1065.07,1535.42L1065.8,1534.98C1066.52,1534.55 1067.24,1534.13 1067.97,1533.7L1068.67,1533.31C1069.41,1532.88 1070.16,1532.46 1070.91,1532.05L1071.54,1531.72C1072.32,1531.29 1073.11,1530.88 1073.89,1530.47L1074.41,1530.21C1075.24,1529.8 1076.08,1529.36 1076.93,1528.96L1077.24,1528.81C1083.13,1525.96 1089.22,1523.52 1095.51,1521.49L1095.58,1521.47C1096.46,1521.19 1097.34,1520.91 1098.22,1520.65L1098.88,1520.45C1099.66,1520.21 1100.46,1519.99 1101.25,1519.78L1102.21,1519.52C1102.94,1519.31 1103.68,1519.13 1104.43,1518.93L1105.56,1518.65C1106.26,1518.47 1106.97,1518.33 1107.68,1518.17L1108.93,1517.88C1109.62,1517.72 1110.3,1517.58 1110.99,1517.46L1112.35,1517.18C1113.02,1517.05 1113.68,1516.93 1114.35,1516.81C1114.84,1516.72 1115.31,1516.64 1115.8,1516.56C1116.45,1516.44 1117.09,1516.35 1117.74,1516.25C1118.25,1516.17 1118.77,1516.1 1119.27,1516.02C1119.91,1515.93 1120.54,1515.86 1121.18,1515.77C1121.71,1515.69 1122.23,1515.63 1122.77,1515.56C1123.4,1515.49 1124.02,1515.44 1124.64,1515.36C1125.2,1515.31 1125.74,1515.26 1126.29,1515.21C1126.9,1515.15 1127.52,1515.09 1128.13,1515.05C1128.71,1515 1129.27,1514.96 1129.84,1514.92C1130.44,1514.89 1131.04,1514.84 1131.65,1514.82C1132.24,1514.79 1132.83,1514.74 1133.42,1514.73C1134.01,1514.7 1134.6,1514.69 1135.18,1514.67C1135.8,1514.64 1136.41,1514.64 1137.03,1514.63C1137.6,1514.61 1138.17,1514.61 1138.75,1514.61L1139.44,1514.6L1140.24,1514.61C1141.3,1514.61 1142.35,1514.64 1143.42,1514.66L1144.76,1514.7C1146.21,1514.74 1147.67,1514.82 1149.14,1514.92C1172.81,1516.5 1194.7,1523.79 1213.7,1535.24C1213.69,1535.21 1213.68,1535.17 1213.68,1535.14C1214.96,1535.92 1216.24,1536.71 1217.52,1537.55L1218.1,1537.93C1220.66,1539.61 1223.16,1541.36 1225.61,1543.19L1226.07,1543.53C1227.17,1544.36 1228.26,1545.2 1229.33,1546.05L1229.77,1546.41C1230.97,1547.38 1232.16,1548.38 1233.34,1549.38L1233.35,1549.4C1234.47,1550.36 1235.58,1551.36 1236.67,1552.35L1237.23,1552.88C1238.01,1553.6 1238.75,1554.39 1239.52,1555.14C1239.97,1555.58 1240.43,1556.03 1240.87,1556.47C1241.8,1557.39 1242.77,1558.28 1243.66,1559.23L1244.15,1559.73C1245.06,1560.71 1245.96,1561.68 1246.83,1562.66L1247.26,1563.14L1247.61,1563.54C1248.29,1563.26 1248.96,1563.12 1249.49,1563.14C1250.97,1563.23 1251.94,1563.7 1252.72,1564.36C1253.48,1563.83 1254.36,1563.45 1255.14,1563.25C1254.17,1562.1 1253.2,1560.92 1252.2,1559.79C1225.88,1529.7 1189.41,1511.68 1149.53,1509.01C1146.18,1508.79 1142.79,1508.67 1139.45,1508.67L1139.44,1508.67C1101.55,1508.67 1065.35,1522.96 1037.53,1548.88C1009.6,1574.9 992.807,1610.25 990.268,1648.37C989.365,1661.93 990.273,1675.32 992.906,1688.29C993.49,1687.5 994.224,1686.83 994.946,1686.53Z" style="fill:rgb(225,197,132);fill-rule:nonzero;"/>
                <path d="M1282.35,1617.37C1281.26,1619.96 1283.25,1621.46 1282.96,1623.96C1282.74,1625.88 1281.63,1627.51 1280.32,1629.08L1280.38,1629.33L1280.56,1630.18L1280.78,1631.37L1280.92,1632.13L1281.06,1632.92L1281.17,1633.56L1281.37,1634.64C1281.46,1635.2 1281.54,1635.76 1281.63,1636.32L1281.76,1637.08L1281.8,1637.38L1281.84,1637.69L1281.84,1637.71L1281.88,1637.93C1281.95,1638.47 1282.03,1639.02 1282.1,1639.57C1282.17,1640.12 1282.23,1640.66 1282.3,1641.2L1282.38,1641.9L1282.41,1642.19L1282.44,1642.32L1282.47,1642.7L1282.48,1642.86C1282.56,1643.52 1282.62,1644.18 1282.68,1644.84L1282.76,1645.58L1282.8,1646.1L1282.8,1646.15L1282.87,1646.92L1282.94,1647.92C1282.97,1648.41 1283.01,1648.9 1283.04,1649.38L1283.06,1649.93L1283.12,1650.96L1283.2,1652.37L1283.2,1652.77L1283.25,1654.05L1283.27,1654.99L1283.28,1656.19L1283.3,1657.25L1283.3,1658.83L1283.29,1659.65L1283.29,1659.69L1283.28,1661.02L1283.25,1662.33L1283.23,1662.83L1283.21,1663.49L1283.2,1663.78L1283.17,1664.46C1283.12,1665.59 1283.06,1666.74 1282.99,1667.9C1282.9,1669.1 1282.81,1670.3 1282.7,1671.52L1282.57,1672.73C1282.49,1673.53 1282.41,1674.33 1282.33,1675.11L1282.14,1676.57C1282.05,1677.27 1281.96,1677.97 1281.86,1678.67C1281.79,1679.19 1281.7,1679.72 1281.63,1680.23C1281.53,1680.88 1281.43,1681.55 1281.32,1682.21C1281.23,1682.73 1281.13,1683.28 1281.03,1683.82C1280.92,1684.45 1280.81,1685.09 1280.69,1685.71C1280.58,1686.26 1280.46,1686.8 1280.35,1687.35C1280.23,1687.97 1280.1,1688.57 1279.98,1689.17C1279.85,1689.73 1279.73,1690.29 1279.59,1690.84C1279.46,1691.43 1279.33,1692.02 1279.17,1692.61C1279.04,1693.16 1278.9,1693.72 1278.75,1694.29C1278.61,1694.85 1278.46,1695.43 1278.29,1696.01C1278.15,1696.56 1277.99,1697.13 1277.83,1697.68C1277.67,1698.24 1277.51,1698.81 1277.34,1699.37C1277.18,1699.93 1277.01,1700.49 1276.83,1701.05C1276.66,1701.6 1276.48,1702.15 1276.31,1702.7C1276.14,1703.26 1275.94,1703.82 1275.76,1704.38C1275.57,1704.91 1275.39,1705.46 1275.2,1705.99C1275.01,1706.56 1274.81,1707.11 1274.6,1707.68L1274.54,1707.83C1275.11,1707.01 1275.71,1706.2 1276.4,1705.43C1278.59,1703.01 1280.12,1700.88 1280.26,1698.15C1280.4,1695.31 1281.76,1692.79 1282.95,1689.68C1283.25,1694 1282.63,1698.67 1281.43,1703.39C1281.13,1704.63 1280.63,1705.6 1280.37,1706.67L1280.38,1706.67L1280.37,1706.68L1280.27,1707.23L1280.25,1707.34L1280.21,1708.02L1280.34,1709.25C1285.04,1696.2 1287.95,1682.43 1288.89,1668.29C1290.09,1650.33 1288.09,1632.66 1283.15,1615.91C1282.86,1616.37 1282.56,1616.85 1282.35,1617.37Z" style="fill:rgb(225,197,132);fill-rule:nonzero;"/>
                <path d="M1271.82,1728.43C1272.48,1727.22 1273.1,1725.98 1273.71,1724.75L1273.48,1725.05C1272.41,1726.48 1272.05,1727.29 1271.82,1728.43Z" style="fill:rgb(225,197,132);fill-rule:nonzero;"/>
                <path d="M1257.28,1749.63C1254.69,1751.92 1252.77,1754.71 1250.01,1756.86C1248.5,1758.03 1247.73,1759.49 1246.46,1760.88C1243.3,1764.32 1239.26,1763.94 1237.17,1768.17C1236.18,1770.17 1236.06,1770.52 1234.34,1771.75C1232.84,1772.81 1232.27,1773.26 1231.03,1774.84C1230.31,1775.75 1229.31,1777.38 1228.26,1777.93C1227,1778.61 1225.78,1777.83 1224.44,1778.69C1222.36,1780.03 1220.78,1783.69 1218.22,1784.73C1217.09,1785.2 1216.38,1784.38 1215.19,1785C1213.99,1785.6 1212.77,1787.54 1211.69,1788.43C1210.44,1789.47 1208.73,1790.56 1207.3,1790.88C1206.31,1791.09 1205.03,1790.35 1204.16,1790.77C1203.43,1791.13 1202.54,1792.63 1201.74,1793.26C1200.82,1794.01 1197.89,1796.2 1196.89,1796.44C1195.88,1796.67 1195.3,1795.9 1194.21,1796.14C1192.06,1796.63 1190.24,1798.52 1188.34,1799.84C1207.93,1793.11 1226.09,1782.26 1241.63,1767.78C1248.69,1761.2 1254.96,1753.97 1260.54,1746.3C1259.61,1747.45 1258.54,1748.52 1257.28,1749.63Z" style="fill:rgb(225,197,132);fill-rule:nonzero;"/>
                <path d="M1264.69,1737.21C1263.84,1738.5 1263.81,1740.7 1263.14,1742.16C1262.53,1743.49 1261.81,1744.62 1261.02,1745.68C1263.7,1741.95 1266.27,1738.15 1268.6,1734.2C1267.35,1735.12 1265.48,1736.03 1264.69,1737.21Z" style="fill:rgb(225,197,132);fill-rule:nonzero;"/>
                <path d="M1167.37,1801.05C1165.96,1800.75 1164.6,1800.75 1163.39,1800.11L1163.26,1800.13C1162.7,1800.22 1162.14,1800.3 1161.57,1800.38C1160.97,1800.48 1160.39,1800.57 1159.8,1800.65C1159.24,1800.72 1158.67,1800.8 1158.1,1800.87C1157.51,1800.95 1156.91,1801.02 1156.31,1801.1C1155.74,1801.15 1155.18,1801.22 1154.61,1801.28C1154.01,1801.35 1153.41,1801.4 1152.8,1801.46C1152.23,1801.5 1151.66,1801.56 1151.1,1801.6C1150.48,1801.65 1149.88,1801.7 1149.25,1801.73C1148.69,1801.77 1148.12,1801.8 1147.55,1801.84C1146.93,1801.88 1146.32,1801.9 1145.7,1801.93C1145.13,1801.95 1144.57,1801.97 1144,1801.99C1143.37,1802 1142.74,1802.02 1142.12,1802.02C1141.55,1802.03 1140.98,1802.04 1140.41,1802.04L1139.73,1802.06L1138.92,1802.04C1137.86,1802.03 1136.8,1802.02 1135.74,1801.99L1134.41,1801.96C1132.95,1801.9 1131.49,1801.83 1130.03,1801.73C1128.89,1801.66 1127.77,1801.57 1126.66,1801.47L1125.64,1801.37L1124.92,1801.29L1124.53,1801.27L1123.25,1801.13L1122.53,1801.04C1121.91,1800.96 1121.29,1800.89 1120.68,1800.81L1120.13,1800.73C1120.05,1800.72 1119.97,1800.71 1119.89,1800.7L1119.86,1800.69L1119.27,1800.61L1118.77,1800.54C1118.54,1800.5 1118.3,1800.46 1118.07,1800.43L1117.88,1800.4C1117.13,1800.29 1116.38,1800.16 1115.63,1800.04L1115.48,1800.03L1115.12,1799.96C1115.05,1799.95 1114.98,1799.94 1114.9,1799.93L1114.6,1799.87L1113.85,1799.75C1113.3,1799.63 1112.75,1799.54 1112.21,1799.45L1111.36,1799.27L1111.28,1799.25L1110.67,1799.13L1109.35,1798.85L1108.8,1798.73L1107.81,1798.52L1106.54,1798.21L1105.98,1798.1L1105.43,1797.96L1104.6,1797.76L1104.15,1797.65L1103.8,1797.56C1103.02,1797.35 1102.24,1797.14 1101.46,1796.92L1100.71,1796.73C1100.21,1796.58 1099.71,1796.44 1099.22,1796.3L1099.01,1796.24L1098.32,1796.03L1097.54,1795.8L1097.4,1795.76L1097.05,1795.65C1096.42,1795.45 1095.79,1795.25 1095.15,1795.05L1094.26,1794.76L1093.96,1794.65L1093.42,1794.47L1092.92,1794.29L1092.65,1794.2L1091.74,1793.89L1090.99,1793.63L1089.72,1793.15L1089.02,1792.9L1088.03,1792.53L1087.08,1792.16C1086.4,1791.9 1085.71,1791.63 1085.04,1791.34L1084.26,1791.03L1084.24,1791.02L1084.23,1791.02L1083.89,1790.88C1083.27,1790.6 1082.65,1790.34 1082.03,1790.06L1080.91,1789.57L1080.13,1789.22L1079.58,1788.97C1079.17,1788.79 1078.78,1788.59 1078.37,1788.4L1077.98,1788.22C1077.27,1787.89 1076.57,1787.54 1075.86,1787.2C1075.84,1787.19 1075.82,1787.17 1075.79,1787.16C1075.67,1787.1 1075.55,1787.05 1075.43,1786.99L1075.25,1786.89L1075.21,1786.88L1074.15,1786.34C1073.58,1786.05 1073.01,1785.74 1072.44,1785.44L1071.23,1784.8L1071.17,1784.77L1070.79,1784.56L1069.61,1783.91L1068.45,1783.25C1068.3,1783.16 1068.16,1783.07 1068.01,1782.99L1067.42,1782.66L1066.91,1782.35L1066.3,1781.99L1064.97,1781.19C1064.38,1780.84 1063.8,1780.48 1063.23,1780.13L1062.41,1779.61L1061.93,1779.28L1060.59,1778.43L1059.32,1777.57L1058.37,1776.92L1057.79,1776.53L1057.7,1776.46L1056.73,1775.79C1056.17,1775.39 1055.63,1775.01 1055.08,1774.59L1054.18,1773.94L1054.04,1773.83L1053.96,1773.79L1053.16,1773.19L1051.98,1772.29L1050.63,1771.23L1050.19,1770.88L1049.96,1770.7L1049.55,1770.38L1048.2,1769.28L1047.21,1768.45L1046.57,1767.91L1046.06,1767.47C1045.13,1766.67 1044.23,1765.86 1043.33,1765.05C1043.14,1764.88 1042.94,1764.71 1042.75,1764.55L1042.22,1764.05L1041.57,1763.45L1040.18,1762.13L1039.38,1761.37L1039.04,1761.04L1038.83,1760.81L1038.54,1760.53L1037.99,1759.97L1037.38,1759.37C1036.79,1758.78 1036.21,1758.17 1035.64,1757.58L1035.55,1757.48L1035.13,1757.05C1034.28,1756.16 1033.44,1755.23 1032.61,1754.32L1032.17,1753.82L1031.92,1753.53L1031.72,1753.3L1030.68,1752.1L1030.14,1751.49C1029.71,1750.96 1029.28,1750.46 1028.85,1749.95L1028.7,1749.78C1027.8,1748.68 1026.93,1747.57 1026.07,1746.47L1025.93,1746.29L1025.54,1745.79C1024.98,1745.06 1024.43,1744.32 1023.89,1743.59L1023.54,1743.12L1023.07,1742.48L1022.59,1741.8C1022.46,1741.61 1022.32,1741.43 1022.19,1741.24L1021.88,1740.8C1021.27,1739.94 1020.67,1739.07 1020.08,1738.19L1019.72,1737.65L1019.57,1737.42C1018.83,1736.29 1018.11,1735.15 1017.4,1734.02L1016.88,1733.16L1016.24,1732.12L1016.02,1731.76C1015.61,1731.06 1015.19,1730.35 1014.78,1729.63L1014.5,1729.15C1013.75,1727.82 1013.01,1726.47 1012.29,1725.11L1012.24,1725.02C1011.5,1723.58 1010.77,1722.15 1010.07,1720.7L1009.9,1720.35L1009.73,1719.97L1009.6,1719.7C1009.25,1718.96 1008.9,1718.22 1008.57,1717.48C1007.65,1716.93 1006.65,1716.48 1005.58,1715.84C1001.3,1713.3 999.951,1707.25 996.826,1703.47C1002.97,1722.91 1013.13,1741.06 1026.96,1756.87C1053.29,1786.96 1089.74,1804.98 1129.62,1807.63C1132.98,1807.87 1136.38,1807.99 1139.73,1807.99C1151.91,1807.99 1163.92,1806.49 1175.53,1803.63C1173.75,1803.92 1172.29,1803.54 1170.95,1802.84C1169.7,1802.19 1168.83,1801.36 1167.37,1801.05Z" style="fill:rgb(225,197,132);fill-rule:nonzero;"/>
                <path d="M1181.13,1800.78C1179.56,1801.4 1178.38,1802.7 1176.76,1803.32C1179.33,1802.66 1181.89,1801.94 1184.41,1801.15C1183.32,1800.94 1182.54,1800.23 1181.13,1800.78Z" style="fill:rgb(225,197,132);fill-rule:nonzero;"/>
                <path d="M1020.17,1738.3C1020.73,1739.15 1021.3,1739.98 1021.88,1740.8L1022.19,1741.24L1022.45,1741.6C1021.68,1740.53 1020.92,1739.43 1020.17,1738.3Z" style="fill:rgb(235,202,70);fill-rule:nonzero;"/>
                <path d="M1059.52,1777.69L1058.37,1776.92L1059.32,1777.57L1060.59,1778.43L1061.93,1779.28L1060.53,1778.38L1059.52,1777.69Z" style="fill:rgb(235,202,70);fill-rule:nonzero;"/>
                <path d="M1014.81,1729.67C1015.21,1730.37 1015.62,1731.06 1016.02,1731.76L1016.24,1732.12L1016.88,1733.16C1016.17,1732 1015.47,1730.85 1014.81,1729.67Z" style="fill:rgb(235,202,70);fill-rule:nonzero;"/>
                <path d="M1029.08,1750.21L1030.14,1751.49L1030.68,1752.1L1031.72,1753.3C1030.82,1752.29 1029.95,1751.26 1029.08,1750.21Z" style="fill:rgb(235,202,70);fill-rule:nonzero;"/>
                <path d="M1023.07,1742.48L1023.54,1743.12L1023.89,1743.59C1024.41,1744.31 1024.95,1745.03 1025.5,1745.73C1024.67,1744.66 1023.87,1743.58 1023.07,1742.48Z" style="fill:rgb(235,202,70);fill-rule:nonzero;"/>
                <path d="M1032.17,1753.82L1032.61,1754.32C1033.4,1755.2 1034.22,1756.06 1035.02,1756.93C1034.06,1755.9 1033.11,1754.87 1032.17,1753.82Z" style="fill:rgb(235,202,70);fill-rule:nonzero;"/>
                <path d="M1052.77,1772.87L1052.2,1772.43C1051.52,1771.91 1050.84,1771.4 1050.19,1770.88L1050.63,1771.23L1051.98,1772.29L1053.16,1773.19L1053.68,1773.57L1052.77,1772.87Z" style="fill:rgb(235,202,70);fill-rule:nonzero;"/>
                <path d="M1056.61,1775.68L1055.77,1775.08C1055.24,1774.7 1054.71,1774.33 1054.18,1773.94L1055.08,1774.59C1055.63,1775.01 1056.17,1775.39 1056.73,1775.79L1057.7,1776.46L1056.61,1775.68Z" style="fill:rgb(235,202,70);fill-rule:nonzero;"/>
                <path d="M1048.88,1769.81C1048.11,1769.19 1047.34,1768.55 1046.57,1767.91L1047.21,1768.45L1048.2,1769.28L1049.55,1770.38L1049.96,1770.7L1049.03,1769.94L1048.88,1769.81Z" style="fill:rgb(235,202,70);fill-rule:nonzero;"/>
                <path d="M1035.64,1757.58C1036.21,1758.17 1036.79,1758.78 1037.38,1759.37L1037.99,1759.97L1038.54,1760.53C1037.56,1759.55 1036.6,1758.58 1035.64,1757.58Z" style="fill:rgb(235,202,70);fill-rule:nonzero;"/>
                <path d="M1039.38,1761.37L1040.18,1762.13L1041.57,1763.45L1042.22,1764.05C1041.21,1763.11 1040.21,1762.16 1039.21,1761.2L1039.38,1761.37Z" style="fill:rgb(235,202,70);fill-rule:nonzero;"/>
                <path d="M1104.15,1797.65L1104.6,1797.76L1105.43,1797.96L1105.98,1798.1L1105.16,1797.88L1104.15,1797.65Z" style="fill:rgb(235,202,70);fill-rule:nonzero;"/>
                <path d="M1183.31,1732.89C1181.73,1733.69 1180.47,1735.79 1179.24,1737.48C1182.03,1735.78 1184.74,1733.98 1187.41,1732.12C1185.9,1732.21 1184.4,1732.32 1183.31,1732.89Z" style="fill:rgb(235,202,70);fill-rule:nonzero;"/>
                <path d="M1115.48,1800.03L1115.63,1800.04C1115.46,1800.02 1115.29,1799.99 1115.12,1799.96L1115.48,1800.03Z" style="fill:rgb(235,202,70);fill-rule:nonzero;"/>
                <path d="M1109.35,1798.85L1110.67,1799.13L1110,1798.98L1109.35,1798.85Z" style="fill:rgb(235,202,70);fill-rule:nonzero;"/>
                <path d="M1118.07,1800.43C1118.3,1800.46 1118.54,1800.5 1118.77,1800.54L1119.13,1800.59L1118.07,1800.43Z" style="fill:rgb(235,202,70);fill-rule:nonzero;"/>
                <path d="M1107.81,1798.5L1106.54,1798.21L1107.81,1798.52L1108.71,1798.71L1107.81,1798.5Z" style="fill:rgb(235,202,70);fill-rule:nonzero;"/>
                <path d="M1111.36,1799.27L1112.21,1799.45C1112.75,1799.54 1113.3,1799.63 1113.85,1799.75L1112.78,1799.53L1111.36,1799.27Z" style="fill:rgb(235,202,70);fill-rule:nonzero;"/>
                <path d="M1283.3,1657.89L1283.3,1657.25L1283.29,1656.97L1283.3,1657.89Z" style="fill:rgb(235,202,70);fill-rule:nonzero;"/>
                <path d="M1031.3,1738.27C1050.11,1749.45 1071.74,1756.49 1095.06,1758.03C1122.51,1759.87 1148.69,1753.87 1171.38,1741.92C1168.56,1741.92 1167.29,1741.99 1164.41,1743.73C1161.7,1745.37 1160.21,1746.65 1157.17,1747.05C1154.54,1747.42 1152.54,1746.96 1150.02,1748.54C1147.27,1750.25 1147.45,1751.5 1144.21,1751.61C1142.83,1751.68 1141.61,1751.26 1140.4,1750.85C1139.75,1751.29 1139,1751.56 1137.57,1751.61C1135.91,1751.68 1134.51,1751.1 1133.07,1750.64C1132.35,1750.79 1131.62,1750.94 1130.8,1751.02C1126.91,1751.42 1123.05,1751.55 1119.26,1751.38C1117.37,1751.46 1115.49,1751.48 1113.64,1751.42C1113.03,1752.03 1112.37,1752.6 1111.66,1753.13C1105.4,1757.66 1097.4,1756.66 1093.79,1750.9C1087.54,1755.44 1079.54,1754.44 1075.92,1748.68L1075.37,1747.69L1075.23,1747.37L1074.93,1746.61L1074.8,1746.26L1074.53,1745.36L1074.48,1745.16L1074.3,1744.11L1074.25,1743.68L1074.2,1742.99L1074.18,1742.52L1074.2,1741.76L1074.22,1741.39C1074.23,1741.4 1074.24,1741.4 1074.25,1741.4C1074.31,1740.55 1074.42,1739.69 1074.64,1738.82L1074.53,1738.43L1074.48,1738.27L1074.3,1737.2L1074.25,1736.8L1074.2,1736.06L1074.18,1735.63L1074.2,1734.85C1074.4,1730.49 1076.71,1726.03 1080.72,1723.12C1084.03,1720.73 1087.83,1719.89 1091.21,1720.47C1091.54,1718.92 1092.13,1717.4 1092.96,1715.98C1092.44,1716.04 1091.91,1716.12 1091.38,1716.17L1090.52,1716.92C1088.62,1718.28 1086,1719.66 1083.79,1719.86C1082.29,1719.99 1080.26,1718.58 1078.93,1719.06C1077.78,1719.47 1076.45,1721.66 1075.25,1722.48C1073.84,1723.46 1069.37,1726.3 1067.82,1726.48C1066.26,1726.64 1065.35,1725.29 1063.65,1725.48C1058.66,1725.96 1054.9,1731.67 1049.96,1731.59C1047.45,1731.55 1046.23,1729.38 1043.53,1730.11C1040.74,1730.87 1038.83,1733.12 1035.67,1733.41C1032.57,1733.7 1030.08,1732.76 1027.8,1731.28C1025.84,1730 1024.47,1728.54 1022.2,1727.75C1021.22,1727.4 1020.24,1727.16 1019.3,1726.88C1023.07,1730.9 1027.08,1734.71 1031.3,1738.27Z" style="fill:rgb(235,202,70);fill-rule:nonzero;"/>
                <path d="M1247.6,1563.54L1247.26,1563.14L1246.83,1562.66C1245.96,1561.68 1245.06,1560.71 1244.15,1559.73L1243.66,1559.23C1242.77,1558.28 1241.8,1557.39 1240.87,1556.47C1243.17,1558.77 1245.42,1561.11 1247.56,1563.55L1247.6,1563.54Z" style="fill:rgb(235,202,70);fill-rule:nonzero;"/>
                <path d="M1218.49,1582.92C1214.33,1645.26 1171.02,1695.66 1114.14,1711.69C1114.56,1712.17 1114.96,1712.65 1115.3,1713.21C1115.73,1713.89 1116.07,1714.62 1116.35,1715.36C1117.6,1715.01 1118.86,1714.94 1120.05,1715.1L1120.07,1715.1L1120.18,1715.11L1120.6,1715.19L1121.35,1715.37L1121.68,1715.48L1122.64,1715.88L1122.95,1716.05L1123.74,1716.58L1123.88,1716.68L1124.71,1717.44L1124.9,1717.66L1125.62,1718.6C1127.09,1720.96 1127.22,1723.93 1126.19,1726.64C1127.88,1730.64 1126.27,1735.82 1122.21,1738.76C1120.94,1739.68 1119.57,1740.27 1118.2,1740.57C1118.23,1743.06 1117.56,1745.63 1116.26,1747.94C1120.36,1748.29 1123.64,1746.41 1127.32,1743.65C1132.1,1740.06 1137.43,1738.61 1142.91,1737.21C1148.13,1735.9 1149.12,1733.89 1152.81,1729.79C1156.86,1725.33 1161.03,1721.53 1166.45,1718.91C1171.77,1716.34 1177.73,1714.28 1182.16,1709.89C1187.07,1705.05 1190.42,1698.61 1194.37,1693.14C1198.26,1687.78 1204.01,1682.41 1209.73,1678.85C1214.13,1676.1 1217.83,1674.54 1221.64,1670.62C1225.07,1667.1 1229.57,1662.63 1231.11,1658.2C1232.4,1654.47 1232.42,1650.57 1234.02,1646.86L1233.1,1646.88C1231.28,1653.4 1225.06,1658.53 1219.21,1658.32L1218.25,1658.24L1217.96,1658.19L1217.33,1658.04L1217.03,1657.96L1216.34,1657.71L1216.18,1657.65L1215.45,1657.29L1215.17,1657.12L1214.72,1656.82L1214.45,1656.61L1214.03,1656.24L1213.82,1656.04C1213.83,1656.04 1213.84,1656.03 1213.84,1656.03L1212.94,1654.95L1212.72,1654.9L1212.43,1654.83L1211.72,1654.58L1211.58,1654.53L1210.84,1654.15L1210.57,1653.99L1210.11,1653.69L1209.84,1653.48L1209.41,1653.09C1207.07,1650.87 1206.15,1647.14 1207.31,1642.97C1208.28,1639.5 1210.48,1636.45 1213.22,1634.36C1211.7,1632.13 1211.22,1628.96 1212.19,1625.51C1214.01,1618.99 1220.24,1613.85 1226.08,1614.06C1226.77,1614.09 1227.44,1614.21 1228.04,1614.36C1228.73,1613.33 1229.58,1612.4 1230.53,1611.63L1230.51,1611.61L1230.61,1611.56L1230.96,1611.31L1231.58,1610.87L1231.89,1610.67L1232.79,1610.22L1233.11,1610.07L1233.96,1609.76L1234.13,1609.72L1235.14,1609.49L1235.4,1609.47L1236.45,1609.42C1238.74,1609.49 1240.48,1610.73 1241.35,1612.58C1245.31,1612.9 1247.5,1616.7 1246.23,1621.23C1245.87,1622.56 1245.24,1623.8 1244.44,1624.9L1245.35,1625.77C1245.87,1623.14 1246.81,1620.84 1248.28,1618.49C1248.98,1593.35 1243.11,1569.45 1232.21,1548.48C1234.73,1550.61 1237.16,1552.84 1239.52,1555.14C1238.75,1554.39 1238.01,1553.6 1237.23,1552.88L1236.67,1552.35C1235.58,1551.36 1234.47,1550.36 1233.35,1549.4L1233.34,1549.38C1232.16,1548.38 1230.97,1547.38 1229.77,1546.41L1229.33,1546.05C1228.26,1545.2 1227.17,1544.36 1226.07,1543.53L1225.61,1543.19C1223.16,1541.36 1220.66,1539.61 1218.1,1537.93L1217.52,1537.55C1216.24,1536.71 1214.96,1535.92 1213.68,1535.14C1213.68,1535.17 1213.69,1535.21 1213.7,1535.24C1217.85,1550.36 1219.6,1566.38 1218.49,1582.92Z" style="fill:rgb(235,202,70);fill-rule:nonzero;"/>
                <path d="M1281.03,1632.74L1281.06,1632.92L1280.92,1632.13L1280.87,1631.87L1281.03,1632.74Z" style="fill:rgb(235,202,70);fill-rule:nonzero;"/>
                <path d="M1126.66,1801.47C1127.77,1801.57 1128.89,1801.66 1130.03,1801.73C1128.56,1801.65 1127.11,1801.52 1125.66,1801.37L1126.66,1801.47Z" style="fill:rgb(235,202,70);fill-rule:nonzero;"/>
                <path d="M1122.53,1801.04L1123.25,1801.13L1124.53,1801.27L1123.24,1801.12C1123,1801.09 1122.77,1801.07 1122.53,1801.04Z" style="fill:rgb(235,202,70);fill-rule:nonzero;"/>
                <path d="M1008.6,1717.51L1008.58,1717.48C1008.91,1718.22 1009.25,1718.96 1009.6,1719.7L1009.73,1719.97L1009.83,1720.18C1009.41,1719.29 1009,1718.4 1008.6,1717.51Z" style="fill:rgb(235,202,70);fill-rule:nonzero;"/>
                <path d="M1282.41,1642.23L1282.47,1642.7L1282.44,1642.32L1282.41,1642.19L1282.38,1641.95L1282.41,1642.23Z" style="fill:rgb(235,202,70);fill-rule:nonzero;"/>
                <path d="M1064.54,1780.91L1063.41,1780.22L1062.61,1779.73L1063.23,1780.13C1063.8,1780.48 1064.38,1780.84 1064.97,1781.19L1066.29,1781.98C1065.7,1781.65 1065.13,1781.28 1064.54,1780.91Z" style="fill:rgb(235,202,70);fill-rule:nonzero;"/>
                <path d="M1100.39,1796.61L1099.22,1796.3C1099.71,1796.44 1100.21,1796.58 1100.71,1796.73L1101.46,1796.92C1102.24,1797.14 1103.02,1797.35 1103.8,1797.56L1102.92,1797.31C1102.08,1797.08 1101.24,1796.87 1100.39,1796.61Z" style="fill:rgb(235,202,70);fill-rule:nonzero;"/>
                <path d="M1089.72,1793.15L1090.99,1793.63L1091.74,1793.89L1092.65,1794.2C1092.15,1794.03 1091.64,1793.84 1091.13,1793.66L1089.72,1793.15Z" style="fill:rgb(235,202,70);fill-rule:nonzero;"/>
                <path d="M1086.7,1791.98C1086.1,1791.74 1085.5,1791.52 1084.89,1791.27L1085.04,1791.34C1085.71,1791.63 1086.4,1791.9 1087.08,1792.16L1088.03,1792.53L1089.02,1792.9L1088.79,1792.8C1088.09,1792.54 1087.4,1792.27 1086.7,1791.98Z" style="fill:rgb(235,202,70);fill-rule:nonzero;"/>
                <path d="M1097.54,1795.8L1098.32,1796.03L1099.01,1796.24L1098.13,1795.97L1097.54,1795.8Z" style="fill:rgb(235,202,70);fill-rule:nonzero;"/>
                <path d="M1072.64,1785.54L1071.54,1784.96L1071.17,1784.77L1071.23,1784.8L1072.44,1785.44C1073.01,1785.74 1073.58,1786.05 1074.15,1786.34L1075.21,1786.88C1074.35,1786.44 1073.49,1785.97 1072.64,1785.54Z" style="fill:rgb(235,202,70);fill-rule:nonzero;"/>
                <path d="M1068.01,1782.99C1068.16,1783.07 1068.3,1783.16 1068.45,1783.25L1069.61,1783.91L1070.79,1784.56C1070.06,1784.15 1069.34,1783.73 1068.6,1783.33L1068.01,1782.99Z" style="fill:rgb(235,202,70);fill-rule:nonzero;"/>
                <path d="M1094.52,1794.83L1095.15,1795.05C1095.79,1795.25 1096.42,1795.45 1097.05,1795.65L1095.71,1795.21L1094.52,1794.83Z" style="fill:rgb(235,202,70);fill-rule:nonzero;"/>
                <path d="M1082.85,1790.4C1081.94,1790.01 1081.04,1789.63 1080.13,1789.22L1080.91,1789.57L1082.03,1790.06C1082.65,1790.34 1083.27,1790.6 1083.89,1790.88L1084.01,1790.91L1082.85,1790.4Z" style="fill:rgb(235,202,70);fill-rule:nonzero;"/>
                <path d="M1077.98,1788.22L1078.37,1788.4C1077.53,1788 1076.69,1787.6 1075.86,1787.2C1076.57,1787.54 1077.27,1787.89 1077.98,1788.22Z" style="fill:rgb(235,202,70);fill-rule:nonzero;"/>
                <path d="M1075.43,1786.99C1075.55,1787.05 1075.67,1787.1 1075.79,1787.16L1075.77,1787.14L1075.43,1786.99Z" style="fill:rgb(235,202,70);fill-rule:nonzero;"/>
                <path d="M1280.38,1629.33L1280.32,1629.08L1280.41,1629.47L1280.38,1629.33Z" style="fill:rgb(230,179,41);fill-rule:nonzero;"/>
                <path d="M1282.38,1641.95L1282.38,1641.9L1282.3,1641.2L1282.41,1642.23L1282.38,1641.95Z" style="fill:rgb(230,179,41);fill-rule:nonzero;"/>
                <path d="M1283.27,1654.99L1283.25,1654.05L1283.24,1654.01L1283.27,1654.99Z" style="fill:rgb(230,179,41);fill-rule:nonzero;"/>
                <path d="M1095.06,1758.03C1071.74,1756.49 1050.11,1749.45 1031.3,1738.27C1053.9,1757.35 1082.57,1769.66 1114.35,1771.77C1185.54,1776.53 1248.06,1728.58 1263.81,1661.32L1263.04,1662.21C1261.63,1663.69 1258.61,1665.13 1257.66,1666.86C1256.71,1668.58 1257.96,1669.88 1257.24,1671.54C1255.63,1675.27 1249.94,1676.89 1247.86,1679.83C1246.5,1681.72 1247.7,1683.79 1246.65,1685.61C1245.78,1687.13 1243.25,1688.32 1241.83,1689.21C1239.37,1690.77 1238.69,1691.55 1237.02,1693.66C1235.12,1696.06 1234.57,1696.15 1231.48,1697.22C1224.88,1699.48 1225.44,1705.89 1220.11,1710.01C1217.96,1711.67 1215.69,1712.53 1213.86,1714.6C1210.51,1718.4 1206.15,1720.74 1202.61,1724.24C1199.02,1727.8 1195.75,1730.14 1191,1731.63C1189.95,1731.96 1188.68,1732.03 1187.41,1732.12C1184.74,1733.98 1182.03,1735.78 1179.24,1737.48C1178.87,1737.98 1178.51,1738.44 1178.15,1738.8C1175.76,1741.24 1174.6,1741.96 1171.67,1741.92L1171.38,1741.92C1148.69,1753.87 1122.51,1759.87 1095.06,1758.03Z" style="fill:rgb(230,179,41);fill-rule:nonzero;"/>
                <path d="M1091.13,1793.66C1091.64,1793.84 1092.15,1794.03 1092.65,1794.2L1092.92,1794.29L1093.42,1794.47C1092.65,1794.2 1091.89,1793.93 1091.13,1793.66Z" style="fill:rgb(230,179,41);fill-rule:nonzero;"/>
                <path d="M1120.13,1800.73L1120.68,1800.81C1121.29,1800.89 1121.91,1800.96 1122.53,1801.04C1122.77,1801.07 1123,1801.09 1123.24,1801.12C1122.2,1800.99 1121.16,1800.87 1120.13,1800.73Z" style="fill:rgb(230,179,41);fill-rule:nonzero;"/>
                <path d="M1248.28,1618.49C1248.89,1617.57 1249.55,1616.61 1250.31,1615.63C1255.81,1608.64 1249.47,1604.93 1252.51,1598.11C1254.06,1594.66 1256.84,1592.21 1255.63,1588.73C1254.81,1586.43 1252.59,1585.46 1251.9,1583.03C1251.2,1580.58 1251.9,1577.55 1251.04,1575.16C1250.04,1572.42 1243.79,1569.7 1244.3,1566.58L1244.6,1565.82C1245.16,1564.89 1246.38,1564.04 1247.56,1563.55C1245.42,1561.11 1243.17,1558.77 1240.87,1556.47C1240.43,1556.03 1239.97,1555.58 1239.52,1555.14C1237.16,1552.84 1234.73,1550.61 1232.21,1548.48C1243.11,1569.45 1248.98,1593.35 1248.28,1618.49Z" style="fill:rgb(230,179,41);fill-rule:nonzero;"/>
                <path d="M1281.17,1633.56L1281.06,1632.92L1281.03,1632.74L1281.17,1633.56Z" style="fill:rgb(230,179,41);fill-rule:nonzero;"/>
                <path d="M1098.13,1795.97C1097.33,1795.72 1096.51,1795.47 1095.71,1795.21L1097.05,1795.65L1097.4,1795.76L1097.54,1795.8L1098.13,1795.97Z" style="fill:rgb(230,179,41);fill-rule:nonzero;"/>
                <path d="M1105.16,1797.88L1105.98,1798.1L1106.54,1798.21L1107.81,1798.5C1106.92,1798.3 1106.04,1798.1 1105.16,1797.88Z" style="fill:rgb(230,179,41);fill-rule:nonzero;"/>
                <path d="M1112.78,1799.53C1111.85,1799.36 1110.91,1799.18 1110,1798.98L1110.67,1799.13L1111.28,1799.25L1111.36,1799.27L1112.78,1799.53Z" style="fill:rgb(230,179,41);fill-rule:nonzero;"/>
                <path d="M1283.2,1663.78L1283.21,1663.49L1283.18,1663.94L1283.2,1663.78Z" style="fill:rgb(230,179,41);fill-rule:nonzero;"/>
                <path d="M1125.64,1801.37L1125.66,1801.37C1127.11,1801.52 1128.56,1801.65 1130.03,1801.73C1128.32,1801.63 1126.61,1801.47 1124.92,1801.29L1125.64,1801.37Z" style="fill:rgb(230,179,41);fill-rule:nonzero;"/>
                <path d="M1275.51,1640.96C1275.15,1642.48 1271.73,1646.55 1270.57,1647.8C1269.59,1648.88 1267.25,1649.93 1266.69,1651.01C1266.04,1652.25 1267.18,1654.44 1266.84,1655.93C1266.42,1657.73 1265.16,1659.71 1263.81,1661.32C1248.06,1728.58 1185.54,1776.53 1114.35,1771.77C1082.57,1769.66 1053.9,1757.35 1031.3,1738.27C1027.08,1734.71 1023.07,1730.9 1019.3,1726.88C1018.04,1726.51 1016.84,1726.07 1015.74,1725.27C1013.53,1723.66 1012.39,1721.28 1010.69,1719.24C1010.04,1718.49 1009.34,1717.96 1008.6,1717.51C1009,1718.4 1009.41,1719.29 1009.83,1720.18L1009.9,1720.35L1010.07,1720.7L1010.31,1721.19C1010.91,1722.41 1011.52,1723.61 1012.15,1724.81L1012.24,1725.02L1012.29,1725.11L1012.56,1725.6C1013.17,1726.72 1013.77,1727.84 1014.41,1728.95L1014.5,1729.15L1014.78,1729.63L1014.81,1729.67C1015.47,1730.85 1016.17,1732 1016.88,1733.16L1017.4,1734.02C1018.11,1735.15 1018.83,1736.29 1019.57,1737.42L1019.72,1737.65L1020.08,1738.19L1020.17,1738.3C1020.92,1739.43 1021.68,1740.53 1022.45,1741.6L1022.59,1741.8L1023.07,1742.48C1023.87,1743.58 1024.67,1744.66 1025.5,1745.73L1025.54,1745.79L1025.93,1746.29L1026.07,1746.47C1026.93,1747.57 1027.8,1748.68 1028.7,1749.78L1028.85,1749.95L1029.08,1750.21C1029.95,1751.26 1030.82,1752.29 1031.72,1753.3L1031.92,1753.53L1032.17,1753.82C1033.11,1754.87 1034.06,1755.9 1035.02,1756.93L1035.13,1757.05L1035.55,1757.48L1035.64,1757.58C1036.6,1758.58 1037.56,1759.55 1038.54,1760.53L1038.83,1760.81L1039.04,1761.04L1039.21,1761.2C1040.21,1762.16 1041.21,1763.11 1042.22,1764.05L1042.75,1764.55L1042.88,1764.65C1043.03,1764.79 1043.18,1764.92 1043.33,1765.05C1044.23,1765.86 1045.13,1766.67 1046.06,1767.47L1046.57,1767.91C1047.34,1768.55 1048.11,1769.19 1048.88,1769.81L1049.03,1769.94L1049.96,1770.7L1050.19,1770.88C1050.84,1771.4 1051.52,1771.91 1052.2,1772.43L1052.77,1772.87L1053.68,1773.57L1053.96,1773.79L1054.04,1773.83L1054.18,1773.94C1054.71,1774.33 1055.24,1774.7 1055.77,1775.08L1056.61,1775.68L1057.7,1776.46L1057.79,1776.53L1058.37,1776.92L1059.52,1777.69L1060.53,1778.38L1061.93,1779.28L1062.41,1779.61L1062.61,1779.73L1063.41,1780.22L1064.54,1780.91C1065.13,1781.28 1065.7,1781.65 1066.29,1781.98L1066.3,1781.99L1066.91,1782.35L1067.42,1782.66L1068.01,1782.99L1068.6,1783.33C1069.34,1783.73 1070.06,1784.15 1070.79,1784.56L1071.17,1784.77L1071.54,1784.96L1072.64,1785.54C1073.49,1785.97 1074.35,1786.44 1075.21,1786.88L1075.25,1786.89L1075.43,1786.99L1075.77,1787.14L1075.79,1787.16C1075.82,1787.17 1075.84,1787.19 1075.86,1787.2C1076.69,1787.6 1077.53,1788 1078.37,1788.4C1078.78,1788.59 1079.17,1788.79 1079.58,1788.97L1080.13,1789.22C1081.04,1789.63 1081.94,1790.01 1082.85,1790.4L1084.01,1790.91L1084.23,1791.02L1084.24,1791.02L1084.26,1791.03L1084.89,1791.27C1085.5,1791.52 1086.1,1791.74 1086.7,1791.98C1087.4,1792.27 1088.09,1792.54 1088.79,1792.8L1089.02,1792.9L1089.72,1793.15L1091.13,1793.66C1091.89,1793.93 1092.65,1794.2 1093.42,1794.47L1093.96,1794.65L1094.26,1794.76L1094.52,1794.83L1095.71,1795.21C1096.51,1795.47 1097.33,1795.72 1098.13,1795.97L1099.01,1796.24L1099.22,1796.3L1100.39,1796.61C1101.24,1796.87 1102.08,1797.08 1102.92,1797.31L1103.8,1797.56L1104.15,1797.65L1105.16,1797.88C1106.04,1798.1 1106.92,1798.3 1107.81,1798.5L1108.71,1798.71L1108.8,1798.73L1109.35,1798.85L1110,1798.98C1110.91,1799.18 1111.85,1799.36 1112.78,1799.53L1113.85,1799.75L1114.6,1799.87L1114.9,1799.93C1114.98,1799.94 1115.05,1799.95 1115.12,1799.96C1115.29,1799.99 1115.46,1800.02 1115.63,1800.04C1116.38,1800.16 1117.13,1800.29 1117.88,1800.4L1118.07,1800.43L1119.13,1800.59L1119.27,1800.61L1119.86,1800.69L1119.89,1800.7C1119.97,1800.71 1120.05,1800.72 1120.13,1800.73C1121.16,1800.87 1122.2,1800.99 1123.24,1801.12L1124.53,1801.27L1124.92,1801.29C1126.61,1801.47 1128.32,1801.63 1130.03,1801.73C1131.49,1801.83 1132.95,1801.9 1134.41,1801.96L1135.74,1801.99C1136.8,1802.02 1137.86,1802.03 1138.92,1802.04L1140.41,1802.04C1140.98,1802.04 1141.55,1802.03 1142.12,1802.02C1142.74,1802.02 1143.37,1802 1144,1801.99C1144.57,1801.97 1145.13,1801.95 1145.7,1801.93C1146.32,1801.9 1146.93,1801.88 1147.55,1801.84C1148.12,1801.8 1148.69,1801.77 1149.25,1801.73C1149.88,1801.7 1150.48,1801.65 1151.1,1801.6C1151.66,1801.56 1152.23,1801.5 1152.8,1801.46C1153.41,1801.4 1154.01,1801.35 1154.61,1801.28C1155.18,1801.22 1155.74,1801.15 1156.31,1801.1C1156.91,1801.02 1157.51,1800.95 1158.1,1800.87C1158.67,1800.8 1159.24,1800.72 1159.8,1800.65C1160.39,1800.57 1160.97,1800.48 1161.57,1800.38C1162.14,1800.3 1162.7,1800.22 1163.26,1800.13L1163.39,1800.1L1163.22,1800C1161.81,1799.15 1161.1,1797.72 1160.02,1796.58C1159.12,1795.59 1158.01,1795.39 1156.77,1794.82C1153.95,1793.52 1153.18,1789.56 1151.08,1787.44C1149.99,1786.34 1148.83,1785.84 1149.03,1783.75C1149.12,1782.83 1150.19,1781.19 1151.22,1780.61L1151.72,1780.43L1152.06,1780.42C1152.08,1780.43 1152.08,1780.45 1152.1,1780.46C1153.92,1780.65 1155.02,1784.18 1156.56,1784.79C1157.99,1785.34 1160,1784.89 1161.5,1785.35C1162.99,1785.81 1163.39,1787.24 1164.8,1787.77C1166.9,1788.58 1168.73,1786.79 1171.08,1785.79C1175.75,1783.85 1177.5,1787.95 1182.51,1784.43C1184.78,1782.83 1186.73,1781.85 1188.91,1781.35C1188.2,1780.83 1187.56,1780.18 1187.05,1779.37C1182.84,1782.43 1177.46,1781.75 1175.03,1777.88L1174.5,1776.86L1174.4,1776.6C1174.12,1775.89 1173.94,1775.14 1173.88,1774.37L1173.86,1774.15L1173.87,1772.96C1173.9,1772.96 1173.92,1772.96 1173.95,1772.97C1174.16,1770.12 1175.63,1767.22 1178.25,1765.32C1180.48,1763.69 1183.04,1763.12 1185.32,1763.52C1185.82,1761.11 1187.28,1758.77 1189.51,1757.14C1193.73,1754.09 1199.11,1754.77 1201.54,1758.65C1201.82,1759.1 1202.05,1759.59 1202.24,1760.09C1203.08,1759.86 1203.93,1759.81 1204.74,1759.92L1204.75,1759.91L1204.8,1759.92L1205.84,1760.17L1205.89,1760.18L1206.76,1760.6L1207,1760.74L1207.6,1761.23L1207.82,1761.45L1208.48,1762.26C1210.21,1765.03 1209.18,1769.03 1206.19,1771.2C1205.33,1771.82 1204.41,1772.21 1203.49,1772.41C1203.49,1773.04 1203.43,1773.69 1203.29,1774.33L1203.37,1774.27C1206.14,1772.94 1208.86,1773.03 1211.61,1772.14C1214.59,1771.15 1217.89,1768.26 1220.48,1766.07C1223.36,1763.61 1224.73,1761.22 1226.9,1758.4C1229.74,1754.73 1233.74,1751.02 1237.54,1748.54C1241.43,1746 1245.87,1743.86 1249.46,1740.7C1252.7,1737.86 1254.59,1734.02 1256.77,1730.58C1258.96,1727.11 1261.81,1724.43 1265.06,1721.82C1268.03,1719.44 1269.42,1718.82 1270.78,1715.47C1271.84,1712.82 1272.91,1710.24 1274.54,1707.84L1274.6,1707.68C1274.81,1707.11 1275.01,1706.56 1275.2,1705.99C1275.39,1705.46 1275.57,1704.91 1275.76,1704.38C1275.94,1703.82 1276.14,1703.26 1276.31,1702.7C1276.48,1702.15 1276.66,1701.6 1276.83,1701.05C1277.01,1700.49 1277.18,1699.93 1277.34,1699.37C1277.51,1698.81 1277.67,1698.24 1277.83,1697.68C1277.99,1697.13 1278.15,1696.56 1278.29,1696.01C1278.46,1695.43 1278.61,1694.85 1278.75,1694.29C1278.9,1693.72 1279.04,1693.16 1279.17,1692.61C1279.33,1692.02 1279.46,1691.43 1279.59,1690.84C1279.73,1690.29 1279.85,1689.73 1279.98,1689.17C1280.1,1688.57 1280.23,1687.97 1280.35,1687.35C1280.46,1686.8 1280.58,1686.26 1280.69,1685.71C1280.81,1685.09 1280.92,1684.45 1281.03,1683.82C1281.13,1683.28 1281.23,1682.73 1281.32,1682.21C1281.43,1681.55 1281.53,1680.88 1281.63,1680.23C1281.7,1679.72 1281.79,1679.19 1281.86,1678.67C1281.96,1677.97 1282.05,1677.27 1282.14,1676.57L1282.33,1675.11C1282.41,1674.33 1282.49,1673.53 1282.57,1672.73L1282.7,1671.52C1282.81,1670.3 1282.9,1669.1 1282.99,1667.9C1283.06,1666.74 1283.12,1665.59 1283.17,1664.46L1283.18,1663.94L1283.21,1663.49L1283.23,1662.83L1283.25,1662.33L1283.28,1661.02L1283.29,1659.69L1283.29,1659.65L1283.3,1658.83L1283.3,1657.89L1283.29,1656.97L1283.28,1656.19L1283.27,1654.99L1283.24,1654.01L1283.2,1652.77L1283.2,1652.37L1283.12,1650.96L1283.06,1649.93L1283.04,1649.38C1283.01,1648.9 1282.97,1648.41 1282.94,1647.92L1282.87,1646.92L1282.8,1646.15L1282.8,1646.1L1282.76,1645.58L1282.68,1644.84C1282.62,1644.18 1282.56,1643.52 1282.48,1642.86L1282.47,1642.7L1282.41,1642.23L1282.3,1641.2C1282.23,1640.66 1282.17,1640.12 1282.1,1639.57C1282.03,1639.02 1281.95,1638.47 1281.88,1637.93L1281.84,1637.71L1281.84,1637.69L1281.8,1637.38L1281.76,1637.08L1281.63,1636.32C1281.54,1635.76 1281.46,1635.2 1281.37,1634.64L1281.17,1633.56L1281.03,1632.74L1280.87,1631.87L1280.78,1631.37L1280.56,1630.18L1280.41,1629.47L1280.32,1629.08C1278.3,1631.49 1275.77,1633.75 1275.08,1636.7C1274.69,1638.37 1275.89,1639.45 1275.51,1640.96Z" style="fill:rgb(168,89,36);fill-rule:nonzero;"/>
                <path d="M1247.56,1563.55C1246.38,1564.04 1245.16,1564.89 1244.6,1565.82L1244.3,1566.58C1243.79,1569.7 1250.04,1572.42 1251.04,1575.16C1251.9,1577.55 1251.2,1580.58 1251.9,1583.03C1252.59,1585.46 1254.81,1586.43 1255.63,1588.73C1256.84,1592.21 1254.06,1594.66 1252.51,1598.11C1249.47,1604.93 1255.81,1608.64 1250.31,1615.63C1249.55,1616.61 1248.89,1617.57 1248.28,1618.49C1246.81,1620.84 1245.87,1623.14 1245.35,1625.77C1247.35,1628.02 1248.1,1631.55 1247,1635.45C1245.27,1641.63 1239.58,1646.56 1234.02,1646.86C1232.42,1650.57 1232.4,1654.47 1231.11,1658.2C1229.57,1662.63 1225.07,1667.1 1221.64,1670.62C1217.83,1674.54 1214.13,1676.1 1209.73,1678.85C1204.01,1682.41 1198.26,1687.78 1194.37,1693.14C1190.42,1698.61 1187.07,1705.05 1182.16,1709.89C1177.73,1714.28 1171.77,1716.34 1166.45,1718.91C1161.03,1721.53 1156.86,1725.33 1152.81,1729.79C1149.12,1733.89 1148.13,1735.9 1142.91,1737.21C1137.43,1738.61 1132.1,1740.06 1127.32,1743.65C1123.64,1746.41 1120.36,1748.29 1116.26,1747.94L1115.93,1748.52C1118.17,1748.01 1120.35,1747.7 1122.67,1747.94C1126.89,1748.36 1130.21,1746.47 1133.97,1743.65C1138.75,1740.06 1144.07,1738.61 1149.56,1737.21C1154.77,1735.9 1155.76,1733.89 1159.46,1729.79C1163.5,1725.33 1167.69,1721.53 1173.08,1718.91C1178.43,1716.34 1184.38,1714.28 1188.82,1709.89C1193.73,1705.05 1197.07,1698.61 1201.02,1693.14C1204.9,1687.78 1210.66,1682.41 1216.38,1678.85C1220.78,1676.1 1224.48,1674.54 1228.29,1670.62C1231.71,1667.1 1236.22,1662.63 1237.76,1658.2C1239.17,1654.13 1239.04,1649.84 1241.12,1645.84C1243.19,1641.88 1247.86,1640.87 1250.21,1637.1C1251.89,1634.39 1251.39,1630.6 1251.68,1627.89C1252.15,1623.21 1253.78,1619.71 1256.96,1615.63C1262.45,1608.64 1256.13,1604.93 1259.16,1598.11C1260.7,1594.66 1263.49,1592.21 1262.27,1588.73C1261.46,1586.43 1259.23,1585.46 1258.54,1583.03C1257.83,1580.58 1258.54,1577.55 1257.68,1575.16C1256.76,1572.6 1251.29,1570.05 1251.01,1567.17C1250.99,1567.15 1250.96,1567.13 1250.93,1567.11L1250.96,1566.58L1251.25,1565.82C1251.56,1565.28 1252.1,1564.79 1252.72,1564.36C1251.94,1563.7 1250.97,1563.23 1249.49,1563.14C1248.96,1563.12 1248.29,1563.26 1247.61,1563.54L1247.6,1563.54L1247.56,1563.55Z" style="fill:rgb(168,89,36);fill-rule:nonzero;"/>
                <path d="M1113.64,1751.42C1115.49,1751.48 1117.37,1751.46 1119.26,1751.38C1117.52,1751.29 1115.8,1751.14 1114.11,1750.92L1113.64,1751.42Z" style="fill:rgb(168,89,36);fill-rule:nonzero;"/>
                <path d="M1137.57,1751.61C1139,1751.56 1139.75,1751.29 1140.4,1750.85C1139.61,1750.59 1138.8,1750.33 1137.96,1750.19L1136.9,1750.1L1136.8,1750.1L1135.87,1750.13C1134.93,1750.21 1134.03,1750.42 1133.07,1750.64C1134.51,1751.1 1135.91,1751.68 1137.57,1751.61Z" style="fill:rgb(168,89,36);fill-rule:nonzero;"/>
                <path d="M1257.68,1575.16C1258.54,1577.55 1257.83,1580.58 1258.54,1583.03C1259.23,1585.46 1261.46,1586.43 1262.27,1588.73C1263.49,1592.21 1260.7,1594.66 1259.16,1598.11C1256.13,1604.93 1262.45,1608.64 1256.96,1615.63C1253.78,1619.71 1252.15,1623.21 1251.68,1627.89C1251.39,1630.6 1251.89,1634.39 1250.21,1637.1C1247.86,1640.87 1243.19,1641.88 1241.12,1645.84C1239.04,1649.84 1239.17,1654.13 1237.76,1658.2C1236.22,1662.63 1231.71,1667.1 1228.29,1670.62C1224.48,1674.54 1220.78,1676.1 1216.38,1678.85C1210.66,1682.41 1204.9,1687.78 1201.02,1693.14C1197.07,1698.61 1193.73,1705.05 1188.82,1709.89C1184.38,1714.28 1178.43,1716.34 1173.08,1718.91C1167.69,1721.53 1163.5,1725.33 1159.46,1729.79C1155.76,1733.89 1154.77,1735.9 1149.56,1737.21C1144.07,1738.61 1138.75,1740.06 1133.97,1743.65C1130.21,1746.47 1126.89,1748.36 1122.67,1747.94C1120.35,1747.7 1118.17,1748.01 1115.93,1748.52C1115.4,1749.35 1114.8,1750.17 1114.11,1750.92C1115.8,1751.14 1117.52,1751.29 1119.26,1751.38C1123.05,1751.55 1126.91,1751.42 1130.8,1751.02C1131.62,1750.94 1132.35,1750.79 1133.07,1750.64C1134.03,1750.42 1134.93,1750.21 1135.87,1750.13C1136.61,1749.58 1137.25,1748.83 1138.68,1747.91C1141.2,1746.36 1143.19,1746.82 1145.84,1746.45C1148.85,1746.03 1150.36,1744.77 1153.06,1743.13C1156.03,1741.33 1157.28,1741.32 1160.33,1741.33C1163.25,1741.34 1164.42,1740.63 1166.8,1738.21C1168.4,1736.57 1169.92,1733.32 1171.97,1732.29C1173.96,1731.26 1177.38,1731.74 1179.65,1731.03C1184.41,1729.53 1187.68,1727.21 1191.27,1723.63C1194.81,1720.14 1199.17,1717.78 1202.51,1714.01C1204.35,1711.93 1206.62,1711.05 1208.76,1709.4C1214.09,1705.29 1213.54,1698.88 1220.13,1696.61C1223.23,1695.56 1223.78,1695.44 1225.68,1693.05C1227.33,1690.94 1228.03,1690.16 1230.49,1688.61C1231.91,1687.71 1234.43,1686.54 1235.31,1685.01C1236.36,1683.17 1235.16,1681.12 1236.5,1679.22C1238.6,1676.29 1244.29,1674.68 1245.9,1670.93C1246.62,1669.27 1245.38,1667.97 1246.32,1666.24C1247.27,1664.52 1250.28,1663.09 1251.69,1661.59C1253.29,1659.89 1255.01,1657.49 1255.49,1655.33C1255.84,1653.86 1254.69,1651.65 1255.34,1650.39C1255.9,1649.31 1258.24,1648.28 1259.23,1647.2C1260.38,1645.94 1263.81,1641.88 1264.17,1640.37C1264.54,1638.84 1263.34,1637.77 1263.73,1636.1C1264.88,1631.22 1271.04,1628.25 1271.61,1623.34C1271.91,1620.85 1269.91,1619.35 1271,1616.79C1272.12,1614.11 1274.6,1612.51 1275.31,1609.42C1276.01,1606.38 1275.4,1603.8 1274.24,1601.35C1273.25,1599.23 1271.97,1597.68 1271.49,1595.33C1271,1592.96 1271.04,1590.69 1269.89,1588.58C1268.58,1586.19 1266.39,1584.74 1264.59,1582.78C1263.07,1581.13 1262.78,1579.35 1261.9,1577.27C1259.99,1572.78 1254.36,1570.63 1251.01,1567.17C1251.29,1570.05 1256.76,1572.6 1257.68,1575.16Z" style="fill:rgb(236,234,106);fill-rule:nonzero;"/>
                <path d="M1251.25,1565.82L1250.96,1566.58L1250.93,1567.11C1250.96,1567.13 1250.99,1567.15 1251.01,1567.17C1254.36,1570.63 1259.99,1572.78 1261.9,1577.27C1262.78,1579.35 1263.07,1581.13 1264.59,1582.78C1266.39,1584.74 1268.58,1586.19 1269.89,1588.58C1271.04,1590.69 1271,1592.96 1271.49,1595.33C1271.97,1597.68 1273.25,1599.23 1274.24,1601.35C1275.4,1603.8 1276.01,1606.38 1275.31,1609.42C1274.6,1612.51 1272.12,1614.11 1271,1616.79C1269.91,1619.35 1271.91,1620.85 1271.61,1623.34C1271.04,1628.25 1264.88,1631.22 1263.73,1636.1C1263.34,1637.77 1264.54,1638.84 1264.17,1640.37C1263.81,1641.88 1260.38,1645.94 1259.23,1647.2C1258.24,1648.28 1255.9,1649.31 1255.34,1650.39C1254.69,1651.65 1255.84,1653.86 1255.49,1655.33C1255.01,1657.49 1253.29,1659.89 1251.69,1661.59C1250.28,1663.09 1247.27,1664.52 1246.32,1666.24C1245.38,1667.97 1246.62,1669.27 1245.9,1670.93C1244.29,1674.68 1238.6,1676.29 1236.5,1679.22C1235.16,1681.12 1236.36,1683.17 1235.31,1685.01C1234.43,1686.54 1231.91,1687.71 1230.49,1688.61C1228.03,1690.16 1227.33,1690.94 1225.68,1693.05C1223.78,1695.44 1223.23,1695.56 1220.13,1696.61C1213.54,1698.88 1214.09,1705.29 1208.76,1709.4C1206.62,1711.05 1204.35,1711.93 1202.51,1714.01C1199.17,1717.78 1194.81,1720.14 1191.27,1723.63C1187.68,1727.21 1184.41,1729.53 1179.65,1731.03C1177.38,1731.74 1173.96,1731.26 1171.97,1732.29C1169.92,1733.32 1168.4,1736.57 1166.8,1738.21C1164.42,1740.63 1163.25,1741.34 1160.33,1741.33C1157.28,1741.32 1156.03,1741.33 1153.06,1743.13C1150.36,1744.77 1148.85,1746.03 1145.84,1746.45C1143.19,1746.82 1141.2,1746.36 1138.68,1747.91C1137.25,1748.83 1136.61,1749.58 1135.87,1750.13L1136.8,1750.1L1136.9,1750.1L1137.96,1750.19C1138.8,1750.33 1139.61,1750.59 1140.4,1750.85C1141.61,1751.26 1142.83,1751.68 1144.21,1751.61C1147.45,1751.5 1147.27,1750.25 1150.02,1748.54C1152.54,1746.96 1154.54,1747.42 1157.17,1747.05C1160.21,1746.65 1161.7,1745.37 1164.41,1743.73C1167.29,1741.99 1168.56,1741.92 1171.38,1741.92L1171.67,1741.92C1174.6,1741.96 1175.76,1741.24 1178.15,1738.8C1178.51,1738.44 1178.87,1737.98 1179.24,1737.48C1180.47,1735.79 1181.73,1733.69 1183.31,1732.89C1184.4,1732.32 1185.9,1732.21 1187.41,1732.12C1188.68,1732.03 1189.95,1731.96 1191,1731.63C1195.75,1730.14 1199.02,1727.8 1202.61,1724.24C1206.15,1720.74 1210.51,1718.4 1213.86,1714.6C1215.69,1712.53 1217.96,1711.67 1220.11,1710.01C1225.44,1705.89 1224.88,1699.48 1231.48,1697.22C1234.57,1696.15 1235.12,1696.06 1237.02,1693.66C1238.69,1691.55 1239.37,1690.77 1241.83,1689.21C1243.25,1688.32 1245.78,1687.13 1246.65,1685.61C1247.7,1683.79 1246.5,1681.72 1247.86,1679.83C1249.94,1676.89 1255.63,1675.27 1257.24,1671.54C1257.96,1669.88 1256.71,1668.58 1257.66,1666.86C1258.61,1665.13 1261.63,1663.69 1263.04,1662.21L1263.81,1661.32C1265.16,1659.71 1266.42,1657.73 1266.84,1655.93C1267.18,1654.44 1266.04,1652.25 1266.69,1651.01C1267.25,1649.93 1269.59,1648.88 1270.57,1647.8C1271.73,1646.55 1275.15,1642.48 1275.51,1640.96C1275.89,1639.45 1274.69,1638.37 1275.08,1636.7C1275.77,1633.75 1278.3,1631.49 1280.32,1629.08C1281.63,1627.51 1282.74,1625.88 1282.96,1623.96C1283.25,1621.46 1281.26,1619.96 1282.35,1617.37C1282.56,1616.85 1282.86,1616.37 1283.15,1615.91C1284.39,1614.02 1286.08,1612.5 1286.66,1610.01C1287.35,1606.99 1286.74,1604.4 1285.59,1601.95C1284.59,1599.84 1283.31,1598.27 1282.84,1595.92C1282.35,1593.55 1282.38,1591.29 1281.24,1589.2C1279.92,1586.79 1277.73,1585.33 1275.94,1583.39C1274.43,1581.72 1274.12,1579.96 1273.24,1577.87C1271.24,1573.14 1265.11,1571.03 1261.83,1567.24C1260.13,1565.25 1259.35,1563.32 1256.13,1563.14L1255.14,1563.25C1254.36,1563.45 1253.48,1563.83 1252.72,1564.36C1252.1,1564.79 1251.56,1565.28 1251.25,1565.82Z" style="fill:rgb(226,191,99);fill-rule:nonzero;"/>
                <path d="M1270.78,1715.47C1269.42,1718.82 1268.03,1719.44 1265.06,1721.82C1261.81,1724.43 1258.96,1727.11 1256.77,1730.58C1254.59,1734.02 1252.7,1737.86 1249.46,1740.7C1245.87,1743.86 1241.43,1746 1237.54,1748.54C1233.74,1751.02 1229.74,1754.73 1226.9,1758.4C1224.73,1761.22 1223.36,1763.61 1220.48,1766.07C1217.89,1768.26 1214.59,1771.15 1211.61,1772.14C1208.86,1773.03 1206.14,1772.94 1203.37,1774.27L1203.29,1774.33C1202.81,1776.8 1201.37,1779.2 1199.08,1780.85C1195.74,1783.29 1191.68,1783.35 1188.91,1781.35C1186.73,1781.85 1184.78,1782.83 1182.51,1784.43C1177.5,1787.95 1175.75,1783.85 1171.08,1785.79C1168.73,1786.79 1166.9,1788.58 1164.8,1787.77C1163.39,1787.24 1162.99,1785.81 1161.5,1785.35C1160,1784.89 1157.99,1785.34 1156.56,1784.79C1155.02,1784.18 1153.92,1780.65 1152.1,1780.46C1153.99,1782.63 1154.82,1786.27 1157.5,1787.51C1158.74,1788.07 1159.84,1788.29 1160.75,1789.26C1161.83,1790.42 1162.54,1791.82 1163.94,1792.68C1165.18,1793.43 1166.63,1793.42 1168.1,1793.73C1169.56,1794.04 1170.42,1794.88 1171.68,1795.52C1173.14,1796.27 1174.72,1796.67 1176.73,1796.23C1178.78,1795.77 1180.05,1794.18 1181.87,1793.47C1183.61,1792.78 1184.38,1794.06 1186,1793.88C1189.2,1793.52 1191.69,1789.55 1194.93,1788.83C1196.03,1788.58 1196.6,1789.36 1197.61,1789.12C1198.63,1788.89 1201.54,1786.69 1202.47,1785.95C1203.27,1785.32 1204.14,1783.81 1204.89,1783.45C1205.76,1783.04 1207.06,1783.78 1208.03,1783.56C1209.46,1783.25 1211.16,1782.15 1212.41,1781.11C1213.5,1780.22 1214.71,1778.27 1215.92,1777.67C1217.12,1777.06 1217.82,1777.86 1218.95,1777.4C1221.5,1776.39 1223.1,1772.72 1225.17,1771.37C1226.51,1770.51 1227.72,1771.28 1228.97,1770.62C1230.05,1770.05 1231.04,1768.42 1231.76,1767.51C1233,1765.94 1233.56,1765.5 1235.06,1764.44C1236.8,1763.21 1236.91,1762.84 1237.9,1760.86C1239.99,1756.61 1244.03,1757 1247.18,1753.55C1248.46,1752.18 1249.24,1750.72 1250.74,1749.54C1253.49,1747.39 1255.42,1744.59 1258.01,1742.32C1260.63,1740.01 1262.45,1737.91 1263.87,1734.85C1264.54,1733.38 1264.57,1731.17 1265.41,1729.9C1266.28,1728.58 1268.51,1727.62 1269.72,1726.58C1271.5,1725.05 1272.06,1724.29 1272.34,1722.41C1272.63,1720.45 1272.77,1719.64 1274.21,1717.73C1275.53,1715.99 1276.48,1715.03 1277.04,1713.09C1277.53,1711.37 1277.44,1710.09 1278.68,1708.47C1279.39,1707.55 1279.95,1707.14 1280.37,1706.67C1280.63,1705.6 1281.13,1704.63 1281.43,1703.39C1282.63,1698.67 1283.25,1694 1282.95,1689.68C1281.76,1692.79 1280.4,1695.31 1280.26,1698.15C1280.12,1700.88 1278.59,1703.01 1276.4,1705.43C1275.71,1706.2 1275.11,1707.01 1274.54,1707.83L1274.54,1707.84C1272.91,1710.24 1271.84,1712.82 1270.78,1715.47Z" style="fill:rgb(237,231,136);fill-rule:nonzero;"/>
                <path d="M1280.25,1707.34L1280.27,1707.23L1280.37,1706.68L1280.38,1706.67L1280.37,1706.67C1279.95,1707.14 1279.39,1707.55 1278.68,1708.47C1277.44,1710.09 1277.53,1711.37 1277.04,1713.09C1276.48,1715.03 1275.53,1715.99 1274.21,1717.73C1272.77,1719.64 1272.63,1720.45 1272.34,1722.41C1272.06,1724.29 1271.5,1725.05 1269.72,1726.58C1268.51,1727.62 1266.28,1728.58 1265.41,1729.9C1264.57,1731.17 1264.54,1733.38 1263.87,1734.85C1262.45,1737.91 1260.63,1740.01 1258.01,1742.32C1255.42,1744.59 1253.49,1747.39 1250.74,1749.54C1249.24,1750.72 1248.46,1752.18 1247.18,1753.55C1244.03,1757 1239.99,1756.61 1237.9,1760.86C1236.91,1762.84 1236.8,1763.21 1235.06,1764.44C1233.56,1765.5 1233,1765.94 1231.76,1767.51C1231.04,1768.42 1230.05,1770.05 1228.97,1770.62C1227.72,1771.28 1226.51,1770.51 1225.17,1771.37C1223.1,1772.72 1221.5,1776.39 1218.95,1777.4C1217.82,1777.86 1217.12,1777.06 1215.92,1777.67C1214.71,1778.27 1213.5,1780.22 1212.41,1781.11C1211.16,1782.15 1209.46,1783.25 1208.03,1783.56C1207.06,1783.78 1205.76,1783.04 1204.89,1783.45C1204.14,1783.81 1203.27,1785.32 1202.47,1785.95C1201.54,1786.69 1198.63,1788.89 1197.61,1789.12C1196.6,1789.36 1196.03,1788.58 1194.93,1788.83C1191.69,1789.55 1189.2,1793.52 1186,1793.88C1184.38,1794.06 1183.61,1792.78 1181.87,1793.47C1180.05,1794.18 1178.78,1795.77 1176.73,1796.23C1174.72,1796.67 1173.14,1796.27 1171.68,1795.52C1170.42,1794.88 1169.56,1794.04 1168.1,1793.73C1166.63,1793.42 1165.18,1793.43 1163.94,1792.68C1162.54,1791.82 1161.83,1790.42 1160.75,1789.26C1159.84,1788.29 1158.74,1788.07 1157.5,1787.51C1154.82,1786.27 1153.99,1782.63 1152.1,1780.46C1152.08,1780.45 1152.08,1780.43 1152.06,1780.42L1151.72,1780.43L1151.22,1780.61C1150.19,1781.19 1149.12,1782.83 1149.03,1783.75C1148.83,1785.84 1149.99,1786.34 1151.08,1787.44C1153.18,1789.56 1153.95,1793.52 1156.77,1794.82C1158.01,1795.39 1159.12,1795.59 1160.02,1796.58C1161.1,1797.72 1161.81,1799.15 1163.22,1800L1163.39,1800.1L1163.39,1800.11C1164.6,1800.75 1165.96,1800.75 1167.37,1801.05C1168.83,1801.36 1169.7,1802.19 1170.95,1802.84C1172.29,1803.54 1173.75,1803.92 1175.53,1803.63L1176.01,1803.55L1176.76,1803.32C1178.38,1802.7 1179.56,1801.4 1181.13,1800.78C1182.54,1800.23 1183.32,1800.94 1184.41,1801.15L1185.27,1801.18C1186.35,1801.07 1187.35,1800.54 1188.34,1799.84C1190.24,1798.52 1192.06,1796.63 1194.21,1796.14C1195.3,1795.9 1195.88,1796.67 1196.89,1796.44C1197.89,1796.2 1200.82,1794.01 1201.74,1793.26C1202.54,1792.63 1203.43,1791.13 1204.16,1790.77C1205.03,1790.35 1206.31,1791.09 1207.3,1790.88C1208.73,1790.56 1210.44,1789.47 1211.69,1788.43C1212.77,1787.54 1213.99,1785.6 1215.19,1785C1216.38,1784.38 1217.09,1785.2 1218.22,1784.73C1220.78,1783.69 1222.36,1780.03 1224.44,1778.69C1225.78,1777.83 1227,1778.61 1228.26,1777.93C1229.31,1777.38 1230.31,1775.75 1231.03,1774.84C1232.27,1773.26 1232.84,1772.81 1234.34,1771.75C1236.06,1770.52 1236.18,1770.17 1237.17,1768.17C1239.26,1763.94 1243.3,1764.32 1246.46,1760.88C1247.73,1759.49 1248.5,1758.03 1250.01,1756.86C1252.77,1754.71 1254.69,1751.92 1257.28,1749.63C1258.54,1748.52 1259.61,1747.45 1260.54,1746.3C1260.71,1746.11 1260.86,1745.89 1261.02,1745.68C1261.81,1744.62 1262.53,1743.49 1263.14,1742.16C1263.81,1740.7 1263.84,1738.5 1264.69,1737.21C1265.48,1736.03 1267.35,1735.12 1268.6,1734.2L1268.99,1733.9C1270.78,1732.36 1271.34,1731.62 1271.63,1729.72C1271.7,1729.23 1271.75,1728.81 1271.82,1728.43C1272.05,1727.29 1272.41,1726.48 1273.48,1725.05L1273.71,1724.75C1274.9,1723.19 1275.79,1722.23 1276.32,1720.4C1276.59,1719.44 1276.68,1718.63 1276.92,1717.82L1277.54,1716.41L1277.96,1715.8C1279.33,1714.01 1280.12,1714.13 1280.5,1712.05C1280.7,1711.02 1280.48,1710.15 1280.34,1709.25L1280.21,1708.02L1280.25,1707.34Z" style="fill:rgb(225,197,132);fill-rule:nonzero;"/>
                <path d="M1154.54,1542.5C1155.91,1544.02 1157.15,1545.64 1158.26,1547.34C1158.79,1546.73 1159.38,1546.17 1160.06,1545.67C1162.28,1544.05 1164.85,1543.49 1167.13,1543.89C1167.47,1542.25 1168.25,1540.65 1169.41,1539.28C1144.17,1512.54 1090.1,1521.31 1047.94,1559.26C1085.07,1525.84 1132.8,1518.34 1154.54,1542.5Z" style="fill:rgb(237,236,121);fill-rule:nonzero;"/>
                <path d="M1172.27,1563.54C1169.88,1565.28 1167.11,1565.81 1164.71,1565.24C1165.78,1572.96 1165.15,1581.39 1162.95,1590.09C1165.17,1585.15 1167.7,1580.49 1172.41,1577C1176.13,1574.22 1179.13,1570.56 1181.58,1566.45C1177.99,1567.68 1174.2,1566.63 1172.27,1563.54Z" style="fill:rgb(237,236,121);fill-rule:nonzero;"/>
                <path d="M1178.67,1589.58C1176.11,1590.84 1174.36,1595.59 1173.12,1597.91C1169.63,1604.4 1166.72,1612.61 1161,1617.58C1157.81,1614.23 1156.63,1614.37 1152.7,1617.57C1151.3,1618.7 1149.99,1619.98 1148.73,1621.31C1142.84,1630.21 1135.46,1638.86 1126.68,1646.76C1108.49,1663.12 1087.78,1673.26 1068.8,1676.51C1065,1681.84 1059.75,1688.29 1054.22,1685.61C1052.49,1684.77 1050.55,1682.63 1048.59,1682.44C1045.43,1682.17 1043.17,1685.2 1041.38,1687.31C1040.11,1688.81 1038.76,1690.54 1037.29,1692.15C1046.11,1694.92 1056.11,1695.67 1066.7,1694.44C1070.07,1692.39 1071.76,1688.49 1075.61,1687.11C1079.84,1685.58 1084.08,1686.29 1088.3,1685.42C1092.89,1684.47 1097.92,1680.61 1101.86,1677.69C1106.25,1674.42 1108.3,1670.96 1111.59,1666.97C1115.88,1661.78 1121.97,1656.78 1127.8,1653.65C1133.75,1650.45 1140.56,1647.99 1146.03,1643.77C1150.97,1639.96 1153.78,1634.33 1157.06,1629.37C1160.37,1624.38 1164.69,1620.74 1169.66,1617.31C1170.47,1616.74 1171.22,1616.26 1171.89,1615.82C1176.26,1606.93 1179.31,1598.02 1180.97,1589.38C1180.21,1589.35 1179.47,1589.2 1178.67,1589.58Z" style="fill:rgb(237,236,121);fill-rule:nonzero;"/>
                <path d="M1024.56,1667.76C1022.97,1666.48 1021.46,1665.06 1020.07,1663.52C998.328,1639.36 1010.81,1592.68 1047.94,1559.26C1005.37,1597.57 991.069,1651.09 1016,1678.79L1016.23,1679.02C1017.43,1677.25 1018.72,1675.53 1019.91,1673.92C1021.41,1671.86 1022.96,1669.79 1024.56,1667.76Z" style="fill:rgb(237,236,121);fill-rule:nonzero;"/>
                <path d="M1131.99,1639.05C1127.11,1642.36 1124.54,1635.96 1119.93,1636.8C1116.94,1637.33 1113.75,1641.17 1111.58,1643.1C1107.58,1646.65 1104.19,1650.83 1100.4,1654.58C1097.79,1657.18 1094.75,1660.56 1091.54,1662.42C1088.45,1664.22 1087.23,1662.43 1084.17,1661.53C1078.48,1659.83 1074.73,1668.5 1071.84,1672.28C1070.99,1673.39 1069.95,1674.91 1068.8,1676.51C1087.78,1673.26 1108.49,1663.12 1126.68,1646.76C1135.46,1638.86 1142.84,1630.21 1148.73,1621.31C1143.15,1627.23 1138.58,1634.62 1131.99,1639.05Z" style="fill:rgb(238,237,134);fill-rule:nonzero;"/>
                <path d="M1020.07,1663.52C1021.46,1665.06 1022.97,1666.48 1024.56,1667.76C1030.28,1660.49 1036.63,1653.55 1043.83,1647.87C1045.18,1646.82 1046.63,1645.73 1048.16,1644.74C1042.74,1643.13 1038.01,1640.33 1034.33,1636.24C1018.75,1618.93 1027.69,1585.5 1054.29,1561.55C1080.89,1537.62 1115.07,1532.24 1130.65,1549.56C1144.41,1564.83 1139.04,1592.69 1119.27,1615.48C1121.28,1617.4 1123.41,1619.21 1126.46,1618.88C1133.96,1618.1 1134.6,1605.03 1141.68,1604.51C1144.47,1604.31 1146.41,1607.28 1149,1607.83C1153.26,1608.74 1155.89,1604.43 1157.71,1601.26C1159.82,1597.59 1161.3,1593.74 1162.95,1590.09C1165.15,1581.39 1165.78,1572.96 1164.71,1565.24C1162.89,1564.81 1161.29,1563.72 1160.24,1562.04L1159.71,1561.04L1159.62,1560.8C1158.5,1560.22 1157.54,1559.37 1156.84,1558.24L1156.31,1557.22L1156.21,1556.95L1155.87,1555.89L1155.87,1555.87L1155.69,1554.73L1155.68,1554.49C1155.53,1552.02 1156.45,1549.4 1158.26,1547.34C1157.15,1545.64 1155.91,1544.02 1154.54,1542.5C1132.8,1518.34 1085.07,1525.84 1047.94,1559.26C1010.81,1592.68 998.328,1639.36 1020.07,1663.52Z" style="fill:rgb(238,237,134);fill-rule:nonzero;"/>
                <path d="M1075.6,1647.3C1078.68,1646.37 1081.48,1644.03 1084.01,1641.25C1078.86,1643.34 1073.72,1644.82 1068.76,1645.63C1070.76,1647.07 1072.87,1648.13 1075.6,1647.3Z" style="fill:rgb(238,237,134);fill-rule:nonzero;"/>
                <path d="M1130.65,1549.56C1115.07,1532.24 1080.89,1537.62 1054.29,1561.55C1027.69,1585.5 1018.75,1618.93 1034.33,1636.24C1038.01,1640.33 1042.74,1643.13 1048.16,1644.74C1052.99,1641.67 1058.59,1639.54 1063.99,1642.29C1065.7,1643.17 1067.21,1644.52 1068.76,1645.63C1073.72,1644.82 1078.86,1643.34 1084.01,1641.25C1087.15,1637.78 1089.86,1633.65 1092.13,1630.74C1096.84,1624.72 1101.7,1616.68 1108.39,1612.64C1113.54,1609.54 1116.28,1612.64 1119.27,1615.48C1139.04,1592.69 1144.41,1564.83 1130.65,1549.56Z" style="fill:rgb(239,236,144);fill-rule:nonzero;"/>
                <path d="M1026.21,1697.54C1030.71,1698.23 1034.27,1695.44 1037.29,1692.15C1038.76,1690.54 1040.11,1688.81 1041.38,1687.31C1043.17,1685.2 1045.43,1682.17 1048.59,1682.44C1050.55,1682.63 1052.49,1684.77 1054.22,1685.61C1059.75,1688.29 1065,1681.84 1068.8,1676.51C1069.95,1674.91 1070.99,1673.39 1071.84,1672.28C1074.73,1668.5 1078.48,1659.83 1084.17,1661.53C1087.23,1662.43 1088.45,1664.22 1091.54,1662.42C1094.75,1660.56 1097.79,1657.18 1100.4,1654.58C1104.19,1650.83 1107.58,1646.65 1111.58,1643.1C1113.75,1641.17 1116.94,1637.33 1119.93,1636.8C1124.54,1635.96 1127.11,1642.36 1131.99,1639.05C1138.58,1634.62 1143.15,1627.23 1148.73,1621.31C1149.99,1619.98 1151.3,1618.7 1152.7,1617.57C1156.63,1614.37 1157.81,1614.23 1161,1617.58C1166.72,1612.61 1169.63,1604.4 1173.12,1597.91C1174.36,1595.59 1176.11,1590.84 1178.67,1589.58C1179.47,1589.2 1180.21,1589.35 1180.97,1589.38L1182.15,1589.24C1187.23,1587.38 1189.98,1577.57 1191.61,1573.12C1192.97,1569.37 1193.82,1565.59 1194.84,1561.76C1196.83,1554.04 1192.71,1535.98 1192.01,1535.64C1191.77,1538.06 1191.13,1540.47 1190.56,1542.69L1190.49,1542.99L1190.99,1544.32L1191.05,1544.35L1191.12,1544.36L1191.97,1544.78L1192.21,1544.93L1192.81,1545.41L1193.03,1545.61L1193.7,1546.45C1195.43,1549.2 1194.4,1553.19 1191.41,1555.37C1190.55,1555.99 1189.62,1556.38 1188.7,1556.59C1188.75,1559.69 1187.17,1562.96 1184.3,1565.04C1183.43,1565.66 1182.51,1566.12 1181.58,1566.45C1179.13,1570.56 1176.13,1574.22 1172.41,1577C1167.7,1580.49 1165.17,1585.15 1162.95,1590.09C1161.3,1593.74 1159.82,1597.59 1157.71,1601.26C1155.89,1604.43 1153.26,1608.74 1149,1607.83C1146.41,1607.28 1144.47,1604.31 1141.68,1604.51C1134.6,1605.03 1133.96,1618.1 1126.46,1618.88C1123.41,1619.21 1121.28,1617.4 1119.27,1615.48C1116.28,1612.64 1113.54,1609.54 1108.39,1612.64C1101.7,1616.68 1096.84,1624.72 1092.13,1630.74C1089.86,1633.65 1087.15,1637.78 1084.01,1641.25C1081.48,1644.03 1078.68,1646.37 1075.6,1647.3C1072.87,1648.13 1070.76,1647.07 1068.76,1645.63C1067.21,1644.52 1065.7,1643.17 1063.99,1642.29C1058.59,1639.54 1052.99,1641.67 1048.16,1644.74C1046.63,1645.73 1045.18,1646.82 1043.83,1647.87C1036.63,1653.55 1030.28,1660.49 1024.56,1667.76C1022.96,1669.79 1021.41,1671.86 1019.91,1673.92C1018.72,1675.53 1017.43,1677.25 1016.23,1679.02C1014.69,1681.35 1013.33,1683.8 1012.73,1686.4L1012.62,1695.14C1012.51,1695.96 1012.57,1696.63 1012.75,1697.24C1013.79,1698.25 1014.56,1699.48 1015.85,1700.27C1017.23,1699.56 1018.12,1698.18 1019.57,1697.51C1021.97,1696.39 1023.79,1697.17 1026.21,1697.54Z" style="fill:rgb(235,202,70);fill-rule:nonzero;"/>
                <path d="M996.561,1692.44L997.334,1692.26L997.87,1692.32C997.889,1692.34 997.904,1692.37 997.922,1692.39C1000.75,1693.05 1002.55,1698.81 1004.96,1700.05C1007.21,1701.24 1010.3,1700.93 1012.64,1701.96C1014.96,1702.96 1015.62,1705.3 1017.8,1706.41C1021.08,1708.09 1023.88,1705.63 1027.52,1704.59C1034.67,1702.47 1037.51,1709.25 1045.18,1704.72C1049.62,1702.11 1053.32,1700.96 1058.01,1701.11C1060.75,1701.19 1064.43,1702.18 1067.34,1700.88C1071.39,1699.05 1073.01,1694.55 1077.21,1693.03C1081.45,1691.5 1085.69,1692.21 1089.9,1691.33C1094.5,1690.39 1099.53,1686.54 1103.47,1683.6C1107.86,1680.34 1109.91,1676.88 1113.21,1672.89C1117.49,1667.69 1123.58,1662.7 1129.42,1659.56C1135.36,1656.37 1142.18,1653.91 1147.64,1649.69C1152.58,1645.89 1155.39,1640.25 1158.67,1635.29C1161.97,1630.29 1166.3,1626.65 1171.26,1623.23C1175.8,1620.11 1177.93,1619.41 1179.93,1614.42C1182.03,1609.15 1184.19,1604.07 1188.38,1599.81C1191.68,1596.46 1193.99,1593.4 1194.13,1589.17C1194.21,1586.16 1195.18,1583.49 1196.36,1580.62C1196.67,1577.2 1196.71,1573.8 1196.43,1570.5C1194.67,1575.17 1192.66,1578.82 1192.51,1583.27C1192.38,1587.49 1190.07,1590.55 1186.77,1593.89C1182.58,1598.15 1180.44,1603.23 1178.31,1608.49C1176.68,1612.59 1174.96,1613.79 1171.89,1615.82C1171.22,1616.26 1170.47,1616.74 1169.66,1617.31C1164.69,1620.74 1160.37,1624.38 1157.06,1629.37C1153.78,1634.33 1150.97,1639.96 1146.03,1643.77C1140.56,1647.99 1133.75,1650.45 1127.8,1653.65C1121.97,1656.78 1115.88,1661.78 1111.59,1666.97C1108.3,1670.96 1106.25,1674.42 1101.86,1677.69C1097.92,1680.61 1092.89,1684.47 1088.3,1685.42C1084.08,1686.29 1079.84,1685.58 1075.61,1687.11C1071.76,1688.49 1070.07,1692.39 1066.7,1694.44L1065.73,1694.95C1062.83,1696.26 1059.14,1695.29 1056.4,1695.19C1051.7,1695.05 1048.02,1696.2 1043.57,1698.81C1035.91,1703.32 1033.06,1696.55 1025.9,1698.66C1022.28,1699.73 1019.47,1702.17 1016.19,1700.49L1015.85,1700.27C1014.56,1699.48 1013.79,1698.25 1012.75,1697.24C1012.27,1696.78 1011.73,1696.35 1011.04,1696.04C1008.7,1695.02 1005.6,1695.31 1003.34,1694.14C1001.81,1693.34 1000.52,1690.68 999.059,1688.68C998.077,1687.35 997.012,1686.29 995.734,1686.34L994.946,1686.53C994.224,1686.83 993.49,1687.5 992.906,1688.29C992.211,1689.19 991.703,1690.24 991.645,1691C991.467,1693.36 992.386,1694.55 993.577,1695.78C994.129,1694.45 995.359,1692.96 996.561,1692.44Z" style="fill:rgb(235,202,70);fill-rule:nonzero;"/>
                <path d="M1198.04,1576.42C1197.48,1577.9 1196.9,1579.28 1196.36,1580.62C1195.18,1583.49 1194.21,1586.16 1194.13,1589.17C1193.99,1593.4 1191.68,1596.46 1188.38,1599.81C1184.19,1604.07 1182.03,1609.15 1179.93,1614.42C1177.93,1619.41 1175.8,1620.11 1171.26,1623.23C1166.3,1626.65 1161.97,1630.29 1158.67,1635.29C1155.39,1640.25 1152.58,1645.89 1147.64,1649.69C1142.18,1653.91 1135.36,1656.37 1129.42,1659.56C1123.58,1662.7 1117.49,1667.69 1113.21,1672.89C1109.91,1676.88 1107.86,1680.34 1103.47,1683.6C1099.53,1686.54 1094.5,1690.39 1089.9,1691.33C1085.69,1692.21 1081.45,1691.5 1077.21,1693.03C1073.01,1694.55 1071.39,1699.05 1067.34,1700.88C1064.43,1702.18 1060.75,1701.19 1058.01,1701.11C1053.32,1700.96 1049.62,1702.11 1045.18,1704.72C1037.51,1709.25 1034.67,1702.47 1027.52,1704.59C1023.88,1705.63 1021.08,1708.09 1017.8,1706.41C1015.62,1705.3 1014.96,1702.96 1012.64,1701.96C1010.3,1700.93 1007.21,1701.24 1004.96,1700.05C1002.55,1698.81 1000.75,1693.05 997.922,1692.39C1000.91,1696.17 1002.29,1702.04 1006.49,1704.51C1008.44,1705.67 1010.15,1706.2 1011.59,1707.92C1013.29,1709.95 1014.43,1712.32 1016.64,1713.94C1018.58,1715.36 1020.82,1715.63 1023.11,1716.44C1025.38,1717.22 1026.75,1718.69 1028.71,1719.96C1030.99,1721.43 1033.48,1722.37 1036.57,1722.08C1039.74,1721.79 1041.66,1719.54 1044.44,1718.79C1047.13,1718.05 1048.36,1720.22 1050.87,1720.27C1055.8,1720.36 1059.57,1714.64 1064.55,1714.15C1066.26,1713.98 1067.17,1715.32 1068.73,1715.15C1070.28,1714.99 1074.75,1712.14 1076.16,1711.16C1077.36,1710.33 1078.69,1708.14 1079.84,1707.73C1081.17,1707.25 1083.2,1708.66 1084.7,1708.54C1086.91,1708.34 1089.52,1706.96 1091.42,1705.59C1093.08,1704.4 1094.91,1701.6 1096.75,1700.89C1098.58,1700.18 1099.71,1701.59 1101.45,1701.09C1105.37,1700 1107.73,1694.56 1110.91,1692.89C1112.97,1691.8 1114.86,1693.26 1116.8,1692.47C1118.43,1691.8 1119.92,1689.46 1121.01,1688.17C1122.89,1685.95 1123.74,1685.35 1126.05,1683.99C1128.69,1682.43 1128.86,1681.89 1130.33,1678.97C1133.44,1672.72 1139.73,1674.14 1144.51,1669.39C1146.43,1667.49 1147.6,1665.36 1149.9,1663.81C1154.1,1661 1156.99,1657 1160.93,1653.94C1164.94,1650.85 1167.7,1647.92 1169.81,1643.41C1170.81,1641.25 1170.79,1637.8 1172.06,1635.96C1173.38,1634.07 1176.8,1633.01 1178.63,1631.63C1181.35,1629.59 1182.22,1628.54 1182.58,1625.63C1182.96,1622.61 1183.15,1621.37 1185.33,1618.66C1187.31,1616.21 1188.77,1614.87 1189.58,1611.94C1190.29,1609.37 1190.11,1607.32 1191.99,1605.05C1193.06,1603.73 1193.92,1603.22 1194.54,1602.57C1194.91,1600.94 1195.66,1599.51 1196.1,1597.64C1197.82,1590.49 1198.63,1583.28 1198.04,1576.42Z" style="fill:rgb(237,231,136);fill-rule:nonzero;"/>
                <path d="M1005.58,1715.84C1006.65,1716.48 1007.65,1716.93 1008.57,1717.48L1008.58,1717.48L1008.6,1717.51C1009.34,1717.96 1010.04,1718.49 1010.69,1719.24C1012.39,1721.28 1013.53,1723.66 1015.74,1725.27C1016.84,1726.07 1018.04,1726.51 1019.3,1726.88C1020.24,1727.16 1021.22,1727.4 1022.2,1727.75C1024.47,1728.54 1025.84,1730 1027.8,1731.28C1030.08,1732.76 1032.57,1733.7 1035.67,1733.41C1038.83,1733.12 1040.74,1730.87 1043.53,1730.11C1046.23,1729.38 1047.45,1731.55 1049.96,1731.59C1054.9,1731.67 1058.66,1725.96 1063.65,1725.48C1065.35,1725.29 1066.26,1726.64 1067.82,1726.48C1069.37,1726.3 1073.84,1723.46 1075.25,1722.48C1076.45,1721.66 1077.78,1719.47 1078.93,1719.06C1080.26,1718.58 1082.29,1719.99 1083.79,1719.86C1086,1719.66 1088.62,1718.28 1090.52,1716.92L1091.38,1716.17C1092.8,1714.82 1094.32,1712.81 1095.84,1712.22L1096.01,1712.17C1096.46,1711.75 1096.93,1711.36 1097.43,1710.99C1100.09,1709.07 1103.06,1708.14 1105.88,1708.16C1107.23,1706.57 1108.53,1704.99 1110,1704.2C1112.05,1703.12 1113.95,1704.59 1115.89,1703.79C1117.52,1703.12 1119.01,1700.78 1120.1,1699.49C1121.97,1697.25 1122.85,1696.68 1125.14,1695.31C1127.78,1693.76 1127.95,1693.22 1129.42,1690.3C1132.53,1684.05 1138.82,1685.47 1143.6,1680.72C1145.51,1678.8 1146.7,1676.68 1148.99,1675.13C1153.18,1672.33 1156.08,1668.32 1160.02,1665.27C1164.03,1662.18 1166.79,1659.26 1168.9,1654.73C1169.9,1652.59 1169.88,1649.13 1171.15,1647.29C1172.46,1645.42 1175.88,1644.34 1177.72,1642.96C1180.44,1640.91 1181.3,1639.84 1181.67,1636.94C1182.05,1633.94 1182.23,1632.69 1184.41,1629.99C1186.4,1627.53 1187.86,1626.21 1188.67,1623.27C1189.38,1620.69 1189.2,1618.65 1191.08,1616.37C1193.15,1613.86 1194.37,1614.22 1194.91,1611.02C1195.3,1608.74 1194.39,1606.79 1194.33,1604.63L1194.38,1603.56L1194.39,1603.49L1194.54,1602.57C1193.92,1603.22 1193.06,1603.73 1191.99,1605.05C1190.11,1607.32 1190.29,1609.37 1189.58,1611.94C1188.77,1614.87 1187.31,1616.21 1185.33,1618.66C1183.15,1621.37 1182.96,1622.61 1182.58,1625.63C1182.22,1628.54 1181.35,1629.59 1178.63,1631.63C1176.8,1633.01 1173.38,1634.07 1172.06,1635.96C1170.79,1637.8 1170.81,1641.25 1169.81,1643.41C1167.7,1647.92 1164.94,1650.85 1160.93,1653.94C1156.99,1657 1154.1,1661 1149.9,1663.81C1147.6,1665.36 1146.43,1667.49 1144.51,1669.39C1139.73,1674.14 1133.44,1672.72 1130.33,1678.97C1128.86,1681.89 1128.69,1682.43 1126.05,1683.99C1123.74,1685.35 1122.89,1685.95 1121.01,1688.17C1119.92,1689.46 1118.43,1691.8 1116.8,1692.47C1114.86,1693.26 1112.97,1691.8 1110.91,1692.89C1107.73,1694.56 1105.37,1700 1101.45,1701.09C1099.71,1701.59 1098.58,1700.18 1096.75,1700.89C1094.91,1701.6 1093.08,1704.4 1091.42,1705.59C1089.52,1706.96 1086.91,1708.34 1084.7,1708.54C1083.2,1708.66 1081.17,1707.25 1079.84,1707.73C1078.69,1708.14 1077.36,1710.33 1076.16,1711.16C1074.75,1712.14 1070.28,1714.99 1068.73,1715.15C1067.17,1715.32 1066.26,1713.98 1064.55,1714.15C1059.57,1714.64 1055.8,1720.36 1050.87,1720.27C1048.36,1720.22 1047.13,1718.05 1044.44,1718.79C1041.66,1719.54 1039.74,1721.79 1036.57,1722.08C1033.48,1722.37 1030.99,1721.43 1028.71,1719.96C1026.75,1718.69 1025.38,1717.22 1023.11,1716.44C1020.82,1715.63 1018.58,1715.36 1016.64,1713.94C1014.43,1712.32 1013.29,1709.95 1011.59,1707.92C1010.15,1706.2 1008.44,1705.67 1006.49,1704.51C1002.29,1702.04 1000.91,1696.17 997.922,1692.39C997.904,1692.37 997.889,1692.34 997.87,1692.32L997.334,1692.26L996.561,1692.44C995.359,1692.96 994.129,1694.45 993.577,1695.78L993.255,1696.92C993.017,1700.14 994.814,1701.18 996.553,1703.12L996.826,1703.47C999.951,1707.25 1001.3,1713.3 1005.58,1715.84Z" style="fill:rgb(225,197,132);fill-rule:nonzero;"/>
                <path d="M1211.92,1646.12C1212.89,1642.65 1215.1,1639.58 1217.82,1637.5C1216.29,1635.26 1215.82,1632.1 1216.79,1628.64C1218.61,1622.11 1224.83,1616.99 1230.69,1617.2C1231.38,1617.23 1232.03,1617.32 1232.64,1617.51C1233.33,1616.45 1234.18,1615.54 1235.12,1614.77L1235.22,1614.69L1235.56,1614.43L1236.18,1614.01L1236.49,1613.81L1237.39,1613.35L1237.73,1613.21L1238.54,1612.9L1238.73,1612.84L1239.74,1612.63L1240,1612.6L1241.06,1612.56L1241.35,1612.58C1240.48,1610.73 1238.74,1609.49 1236.45,1609.42L1235.4,1609.47L1235.14,1609.49L1234.13,1609.72L1233.96,1609.76L1233.11,1610.07L1232.79,1610.22L1231.89,1610.67L1231.58,1610.87L1230.96,1611.31L1230.61,1611.56L1230.51,1611.61L1230.53,1611.63C1229.58,1612.4 1228.73,1613.33 1228.04,1614.36C1227.44,1614.21 1226.77,1614.09 1226.08,1614.06C1220.24,1613.85 1214.01,1618.99 1212.19,1625.51C1211.22,1628.96 1211.7,1632.13 1213.22,1634.36C1210.48,1636.45 1208.28,1639.5 1207.31,1642.97C1206.15,1647.14 1207.07,1650.87 1209.41,1653.09L1209.84,1653.48L1210.11,1653.69L1210.57,1653.99L1210.84,1654.15L1211.58,1654.53L1211.72,1654.58L1212.43,1654.83L1212.72,1654.9L1212.94,1654.95C1211.44,1652.71 1210.94,1649.56 1211.92,1646.12Z" style="fill:rgb(168,89,36);fill-rule:nonzero;"/>
                <path d="M1220.35,1650.05C1218.61,1651.67 1216.29,1652.2 1214.68,1651.15L1213.97,1650.52C1215.84,1651.06 1218.26,1650.03 1219.77,1647.89C1220.38,1647.03 1220.76,1646.12 1220.92,1645.22C1222.41,1645 1223.95,1644.03 1225.04,1642.49C1225.8,1641.43 1226.2,1640.26 1226.26,1639.17C1227,1639.36 1228.11,1640.74 1226.63,1643.53C1226.09,1644.57 1225.17,1645.3 1224.21,1645.74C1229.43,1644.91 1234.51,1640.23 1236.14,1634.43C1237.38,1629.98 1236.26,1626.03 1233.57,1623.89C1234.37,1622.8 1235.01,1621.54 1235.37,1620.22C1235.95,1618.16 1235.8,1616.26 1235.12,1614.77C1234.18,1615.54 1233.33,1616.45 1232.64,1617.51C1232.03,1617.32 1231.38,1617.23 1230.69,1617.2C1224.83,1616.99 1218.61,1622.11 1216.79,1628.64C1215.82,1632.1 1216.29,1635.26 1217.82,1637.5C1215.1,1639.58 1212.89,1642.65 1211.92,1646.12C1210.94,1649.56 1211.44,1652.71 1212.94,1654.95L1213.84,1656.03C1216.4,1654.78 1218.72,1652.66 1220.35,1650.05Z" style="fill:rgb(236,234,106);fill-rule:nonzero;"/>
                <path d="M1247,1635.45C1248.1,1631.55 1247.35,1628.02 1245.35,1625.77L1244.44,1624.9C1245.24,1623.8 1245.87,1622.56 1246.23,1621.23C1247.5,1616.7 1245.31,1612.9 1241.35,1612.58L1241.06,1612.56L1240,1612.6L1239.74,1612.63L1238.73,1612.84L1238.54,1612.9L1237.73,1613.21L1237.39,1613.35L1236.49,1613.81L1236.18,1614.01L1235.56,1614.43L1235.22,1614.69L1235.12,1614.77C1235.8,1616.26 1235.95,1618.16 1235.37,1620.22C1235.01,1621.54 1234.37,1622.8 1233.57,1623.89C1236.26,1626.03 1237.38,1629.98 1236.14,1634.43C1234.51,1640.23 1229.43,1644.91 1224.21,1645.74C1223.64,1646 1223.06,1646.16 1222.51,1646.25C1222.35,1647.14 1221.97,1648.07 1221.36,1648.92L1220.35,1650.05C1218.72,1652.66 1216.4,1654.78 1213.84,1656.03C1213.84,1656.03 1213.83,1656.04 1213.82,1656.04L1214.03,1656.24L1214.45,1656.61L1214.72,1656.82L1215.17,1657.12L1215.45,1657.29L1216.18,1657.65L1216.34,1657.71L1217.03,1657.96L1217.33,1658.04L1217.96,1658.19L1218.25,1658.24L1219.21,1658.32C1225.06,1658.53 1231.28,1653.4 1233.1,1646.88L1234.02,1646.86C1239.58,1646.56 1245.27,1641.63 1247,1635.45Z" style="fill:rgb(226,191,99);fill-rule:nonzero;"/>
                <path d="M1226.63,1643.53C1228.11,1640.74 1227,1639.36 1226.26,1639.17C1226.2,1640.26 1225.8,1641.43 1225.04,1642.49C1223.95,1644.03 1222.41,1645 1220.92,1645.22C1220.76,1646.12 1220.38,1647.03 1219.77,1647.89C1218.26,1650.03 1215.84,1651.06 1213.97,1650.52L1214.68,1651.15C1216.29,1652.2 1218.61,1651.67 1220.35,1650.05L1221.36,1648.92C1221.97,1648.07 1222.35,1647.14 1222.51,1646.25C1223.06,1646.16 1223.64,1646 1224.21,1645.74C1225.17,1645.3 1226.09,1644.57 1226.63,1643.53Z" style="fill:rgb(226,191,99);fill-rule:nonzero;"/>
                <path d="M1091.21,1720.47C1087.83,1719.89 1084.03,1720.73 1080.72,1723.12C1076.71,1726.03 1074.4,1730.49 1074.2,1734.85L1074.18,1735.63L1074.2,1736.06L1074.25,1736.8L1074.3,1737.2L1074.48,1738.27L1074.53,1738.43L1074.64,1738.82C1075.51,1735.48 1077.6,1732.29 1080.72,1730.03C1084.03,1727.63 1087.83,1726.78 1091.21,1727.38C1091.98,1723.78 1094.12,1720.3 1097.43,1717.9C1103.69,1713.36 1111.69,1714.35 1115.3,1720.11C1115.73,1720.8 1116.07,1721.53 1116.35,1722.25C1117.6,1721.92 1118.86,1721.84 1120.07,1722L1120.07,1721.99L1120.18,1722.01L1120.6,1722.1L1121.35,1722.28L1121.68,1722.37L1122.63,1722.79L1122.95,1722.96L1123.74,1723.48L1123.88,1723.58L1124.71,1724.35L1124.9,1724.55L1125.62,1725.5L1126.19,1726.64C1127.22,1723.93 1127.09,1720.96 1125.62,1718.6L1124.9,1717.66L1124.71,1717.44L1123.88,1716.68L1123.74,1716.58L1122.95,1716.05L1122.64,1715.88L1121.68,1715.48L1121.35,1715.37L1120.6,1715.19L1120.18,1715.11L1120.07,1715.1L1120.05,1715.1C1118.86,1714.94 1117.6,1715.01 1116.35,1715.36C1116.07,1714.62 1115.73,1713.89 1115.3,1713.21C1114.96,1712.65 1114.56,1712.17 1114.14,1711.69C1112.03,1709.38 1109.05,1708.16 1105.88,1708.16C1103.06,1708.14 1100.09,1709.07 1097.43,1710.99C1096.93,1711.36 1096.46,1711.75 1096.01,1712.17C1094.77,1713.3 1093.76,1714.6 1092.96,1715.98C1092.13,1717.4 1091.54,1718.92 1091.21,1720.47Z" style="fill:rgb(168,89,36);fill-rule:nonzero;"/>
                <path d="M1083.1,1741.84C1080.7,1741.74 1078.79,1740.02 1078.58,1737.49L1078.62,1736.21C1079.4,1738.52 1081.76,1739.81 1084.39,1739.19C1085.46,1738.96 1086.43,1738.42 1087.22,1737.71C1088.36,1738.91 1090.11,1739.47 1092,1739.03C1093.31,1738.72 1094.47,1737.98 1095.36,1737.02C1095.7,1737.89 1095.33,1740.27 1092.22,1741.53C1091.06,1742.02 1089.9,1741.84 1088.94,1741.34C1092.95,1745.52 1099.87,1745.86 1105.43,1741.83C1109.69,1738.73 1112.04,1733.89 1111.97,1729.28C1113.34,1729 1114.72,1728.4 1115.98,1727.46C1117.95,1726.04 1119.34,1724.1 1120.07,1722C1118.86,1721.84 1117.6,1721.92 1116.35,1722.25C1116.07,1721.53 1115.73,1720.8 1115.3,1720.11C1111.69,1714.35 1103.69,1713.36 1097.43,1717.9C1094.12,1720.3 1091.98,1723.78 1091.21,1727.38C1087.83,1726.78 1084.03,1727.63 1080.72,1730.03C1077.6,1732.29 1075.51,1735.48 1074.64,1738.82C1074.42,1739.69 1074.31,1740.55 1074.25,1741.4C1076.87,1742.61 1080.01,1742.79 1083.1,1741.84Z" style="fill:rgb(236,234,106);fill-rule:nonzero;"/>
                <path d="M1115.93,1748.52L1116.26,1747.94C1117.56,1745.63 1118.23,1743.06 1118.2,1740.57C1119.57,1740.27 1120.94,1739.68 1122.21,1738.76C1126.27,1735.82 1127.88,1730.64 1126.19,1726.64L1125.62,1725.5L1124.9,1724.55L1124.71,1724.35L1123.88,1723.58L1123.74,1723.48L1122.95,1722.96L1122.63,1722.79L1121.68,1722.37L1121.35,1722.28L1120.6,1722.1L1120.18,1722.01L1120.07,1721.99L1120.07,1722C1119.34,1724.1 1117.95,1726.04 1115.98,1727.46C1114.72,1728.4 1113.34,1729 1111.97,1729.28C1112.04,1733.89 1109.69,1738.73 1105.43,1741.83C1099.87,1745.86 1092.95,1745.52 1088.94,1741.34C1088.38,1741.06 1087.87,1740.67 1087.44,1740.22C1086.64,1740.93 1085.68,1741.47 1084.61,1741.71C1084.1,1741.83 1083.59,1741.88 1083.1,1741.84C1080.01,1742.79 1076.87,1742.61 1074.25,1741.4C1074.24,1741.4 1074.23,1741.4 1074.22,1741.39L1074.2,1741.76L1074.18,1742.52L1074.2,1742.99L1074.25,1743.68L1074.3,1744.11L1074.48,1745.16L1074.53,1745.36L1074.8,1746.26L1074.93,1746.61L1075.23,1747.37L1075.37,1747.69L1075.92,1748.68C1079.54,1754.44 1087.54,1755.44 1093.79,1750.9C1097.4,1756.66 1105.4,1757.66 1111.66,1753.13C1112.37,1752.6 1113.03,1752.03 1113.64,1751.42L1114.11,1750.92C1114.8,1750.17 1115.4,1749.35 1115.93,1748.52Z" style="fill:rgb(226,191,99);fill-rule:nonzero;"/>
                <path d="M1092.22,1741.53C1095.33,1740.27 1095.7,1737.89 1095.36,1737.02C1094.47,1737.98 1093.31,1738.72 1092,1739.03C1090.11,1739.47 1088.36,1738.91 1087.22,1737.71C1086.43,1738.42 1085.46,1738.96 1084.39,1739.19C1081.76,1739.81 1079.4,1738.52 1078.62,1736.21L1078.58,1737.49C1078.79,1740.02 1080.7,1741.74 1083.1,1741.84C1083.59,1741.88 1084.1,1741.83 1084.61,1741.71C1085.68,1741.47 1086.64,1740.93 1087.44,1740.22C1087.87,1740.67 1088.38,1741.06 1088.94,1741.34C1089.9,1741.84 1091.06,1742.02 1092.22,1741.53Z" style="fill:rgb(226,191,99);fill-rule:nonzero;"/>
                <path d="M1179.85,1773.27C1178.24,1773.19 1176.96,1772.05 1176.81,1770.35L1176.83,1769.49C1177.36,1771.02 1178.96,1771.9 1180.72,1771.5C1181.45,1771.32 1182.09,1770.96 1182.63,1770.48C1183.39,1771.3 1184.58,1771.69 1185.85,1771.37C1186.73,1771.16 1187.52,1770.67 1188.12,1770.01C1188.34,1770.61 1188.1,1772.2 1186,1773.06C1185.22,1773.38 1184.44,1773.27 1183.79,1772.94C1186.48,1775.73 1191.15,1775.98 1194.89,1773.27C1197.76,1771.19 1199.34,1767.91 1199.29,1764.8C1200.21,1764.62 1201.14,1764.21 1202,1763.59C1203.33,1762.64 1204.25,1761.31 1204.74,1759.92C1203.93,1759.81 1203.08,1759.86 1202.24,1760.09C1202.05,1759.59 1201.82,1759.1 1201.54,1758.65C1199.11,1754.77 1193.73,1754.09 1189.51,1757.14C1187.28,1758.77 1185.82,1761.11 1185.32,1763.52C1183.04,1763.12 1180.48,1763.69 1178.25,1765.32C1175.63,1767.22 1174.16,1770.12 1173.95,1772.97C1175.72,1773.77 1177.8,1773.89 1179.85,1773.27Z" style="fill:rgb(236,234,106);fill-rule:nonzero;"/>
                <path d="M1199.08,1780.85C1201.37,1779.2 1202.81,1776.8 1203.29,1774.33C1203.43,1773.69 1203.49,1773.04 1203.49,1772.41C1204.41,1772.21 1205.33,1771.82 1206.19,1771.2C1209.18,1769.03 1210.21,1765.03 1208.48,1762.26L1207.82,1761.45L1207.6,1761.23L1207,1760.74L1206.76,1760.6L1205.89,1760.18L1205.84,1760.17L1204.8,1759.92L1204.75,1759.91L1204.74,1759.92C1204.25,1761.31 1203.33,1762.64 1202,1763.59C1201.14,1764.21 1200.21,1764.62 1199.29,1764.8C1199.34,1767.91 1197.76,1771.19 1194.89,1773.27C1191.15,1775.98 1186.48,1775.73 1183.79,1772.94L1182.78,1772.19C1182.24,1772.65 1181.59,1773.02 1180.88,1773.19L1179.85,1773.27C1177.8,1773.89 1175.72,1773.77 1173.95,1772.97C1173.92,1772.96 1173.9,1772.96 1173.87,1772.96L1173.86,1774.15L1173.88,1774.37C1173.94,1775.14 1174.12,1775.89 1174.4,1776.6L1174.5,1776.86L1175.03,1777.88C1177.46,1781.75 1182.84,1782.43 1187.05,1779.37C1187.56,1780.18 1188.2,1780.83 1188.91,1781.35C1191.68,1783.35 1195.74,1783.29 1199.08,1780.85Z" style="fill:rgb(226,191,99);fill-rule:nonzero;"/>
                <path d="M1186,1773.06C1188.1,1772.2 1188.34,1770.61 1188.12,1770.01C1187.52,1770.67 1186.73,1771.16 1185.85,1771.37C1184.58,1771.69 1183.39,1771.3 1182.63,1770.48C1182.09,1770.96 1181.45,1771.32 1180.72,1771.5C1178.96,1771.9 1177.36,1771.02 1176.83,1769.49L1176.81,1770.35C1176.96,1772.05 1178.24,1773.19 1179.85,1773.27L1180.88,1773.19C1181.59,1773.02 1182.24,1772.65 1182.78,1772.19L1183.79,1772.94C1184.44,1773.27 1185.22,1773.38 1186,1773.06Z" style="fill:rgb(226,191,99);fill-rule:nonzero;"/>
                <path d="M1186.74,1542.81L1187.45,1544.25C1188.29,1544.03 1189.15,1543.97 1189.95,1544.09L1190.01,1544.1L1190.99,1544.32L1190.49,1542.99L1190.29,1542.63L1189.62,1541.81L1189.41,1541.59L1188.81,1541.1L1188.56,1540.96L1187.7,1540.54L1187.64,1540.53L1186.6,1540.29L1186.56,1540.26L1186.56,1540.29C1185.8,1540.17 1185.02,1540.22 1184.24,1540.4C1185.22,1540.96 1186.1,1541.77 1186.74,1542.81Z" style="fill:rgb(235,202,70);fill-rule:nonzero;"/>
                <path d="M1160.06,1545.67C1159.38,1546.17 1158.79,1546.73 1158.26,1547.34C1156.45,1549.4 1155.53,1552.02 1155.68,1554.49L1155.69,1554.73L1155.87,1555.87L1155.87,1555.89L1156.21,1556.95L1156.31,1557.22L1156.84,1558.24C1157.54,1559.37 1158.5,1560.22 1159.62,1560.8L1159.62,1560.78L1159.26,1559.7L1159.26,1559.69L1159.09,1558.55L1159.08,1558.31L1159.08,1557.14C1159.11,1557.15 1159.14,1557.15 1159.17,1557.16C1159.37,1554.31 1160.83,1551.39 1163.46,1549.48C1165.69,1547.88 1168.25,1547.31 1170.54,1547.71C1171.05,1545.29 1172.49,1542.94 1174.72,1541.33C1177.71,1539.16 1181.27,1538.87 1183.97,1540.26L1183.35,1539.01C1180.92,1535.11 1175.53,1534.46 1171.32,1537.5C1170.59,1538.03 1169.96,1538.64 1169.41,1539.28C1168.25,1540.65 1167.47,1542.25 1167.13,1543.89C1164.85,1543.49 1162.28,1544.05 1160.06,1545.67Z" style="fill:rgb(235,202,70);fill-rule:nonzero;"/>
                <path d="M1191.05,1544.35L1190.99,1544.32L1190.01,1544.1L1191.05,1544.35Z" style="fill:rgb(236,234,106);fill-rule:nonzero;"/>
                <path d="M1174.72,1541.33C1172.49,1542.94 1171.05,1545.29 1170.54,1547.71C1168.25,1547.31 1165.69,1547.88 1163.46,1549.48C1160.83,1551.39 1159.37,1554.31 1159.17,1557.16C1160.93,1557.96 1163.02,1558.06 1165.07,1557.43C1163.46,1557.36 1162.17,1556.23 1162.02,1554.53L1162.04,1553.64C1162.58,1555.21 1164.17,1556.09 1165.94,1555.66C1166.65,1555.5 1167.3,1555.15 1167.84,1554.67C1168.6,1555.48 1169.78,1555.84 1171.06,1555.55C1171.94,1555.35 1172.72,1554.84 1173.32,1554.19C1173.55,1554.78 1173.3,1556.38 1171.21,1557.25C1170.42,1557.56 1169.66,1557.46 1169,1557.12C1171.69,1559.93 1176.36,1560.16 1180.11,1557.43C1182.96,1555.36 1184.56,1552.1 1184.51,1548.99C1185.44,1548.79 1186.35,1548.39 1187.21,1547.77C1188.53,1546.8 1189.46,1545.49 1189.95,1544.09C1189.15,1543.97 1188.29,1544.03 1187.45,1544.25L1186.74,1542.81C1186.1,1541.77 1185.22,1540.96 1184.24,1540.4L1183.97,1540.26C1181.27,1538.87 1177.71,1539.16 1174.72,1541.33Z" style="fill:rgb(236,234,106);fill-rule:nonzero;"/>
                <path d="M1189.95,1544.09C1189.46,1545.49 1188.53,1546.8 1187.21,1547.77C1186.35,1548.39 1185.44,1548.79 1184.51,1548.99C1184.56,1552.1 1182.96,1555.36 1180.11,1557.43C1176.36,1560.16 1171.69,1559.93 1169,1557.12L1167.99,1556.36C1167.46,1556.84 1166.8,1557.21 1166.09,1557.36L1165.07,1557.43C1163.02,1558.06 1160.93,1557.96 1159.17,1557.16C1159.14,1557.15 1159.11,1557.15 1159.08,1557.14L1159.08,1558.31L1159.09,1558.55L1159.26,1559.69L1159.26,1559.7L1159.62,1560.78L1159.62,1560.8L1159.71,1561.04L1160.24,1562.04C1161.29,1563.72 1162.89,1564.81 1164.71,1565.24C1167.11,1565.81 1169.88,1565.28 1172.27,1563.54C1174.2,1566.63 1177.99,1567.68 1181.58,1566.45C1182.51,1566.12 1183.43,1565.66 1184.3,1565.04C1187.17,1562.96 1188.75,1559.69 1188.7,1556.59C1189.62,1556.38 1190.55,1555.99 1191.41,1555.37C1194.4,1553.19 1195.43,1549.2 1193.7,1546.45L1193.03,1545.61L1192.81,1545.41L1192.21,1544.93L1191.97,1544.78L1191.12,1544.36L1191.05,1544.35L1190.01,1544.1L1189.95,1544.09Z" style="fill:rgb(226,191,99);fill-rule:nonzero;"/>
                <path d="M1167.99,1556.36L1169,1557.12C1169.66,1557.46 1170.42,1557.56 1171.21,1557.25C1173.3,1556.38 1173.55,1554.78 1173.32,1554.19C1172.72,1554.84 1171.94,1555.35 1171.06,1555.55C1169.78,1555.84 1168.6,1555.48 1167.84,1554.67C1167.3,1555.15 1166.65,1555.5 1165.94,1555.66C1164.17,1556.09 1162.58,1555.21 1162.04,1553.64L1162.02,1554.53C1162.17,1556.23 1163.46,1557.36 1165.07,1557.43L1166.09,1557.36C1166.8,1557.21 1167.46,1556.84 1167.99,1556.36Z" style="fill:rgb(226,191,99);fill-rule:nonzero;"/>
            </g>
        </g>
    </g>
    <defs>
        <radialGradient id="_Radial1" cx="0" cy="0" r="1" gradientUnits="userSpaceOnUse" gradientTransform="matrix(0.127277,-0,0,-0.127277,1163.14,1800.15)"><stop offset="0" style="stop-color:rgb(79,76,160);stop-opacity:1"/><stop offset="1" style="stop-color:rgb(52,40,109);stop-opacity:1"/></radialGradient>
        <radialGradient id="_Radial2" cx="0" cy="0" r="1" gradientUnits="userSpaceOnUse" gradientTransform="matrix(1.01603,-0,0,-1.01603,1139.45,1802.09)"><stop offset="0" style="stop-color:rgb(79,76,160);stop-opacity:1"/><stop offset="1" style="stop-color:rgb(52,40,109);stop-opacity:1"/></radialGradient>
        <radialGradient id="_Radial3" cx="0" cy="0" r="1" gradientUnits="userSpaceOnUse" gradientTransform="matrix(1.57068,-0,0,-1.57068,1139.45,1514.67)"><stop offset="0" style="stop-color:rgb(79,76,160);stop-opacity:1"/><stop offset="1" style="stop-color:rgb(52,40,109);stop-opacity:1"/></radialGradient>
    </defs>
</svg>
