<?xml version="1.0" encoding="UTF-8" standalone="no"?>
<!DOCTYPE svg PUBLIC "-//W3C//DTD SVG 1.1//EN" "http://www.w3.org/Graphics/SVG/1.1/DTD/svg11.dtd">
<svg width="100%" height="100%" viewBox="0 0 1279 1247" version="1.1" xmlns="http://www.w3.org/2000/svg" xmlns:xlink="http://www.w3.org/1999/xlink" xml:space="preserve" xmlns:serif="http://www.serif.com/" style="fill-rule:evenodd;clip-rule:evenodd;stroke-linejoin:round;stroke-miterlimit:2;">
    <g transform="matrix(1,0,0,1,-600.68,-1130.52)">
        <g transform="matrix(4.16667,0,0,4.16667,-7112.98,-5334.91)">
            <path d="M1961.83,1801.99L1962.56,1801.99C1961.98,1801.99 1961.41,1801.99 1960.83,1801.98L1961.83,1801.99Z" style="fill:rgb(75,74,156);fill-rule:nonzero;"/>
        </g>
        <g transform="matrix(4.16667,0,0,4.16667,-7112.98,-5334.91)">
            <path d="M2152.45,1798.36C2148.32,1794.23 2141.42,1794.23 2137.29,1798.36C2133.15,1802.49 2133.15,1809.39 2137.29,1813.53C2138.18,1814.42 2139.07,1815.32 2139.96,1816.21C2144.1,1820.34 2151,1820.34 2155.13,1816.21C2159.26,1812.07 2159.26,1805.17 2155.13,1801.04C2154.23,1800.15 2153.34,1799.25 2152.45,1798.36Z" style="fill:white;fill-rule:nonzero;"/>
        </g>
        <g transform="matrix(4.16667,0,0,4.16667,-6950.43,-5155.6)">
            <path d="M2076.05,1745.56L2076.69,1744.71L2076.21,1745.34L2076.05,1745.56Z" style="fill:rgb(36,175,229);fill-rule:nonzero;"/>
        </g>
        <g transform="matrix(4.16667,0,0,4.16667,-6950.43,-5155.6)">
            <path d="M2089.57,1724.27L2089.93,1723.57L2089.7,1724.02L2089.57,1724.27Z" style="fill:rgb(36,175,229);fill-rule:nonzero;"/>
        </g>
        <g transform="matrix(4.16667,0,0,4.16667,-6950.43,-5155.6)">
            <path d="M2105.12,1669.72C2105.14,1669.42 2105.17,1669.11 2105.19,1668.81L2105.14,1669.4C2105.13,1669.51 2105.12,1669.61 2105.12,1669.72Z" style="fill:rgb(36,175,229);fill-rule:nonzero;"/>
        </g>
        <g transform="matrix(4.16667,0,0,4.16667,-6950.43,-5155.6)">
            <path d="M1819.52,1677.76L1819.62,1678.52L1819.59,1678.26L1819.52,1677.76Z" style="fill:rgb(36,175,229);fill-rule:nonzero;"/>
        </g>
        <g transform="matrix(4.16667,0,0,4.16667,-6950.43,-5155.6)">
            <path d="M1844.33,1740.98L1845.07,1742.01L1844.77,1741.59L1844.33,1740.98Z" style="fill:rgb(36,175,229);fill-rule:nonzero;"/>
        </g>
        <g transform="matrix(4.16667,0,0,4.16667,-6950.43,-5155.6)">
            <path d="M2090.38,1722.67L2090.88,1721.67L2090.8,1721.81L2090.38,1722.67Z" style="fill:rgb(36,175,229);fill-rule:nonzero;"/>
        </g>
        <g transform="matrix(4.16667,0,0,4.16667,-6950.43,-5155.6)">
            <path d="M2084.56,1733.17L2084.75,1732.85L2084.71,1732.91L2084.56,1733.17Z" style="fill:rgb(36,175,229);fill-rule:nonzero;"/>
        </g>
        <g transform="matrix(4.16667,0,0,4.16667,-6950.43,-5155.6)">
            <path d="M2104.4,1676.62L2104.26,1677.78C2104.46,1676.3 2104.64,1674.83 2104.8,1673.36L2104.65,1674.53C2104.57,1675.23 2104.49,1675.93 2104.4,1676.62Z" style="fill:rgb(36,175,229);fill-rule:nonzero;"/>
        </g>
        <g transform="matrix(4.16667,0,0,4.16667,-6950.43,-5155.6)">
            <path d="M1864.55,1627.66C1857.09,1619.17 1852.53,1609.35 1851.74,1598.68C1850.2,1577.61 1863.73,1557.72 1886.13,1543.68C1885.75,1542.51 1886.13,1541.37 1886.83,1540.37C1887.77,1538.97 1889.29,1537.79 1890.27,1536.92C1892.79,1534.72 1895.74,1532.97 1898.7,1531.44C1899.42,1531.06 1900.15,1530.69 1900.9,1530.36L1900.91,1530.34C1901.83,1529.9 1902.77,1529.47 1903.69,1529.07C1912.35,1525.24 1921.61,1523.45 1931.06,1523.5C1935.16,1523.51 1939.27,1523.86 1943.31,1524.53C1945.6,1524.26 1947.91,1524.04 1950.24,1523.87C2007.35,1519.71 2055.84,1546.45 2058.55,1583.61C2059.9,1602.09 2049.66,1619.69 2031.99,1633.19L2047.63,1648.38L2048.77,1647.9C2053.25,1645.88 2057.57,1643.5 2061.93,1641.22L2060.01,1633.95L2065.21,1606.85L2078.96,1633.71C2079.76,1633.48 2080.59,1633.27 2081.44,1633.11C2087.26,1624.65 2092.08,1615.73 2095.89,1606.51C2087.91,1585.82 2075.08,1566.65 2057.36,1550.89C2056.46,1550.11 2055.56,1549.32 2054.65,1548.56L2053.76,1547.8C2053.14,1547.3 2052.54,1546.8 2051.91,1546.29L2050.82,1545.44C2050.26,1544.99 2049.7,1544.53 2049.13,1544.11L2047.95,1543.21C2047.4,1542.81 2046.85,1542.4 2046.29,1542L2045.09,1541.13C2044.54,1540.73 2043.99,1540.35 2043.44,1539.96L2042.19,1539.11C2041.63,1538.73 2041.08,1538.37 2040.54,1538.01L2039.26,1537.2C2038.7,1536.83 2038.15,1536.47 2037.58,1536.13L2036.32,1535.36C2035.74,1534.99 2035.16,1534.66 2034.59,1534.33L2033.34,1533.59C2032.75,1533.25 2032.14,1532.91 2031.55,1532.59L2030.33,1531.91C2029.7,1531.56 2029.06,1531.23 2028.42,1530.9L2027.29,1530.3C2026.57,1529.94 2025.85,1529.57 2025.12,1529.23L2024.23,1528.78C2022.17,1527.78 2020.09,1526.84 2018,1525.96L2017.12,1525.6C2016.36,1525.3 2015.62,1524.97 2014.86,1524.67L2013.71,1524.23C2013.04,1523.99 2012.37,1523.72 2011.69,1523.46L2010.43,1523C2009.79,1522.78 2009.15,1522.55 2008.5,1522.33L2007.19,1521.89C2006.56,1521.67 2005.92,1521.48 2005.29,1521.28L2003.95,1520.86C2003.32,1520.66 2002.69,1520.47 2002.06,1520.29L2000.7,1519.91C2000.06,1519.73 1999.44,1519.57 1998.8,1519.39L1997.45,1519.04C1996.8,1518.88 1996.16,1518.72 1995.52,1518.56L1994.18,1518.24C1993.51,1518.1 1992.86,1517.94 1992.19,1517.8L1990.9,1517.54C1990.2,1517.39 1989.5,1517.25 1988.8,1517.12L1987.62,1516.88C1986.83,1516.74 1986.03,1516.62 1985.25,1516.49L1984.32,1516.35C1982.12,1515.99 1979.91,1515.69 1977.68,1515.46L1976.72,1515.36C1975.94,1515.28 1975.15,1515.2 1974.37,1515.13L1973.13,1515.04C1972.44,1514.97 1971.76,1514.92 1971.05,1514.88L1969.7,1514.82C1969.04,1514.77 1968.39,1514.73 1967.72,1514.71L1966.33,1514.67C1965.69,1514.64 1965.03,1514.63 1964.39,1514.62L1962.98,1514.6C1962.38,1514.59 1961.77,1514.59 1961.17,1514.6C1960.52,1514.6 1959.86,1514.6 1959.21,1514.63C1958.67,1514.63 1958.13,1514.64 1957.58,1514.66C1956.92,1514.69 1956.25,1514.71 1955.6,1514.73C1955.06,1514.77 1954.53,1514.79 1954,1514.82C1953.33,1514.85 1952.65,1514.89 1951.97,1514.96C1951.46,1514.97 1950.94,1515.02 1950.42,1515.05C1949.71,1515.11 1949.01,1515.17 1948.31,1515.24C1947.82,1515.28 1947.34,1515.34 1946.85,1515.38C1946.09,1515.46 1945.3,1515.56 1944.53,1515.65L1943.29,1515.79C1942.17,1515.94 1941.06,1516.11 1939.95,1516.28L1939.53,1516.35C1938.42,1516.51 1937.31,1516.7 1936.21,1516.88L1934.99,1517.15C1934.21,1517.29 1933.45,1517.43 1932.68,1517.58L1931.26,1517.9C1930.56,1518.04 1929.87,1518.2 1929.17,1518.36C1928.66,1518.48 1928.17,1518.61 1927.67,1518.72C1927.01,1518.9 1926.34,1519.04 1925.67,1519.21C1925.16,1519.35 1924.65,1519.5 1924.14,1519.63C1923.49,1519.8 1922.84,1519.99 1922.19,1520.17C1921.68,1520.32 1921.16,1520.47 1920.65,1520.63C1920.01,1520.82 1919.37,1521.01 1918.74,1521.21C1918.22,1521.38 1917.71,1521.54 1917.19,1521.7C1916.56,1521.91 1915.92,1522.12 1915.29,1522.34C1914.79,1522.51 1914.27,1522.69 1913.75,1522.86C1913.13,1523.1 1912.5,1523.32 1911.88,1523.55C1911.37,1523.74 1910.87,1523.93 1910.36,1524.12C1909.73,1524.36 1909.1,1524.62 1908.47,1524.86C1907.98,1525.06 1907.48,1525.26 1906.99,1525.46C1906.35,1525.73 1905.71,1526 1905.07,1526.29L1903.65,1526.89C1902.99,1527.17 1902.33,1527.49 1901.67,1527.78L1900.34,1528.4C1899.62,1528.74 1898.9,1529.1 1898.18,1529.45L1897.07,1530C1896.01,1530.54 1894.96,1531.07 1893.92,1531.64L1893.75,1531.74C1892.7,1532.29 1891.66,1532.87 1890.63,1533.45L1889.56,1534.1C1888.86,1534.49 1888.16,1534.89 1887.47,1535.32L1886.21,1536.11C1885.58,1536.49 1884.96,1536.88 1884.34,1537.27L1883.03,1538.13C1882.43,1538.53 1881.84,1538.91 1881.26,1539.3L1879.92,1540.22C1879.35,1540.64 1878.79,1541.03 1878.22,1541.44L1876.88,1542.41C1876.32,1542.83 1875.77,1543.23 1875.22,1543.64L1873.89,1544.66C1873.34,1545.08 1872.8,1545.51 1872.27,1545.95L1870.95,1547.01C1870.42,1547.45 1869.88,1547.9 1869.35,1548.35L1868.07,1549.43C1867.53,1549.89 1867.01,1550.35 1866.47,1550.82L1865.24,1551.94C1864.7,1552.43 1864.18,1552.91 1863.65,1553.43L1862.46,1554.54C1861.92,1555.05 1861.38,1555.58 1860.84,1556.12L1859.75,1557.21C1859.15,1557.8 1858.57,1558.42 1857.98,1559.03L1857.09,1559.96C1856.21,1560.9 1855.34,1561.87 1854.49,1562.81C1843.47,1575.22 1835,1588.99 1829.01,1603.5C1836.01,1621.66 1846.82,1638.61 1861.33,1653.14L1864.55,1627.66Z" style="fill:rgb(36,175,229);fill-rule:nonzero;"/>
        </g>
        <g transform="matrix(4.16667,0,0,4.16667,-6950.43,-5155.6)">
            <path d="M2082.46,1736.49L2082.63,1736.22L2082.49,1736.43L2082.46,1736.49Z" style="fill:rgb(36,175,229);fill-rule:nonzero;"/>
        </g>
        <g transform="matrix(4.16667,0,0,4.16667,-6950.43,-5155.6)">
            <path d="M2084.23,1733.69L2084.53,1733.23L2084.32,1733.55L2084.23,1733.69Z" style="fill:rgb(36,175,229);fill-rule:nonzero;"/>
        </g>
        <g transform="matrix(4.16667,0,0,4.16667,-6950.43,-5155.6)">
            <path d="M2094.27,1714.23C2094.33,1714.11 2094.38,1713.99 2094.43,1713.87L2094.35,1714.05L2094.27,1714.23Z" style="fill:rgb(36,175,229);fill-rule:nonzero;"/>
        </g>
        <g transform="matrix(4.16667,0,0,4.16667,-6950.43,-5155.6)">
            <path d="M1841.87,1737.37L1842.16,1737.82L1841.96,1737.51L1841.87,1737.37Z" style="fill:rgb(36,175,229);fill-rule:nonzero;"/>
        </g>
        <g transform="matrix(4.16667,0,0,4.16667,-6950.43,-5155.6)">
            <path d="M1840.54,1735.32L1841.36,1736.6L1841.05,1736.1L1840.54,1735.32Z" style="fill:rgb(36,175,229);fill-rule:nonzero;"/>
        </g>
        <g transform="matrix(4.16667,0,0,4.16667,-6950.43,-5155.6)">
            <path d="M1838.71,1732.34L1838.7,1732.33L1838.67,1732.29L1839.08,1732.97L1838.73,1732.38L1838.71,1732.34Z" style="fill:rgb(36,175,229);fill-rule:nonzero;"/>
        </g>
        <g transform="matrix(4.16667,0,0,4.16667,-6950.43,-5155.6)">
            <path d="M1852.14,1751.06L1852.44,1751.42L1852.29,1751.23L1852.14,1751.06Z" style="fill:rgb(36,175,229);fill-rule:nonzero;"/>
        </g>
        <g transform="matrix(4.16667,0,0,4.16667,-6950.43,-5155.6)">
            <path d="M2105.26,1667.93C2105.27,1667.7 2105.28,1667.47 2105.29,1667.24L2105.29,1667.33L2105.26,1667.93Z" style="fill:rgb(36,175,229);fill-rule:nonzero;"/>
        </g>
        <g transform="matrix(4.16667,0,0,4.16667,-6950.43,-5155.6)">
            <path d="M2105.3,1667.06C2105.37,1665.85 2105.44,1664.64 2105.49,1663.43C2105.45,1664.63 2105.37,1665.86 2105.3,1667.07L2105.3,1667.06Z" style="fill:rgb(36,175,229);fill-rule:nonzero;"/>
        </g>
        <g transform="matrix(4.16667,0,0,4.16667,-6950.43,-5155.6)">
            <path d="M1821.91,1690.74L1821.9,1690.7L1821.67,1689.76C1821.81,1690.43 1821.97,1691.13 1822.14,1691.8L1821.95,1690.91L1821.91,1690.74Z" style="fill:rgb(36,175,229);fill-rule:nonzero;"/>
        </g>
        <g transform="matrix(4.16667,0,0,4.16667,-6950.43,-5155.6)">
            <path d="M1843.9,1740.38L1843.97,1740.47L1843.93,1740.4L1843.9,1740.38Z" style="fill:rgb(36,175,229);fill-rule:nonzero;"/>
        </g>
        <g transform="matrix(4.16667,0,0,4.16667,-6950.43,-5155.6)">
            <path d="M1819.7,1679.08C1819.84,1680.07 1820,1681.05 1820.16,1682.01C1820.06,1681.42 1819.98,1680.81 1819.89,1680.21L1819.7,1679.08Z" style="fill:rgb(36,175,229);fill-rule:nonzero;"/>
        </g>
        <g transform="matrix(4.16667,0,0,4.16667,-6950.43,-5155.6)">
            <path d="M1842.45,1738.25L1843.29,1739.48L1843.04,1739.11L1842.45,1738.25Z" style="fill:rgb(36,175,229);fill-rule:nonzero;"/>
        </g>
        <g transform="matrix(4.16667,0,0,4.16667,-6950.43,-5155.6)">
            <path d="M1822.36,1692.67C1822.52,1693.34 1822.68,1694.01 1822.86,1694.67L1822.63,1693.73L1822.36,1692.67Z" style="fill:rgb(36,175,229);fill-rule:nonzero;"/>
        </g>
        <g transform="matrix(4.16667,0,0,4.16667,-6950.43,-5155.6)">
            <path d="M1823,1695.21L1823.15,1695.76L1823.15,1695.75L1823,1695.21Z" style="fill:rgb(36,175,229);fill-rule:nonzero;"/>
        </g>
        <g transform="matrix(4.16667,0,0,4.16667,-6950.43,-5155.6)">
            <path d="M2091.06,1721.3L2091.02,1721.39L2091.56,1720.28L2091.48,1720.43L2091.06,1721.3Z" style="fill:rgb(36,175,229);fill-rule:nonzero;"/>
        </g>
        <g transform="matrix(4.16667,0,0,4.16667,-6950.43,-5155.6)">
            <path d="M2091.96,1719.43L2092.23,1718.84L2092,1719.32L2091.96,1719.43Z" style="fill:rgb(36,175,229);fill-rule:nonzero;"/>
        </g>
        <g transform="matrix(4.16667,0,0,4.16667,-6950.43,-5155.6)">
            <path d="M1855.43,1754.82L1856.03,1755.49L1855.58,1754.99L1855.43,1754.82Z" style="fill:rgb(36,175,229);fill-rule:nonzero;"/>
        </g>
        <g transform="matrix(4.16667,0,0,4.16667,-6950.43,-5155.6)">
            <path d="M2012.58,1644.96C2013.3,1644.81 2014.03,1644.67 2014.76,1644.55L2014.85,1643.83C2014.11,1644.22 2013.34,1644.59 2012.58,1644.96Z" style="fill:rgb(36,175,229);fill-rule:nonzero;"/>
        </g>
        <g transform="matrix(4.16667,0,0,4.16667,-6950.43,-5155.6)">
            <path d="M2103.63,1681.92C2103.78,1681.01 2103.92,1680.1 2104.05,1679.2C2103.92,1680.08 2103.78,1680.96 2103.64,1681.84L2103.63,1681.92Z" style="fill:rgb(36,175,229);fill-rule:nonzero;"/>
        </g>
        <g transform="matrix(4.16667,0,0,4.16667,-6950.43,-5155.6)">
            <path d="M2095.65,1710.87L2095.94,1710.14L2095.85,1710.35L2095.65,1710.87Z" style="fill:rgb(36,175,229);fill-rule:nonzero;"/>
        </g>
        <g transform="matrix(4.16667,0,0,4.16667,-6950.43,-5155.6)">
            <path d="M1854.53,1753.81L1854.65,1753.94L1854.59,1753.88L1854.53,1753.81Z" style="fill:rgb(36,175,229);fill-rule:nonzero;"/>
        </g>
        <g transform="matrix(4.16667,0,0,4.16667,-6950.43,-5155.6)">
            <path d="M1846.14,1743.47L1845.73,1742.93C1846.1,1743.42 1846.46,1743.94 1846.84,1744.43L1846.36,1743.77L1846.14,1743.47Z" style="fill:rgb(36,175,229);fill-rule:nonzero;"/>
        </g>
        <g transform="matrix(4.16667,0,0,4.16667,-6950.43,-5155.6)">
            <path d="M1858.16,1757.75L1858.61,1758.21L1858.35,1757.94L1858.16,1757.75Z" style="fill:rgb(36,175,229);fill-rule:nonzero;"/>
        </g>
        <g transform="matrix(4.16667,0,0,4.16667,-6950.43,-5155.6)">
            <path d="M1860.2,1759.8C1860.71,1760.32 1861.23,1760.84 1861.74,1761.35L1861.27,1760.86C1860.91,1760.51 1860.56,1760.16 1860.2,1759.8Z" style="fill:rgb(36,175,229);fill-rule:nonzero;"/>
        </g>
        <g transform="matrix(4.16667,0,0,4.16667,-6950.43,-5155.6)">
            <path d="M1856.37,1755.85L1857.63,1757.2L1857.23,1756.76L1856.37,1755.85Z" style="fill:rgb(36,175,229);fill-rule:nonzero;"/>
        </g>
        <g transform="matrix(4.16667,0,0,4.16667,-6950.43,-5155.6)">
            <path d="M1850.66,1749.31L1851.5,1750.3L1851.02,1749.71L1850.66,1749.31Z" style="fill:rgb(36,175,229);fill-rule:nonzero;"/>
        </g>
        <g transform="matrix(4.16667,0,0,4.16667,-6950.43,-5155.6)">
            <path d="M2071.54,1751.15L2071.98,1750.65L2071.87,1750.77L2071.54,1751.15Z" style="fill:rgb(36,175,229);fill-rule:nonzero;"/>
        </g>
        <g transform="matrix(4.16667,0,0,4.16667,-6950.43,-5155.6)">
            <path d="M1822.19,1624.6C1821.93,1625.65 1821.68,1626.69 1821.45,1627.75C1821.6,1627.08 1821.77,1626.38 1821.93,1625.71C1822.01,1625.33 1822.1,1624.96 1822.19,1624.6Z" style="fill:rgb(36,175,229);fill-rule:nonzero;"/>
        </g>
        <g transform="matrix(4.16667,0,0,4.16667,-6950.43,-5155.6)">
            <path d="M2030.86,1634.04L2030.41,1634.37L2031.05,1635.48L2030.86,1634.04Z" style="fill:rgb(36,175,229);fill-rule:nonzero;"/>
        </g>
        <g transform="matrix(4.16667,0,0,4.16667,-6950.43,-5155.6)">
            <path d="M1818.55,1648.09C1818.47,1649.21 1818.4,1650.34 1818.35,1651.45L1818.43,1650.3C1818.47,1649.56 1818.49,1648.82 1818.55,1648.09Z" style="fill:rgb(36,175,229);fill-rule:nonzero;"/>
        </g>
        <g transform="matrix(4.16667,0,0,4.16667,-6950.43,-5155.6)">
            <path d="M1818.35,1651.71C1818.33,1652.09 1818.33,1652.46 1818.32,1652.84C1818.33,1652.57 1818.33,1652.3 1818.34,1652.04L1818.35,1651.71Z" style="fill:rgb(36,175,229);fill-rule:nonzero;"/>
        </g>
        <g transform="matrix(4.16667,0,0,4.16667,-6950.43,-5155.6)">
            <path d="M1818.19,1658.09C1818.19,1659.53 1818.21,1661.01 1818.26,1662.47L1818.26,1662.3C1818.21,1660.9 1818.19,1659.49 1818.19,1658.09Z" style="fill:rgb(36,175,229);fill-rule:nonzero;"/>
        </g>
        <g transform="matrix(4.16667,0,0,4.16667,-6950.43,-5155.6)">
            <path d="M1819.6,1638.09C1819.48,1638.93 1819.37,1639.76 1819.27,1640.62L1819.42,1639.63C1819.48,1639.12 1819.54,1638.6 1819.6,1638.09Z" style="fill:rgb(36,175,229);fill-rule:nonzero;"/>
        </g>
        <g transform="matrix(4.16667,0,0,4.16667,-6950.43,-5155.6)">
            <path d="M1818.55,1668.27C1818.63,1669.59 1818.75,1670.9 1818.87,1672.22C1818.77,1671.07 1818.68,1669.91 1818.59,1668.77L1818.55,1668.27Z" style="fill:rgb(36,175,229);fill-rule:nonzero;"/>
        </g>
        <g transform="matrix(4.16667,0,0,4.16667,-6950.43,-5155.6)">
            <path d="M1825.16,1613.97C1824.69,1615.4 1824.25,1616.85 1823.83,1618.29L1823.84,1618.32C1824.26,1616.87 1824.69,1615.42 1825.16,1613.97Z" style="fill:rgb(36,175,229);fill-rule:nonzero;"/>
        </g>
        <g transform="matrix(4.16667,0,0,4.16667,-6950.43,-5155.6)">
            <path d="M1891.22,1538.38C1890.54,1539.06 1889.67,1539.71 1889.12,1540.51C1888.76,1541.04 1888.67,1541.69 1888.4,1542.29C1894.8,1538.5 1901.86,1535.18 1909.47,1532.4C1906.52,1532.48 1903.57,1532.81 1900.73,1533.44C1897.06,1534.24 1893.88,1535.71 1891.22,1538.38Z" style="fill:rgb(36,175,229);fill-rule:nonzero;"/>
        </g>
        <g transform="matrix(4.16667,0,0,4.16667,-6950.43,-5155.6)">
            <path d="M2024.12,1675.16C2018.25,1675.55 2012.37,1675.62 2006.52,1675.42L2022.27,1682.61C2023.51,1682.03 2024.75,1681.46 2025.98,1680.86L2024.12,1675.16Z" style="fill:rgb(36,175,229);fill-rule:nonzero;"/>
        </g>
        <g transform="matrix(4.16667,0,0,4.16667,-6950.43,-5155.6)">
            <path d="M1950.78,1694.82C1967.1,1696.2 1983.57,1694.81 1999.45,1690.67L1990.82,1674.04C1982.98,1672.95 1975.27,1671.25 1967.74,1668.91L1950.78,1694.82Z" style="fill:rgb(36,175,229);fill-rule:nonzero;"/>
        </g>
        <g transform="matrix(4.16667,0,0,4.16667,-6950.43,-5155.6)">
            <path d="M1853.14,1752.23L1853.89,1753.11L1853.58,1752.74L1853.14,1752.23Z" style="fill:rgb(36,175,229);fill-rule:nonzero;"/>
        </g>
        <g transform="matrix(4.16667,0,0,4.16667,-6950.43,-5155.6)">
            <path d="M2097.44,1706.11L2097.2,1706.74L2097.16,1706.84C2096.86,1707.69 2096.55,1708.55 2096.21,1709.4L2095.94,1710.14L2095.65,1710.87L2095.63,1710.96L2095.32,1711.7L2095.11,1712.2L2094.74,1713.14L2094.57,1713.54L2094.43,1713.87C2094.38,1713.99 2094.33,1714.11 2094.27,1714.23L2093.94,1715.03L2093.46,1716.15L2092.89,1717.41L2092.76,1717.72L2092.62,1718.02L2092.23,1718.84L2091.96,1719.43L2091.56,1720.28L2091.02,1721.39L2090.88,1721.67L2090.38,1722.67L2089.93,1723.57L2089.57,1724.27L2089.39,1724.61L2089.28,1724.83L2088.91,1725.54L2088.39,1726.48C2088.12,1727.01 2087.83,1727.51 2087.55,1728.02L2087.19,1728.68L2087.04,1728.96L2086.93,1729.13L2086.88,1729.22L2086.77,1729.4C2086.49,1729.9 2086.22,1730.38 2085.93,1730.86C2085.65,1731.35 2085.37,1731.8 2085.09,1732.29L2084.75,1732.85L2084.56,1733.17L2084.53,1733.23L2084.23,1733.69C2083.89,1734.23 2083.54,1734.8 2083.19,1735.36L2082.74,1736.05L2082.63,1736.22L2082.46,1736.49L2082.04,1737.14L2081.49,1737.96L2080.67,1739.17L2080.35,1739.64L2079.78,1740.45L2078.96,1741.63L2078.85,1741.79L2078.72,1741.96L2077.97,1743L2077.42,1743.74L2076.69,1744.71L2076.05,1745.56L2075.67,1746.07L2075.08,1746.82L2074.59,1747.43L2074.56,1747.47L2073.72,1748.52L2072.88,1749.54L2072.56,1749.93L2072.39,1750.14L2071.98,1750.65L2071.54,1751.15C2070.79,1752.04 2070.03,1752.91 2069.28,1753.75C2068.43,1754.74 2067.55,1755.68 2066.68,1756.61L2065.78,1757.55C2065.2,1758.16 2064.61,1758.77 2064.02,1759.37L2062.93,1760.45C2062.39,1760.99 2061.85,1761.52 2061.3,1762.04L2060.12,1763.16C2059.6,1763.67 2059.06,1764.14 2058.53,1764.63L2057.29,1765.75C2056.76,1766.23 2056.23,1766.69 2055.7,1767.15L2054.42,1768.23C2053.88,1768.68 2053.35,1769.14 2052.82,1769.58L2051.5,1770.65C2050.96,1771.07 2050.43,1771.49 2049.89,1771.92L2048.55,1772.92C2048,1773.36 2047.44,1773.77 2046.89,1774.18L2045.55,1775.14C2044.98,1775.55 2044.42,1775.96 2043.85,1776.35L2042.51,1777.28C2041.92,1777.67 2041.33,1778.06 2040.73,1778.45L2039.43,1779.31C2038.8,1779.71 2038.17,1780.1 2037.54,1780.49L2036.29,1781.26C2035.59,1781.69 2034.89,1782.09 2034.19,1782.49L2033.14,1783.12C2032.09,1783.73 2031.03,1784.3 2029.96,1784.87L2029.91,1784.91C2028.84,1785.49 2027.77,1786.04 2026.69,1786.58L2025.62,1787.1C2024.89,1787.47 2024.16,1787.83 2023.43,1788.18L2022.12,1788.78C2021.45,1789.09 2020.78,1789.4 2020.12,1789.69L2018.7,1790.29C2018.07,1790.58 2017.42,1790.85 2016.77,1791.12C2016.29,1791.32 2015.8,1791.51 2015.31,1791.71C2014.68,1791.96 2014.04,1792.22 2013.39,1792.46C2012.9,1792.65 2012.41,1792.84 2011.91,1793.02C2011.27,1793.25 2010.63,1793.5 2009.99,1793.71C2009.49,1793.89 2008.99,1794.07 2008.49,1794.24C2007.85,1794.46 2007.2,1794.67 2006.56,1794.87C2006.05,1795.05 2005.55,1795.21 2005.04,1795.35C2004.39,1795.57 2003.75,1795.77 2003.09,1795.96C2002.59,1796.11 2002.09,1796.26 2001.59,1796.41C2000.92,1796.59 2000.26,1796.79 1999.6,1796.96C1999.1,1797.1 1998.6,1797.22 1998.11,1797.36C1997.42,1797.54 1996.73,1797.71 1996.05,1797.88C1995.57,1797.98 1995.1,1798.1 1994.61,1798.23C1993.89,1798.38 1993.17,1798.55 1992.44,1798.71L1991.1,1799C1990.29,1799.16 1989.48,1799.31 1988.67,1799.47L1987.57,1799.69C1985.21,1800.11 1982.84,1800.47 1980.47,1800.79L1979.37,1800.91C1978.55,1801.02 1977.72,1801.11 1976.9,1801.2L1975.54,1801.32C1974.8,1801.4 1974.06,1801.47 1973.33,1801.53C1972.83,1801.57 1972.35,1801.6 1971.86,1801.63C1971.15,1801.69 1970.44,1801.72 1969.75,1801.76C1969.23,1801.79 1968.73,1801.81 1968.23,1801.84C1967.53,1801.88 1966.85,1801.9 1966.15,1801.92C1965.64,1801.94 1965.12,1801.95 1964.6,1801.96C1963.92,1801.97 1963.24,1801.98 1962.56,1801.99L1961.83,1801.99L1960.83,1801.98C1960.35,1801.98 1959.84,1801.97 1959.33,1801.96C1958.72,1801.96 1958.11,1801.94 1957.49,1801.92C1957,1801.9 1956.5,1801.89 1956.01,1801.88C1955.39,1801.84 1954.77,1801.81 1954.14,1801.77C1953.66,1801.75 1953.17,1801.72 1952.69,1801.7C1952.03,1801.65 1951.39,1801.61 1950.75,1801.55L1949.37,1801.46C1948.67,1801.38 1947.95,1801.31 1947.24,1801.24L1946.06,1801.12C1945.03,1801.02 1944,1800.89 1942.97,1800.75L1942.54,1800.69C1941.52,1800.56 1940.49,1800.41 1939.47,1800.25L1938.29,1800.05C1937.59,1799.93 1936.88,1799.81 1936.17,1799.69L1934.83,1799.44C1934.19,1799.31 1933.54,1799.19 1932.9,1799.06L1931.48,1798.76C1930.87,1798.62 1930.24,1798.49 1929.63,1798.34C1929.14,1798.23 1928.66,1798.12 1928.19,1798C1927.58,1797.84 1926.97,1797.71 1926.37,1797.56C1925.89,1797.42 1925.39,1797.29 1924.91,1797.17C1924.32,1797.01 1923.71,1796.86 1923.12,1796.68C1922.63,1796.55 1922.14,1796.41 1921.67,1796.29C1921.06,1796.11 1920.47,1795.91 1919.88,1795.74L1918.43,1795.29C1917.84,1795.1 1917.24,1794.9 1916.64,1794.71L1915.23,1794.24C1914.63,1794.03 1914.02,1793.82 1913.42,1793.6L1912.04,1793.1C1911.42,1792.88 1910.8,1792.64 1910.17,1792.39L1908.88,1791.9C1908.2,1791.63 1907.52,1791.34 1906.84,1791.06L1905.75,1790.61C1904.78,1790.2 1903.8,1789.76 1902.84,1789.34L1902.42,1789.16C1901.47,1788.71 1900.52,1788.26 1899.56,1787.81L1898.48,1787.28C1897.81,1786.94 1897.15,1786.62 1896.49,1786.29L1895.26,1785.63C1894.66,1785.32 1894.06,1785.01 1893.46,1784.69L1892.16,1783.97C1891.59,1783.65 1891.02,1783.33 1890.45,1783.01L1889.13,1782.23C1888.58,1781.9 1888.03,1781.57 1887.48,1781.24L1886.15,1780.43C1885.62,1780.1 1885.07,1779.75 1884.53,1779.42L1883.21,1778.56C1882.68,1778.2 1882.14,1777.84 1881.61,1777.49L1880.32,1776.6C1879.78,1776.22 1879.24,1775.84 1878.71,1775.47L1877.45,1774.58C1876.91,1774.19 1876.38,1773.78 1875.84,1773.38L1874.63,1772.47C1874.07,1772.04 1873.53,1771.6 1872.96,1771.17L1871.85,1770.29C1871.24,1769.8 1870.64,1769.29 1870.03,1768.79L1869.11,1768.02C1868.2,1767.26 1867.29,1766.48 1866.41,1765.69C1865.31,1764.7 1864.24,1763.72 1863.18,1762.7L1862.65,1762.21L1862.29,1761.88L1861.74,1761.35C1861.23,1760.84 1860.71,1760.32 1860.2,1759.8C1859.81,1759.43 1859.42,1759.04 1859.04,1758.66L1858.61,1758.21L1858.16,1757.75L1857.63,1757.2L1856.37,1755.85L1856.03,1755.49L1855.43,1754.82L1854.65,1753.94L1854.53,1753.81L1853.89,1753.11L1853.14,1752.23L1852.44,1751.42L1852.14,1751.06L1851.5,1750.3L1850.66,1749.31L1850.15,1748.68L1849.55,1747.92L1849.13,1747.4L1848.61,1746.73L1848.02,1745.96L1847.73,1745.59L1847.26,1744.99L1846.96,1744.59L1846.84,1744.43C1846.46,1743.94 1846.1,1743.42 1845.73,1742.93L1845.07,1742.01L1844.33,1740.98L1843.97,1740.47L1843.9,1740.38L1843.29,1739.48L1842.45,1738.25L1842.16,1737.82L1841.87,1737.37L1841.36,1736.6L1840.54,1735.32L1840.35,1735.03L1840.09,1734.61L1839.95,1734.37L1839.34,1733.39L1839.32,1733.36L1839.19,1733.15L1839.08,1732.97L1838.67,1732.29C1836.89,1730.92 1835.16,1729.48 1833.51,1727.95L1833.19,1727.65L1833.19,1727.63L1832.57,1727.04L1832.52,1726.99L1831.91,1726.39L1831.8,1726.29L1831.24,1725.71L1831.11,1725.58L1830.56,1725.01L1830.39,1724.83L1829.88,1724.29L1829.68,1724.04L1829.19,1723.51L1828.96,1723.25L1828.5,1722.72L1828.25,1722.42L1827.82,1721.9L1827.54,1721.56L1827.14,1721.05L1826.85,1720.67L1826.47,1720.18L1826.17,1719.79L1825.81,1719.3L1825.52,1718.87L1825.17,1718.39L1824.88,1717.95L1824.56,1717.46L1824.26,1717L1824.02,1716.61C1832.57,1736.86 1845.58,1755.08 1862.48,1770.12C1884.47,1789.66 1911.52,1802.14 1940.27,1806.33C1947.37,1807.36 1954.57,1807.91 1961.83,1807.91C1982.77,1807.91 2003.05,1803.65 2022.14,1795.27C2041.9,1786.58 2059.25,1773.94 2073.7,1757.7C2089.61,1739.79 2100.77,1718.84 2106.65,1696.33L2106.59,1696.39C2103.87,1700.14 2100.22,1703.47 2097.44,1706.11Z" style="fill:rgb(143,216,247);fill-rule:nonzero;"/>
        </g>
        <g transform="matrix(4.16667,0,0,4.16667,-6950.43,-5155.6)">
            <path d="M1820.03,1705.97L1819.99,1705.53L1819.96,1704.95L1819.94,1704.52L1819.96,1703.92L1819.97,1703.51L1820.02,1702.9L1820.06,1702.5L1820.16,1701.9L1820.23,1701.5L1820.38,1700.88L1820.47,1700.51L1820.71,1699.81L1820.8,1699.54L1821.22,1698.56C1821.74,1697.45 1822.4,1696.54 1823.15,1695.76L1823,1695.21L1822.86,1694.67C1822.68,1694.01 1822.52,1693.34 1822.36,1692.67L1822.14,1691.8C1821.97,1691.13 1821.81,1690.43 1821.67,1689.76L1821.55,1689.22L1821.43,1688.6C1821.21,1687.56 1821,1686.54 1820.8,1685.5C1820.68,1684.82 1820.54,1684.13 1820.41,1683.44L1820.29,1682.8L1820.16,1682.01C1820,1681.05 1819.84,1680.07 1819.7,1679.08L1819.62,1678.52L1819.52,1677.76L1819.47,1677.46C1819.35,1676.56 1819.26,1675.66 1819.15,1674.76C1819.09,1674.18 1819.02,1673.63 1818.96,1673.07L1818.93,1672.83L1818.87,1672.22C1818.75,1670.9 1818.63,1669.59 1818.55,1668.27L1818.51,1667.87L1818.48,1667.47C1818.38,1665.9 1818.3,1664.34 1818.26,1662.73L1818.26,1662.47C1818.21,1661.01 1818.19,1659.53 1818.19,1658.09L1818.19,1657.29L1818.23,1655.91C1818.24,1654.88 1818.27,1653.86 1818.32,1652.84C1818.33,1652.46 1818.33,1652.09 1818.35,1651.71L1818.35,1651.45C1818.4,1650.34 1818.47,1649.21 1818.55,1648.09L1818.6,1647.44L1818.65,1646.8C1818.71,1646.17 1818.77,1645.56 1818.82,1644.92C1818.93,1643.8 1819.04,1642.67 1819.16,1641.53L1819.25,1640.83L1819.27,1640.62C1819.37,1639.76 1819.48,1638.93 1819.6,1638.09L1819.69,1637.53L1819.89,1636.27C1819.99,1635.65 1820.09,1635.02 1820.19,1634.38L1820.41,1633.01L1820.43,1632.89C1820.55,1632.26 1820.68,1631.63 1820.8,1631.01C1820.92,1630.4 1821.04,1629.78 1821.16,1629.19L1821.37,1628.14L1821.45,1627.75C1821.68,1626.69 1821.93,1625.65 1822.19,1624.6C1822.23,1624.4 1822.27,1624.21 1822.32,1624.02L1822.46,1623.41L1822.57,1622.99C1822.79,1622.1 1823.05,1621.21 1823.29,1620.32L1823.67,1618.9L1823.83,1618.29C1824.25,1616.85 1824.69,1615.4 1825.16,1613.97L1825.2,1613.85C1826.33,1610.39 1827.59,1606.95 1828.99,1603.56L1829.01,1603.5C1835,1588.99 1843.47,1575.22 1854.49,1562.81C1855.34,1561.87 1856.21,1560.9 1857.09,1559.96L1857.98,1559.03C1858.57,1558.42 1859.15,1557.8 1859.75,1557.21L1860.84,1556.12C1861.38,1555.58 1861.92,1555.05 1862.46,1554.54L1863.65,1553.43C1864.18,1552.91 1864.7,1552.43 1865.24,1551.94L1866.47,1550.82C1867.01,1550.35 1867.53,1549.89 1868.07,1549.43L1869.35,1548.35C1869.88,1547.9 1870.42,1547.45 1870.95,1547.01L1872.27,1545.95C1872.8,1545.51 1873.34,1545.08 1873.89,1544.66L1875.22,1543.64C1875.77,1543.23 1876.32,1542.83 1876.88,1542.41L1878.22,1541.44C1878.79,1541.03 1879.35,1540.64 1879.92,1540.22L1881.26,1539.3C1881.84,1538.91 1882.43,1538.53 1883.03,1538.13L1884.34,1537.27C1884.96,1536.88 1885.58,1536.49 1886.21,1536.11L1887.47,1535.32C1888.16,1534.89 1888.86,1534.49 1889.56,1534.1L1890.63,1533.45C1891.66,1532.87 1892.7,1532.29 1893.75,1531.74L1893.92,1531.64C1894.96,1531.07 1896.01,1530.54 1897.07,1530L1898.18,1529.45C1898.9,1529.1 1899.62,1528.74 1900.34,1528.4L1901.67,1527.78C1902.33,1527.49 1902.99,1527.17 1903.65,1526.89L1905.07,1526.29C1905.71,1526 1906.35,1525.73 1906.99,1525.46C1907.48,1525.26 1907.98,1525.06 1908.47,1524.86C1909.1,1524.62 1909.73,1524.36 1910.36,1524.12C1910.87,1523.93 1911.37,1523.74 1911.88,1523.55C1912.5,1523.32 1913.13,1523.1 1913.75,1522.86C1914.27,1522.69 1914.79,1522.51 1915.29,1522.34C1915.92,1522.12 1916.56,1521.91 1917.19,1521.7C1917.71,1521.54 1918.22,1521.38 1918.74,1521.21C1919.37,1521.01 1920.01,1520.82 1920.65,1520.63C1921.16,1520.47 1921.68,1520.32 1922.19,1520.17C1922.84,1519.99 1923.49,1519.8 1924.14,1519.63C1924.65,1519.5 1925.16,1519.35 1925.67,1519.21C1926.34,1519.04 1927.01,1518.9 1927.67,1518.72C1928.17,1518.61 1928.66,1518.48 1929.17,1518.36C1929.87,1518.2 1930.56,1518.04 1931.26,1517.9L1932.68,1517.58C1933.45,1517.43 1934.21,1517.29 1934.99,1517.15L1936.21,1516.88C1937.31,1516.7 1938.42,1516.51 1939.53,1516.35L1939.95,1516.28C1941.06,1516.11 1942.17,1515.94 1943.29,1515.79L1944.53,1515.65C1945.3,1515.56 1946.09,1515.46 1946.85,1515.38C1947.34,1515.34 1947.82,1515.28 1948.31,1515.24C1949.01,1515.17 1949.71,1515.11 1950.42,1515.05C1950.94,1515.02 1951.46,1514.97 1951.97,1514.96C1952.65,1514.89 1953.33,1514.85 1954,1514.82C1954.53,1514.79 1955.06,1514.77 1955.6,1514.73C1956.25,1514.71 1956.92,1514.69 1957.58,1514.66C1958.13,1514.64 1958.67,1514.63 1959.21,1514.63C1959.86,1514.6 1960.52,1514.6 1961.17,1514.6L1961.93,1514.59L1962.98,1514.6L1964.39,1514.62C1965.03,1514.63 1965.69,1514.64 1966.33,1514.67L1967.72,1514.71C1968.39,1514.73 1969.04,1514.77 1969.7,1514.82L1971.05,1514.88C1971.76,1514.92 1972.44,1514.97 1973.13,1515.04L1974.37,1515.13C1975.15,1515.2 1975.94,1515.28 1976.72,1515.36L1977.68,1515.46C1979.91,1515.69 1982.12,1515.99 1984.32,1516.35L1985.25,1516.49C1986.03,1516.62 1986.83,1516.74 1987.62,1516.88L1988.8,1517.12C1989.5,1517.25 1990.2,1517.39 1990.9,1517.54L1992.19,1517.8C1992.86,1517.94 1993.51,1518.1 1994.18,1518.24L1995.52,1518.56C1996.16,1518.72 1996.8,1518.88 1997.45,1519.04L1998.8,1519.39C1999.44,1519.57 2000.06,1519.73 2000.7,1519.91L2002.06,1520.29C2002.69,1520.47 2003.32,1520.66 2003.95,1520.86L2005.29,1521.28C2005.92,1521.48 2006.56,1521.67 2007.19,1521.89L2008.5,1522.33C2009.15,1522.55 2009.79,1522.78 2010.43,1523L2011.69,1523.46C2012.37,1523.72 2013.04,1523.99 2013.71,1524.23L2014.86,1524.67C2015.62,1524.97 2016.36,1525.3 2017.12,1525.6L2018,1525.96C2020.09,1526.84 2022.17,1527.78 2024.23,1528.78L2025.12,1529.23C2025.85,1529.57 2026.57,1529.94 2027.29,1530.3L2028.42,1530.9C2029.06,1531.23 2029.7,1531.56 2030.33,1531.91L2031.55,1532.59C2032.14,1532.91 2032.75,1533.25 2033.34,1533.59L2034.59,1534.33C2035.16,1534.66 2035.74,1534.99 2036.32,1535.36L2037.58,1536.13C2038.15,1536.47 2038.7,1536.83 2039.26,1537.2L2040.54,1538.01C2041.08,1538.37 2041.63,1538.73 2042.19,1539.11L2043.44,1539.96C2043.99,1540.35 2044.54,1540.73 2045.09,1541.13L2046.29,1542C2046.85,1542.4 2047.4,1542.81 2047.95,1543.21L2049.13,1544.11C2049.7,1544.53 2050.26,1544.99 2050.82,1545.44L2051.91,1546.29C2052.54,1546.8 2053.14,1547.3 2053.76,1547.8L2054.65,1548.56C2055.56,1549.32 2056.46,1550.11 2057.36,1550.89C2075.08,1566.65 2087.91,1585.82 2095.89,1606.51C2095.9,1606.48 2095.91,1606.46 2095.92,1606.43C2096.47,1607.83 2096.98,1609.25 2097.48,1610.65L2097.72,1611.36C2098.71,1614.24 2099.6,1617.15 2100.42,1620.07L2100.58,1620.69C2100.93,1621.99 2101.27,1623.3 2101.58,1624.61L2101.72,1625.23C2102.09,1626.71 2102.42,1628.21 2102.71,1629.72L2102.73,1629.8C2103.02,1631.24 2103.29,1632.68 2103.53,1634.11L2103.66,1634.9C2103.8,1635.76 2103.88,1636.63 2104.01,1637.49C2104.07,1637.92 2104.12,1638.36 2104.18,1638.79C2104.41,1640.46 2104.68,1642.14 2104.85,1643.82L2104.92,1644.57C2105.04,1645.86 2105.14,1647.17 2105.24,1648.48L2105.29,1649.15C2105.37,1650.66 2105.45,1652.17 2105.5,1653.68L2105.51,1653.99C2105.56,1655.37 2105.57,1656.74 2105.58,1658.12L2105.58,1659.03C2105.57,1660.5 2105.55,1661.96 2105.49,1663.43C2105.44,1664.64 2105.37,1665.85 2105.3,1667.06L2105.31,1667.05L2105.29,1667.24C2105.28,1667.47 2105.27,1667.7 2105.26,1667.93L2105.19,1668.81C2105.17,1669.11 2105.14,1669.42 2105.12,1669.72C2105.06,1670.36 2105.01,1671 2104.96,1671.63L2104.87,1672.57L2104.8,1673.36C2104.64,1674.83 2104.46,1676.3 2104.26,1677.78L2104.19,1678.3L2104.15,1678.6C2104.12,1678.8 2104.09,1679 2104.05,1679.2C2103.92,1680.1 2103.78,1681.01 2103.63,1681.92L2104.39,1683.39C2105.93,1680.9 2107.87,1679.02 2109.29,1682.01L2109.56,1682.63C2111.32,1671.81 2111.9,1660.72 2111.24,1649.52C2108.9,1609.63 2091.15,1573.03 2061.29,1546.47C2033.87,1522.1 1998.59,1508.67 1961.94,1508.67L1961.93,1508.67C1941,1508.67 1920.71,1512.93 1901.63,1521.3C1881.86,1529.99 1864.52,1542.63 1850.06,1558.89C1823.51,1588.76 1810.19,1627.16 1812.53,1667.07C1812.7,1670.05 1813,1673.01 1813.34,1675.96C1814.56,1686.29 1816.79,1696.36 1820.04,1706.05L1820.03,1705.97Z" style="fill:rgb(143,216,247);fill-rule:nonzero;"/>
        </g>
        <g transform="matrix(4.16667,0,0,4.16667,-6950.43,-5155.6)">
            <path d="M2068.29,1665.26C2067.54,1665.59 2066.78,1665.92 2066.02,1666.23L2069.41,1669.51L2068.29,1665.26Z" style="fill:rgb(25,195,242);fill-rule:nonzero;"/>
        </g>
        <g transform="matrix(4.16667,0,0,4.16667,-6950.43,-5155.6)">
            <path d="M2022.27,1682.61L2027.29,1684.9L2025.98,1680.86C2024.75,1681.46 2023.51,1682.03 2022.27,1682.61Z" style="fill:rgb(25,195,242);fill-rule:nonzero;"/>
        </g>
        <g transform="matrix(4.16667,0,0,4.16667,-6950.43,-5155.6)">
            <path d="M2104.65,1674.53L2104.8,1673.36L2104.87,1672.57L2104.96,1671.63C2104.86,1672.59 2104.76,1673.57 2104.65,1674.53Z" style="fill:rgb(25,195,242);fill-rule:nonzero;"/>
        </g>
        <g transform="matrix(4.16667,0,0,4.16667,-6950.43,-5155.6)">
            <path d="M2038.87,1720.39L1999.58,1690.89L1999.45,1690.67C1983.57,1694.81 1967.1,1696.2 1950.78,1694.82L1940.28,1710.86C1958.29,1713.24 1975.54,1721.26 1993.44,1724.16C2007.06,1726.35 2021.3,1726.79 2035.3,1725.44C2036.76,1724.56 2038.19,1723.63 2039.63,1722.71L2038.87,1720.39Z" style="fill:rgb(25,195,242);fill-rule:nonzero;"/>
        </g>
        <g transform="matrix(4.16667,0,0,4.16667,-6950.43,-5155.6)">
            <path d="M1819.42,1639.63L1819.27,1640.62L1819.25,1640.83L1819.16,1641.53C1819.25,1640.89 1819.33,1640.26 1819.42,1639.63Z" style="fill:rgb(25,195,242);fill-rule:nonzero;"/>
        </g>
        <g transform="matrix(4.16667,0,0,4.16667,-6950.43,-5155.6)">
            <path d="M2104.15,1678.6L2104.19,1678.3L2104.26,1677.78L2104.4,1676.62C2104.32,1677.29 2104.23,1677.95 2104.15,1678.6Z" style="fill:rgb(25,195,242);fill-rule:nonzero;"/>
        </g>
        <g transform="matrix(4.16667,0,0,4.16667,-6950.43,-5155.6)">
            <path d="M2105.14,1669.4L2105.19,1668.81L2105.26,1667.93L2105.29,1667.33C2105.25,1668.02 2105.19,1668.71 2105.14,1669.4Z" style="fill:rgb(25,195,242);fill-rule:nonzero;"/>
        </g>
        <g transform="matrix(4.16667,0,0,4.16667,-6950.43,-5155.6)">
            <path d="M1840.65,1735.46L1840.09,1734.61L1840.35,1735.03L1840.54,1735.32L1841.05,1736.1L1840.65,1735.46Z" style="fill:rgb(25,195,242);fill-rule:nonzero;"/>
        </g>
        <g transform="matrix(4.16667,0,0,4.16667,-6950.43,-5155.6)">
            <path d="M2091.48,1720.43L2091.56,1720.28L2091.96,1719.43L2092,1719.32L2091.48,1720.43Z" style="fill:rgb(25,195,242);fill-rule:nonzero;"/>
        </g>
        <g transform="matrix(4.16667,0,0,4.16667,-6950.43,-5155.6)">
            <path d="M2089.39,1724.61L2089.57,1724.27L2089.7,1724.02L2089.39,1724.61Z" style="fill:rgb(25,195,242);fill-rule:nonzero;"/>
        </g>
        <g transform="matrix(4.16667,0,0,4.16667,-6950.43,-5155.6)">
            <path d="M1850.86,1749.51L1850.15,1748.68L1850.66,1749.31L1851.02,1749.71L1850.86,1749.51Z" style="fill:rgb(25,195,242);fill-rule:nonzero;"/>
        </g>
        <g transform="matrix(4.16667,0,0,4.16667,-6950.43,-5155.6)">
            <path d="M1821.43,1688.6L1821.55,1689.22L1821.67,1689.76L1821.9,1690.7C1821.73,1690 1821.58,1689.3 1821.43,1688.6Z" style="fill:rgb(25,195,242);fill-rule:nonzero;"/>
        </g>
        <g transform="matrix(4.16667,0,0,4.16667,-6950.43,-5155.6)">
            <path d="M1854.15,1753.37L1853.58,1752.74L1853.89,1753.11L1854.53,1753.81L1854.59,1753.88L1854.15,1753.37Z" style="fill:rgb(25,195,242);fill-rule:nonzero;"/>
        </g>
        <g transform="matrix(4.16667,0,0,4.16667,-6950.43,-5155.6)">
            <path d="M1843.31,1739.48L1843.04,1739.11L1843.29,1739.48L1843.9,1740.38L1843.93,1740.4L1843.31,1739.48Z" style="fill:rgb(25,195,242);fill-rule:nonzero;"/>
        </g>
        <g transform="matrix(4.16667,0,0,4.16667,-6950.43,-5155.6)">
            <path d="M1857.65,1757.18L1857.23,1756.76L1857.63,1757.2L1858.16,1757.75L1858.35,1757.94L1857.65,1757.18Z" style="fill:rgb(25,195,242);fill-rule:nonzero;"/>
        </g>
        <g transform="matrix(4.16667,0,0,4.16667,-6950.43,-5155.6)">
            <path d="M2095.32,1711.7L2095.63,1710.96L2095.65,1710.87L2095.85,1710.35L2095.32,1711.7Z" style="fill:rgb(25,195,242);fill-rule:nonzero;"/>
        </g>
        <g transform="matrix(4.16667,0,0,4.16667,-6950.43,-5155.6)">
            <path d="M1846.84,1744.43L1846.96,1744.59L1846.36,1743.77L1846.84,1744.43Z" style="fill:rgb(25,195,242);fill-rule:nonzero;"/>
        </g>
        <g transform="matrix(4.16667,0,0,4.16667,-6950.43,-5155.6)">
            <path d="M2097.44,1706.11L2097.42,1706.12L2097.2,1706.74L2097.44,1706.11Z" style="fill:rgb(25,195,242);fill-rule:nonzero;"/>
        </g>
        <g transform="matrix(4.16667,0,0,4.16667,-6950.43,-5155.6)">
            <path d="M1823.1,1695.53L1822.92,1694.82L1822.63,1693.73L1822.86,1694.67L1823,1695.21L1823.15,1695.75L1823.1,1695.53Z" style="fill:rgb(25,195,242);fill-rule:nonzero;"/>
        </g>
        <g transform="matrix(4.16667,0,0,4.16667,-6950.43,-5155.6)">
            <path d="M1818.43,1650.3L1818.35,1651.45L1818.35,1651.71L1818.34,1652.04C1818.35,1651.47 1818.4,1650.89 1818.43,1650.3Z" style="fill:rgb(25,195,242);fill-rule:nonzero;"/>
        </g>
        <g transform="matrix(4.16667,0,0,4.16667,-6950.43,-5155.6)">
            <path d="M2091.93,1636.49L2092.39,1637.73L2092.48,1638.14L2092.66,1638.99L2092.69,1639.49L2092.73,1640.25L2092.69,1640.81L2092.63,1641.54L2092.53,1642.12L2092.38,1642.82L2092.21,1643.42L2092,1644.11L2091.76,1644.7L2091.49,1645.38L2091.2,1645.99L2090.89,1646.62L2090.53,1647.25L2090.19,1647.84L2089.78,1648.48L2089.42,1649.02L2088.97,1649.66L2088.6,1650.17L2088.1,1650.8L2087.86,1651.11L2092.58,1660.32C2097.13,1649.97 2100.39,1639.23 2102.38,1628.33C2103.03,1631.36 2103.56,1634.42 2104.01,1637.49C2103.88,1636.63 2103.8,1635.76 2103.66,1634.9L2103.53,1634.11C2103.29,1632.68 2103.02,1631.24 2102.73,1629.8L2102.71,1629.72C2102.42,1628.21 2102.09,1626.71 2101.72,1625.23L2101.58,1624.61C2101.27,1623.3 2100.93,1621.99 2100.58,1620.69L2100.42,1620.07C2099.6,1617.15 2098.71,1614.24 2097.72,1611.36L2097.48,1610.65C2096.98,1609.25 2096.47,1607.83 2095.92,1606.43C2095.91,1606.46 2095.9,1606.48 2095.89,1606.51C2092.08,1615.73 2087.26,1624.65 2081.44,1633.11C2085.61,1632.27 2090.04,1632.49 2091.93,1636.49Z" style="fill:rgb(25,195,242);fill-rule:nonzero;"/>
        </g>
        <g transform="matrix(4.16667,0,0,4.16667,-6950.43,-5155.6)">
            <path d="M2105.27,1667.17L2105.3,1667.07C2105.37,1665.86 2105.45,1664.63 2105.49,1663.43C2105.55,1661.96 2105.57,1660.5 2105.58,1659.03L2105.58,1658.12C2105.57,1656.74 2105.56,1655.37 2105.51,1653.99L2105.5,1653.68C2105.45,1652.17 2105.37,1650.66 2105.29,1649.15L2105.24,1648.48C2105.14,1647.17 2105.04,1645.86 2104.92,1644.57L2104.85,1643.82C2104.68,1642.14 2104.41,1640.46 2104.18,1638.79C2105.46,1648.19 2105.84,1657.7 2105.27,1667.17Z" style="fill:rgb(25,195,242);fill-rule:nonzero;"/>
        </g>
        <g transform="matrix(4.16667,0,0,4.16667,-6950.43,-5155.6)">
            <path d="M1819.59,1678.26L1819.62,1678.52L1819.7,1679.08L1819.89,1680.21C1819.79,1679.55 1819.68,1678.92 1819.59,1678.26Z" style="fill:rgb(25,195,242);fill-rule:nonzero;"/>
        </g>
        <g transform="matrix(4.16667,0,0,4.16667,-6950.43,-5155.6)">
            <path d="M1861.27,1760.86L1861.74,1761.35L1862.29,1761.88L1861.45,1761.04C1861.38,1760.98 1861.33,1760.92 1861.27,1760.86Z" style="fill:rgb(25,195,242);fill-rule:nonzero;"/>
        </g>
        <g transform="matrix(4.16667,0,0,4.16667,-6950.43,-5155.6)">
            <path d="M2075.67,1746.07L2076.05,1745.56L2076.21,1745.34L2075.67,1746.07Z" style="fill:rgb(25,195,242);fill-rule:nonzero;"/>
        </g>
        <g transform="matrix(4.16667,0,0,4.16667,-6950.43,-5155.6)">
            <path d="M1824.25,1620.87C1823.92,1632.29 1824.96,1643.76 1827.34,1654.96C1830.57,1663.19 1834.56,1671.16 1839.34,1678.78L1861.11,1654.8L1861.33,1653.14C1846.82,1638.61 1836.01,1621.66 1829.01,1603.5L1828.99,1603.56C1827.59,1606.95 1826.33,1610.39 1825.2,1613.85L1825.16,1613.97C1824.69,1615.42 1824.26,1616.87 1823.84,1618.32C1823.97,1619.17 1824.12,1620.01 1824.25,1620.87Z" style="fill:rgb(25,195,242);fill-rule:nonzero;"/>
        </g>
        <g transform="matrix(4.16667,0,0,4.16667,-6950.43,-5155.6)">
            <path d="M2084.57,1733.12L2084.32,1733.55L2084.53,1733.23L2084.56,1733.17L2084.71,1732.91L2084.57,1733.12Z" style="fill:rgb(25,195,242);fill-rule:nonzero;"/>
        </g>
        <g transform="matrix(4.16667,0,0,4.16667,-6950.43,-5155.6)">
            <path d="M2086.88,1729.22L2086.93,1729.13L2086.9,1729.17L2086.88,1729.22Z" style="fill:rgb(25,195,242);fill-rule:nonzero;"/>
        </g>
        <g transform="matrix(4.16667,0,0,4.16667,-6950.43,-5155.6)">
            <path d="M1840.65,1735.46L1841.05,1736.1L1841.36,1736.6L1841.87,1737.37L1841.96,1737.51C1841.52,1736.82 1841.08,1736.14 1840.65,1735.46Z" style="fill:rgb(36,175,229);fill-rule:nonzero;"/>
        </g>
        <g transform="matrix(4.16667,0,0,4.16667,-6950.43,-5155.6)">
            <path d="M2090.8,1721.81L2090.88,1721.67L2091.02,1721.39L2091.06,1721.3L2090.8,1721.81Z" style="fill:rgb(36,175,229);fill-rule:nonzero;"/>
        </g>
        <g transform="matrix(4.16667,0,0,4.16667,-6950.43,-5155.6)">
            <path d="M1846.14,1743.47L1846.36,1743.77L1846.96,1744.59L1847.26,1744.99L1847.73,1745.59C1847.19,1744.88 1846.66,1744.18 1846.14,1743.47Z" style="fill:rgb(36,175,229);fill-rule:nonzero;"/>
        </g>
        <g transform="matrix(4.16667,0,0,4.16667,-6950.43,-5155.6)">
            <path d="M1843.31,1739.48L1843.93,1740.4L1843.97,1740.47L1844.33,1740.98L1844.77,1741.59C1844.27,1740.88 1843.79,1740.19 1843.31,1739.48Z" style="fill:rgb(36,175,229);fill-rule:nonzero;"/>
        </g>
        <g transform="matrix(4.16667,0,0,4.16667,-6950.43,-5155.6)">
            <path d="M1839.08,1732.97L1839.19,1733.15L1838.73,1732.38L1839.08,1732.97Z" style="fill:rgb(36,175,229);fill-rule:nonzero;"/>
        </g>
        <g transform="matrix(4.16667,0,0,4.16667,-6950.43,-5155.6)">
            <path d="M2084.71,1732.91L2084.75,1732.85L2085.09,1732.29L2084.57,1733.12L2084.71,1732.91Z" style="fill:rgb(36,175,229);fill-rule:nonzero;"/>
        </g>
        <g transform="matrix(4.16667,0,0,4.16667,-6950.43,-5155.6)">
            <path d="M1863.18,1762.7C1864.24,1763.72 1865.31,1764.7 1866.41,1765.69C1865.13,1764.55 1863.88,1763.39 1862.65,1762.21L1863.18,1762.7Z" style="fill:rgb(36,175,229);fill-rule:nonzero;"/>
        </g>
        <g transform="matrix(4.16667,0,0,4.16667,-6950.43,-5155.6)">
            <path d="M1854.15,1753.37C1853.52,1752.66 1852.89,1751.95 1852.29,1751.23L1852.44,1751.42L1853.14,1752.23L1853.58,1752.74L1854.15,1753.37Z" style="fill:rgb(36,175,229);fill-rule:nonzero;"/>
        </g>
        <g transform="matrix(4.16667,0,0,4.16667,-6950.43,-5155.6)">
            <path d="M1849.13,1747.4L1849.55,1747.92L1850.15,1748.68L1850.86,1749.51C1850.27,1748.82 1849.7,1748.11 1849.13,1747.4Z" style="fill:rgb(36,175,229);fill-rule:nonzero;"/>
        </g>
        <g transform="matrix(4.16667,0,0,4.16667,-6950.43,-5155.6)">
            <path d="M2092.58,1660.32L2101.55,1677.82C2102.92,1674.32 2104.17,1670.76 2105.27,1667.17C2105.84,1657.7 2105.46,1648.19 2104.18,1638.79C2104.12,1638.36 2104.07,1637.92 2104.01,1637.49C2103.56,1634.42 2103.03,1631.36 2102.38,1628.33C2100.39,1639.23 2097.13,1649.97 2092.58,1660.32Z" style="fill:rgb(36,175,229);fill-rule:nonzero;"/>
        </g>
        <g transform="matrix(4.16667,0,0,4.16667,-6950.43,-5155.6)">
            <path d="M1957.32,1760.11C1943.08,1760.69 1928.73,1760.2 1914.54,1758.49C1966.69,1779.32 2028.07,1768.13 2069.49,1726.61L2068.1,1727.43C2066.85,1728.15 2065.59,1728.87 2064.32,1729.57C2063.11,1730.24 2061.89,1730.9 2060.67,1731.55L2060.65,1731.56C2057.53,1733.24 2054.36,1734.86 2051.19,1736.44C2021.84,1751.08 1990.07,1758.79 1957.32,1760.11Z" style="fill:rgb(36,175,229);fill-rule:nonzero;"/>
        </g>
        <g transform="matrix(4.16667,0,0,4.16667,-6950.43,-5155.6)">
            <path d="M2035.3,1725.44C2036.99,1725.26 2038.66,1725.08 2040.33,1724.86L2039.63,1722.71C2038.19,1723.63 2036.76,1724.56 2035.3,1725.44Z" style="fill:rgb(36,175,229);fill-rule:nonzero;"/>
        </g>
        <g transform="matrix(4.16667,0,0,4.16667,-6950.43,-5155.6)">
            <path d="M1827.34,1654.96C1829.32,1664.32 1832.25,1673.5 1836.09,1682.35L1839.34,1678.78C1834.56,1671.16 1830.57,1663.19 1827.34,1654.96Z" style="fill:rgb(36,175,229);fill-rule:nonzero;"/>
        </g>
        <g transform="matrix(4.16667,0,0,4.16667,-6950.43,-5155.6)">
            <path d="M1857.65,1757.18C1856.96,1756.46 1856.25,1755.72 1855.58,1754.99L1856.03,1755.49L1856.37,1755.85L1857.23,1756.76L1857.65,1757.18Z" style="fill:rgb(36,175,229);fill-rule:nonzero;"/>
        </g>
        <g transform="matrix(4.16667,0,0,4.16667,-6950.43,-5155.6)">
            <path d="M2071.98,1750.65L2072.39,1750.14L2071.87,1750.77L2071.98,1750.65Z" style="fill:rgb(36,175,229);fill-rule:nonzero;"/>
        </g>
        <g transform="matrix(4.16667,0,0,4.16667,-6950.43,-5155.6)">
            <path d="M1822.92,1694.82L1823.1,1695.53L1823.15,1695.75C1823.86,1695.04 1824.64,1694.46 1825.5,1694.02L1836.09,1682.35C1832.25,1673.5 1829.32,1664.32 1827.34,1654.96C1824.96,1643.76 1823.92,1632.29 1824.25,1620.87C1824.12,1620.01 1823.97,1619.17 1823.84,1618.32L1823.83,1618.29L1823.67,1618.9L1823.29,1620.32C1823.05,1621.21 1822.79,1622.1 1822.57,1622.99L1822.46,1623.41L1822.32,1624.02C1822.27,1624.21 1822.23,1624.4 1822.19,1624.6C1822.1,1624.96 1822.01,1625.33 1821.93,1625.71C1821.77,1626.38 1821.6,1627.08 1821.45,1627.75L1821.37,1628.14L1821.16,1629.19C1821.04,1629.78 1820.92,1630.4 1820.8,1631.01C1820.68,1631.63 1820.55,1632.26 1820.43,1632.89L1820.41,1633.01L1820.19,1634.38C1820.09,1635.02 1819.99,1635.65 1819.89,1636.27L1819.69,1637.53L1819.6,1638.09C1819.54,1638.6 1819.48,1639.12 1819.42,1639.63C1819.33,1640.26 1819.25,1640.89 1819.16,1641.53C1819.04,1642.67 1818.93,1643.8 1818.82,1644.92C1818.77,1645.56 1818.71,1646.17 1818.65,1646.8L1818.6,1647.44L1818.55,1648.09C1818.49,1648.82 1818.47,1649.56 1818.43,1650.3C1818.4,1650.89 1818.35,1651.47 1818.34,1652.04C1818.33,1652.3 1818.33,1652.57 1818.32,1652.84C1818.27,1653.86 1818.24,1654.88 1818.23,1655.91L1818.19,1657.29L1818.19,1658.09C1818.19,1659.49 1818.21,1660.9 1818.26,1662.3L1818.26,1662.73C1818.3,1664.34 1818.38,1665.9 1818.48,1667.47L1818.51,1667.87L1818.55,1668.27L1818.59,1668.77C1818.68,1669.91 1818.77,1671.07 1818.87,1672.22L1818.93,1672.83L1818.96,1673.07C1819.02,1673.63 1819.09,1674.18 1819.15,1674.76C1819.26,1675.66 1819.35,1676.56 1819.47,1677.46L1819.52,1677.76L1819.59,1678.26C1819.68,1678.92 1819.79,1679.55 1819.89,1680.21C1819.98,1680.81 1820.06,1681.42 1820.16,1682.01L1820.29,1682.8L1820.41,1683.44C1820.54,1684.13 1820.68,1684.82 1820.8,1685.5C1821,1686.54 1821.21,1687.56 1821.43,1688.6C1821.58,1689.3 1821.73,1690 1821.9,1690.7L1821.91,1690.74L1821.95,1690.91L1822.14,1691.8L1822.36,1692.67L1822.63,1693.73L1822.92,1694.82Z" style="fill:rgb(15,141,206);fill-rule:nonzero;"/>
        </g>
        <g transform="matrix(4.16667,0,0,4.16667,-6950.43,-5155.6)">
            <path d="M2105.27,1667.17C2104.17,1670.76 2102.92,1674.32 2101.55,1677.82L2103.63,1681.92L2103.64,1681.84C2103.78,1680.96 2103.92,1680.08 2104.05,1679.2C2104.09,1679 2104.12,1678.8 2104.15,1678.6C2104.23,1677.95 2104.32,1677.29 2104.4,1676.62C2104.49,1675.93 2104.57,1675.23 2104.65,1674.53C2104.76,1673.57 2104.86,1672.59 2104.96,1671.63C2105.01,1671 2105.06,1670.36 2105.12,1669.72C2105.12,1669.61 2105.13,1669.51 2105.14,1669.4C2105.19,1668.71 2105.25,1668.02 2105.29,1667.33L2105.29,1667.24L2105.31,1667.05L2105.3,1667.06L2105.3,1667.07L2105.27,1667.17Z" style="fill:rgb(15,141,206);fill-rule:nonzero;"/>
        </g>
        <g transform="matrix(4.16667,0,0,4.16667,-6950.43,-5155.6)">
            <path d="M1914.54,1758.49C1905.3,1757.37 1896.13,1755.74 1887.11,1753.54C1870.22,1749.4 1852.67,1743.16 1838.71,1732.34L1838.73,1732.38L1839.19,1733.15L1839.32,1733.36L1839.34,1733.39L1839.95,1734.37L1840.09,1734.61L1840.65,1735.46C1841.08,1736.14 1841.52,1736.82 1841.96,1737.51L1842.16,1737.82L1842.45,1738.25L1843.04,1739.11L1843.31,1739.48C1843.79,1740.19 1844.27,1740.88 1844.77,1741.59L1845.07,1742.01L1845.73,1742.93L1846.14,1743.47C1846.66,1744.18 1847.19,1744.88 1847.73,1745.59L1848.02,1745.96L1848.61,1746.73L1849.13,1747.4C1849.7,1748.11 1850.27,1748.82 1850.86,1749.51L1851.02,1749.71L1851.5,1750.3L1852.14,1751.06L1852.29,1751.23C1852.89,1751.95 1853.52,1752.66 1854.15,1753.37L1854.59,1753.88L1854.65,1753.94L1855.43,1754.82L1855.58,1754.99C1856.25,1755.72 1856.96,1756.46 1857.65,1757.18L1858.35,1757.94L1858.61,1758.21L1859.04,1758.66C1859.42,1759.04 1859.81,1759.43 1860.2,1759.8C1860.56,1760.16 1860.91,1760.51 1861.27,1760.86C1861.33,1760.92 1861.38,1760.98 1861.45,1761.04L1862.29,1761.88L1862.65,1762.21C1863.88,1763.39 1865.13,1764.55 1866.41,1765.69C1867.29,1766.48 1868.2,1767.26 1869.11,1768.02L1870.03,1768.79C1870.64,1769.29 1871.24,1769.8 1871.85,1770.29L1872.96,1771.17C1873.53,1771.6 1874.07,1772.04 1874.63,1772.47L1875.84,1773.38C1876.38,1773.78 1876.91,1774.19 1877.45,1774.58L1878.71,1775.47C1879.24,1775.84 1879.78,1776.22 1880.32,1776.6L1881.61,1777.49C1882.14,1777.84 1882.68,1778.2 1883.21,1778.56L1884.53,1779.42C1885.07,1779.75 1885.62,1780.1 1886.15,1780.43L1887.48,1781.24C1888.03,1781.57 1888.58,1781.9 1889.13,1782.23L1890.45,1783.01C1891.02,1783.33 1891.59,1783.65 1892.16,1783.97L1893.46,1784.69C1894.06,1785.01 1894.66,1785.32 1895.26,1785.63L1896.49,1786.29C1897.15,1786.62 1897.81,1786.94 1898.48,1787.28L1899.56,1787.81C1900.52,1788.26 1901.47,1788.71 1902.42,1789.16L1902.84,1789.34C1903.8,1789.76 1904.78,1790.2 1905.75,1790.61L1906.84,1791.06C1907.52,1791.34 1908.2,1791.63 1908.88,1791.9L1910.17,1792.39C1910.8,1792.64 1911.42,1792.88 1912.04,1793.1L1913.42,1793.6C1914.02,1793.82 1914.63,1794.03 1915.23,1794.24L1916.64,1794.71C1917.24,1794.9 1917.84,1795.1 1918.43,1795.29L1919.88,1795.74C1920.47,1795.91 1921.06,1796.11 1921.67,1796.29C1922.14,1796.41 1922.63,1796.55 1923.12,1796.68C1923.71,1796.86 1924.32,1797.01 1924.91,1797.17C1925.39,1797.29 1925.89,1797.42 1926.37,1797.56C1926.97,1797.71 1927.58,1797.84 1928.19,1798C1928.66,1798.12 1929.14,1798.23 1929.63,1798.34C1930.24,1798.49 1930.87,1798.62 1931.48,1798.76L1932.9,1799.06C1933.54,1799.19 1934.19,1799.31 1934.83,1799.44L1936.17,1799.69C1936.88,1799.81 1937.59,1799.93 1938.29,1800.05L1939.47,1800.25C1940.49,1800.41 1941.52,1800.56 1942.54,1800.69L1942.97,1800.75C1944,1800.89 1945.03,1801.02 1946.06,1801.12L1947.24,1801.24C1947.95,1801.31 1948.67,1801.38 1949.37,1801.46L1950.75,1801.55C1951.39,1801.61 1952.03,1801.65 1952.69,1801.7C1953.17,1801.72 1953.66,1801.75 1954.14,1801.77C1954.77,1801.81 1955.39,1801.84 1956.01,1801.88C1956.5,1801.89 1957,1801.9 1957.49,1801.92C1958.11,1801.94 1958.72,1801.96 1959.33,1801.96C1959.84,1801.97 1960.35,1801.98 1960.83,1801.98C1961.41,1801.99 1961.98,1801.99 1962.56,1801.99C1963.24,1801.98 1963.92,1801.97 1964.6,1801.96C1965.12,1801.95 1965.64,1801.94 1966.15,1801.92C1966.85,1801.9 1967.53,1801.88 1968.23,1801.84C1968.73,1801.81 1969.23,1801.79 1969.75,1801.76C1970.44,1801.72 1971.15,1801.69 1971.86,1801.63C1972.35,1801.6 1972.83,1801.57 1973.33,1801.53C1974.06,1801.47 1974.8,1801.4 1975.54,1801.32L1976.9,1801.2C1977.72,1801.11 1978.55,1801.02 1979.37,1800.91L1980.47,1800.79C1982.84,1800.47 1985.21,1800.11 1987.57,1799.69L1988.67,1799.47C1989.48,1799.31 1990.29,1799.16 1991.1,1799L1992.44,1798.71C1993.17,1798.55 1993.89,1798.38 1994.61,1798.23C1995.1,1798.1 1995.57,1797.98 1996.05,1797.88C1996.73,1797.71 1997.42,1797.54 1998.11,1797.36C1998.6,1797.22 1999.1,1797.1 1999.6,1796.96C2000.26,1796.79 2000.92,1796.59 2001.59,1796.41C2002.09,1796.26 2002.59,1796.11 2003.09,1795.96C2003.75,1795.77 2004.39,1795.57 2005.04,1795.35C2005.55,1795.21 2006.05,1795.05 2006.56,1794.87C2007.2,1794.67 2007.85,1794.46 2008.49,1794.24C2008.99,1794.07 2009.49,1793.89 2009.99,1793.71C2010.63,1793.5 2011.27,1793.25 2011.91,1793.02C2012.41,1792.84 2012.9,1792.65 2013.39,1792.46C2014.04,1792.22 2014.68,1791.96 2015.31,1791.71C2015.8,1791.51 2016.29,1791.32 2016.77,1791.12C2017.42,1790.85 2018.07,1790.58 2018.7,1790.29L2020.12,1789.69C2020.78,1789.4 2021.45,1789.09 2022.12,1788.78L2023.43,1788.18C2024.16,1787.83 2024.89,1787.47 2025.62,1787.1L2026.69,1786.58C2027.77,1786.04 2028.84,1785.49 2029.91,1784.91L2029.96,1784.87C2031.03,1784.3 2032.09,1783.73 2033.14,1783.12L2034.19,1782.49C2034.89,1782.09 2035.59,1781.69 2036.29,1781.26L2037.54,1780.49C2038.17,1780.1 2038.8,1779.71 2039.43,1779.31L2040.73,1778.45C2041.33,1778.06 2041.92,1777.67 2042.51,1777.28L2043.85,1776.35C2044.42,1775.96 2044.98,1775.55 2045.55,1775.14L2046.89,1774.18C2047.44,1773.77 2048,1773.36 2048.55,1772.92L2049.89,1771.92C2050.43,1771.49 2050.96,1771.07 2051.5,1770.65L2052.82,1769.58C2053.35,1769.14 2053.88,1768.68 2054.42,1768.23L2055.7,1767.15C2056.23,1766.69 2056.76,1766.23 2057.29,1765.75L2058.53,1764.63C2059.06,1764.14 2059.6,1763.67 2060.12,1763.16L2061.3,1762.04C2061.85,1761.52 2062.39,1760.99 2062.93,1760.45L2064.02,1759.37C2064.61,1758.77 2065.2,1758.16 2065.78,1757.55L2066.68,1756.61C2067.55,1755.68 2068.43,1754.74 2069.28,1753.75C2070.03,1752.91 2070.79,1752.04 2071.54,1751.15L2071.87,1750.77L2072.39,1750.14L2072.56,1749.93L2072.88,1749.54L2073.72,1748.52L2074.56,1747.47L2074.59,1747.43L2075.08,1746.82L2075.67,1746.07L2076.21,1745.34L2076.69,1744.71L2077.42,1743.74L2077.97,1743L2078.72,1741.96L2078.85,1741.79L2078.96,1741.63L2079.78,1740.45L2080.35,1739.64L2080.67,1739.17L2081.49,1737.96L2082.04,1737.14L2082.46,1736.49L2082.49,1736.43L2082.63,1736.22L2082.74,1736.05L2083.19,1735.36C2083.54,1734.8 2083.89,1734.23 2084.23,1733.69L2084.32,1733.55L2084.57,1733.12L2085.09,1732.29C2085.37,1731.8 2085.65,1731.35 2085.93,1730.86C2086.22,1730.38 2086.49,1729.9 2086.77,1729.4L2086.88,1729.22L2086.9,1729.17L2086.93,1729.13L2087.04,1728.96L2087.19,1728.68L2087.55,1728.02C2087.83,1727.51 2088.12,1727.01 2088.39,1726.48L2088.91,1725.54L2089.28,1724.83L2089.39,1724.61L2089.7,1724.02L2089.93,1723.57L2090.38,1722.67L2090.8,1721.81L2091.06,1721.3L2091.48,1720.43L2092,1719.32L2092.23,1718.84L2092.62,1718.02L2092.76,1717.72L2092.89,1717.41L2093.46,1716.15L2093.94,1715.03L2094.27,1714.23L2094.35,1714.05L2094.43,1713.87L2094.57,1713.54L2094.74,1713.14L2095.11,1712.2L2095.32,1711.7L2095.85,1710.35L2095.94,1710.14L2096.21,1709.4C2096.55,1708.55 2096.86,1707.69 2097.16,1706.84L2097.2,1706.74L2097.42,1706.12L2096.4,1707.08C2088.44,1714.76 2079.02,1721.01 2069.49,1726.61C2028.07,1768.13 1966.69,1779.32 1914.54,1758.49Z" style="fill:rgb(15,141,206);fill-rule:nonzero;"/>
        </g>
        <g transform="matrix(4.16667,0,0,4.16667,-6950.43,-5155.6)">
            <path d="M1940.56,1650.6C1941.36,1650.81 1942.17,1651.01 1942.99,1651.21L1952.83,1641.54C1949,1641.67 1945.21,1641.63 1941.51,1641.42L1939.24,1650.22L1940.56,1650.6Z" style="fill:rgb(25,195,242);fill-rule:nonzero;"/>
        </g>
        <g transform="matrix(4.16667,0,0,4.16667,-6950.43,-5155.6)">
            <path d="M1983.09,1652.68C1993.03,1651.05 2002.66,1646.96 2012.58,1644.96C2013.34,1644.59 2014.11,1644.22 2014.85,1643.83L2017.77,1621.96C2009.75,1627.44 2000.25,1632.02 1989.7,1635.37L1977.92,1653.37C1979.66,1653.17 1981.38,1652.94 1983.09,1652.68Z" style="fill:rgb(25,195,242);fill-rule:nonzero;"/>
        </g>
        <g transform="matrix(4.16667,0,0,4.16667,-6950.43,-5155.6)">
            <path d="M1950.24,1523.87C1947.91,1524.04 1945.6,1524.26 1943.31,1524.53L1943.37,1524.53C1945.63,1524.26 1947.93,1524.04 1950.24,1523.87Z" style="fill:rgb(25,195,242);fill-rule:nonzero;"/>
        </g>
        <g transform="matrix(4.16667,0,0,4.16667,-6950.43,-5155.6)">
            <path d="M1937.63,1656.47L1938.11,1655.99L1937.79,1655.8L1937.63,1656.47Z" style="fill:rgb(25,195,242);fill-rule:nonzero;"/>
        </g>
        <g transform="matrix(4.16667,0,0,4.16667,-6950.43,-5155.6)">
            <path d="M2044.71,1575.99C2045.89,1592.11 2036.96,1607.45 2021.54,1619.23L2030.41,1634.37L2030.86,1634.04L2030.55,1631.79L2031.99,1633.19C2049.66,1619.69 2059.9,1602.09 2058.55,1583.61C2055.84,1546.45 2007.35,1519.71 1950.24,1523.87C2000.06,1520.24 2042.35,1543.57 2044.71,1575.99Z" style="fill:rgb(25,195,242);fill-rule:nonzero;"/>
        </g>
        <g transform="matrix(4.16667,0,0,4.16667,-6950.43,-5155.6)">
            <path d="M1864.32,1589.13C1862.62,1565.78 1882.11,1544.07 1911.77,1532.43C1911,1532.4 1910.23,1532.39 1909.47,1532.4C1901.86,1535.18 1894.8,1538.5 1888.4,1542.29L1888.4,1542.3L1888.39,1542.3C1888.13,1542.87 1886.87,1545.5 1886.22,1543.98L1886.13,1543.68C1863.73,1557.72 1850.2,1577.61 1851.74,1598.68C1852.53,1609.35 1857.09,1619.17 1864.55,1627.66L1867.73,1602.5C1865.84,1598.26 1864.66,1593.78 1864.32,1589.13Z" style="fill:rgb(25,195,242);fill-rule:nonzero;"/>
        </g>
        <g transform="matrix(4.16667,0,0,4.16667,-6950.43,-5155.6)">
            <path d="M1892.3,1576.32C1891.07,1559.42 1905.36,1543.72 1927,1535.44C1924.75,1534.64 1922.48,1533.86 1920.17,1533.37C1917.45,1532.81 1914.62,1532.49 1911.77,1532.43C1882.11,1544.07 1862.62,1565.78 1864.32,1589.13C1864.66,1593.78 1865.84,1598.26 1867.73,1602.5L1869.06,1591.95L1888.37,1562.05L1893.47,1619.17L1909.06,1602.02C1899.28,1595.42 1893.05,1586.48 1892.3,1576.32Z" style="fill:rgb(68,200,245);fill-rule:nonzero;"/>
        </g>
        <g transform="matrix(4.16667,0,0,4.16667,-6950.43,-5155.6)">
            <path d="M2032.85,1589.32C2036.39,1586.82 2039.13,1583.21 2040.58,1579.02C2041.4,1576.57 2041.54,1573.96 2040.52,1570.88C2040.26,1570.11 2040.1,1569.22 2039.69,1568.45C2039.42,1567.93 2038.94,1567.46 2038.59,1566.94C2038.26,1566.48 2036.7,1564.13 2038.14,1564.74C2039.35,1565.27 2040.16,1566.23 2040.72,1567.31C2041.42,1568.69 2041.74,1570.23 2042.02,1571.3C2042.75,1574.01 2042.92,1576.65 2042.94,1579.17C2042.94,1579.8 2042.93,1580.42 2042.91,1581.03C2042.89,1581.8 2042.85,1582.56 2042.8,1583.3C2042.33,1590.28 2040.03,1596.29 2036.2,1601.27C2033.46,1604.83 2030.05,1607.9 2025.96,1610.16C2022.53,1612.02 2018.42,1613.53 2013.6,1613.09L2013.49,1613.07L2013.44,1613.07L2012.59,1612.96L2012.51,1612.96L2011.55,1612.79L2011.47,1612.74L2010.44,1612.5L2010.38,1612.47L2009.32,1612.13L2009.26,1612.1L2008.23,1611.63L2008.19,1611.6L2007.21,1611.01L2007.19,1610.99L2006.33,1610.26L2006.31,1610.24L2005.62,1609.35C2004.04,1606.87 2006.81,1605.66 2008.37,1605.11C2011.4,1604.04 2014.96,1603.75 2018.14,1602.89C2020.69,1602.22 2022.73,1601.08 2024.56,1599.56C2023.76,1598.87 2022.98,1598.66 2022.12,1598.17C2020.62,1597.31 2021.42,1596.29 2021.97,1595.68C2024.7,1592.64 2029.48,1591.72 2032.85,1589.32ZM1951.21,1526.33C1953.87,1527.11 1956.57,1528.07 1959.11,1529.35C1992.46,1528.67 2019.92,1544.83 2021.52,1566.91C2023.21,1590.12 1995.66,1611.06 1959.97,1613.65C1956.12,1613.93 1952.33,1613.97 1948.63,1613.82L1941.51,1641.42C1945.21,1641.63 1949,1641.67 1952.83,1641.54L1971.45,1623.25L2005.14,1611.78L1989.7,1635.37C2000.25,1632.02 2009.75,1627.44 2017.77,1621.96L2018.77,1614.5L2021.54,1619.23C2036.96,1607.45 2045.89,1592.11 2044.71,1575.99C2042.35,1543.57 2000.06,1520.24 1950.24,1523.87C1947.93,1524.04 1945.63,1524.26 1943.37,1524.53C1946.03,1524.97 1948.64,1525.56 1951.21,1526.33Z" style="fill:rgb(68,200,245);fill-rule:nonzero;"/>
        </g>
        <g transform="matrix(4.16667,0,0,4.16667,-6950.43,-5155.6)">
            <path d="M1892.3,1576.32C1893.05,1586.48 1899.28,1595.42 1909.06,1602.02L1929.03,1580.02L1966.92,1564.66L1951.27,1591.82L1955.06,1588.9L1948.63,1613.82C1952.33,1613.97 1956.12,1613.93 1959.97,1613.65C1995.66,1611.06 2023.21,1590.12 2021.52,1566.91C2019.92,1544.83 1992.46,1528.67 1959.11,1529.35C1961.77,1530.66 1964.26,1532.3 1966.33,1534.41L1966.41,1534.49C1966.41,1534.5 1966.42,1534.5 1966.42,1534.51L1966.44,1534.54L1966.76,1534.88L1966.83,1534.95L1967.13,1535.3L1967.22,1535.4L1967.52,1535.75L1967.6,1535.87L1967.89,1536.23L1968,1536.39L1968.25,1536.76L1968.38,1536.94L1968.6,1537.29L1968.73,1537.51L1968.92,1537.84L1969.05,1538.08L1969.21,1538.4L1969.33,1538.66L1969.47,1538.97L1969.56,1539.27L1969.67,1539.57L1969.75,1539.88L1969.82,1540.17L1969.87,1540.49L1969.9,1540.76L1969.92,1541.1L1969.92,1541.34L1969.89,1541.71L1969.87,1541.93L1969.76,1542.32L1969.71,1542.49L1969.48,1543.04C1968.02,1545.79 1963.98,1544.32 1961.87,1543.4C1957.74,1541.63 1954.04,1538.96 1950.03,1536.94C1946.83,1535.3 1943.57,1534.36 1940.04,1533.83C1939.99,1534.88 1940.47,1535.63 1940.71,1536.61C1941.1,1538.33 1939.18,1538.3 1937.93,1538.23C1934.14,1538.01 1930.57,1536.7 1927,1535.44C1905.36,1543.72 1891.07,1559.42 1892.3,1576.32Z" style="fill:rgb(108,205,244);fill-rule:nonzero;"/>
        </g>
        <g transform="matrix(4.16667,0,0,4.16667,-6950.43,-5155.6)">
            <path d="M1897.45,1663.63L1897.84,1668.09L1906.86,1650.22L1897.45,1663.63Z" style="fill:rgb(36,175,229);fill-rule:nonzero;"/>
        </g>
        <g transform="matrix(4.16667,0,0,4.16667,-6950.43,-5155.6)">
            <path d="M1966.92,1564.66L1943.84,1597.53L1951.27,1591.82L1966.92,1564.66Z" style="fill:rgb(36,175,229);fill-rule:nonzero;"/>
        </g>
        <g transform="matrix(4.16667,0,0,4.16667,-6950.43,-5155.6)">
            <path d="M1860.09,1662.9L1861.11,1654.8L1839.34,1678.78L1836.09,1682.35L1825.5,1694.02C1825.95,1693.77 1826.44,1693.55 1826.93,1693.38L1860.09,1662.9Z" style="fill:rgb(146,211,244);fill-rule:nonzero;"/>
        </g>
        <g transform="matrix(4.16667,0,0,4.16667,-6950.43,-5155.6)">
            <path d="M1929.03,1580.02L1909.06,1602.02L1893.47,1619.17L1894.55,1631.22L1966.92,1564.66L1929.03,1580.02Z" style="fill:rgb(146,211,244);fill-rule:nonzero;"/>
        </g>
        <g transform="matrix(4.16667,0,0,4.16667,-6950.43,-5155.6)">
            <path d="M1826.93,1693.38C1833.2,1691.17 1842.1,1694.03 1847.49,1696.09C1850.19,1697.11 1852.85,1698.24 1855.47,1699.45L1860.09,1662.9L1826.93,1693.38Z" style="fill:rgb(25,195,242);fill-rule:nonzero;"/>
        </g>
        <g transform="matrix(4.16667,0,0,4.16667,-6950.43,-5155.6)">
            <path d="M1913.37,1637.32C1912.44,1636.27 1911.55,1635.16 1910.83,1634.02C1909.29,1631.53 1908.55,1628.79 1909.87,1626.04C1911.44,1622.78 1913.98,1628.74 1914.45,1629.95C1914.88,1631.01 1915.04,1632.11 1915.47,1633.15L1926.86,1610.6L1943.84,1597.53L1966.92,1564.66L1894.55,1631.22L1897.45,1663.63L1906.86,1650.22L1913.37,1637.32Z" style="fill:rgb(25,195,242);fill-rule:nonzero;"/>
        </g>
        <g transform="matrix(4.16667,0,0,4.16667,-6950.43,-5155.6)">
            <path d="M1937.63,1656.47L1937.79,1655.8C1937.16,1655.47 1936.53,1655.1 1935.91,1654.74C1934.72,1654.07 1933.55,1653.35 1932.39,1652.63L1927.47,1666.45L1937.63,1656.47Z" style="fill:rgb(36,175,229);fill-rule:nonzero;"/>
        </g>
        <g transform="matrix(4.16667,0,0,4.16667,-6950.43,-5155.6)">
            <path d="M1933.91,1648.34C1935.62,1649.06 1937.4,1649.69 1939.24,1650.22L1941.51,1641.42L1948.63,1613.82L1955.06,1588.9L1933.91,1648.34Z" style="fill:rgb(36,175,229);fill-rule:nonzero;"/>
        </g>
        <g transform="matrix(4.16667,0,0,4.16667,-6950.43,-5155.6)">
            <path d="M1918.02,1641.88C1916.72,1640.63 1914.98,1639.07 1913.37,1637.32L1906.86,1650.22L1897.84,1668.09L1898.83,1679.15L1920.6,1644.22C1919.72,1643.46 1918.85,1642.68 1918.02,1641.88Z" style="fill:rgb(146,211,244);fill-rule:nonzero;"/>
        </g>
        <g transform="matrix(4.16667,0,0,4.16667,-6950.43,-5155.6)">
            <path d="M1951.27,1591.82L1943.84,1597.53L1926.86,1610.6L1915.47,1633.15L1915.86,1633.94C1916.96,1635.72 1918.81,1637.23 1920.23,1638.8C1920.98,1639.6 1921.74,1640.38 1922.53,1641.12L1955.06,1588.9L1951.27,1591.82Z" style="fill:rgb(146,211,244);fill-rule:nonzero;"/>
        </g>
        <g transform="matrix(4.16667,0,0,4.16667,-6950.43,-5155.6)">
            <path d="M1932.39,1652.63C1928.26,1650.11 1924.25,1647.36 1920.6,1644.22L1898.83,1679.15L1900.09,1693.33L1927.47,1666.45L1932.39,1652.63Z" style="fill:rgb(25,195,242);fill-rule:nonzero;"/>
        </g>
        <g transform="matrix(4.16667,0,0,4.16667,-6950.43,-5155.6)">
            <path d="M1922.53,1641.12C1925.92,1644.24 1929.73,1646.58 1933.91,1648.34L1955.06,1588.9L1922.53,1641.12Z" style="fill:rgb(25,195,242);fill-rule:nonzero;"/>
        </g>
        <g transform="matrix(4.16667,0,0,4.16667,-6950.43,-5155.6)">
            <path d="M1967.74,1668.91C1965.68,1668.27 1963.63,1667.58 1961.6,1666.86L1927.22,1710.34C1928.58,1710.19 1929.99,1710.18 1931.23,1710.19C1934.27,1710.23 1937.29,1710.47 1940.28,1710.86L1950.78,1694.82L1967.74,1668.91Z" style="fill:rgb(36,175,229);fill-rule:nonzero;"/>
        </g>
        <g transform="matrix(4.16667,0,0,4.16667,-6950.43,-5155.6)">
            <path d="M1977.92,1653.37L1989.7,1635.37L2005.14,1611.78L1971.89,1653.83C1973.91,1653.72 1975.92,1653.58 1977.92,1653.37Z" style="fill:rgb(36,175,229);fill-rule:nonzero;"/>
        </g>
        <g transform="matrix(4.16667,0,0,4.16667,-6950.43,-5155.6)">
            <path d="M1924.6,1725.77C1924.6,1722.36 1923.03,1719.93 1922.05,1716.88L1915.96,1724.58C1918.79,1725.06 1921.67,1725.46 1924.6,1725.77Z" style="fill:rgb(36,175,229);fill-rule:nonzero;"/>
        </g>
        <g transform="matrix(4.16667,0,0,4.16667,-6950.43,-5155.6)">
            <path d="M1954.55,1653.25L2005.14,1611.78L1971.45,1623.25L1952.83,1641.54L1942.99,1651.21C1946.77,1652.12 1950.63,1652.79 1954.55,1653.25Z" style="fill:rgb(146,211,244);fill-rule:nonzero;"/>
        </g>
        <g transform="matrix(4.16667,0,0,4.16667,-6950.43,-5155.6)">
            <path d="M1940.59,1657.34C1939.75,1656.91 1938.93,1656.45 1938.11,1655.99L1937.63,1656.47L1927.47,1666.45L1900.09,1693.33L1900.47,1697.56L1946.09,1660.18C1944.25,1659.25 1942.42,1658.32 1940.61,1657.36L1940.59,1657.34Z" style="fill:rgb(146,211,244);fill-rule:nonzero;"/>
        </g>
        <g transform="matrix(4.16667,0,0,4.16667,-6950.43,-5155.6)">
            <path d="M1946.59,1660.43L1946.09,1660.18L1900.47,1697.56L1901,1703.49L1892.12,1717.72C1899.91,1720.99 1907.77,1723.19 1915.96,1724.58L1922.05,1716.88L1921.83,1716.23C1920.66,1712.02 1923.76,1710.72 1927.22,1710.34L1961.6,1666.86C1956.5,1665.01 1951.49,1662.88 1946.59,1660.43Z" style="fill:rgb(25,195,242);fill-rule:nonzero;"/>
        </g>
        <g transform="matrix(4.16667,0,0,4.16667,-6950.43,-5155.6)">
            <path d="M1971.89,1653.83L2005.14,1611.78L1954.55,1653.25C1960.29,1653.93 1966.12,1654.12 1971.89,1653.83Z" style="fill:rgb(25,195,242);fill-rule:nonzero;"/>
        </g>
        <g transform="matrix(4.16667,0,0,4.16667,-6950.43,-5155.6)">
            <path d="M1900.47,1697.56L1900.09,1693.33L1898.83,1679.15L1897.84,1668.09L1897.45,1663.63L1894.55,1631.22L1893.47,1619.17L1888.37,1562.05L1888.33,1716.06L1889.5,1716.61C1890.37,1717.01 1891.24,1717.35 1892.12,1717.72L1901,1703.49L1900.47,1697.56Z" style="fill:rgb(36,175,229);fill-rule:nonzero;"/>
        </g>
        <g transform="matrix(4.16667,0,0,4.16667,-6950.43,-5155.6)">
            <path d="M1869.06,1591.95L1867.73,1602.5L1864.55,1627.66L1861.33,1653.14L1861.11,1654.8L1860.09,1662.9L1855.47,1699.45C1856.33,1699.83 1857.17,1700.24 1858.03,1700.63L1888.37,1562.05L1869.06,1591.95Z" style="fill:rgb(146,211,244);fill-rule:nonzero;"/>
        </g>
        <g transform="matrix(4.16667,0,0,4.16667,-6950.43,-5155.6)">
            <path d="M1858.03,1700.63C1868.24,1705.52 1878.05,1711.33 1888.33,1716.06L1888.37,1562.05L1858.03,1700.63Z" style="fill:rgb(25,195,242);fill-rule:nonzero;"/>
        </g>
        <g transform="matrix(4.16667,0,0,4.16667,-6950.43,-5155.6)">
            <path d="M2058.77,1699.3L2061.92,1700.74L2053.35,1687.8L2058.77,1699.3Z" style="fill:rgb(36,175,229);fill-rule:nonzero;"/>
        </g>
        <g transform="matrix(4.16667,0,0,4.16667,-6950.43,-5155.6)">
            <path d="M2031.05,1635.48L2030.41,1634.37L2021.54,1619.23L2018.77,1614.5L2032.05,1642.67L2031.05,1635.48Z" style="fill:rgb(36,175,229);fill-rule:nonzero;"/>
        </g>
        <g transform="matrix(4.16667,0,0,4.16667,-6950.43,-5155.6)">
            <path d="M2024.12,1675.16L2025.98,1680.86L2027.29,1684.9L2035.81,1688.79L2032.52,1674.4C2029.72,1674.73 2026.92,1674.99 2024.12,1675.16Z" style="fill:rgb(146,211,244);fill-rule:nonzero;"/>
        </g>
        <g transform="matrix(4.16667,0,0,4.16667,-6950.43,-5155.6)">
            <path d="M2038.87,1720.39L2039.63,1722.71L2040.33,1724.86C2041.54,1724.71 2042.76,1724.54 2043.96,1724.36L2043.92,1724.19L2038.87,1720.39Z" style="fill:rgb(146,211,244);fill-rule:nonzero;"/>
        </g>
        <g transform="matrix(4.16667,0,0,4.16667,-6950.43,-5155.6)">
            <path d="M2014.76,1644.55C2017.28,1644.14 2019.82,1643.87 2022.4,1643.83C2023.37,1643.83 2024.5,1643.86 2025.53,1644.03L2018.77,1614.5L2017.77,1621.96L2014.85,1643.83L2014.76,1644.55Z" style="fill:rgb(146,211,244);fill-rule:nonzero;"/>
        </g>
        <g transform="matrix(4.16667,0,0,4.16667,-6950.43,-5155.6)">
            <path d="M2026.59,1653.68L2027.72,1653.55L2027.12,1650.93C2026.82,1651.77 2026.59,1652.67 2026.59,1653.68Z" style="fill:rgb(146,211,244);fill-rule:nonzero;"/>
        </g>
        <g transform="matrix(4.16667,0,0,4.16667,-6950.43,-5155.6)">
            <path d="M2043.96,1724.36L2044.13,1724.33L2043.92,1724.19L2043.96,1724.36Z" style="fill:rgb(25,195,242);fill-rule:nonzero;"/>
        </g>
        <g transform="matrix(4.16667,0,0,4.16667,-6950.43,-5155.6)">
            <path d="M2043.35,1672.73C2039.76,1673.42 2036.14,1673.98 2032.52,1674.4L2035.81,1688.79L2058.77,1699.3L2053.35,1687.8L2043.35,1672.73Z" style="fill:rgb(25,195,242);fill-rule:nonzero;"/>
        </g>
        <g transform="matrix(4.16667,0,0,4.16667,-6950.43,-5155.6)">
            <path d="M2028.34,1647.67C2028,1648.85 2027.5,1649.86 2027.12,1650.93L2027.72,1653.55C2029.66,1653.32 2031.56,1653.03 2033.44,1652.68L2032.05,1642.67L2018.77,1614.5L2025.53,1644.03C2027.46,1644.36 2029.02,1645.25 2028.34,1647.67Z" style="fill:rgb(25,195,242);fill-rule:nonzero;"/>
        </g>
        <g transform="matrix(4.16667,0,0,4.16667,-6950.43,-5155.6)">
            <path d="M2069.41,1669.51L2066.02,1666.23C2064.58,1666.83 2063.11,1667.37 2061.64,1667.9L2072.23,1680.21L2069.41,1669.51Z" style="fill:rgb(36,175,229);fill-rule:nonzero;"/>
        </g>
        <g transform="matrix(4.16667,0,0,4.16667,-6950.43,-5155.6)">
            <path d="M2045.56,1649.23C2046.25,1648.96 2046.95,1648.68 2047.63,1648.38L2031.99,1633.19L2030.55,1631.79L2045.56,1649.23Z" style="fill:rgb(36,175,229);fill-rule:nonzero;"/>
        </g>
        <g transform="matrix(4.16667,0,0,4.16667,-6950.43,-5155.6)">
            <path d="M2050.28,1671.25C2047.98,1671.8 2045.67,1672.29 2043.35,1672.73L2053.35,1687.8L2061.92,1700.74L2069.76,1704.33L2051.69,1670.89L2050.28,1671.25Z" style="fill:rgb(146,211,244);fill-rule:nonzero;"/>
        </g>
        <g transform="matrix(4.16667,0,0,4.16667,-6950.43,-5155.6)">
            <path d="M2032.05,1642.67L2033.44,1652.68C2035.96,1652.21 2038.42,1651.61 2040.86,1650.87L2030.55,1631.79L2030.86,1634.04L2031.05,1635.48L2032.05,1642.67Z" style="fill:rgb(146,211,244);fill-rule:nonzero;"/>
        </g>
        <g transform="matrix(4.16667,0,0,4.16667,-6950.43,-5155.6)">
            <path d="M2045.56,1649.23L2030.55,1631.79L2040.86,1650.87C2042.44,1650.4 2044.01,1649.84 2045.56,1649.23Z" style="fill:rgb(25,195,242);fill-rule:nonzero;"/>
        </g>
        <g transform="matrix(4.16667,0,0,4.16667,-6950.43,-5155.6)">
            <path d="M2061.64,1667.9C2058.34,1669.06 2055,1670.04 2051.69,1670.89L2069.76,1704.33L2079.82,1708.93L2072.23,1680.21L2061.64,1667.9Z" style="fill:rgb(25,195,242);fill-rule:nonzero;"/>
        </g>
        <g transform="matrix(4.16667,0,0,4.16667,-6950.43,-5155.6)">
            <path d="M2078.96,1633.71L2065.21,1606.85L2076.39,1634.53C2077.17,1634.26 2078.05,1633.97 2078.96,1633.71Z" style="fill:rgb(36,175,229);fill-rule:nonzero;"/>
        </g>
        <g transform="matrix(4.16667,0,0,4.16667,-6950.43,-5155.6)">
            <path d="M2092.58,1660.32L2087.86,1651.11L2087.75,1651.24L2087.22,1651.88L2086.87,1652.26L2086.32,1652.88L2085.99,1653.23L2085.44,1653.82L2085.13,1654.12L2084.57,1654.67L2084.53,1654.7L2100.25,1693.66C2101.06,1691.93 2101.3,1690.01 2102.03,1688.2C2102.35,1687.39 2103.26,1685.22 2104.39,1683.39L2103.63,1681.92L2101.55,1677.82L2092.58,1660.32Z" style="fill:rgb(36,175,229);fill-rule:nonzero;"/>
        </g>
        <g transform="matrix(4.16667,0,0,4.16667,-6950.43,-5155.6)">
            <path d="M2069.41,1669.51L2072.23,1680.21L2079.82,1708.93L2082.8,1710.3L2074.59,1662.05C2072.56,1663.23 2070.44,1664.29 2068.29,1665.26L2069.41,1669.51Z" style="fill:rgb(146,211,244);fill-rule:nonzero;"/>
        </g>
        <g transform="matrix(4.16667,0,0,4.16667,-6950.43,-5155.6)">
            <path d="M2065.21,1606.85L2060.01,1633.95L2061.93,1641.22C2064.71,1639.76 2067.5,1638.34 2070.34,1637.03L2065.21,1606.85Z" style="fill:rgb(146,211,244);fill-rule:nonzero;"/>
        </g>
        <g transform="matrix(4.16667,0,0,4.16667,-6950.43,-5155.6)">
            <path d="M2075.32,1634.92L2076.39,1634.53L2065.21,1606.85L2070.34,1637.03C2071.98,1636.29 2073.63,1635.57 2075.32,1634.92Z" style="fill:rgb(25,195,242);fill-rule:nonzero;"/>
        </g>
        <g transform="matrix(4.16667,0,0,4.16667,-6950.43,-5155.6)">
            <path d="M2084.39,1654.84C2084.38,1654.85 2084.37,1654.86 2084.37,1654.87L2084.16,1655.07C2081.26,1657.75 2078.03,1660.05 2074.59,1662.05L2082.8,1710.3L2083.44,1710.59C2086.81,1708.2 2089.97,1705.43 2092.9,1702.18C2095.13,1699.72 2098.06,1697.35 2099.8,1694.5L2100.25,1693.66L2084.53,1654.7L2084.39,1654.84Z" style="fill:rgb(25,195,242);fill-rule:nonzero;"/>
        </g>
        <g transform="matrix(4.16667,0,0,4.16667,-6950.43,-5155.6)">
            <path d="M2079.82,1708.93L2069.76,1704.33L2061.92,1700.74L2058.77,1699.3L2035.81,1688.79L2027.29,1684.9L2022.27,1682.61L2006.52,1675.42L2005.91,1675.4C2004.7,1675.34 2003.49,1675.27 2002.27,1675.2L2073.97,1716.1C2077.29,1714.54 2080.45,1712.71 2083.44,1710.59L2082.8,1710.3L2079.82,1708.93Z" style="fill:rgb(36,175,229);fill-rule:nonzero;"/>
        </g>
        <g transform="matrix(4.16667,0,0,4.16667,-6950.43,-5155.6)">
            <path d="M1990.82,1674.04L1999.45,1690.67L1999.58,1690.89L2038.87,1720.39L2043.92,1724.19L2044.13,1724.33C2046.09,1724.03 2048.03,1723.7 2049.98,1723.32L1996.02,1674.66C1994.27,1674.48 1992.55,1674.27 1990.82,1674.04Z" style="fill:rgb(146,211,244);fill-rule:nonzero;"/>
        </g>
        <g transform="matrix(4.16667,0,0,4.16667,-6950.43,-5155.6)">
            <path d="M1996.02,1674.66L2049.98,1723.32C2053.61,1722.61 2057.2,1721.81 2060.72,1720.87C2065.39,1719.61 2069.81,1718.06 2073.97,1716.1L2002.27,1675.2C2000.17,1675.07 1998.09,1674.88 1996.02,1674.66Z" style="fill:rgb(25,195,242);fill-rule:nonzero;"/>
        </g>
        <g transform="matrix(4.16667,0,0,4.16667,-6950.43,-5155.6)">
            <path d="M1838.67,1732.29L1838.7,1732.33L1838.71,1732.34C1852.67,1743.16 1870.22,1749.4 1887.11,1753.54C1896.13,1755.74 1905.3,1757.37 1914.54,1758.49C1928.73,1760.2 1943.08,1760.69 1957.32,1760.11C1990.07,1758.79 2021.84,1751.08 2051.19,1736.44C2054.36,1734.86 2057.53,1733.24 2060.65,1731.56C2041.24,1735.67 2020.56,1736.14 2001.15,1733C1980.29,1729.61 1960.3,1719.26 1938.94,1719.03C1934.59,1718.97 1927.91,1719.2 1929.56,1725.06C1930.51,1728.44 1932.32,1730.94 1932.32,1734.61C1919.99,1733.31 1908.56,1730.55 1897.23,1725.44C1883.03,1719.03 1869.8,1710.45 1855.21,1704.93C1847.74,1702.1 1833.53,1697.66 1828.93,1707.39C1825.84,1713.96 1828.83,1721.42 1833.19,1727.65L1833.51,1727.95C1835.16,1729.48 1836.89,1730.92 1838.67,1732.29Z" style="fill:rgb(108,205,244);fill-rule:nonzero;"/>
        </g>
        <g transform="matrix(4.16667,0,0,4.16667,-6950.43,-5155.6)">
            <path d="M1823.97,1716.53L1824.02,1716.61L1824.26,1717L1823.97,1716.53Z" style="fill:rgb(108,205,244);fill-rule:nonzero;"/>
        </g>
        <g transform="matrix(4.16667,0,0,4.16667,-6950.43,-5155.6)">
            <path d="M2104.39,1683.39C2103.26,1685.22 2102.35,1687.39 2102.03,1688.2C2101.3,1690.01 2101.06,1691.93 2100.25,1693.66L2099.8,1694.5C2098.06,1697.35 2095.13,1699.72 2092.9,1702.18C2089.97,1705.43 2086.81,1708.2 2083.44,1710.59C2080.45,1712.71 2077.29,1714.54 2073.97,1716.1C2069.81,1718.06 2065.39,1719.61 2060.72,1720.87C2057.2,1721.81 2053.61,1722.61 2049.98,1723.32C2048.03,1723.7 2046.09,1724.03 2044.13,1724.33L2043.96,1724.36C2042.76,1724.54 2041.54,1724.71 2040.33,1724.86C2038.66,1725.08 2036.99,1725.26 2035.3,1725.44C2021.3,1726.79 2007.06,1726.35 1993.44,1724.16C1975.54,1721.26 1958.29,1713.24 1940.28,1710.86C1937.29,1710.47 1934.27,1710.23 1931.23,1710.19C1929.99,1710.18 1928.58,1710.19 1927.22,1710.34C1923.76,1710.72 1920.66,1712.02 1921.83,1716.23L1922.05,1716.88C1923.03,1719.93 1924.6,1722.36 1924.6,1725.77C1921.67,1725.46 1918.79,1725.06 1915.96,1724.58C1907.77,1723.19 1899.91,1720.99 1892.12,1717.72C1891.24,1717.35 1890.37,1717.01 1889.5,1716.61L1888.33,1716.06C1878.05,1711.33 1868.24,1705.52 1858.03,1700.63C1857.17,1700.24 1856.33,1699.83 1855.47,1699.45C1852.85,1698.24 1850.19,1697.11 1847.49,1696.09C1842.1,1694.03 1833.2,1691.17 1826.93,1693.38C1826.44,1693.55 1825.95,1693.77 1825.5,1694.02C1824.64,1694.46 1823.86,1695.04 1823.15,1695.75L1823.15,1695.76C1822.4,1696.54 1821.74,1697.45 1821.22,1698.56L1820.8,1699.54L1820.71,1699.81L1820.47,1700.51L1820.38,1700.88L1820.23,1701.5L1820.16,1701.9L1820.06,1702.5L1820.02,1702.9L1819.97,1703.51L1819.96,1703.92L1819.94,1704.52L1819.96,1704.95L1819.99,1705.53L1820.03,1705.97L1820.04,1706.05L1820.1,1706.55L1820.16,1706.99L1820.26,1707.58L1820.36,1708L1820.48,1708.6L1820.62,1709.02L1820.77,1709.61L1820.91,1710.04L1821.1,1710.62L1821.27,1711.06L1821.47,1711.62L1821.67,1712.07L1821.9,1712.62L1822.11,1713.08L1822.37,1713.61L1822.6,1714.06L1822.87,1714.6L1823.12,1715.06L1823.4,1715.56L1823.68,1716.03L1823.97,1716.53L1824.26,1717L1824.56,1717.46L1824.88,1717.95L1825.17,1718.39L1825.52,1718.87L1825.81,1719.3L1826.17,1719.79L1826.47,1720.18L1826.85,1720.67L1827.14,1721.05L1827.54,1721.56L1827.82,1721.9L1828.25,1722.42L1828.5,1722.72L1828.96,1723.25L1829.19,1723.51L1829.68,1724.04L1829.88,1724.29L1830.39,1724.83L1830.56,1725.01L1831.11,1725.58L1831.24,1725.71L1831.8,1726.29L1831.91,1726.39L1832.52,1726.99L1832.57,1727.04L1833.19,1727.63L1833.19,1727.65C1828.83,1721.42 1825.84,1713.96 1828.93,1707.39C1833.53,1697.66 1847.74,1702.1 1855.21,1704.93C1869.8,1710.45 1883.03,1719.03 1897.23,1725.44C1908.56,1730.55 1919.99,1733.31 1932.32,1734.61C1932.32,1730.94 1930.51,1728.44 1929.56,1725.06C1927.91,1719.2 1934.59,1718.97 1938.94,1719.03C1960.3,1719.26 1980.29,1729.61 2001.15,1733C2020.56,1736.14 2041.24,1735.67 2060.65,1731.56L2060.67,1731.55C2061.89,1730.9 2063.11,1730.24 2064.32,1729.57C2065.59,1728.87 2066.85,1728.15 2068.1,1727.43L2069.49,1726.61C2079.02,1721.01 2088.44,1714.76 2096.4,1707.08L2097.42,1706.12L2097.44,1706.11C2100.22,1703.47 2103.87,1700.14 2106.59,1696.39C2107.01,1695.81 2107.39,1695.24 2107.77,1694.64C2108.23,1693.91 2108.63,1693.14 2109,1692.38C2110.45,1689.27 2110.92,1685.97 2109.56,1682.63L2109.29,1682.01C2107.87,1679.02 2105.93,1680.9 2104.39,1683.39Z" style="fill:rgb(146,211,244);fill-rule:nonzero;"/>
        </g>
        <g transform="matrix(4.16667,0,0,4.16667,-6950.43,-5155.6)">
            <path d="M1938.11,1655.99C1938.93,1656.45 1939.75,1656.91 1940.59,1657.34C1939.01,1656.49 1937.44,1655.63 1935.91,1654.74C1936.53,1655.1 1937.16,1655.47 1937.79,1655.8L1938.11,1655.99Z" style="fill:rgb(146,211,244);fill-rule:nonzero;"/>
        </g>
        <g transform="matrix(4.16667,0,0,4.16667,-6950.43,-5155.6)">
            <path d="M2087.05,1642.09C2084.14,1635.92 2075.16,1638.72 2070.44,1640.5C2061.23,1644.01 2052.86,1649.43 2043.89,1653.48C2036.72,1656.72 2029.5,1658.45 2021.71,1659.27C2021.71,1656.96 2022.86,1655.37 2023.46,1653.25C2024.5,1649.53 2020.27,1649.4 2017.53,1649.42C2004.03,1649.58 1991.39,1656.13 1978.21,1658.26C1965.94,1660.23 1952.88,1659.95 1940.61,1657.36C1942.42,1658.32 1944.25,1659.25 1946.09,1660.18L1946.59,1660.43C1951.49,1662.88 1956.5,1665.01 1961.6,1666.86C1963.63,1667.58 1965.68,1668.27 1967.74,1668.91C1975.27,1671.25 1982.98,1672.95 1990.82,1674.04C1992.55,1674.27 1994.27,1674.48 1996.02,1674.66C1998.09,1674.88 2000.17,1675.07 2002.27,1675.2C2003.49,1675.27 2004.7,1675.34 2005.91,1675.4L2006.52,1675.42C2012.37,1675.62 2018.25,1675.55 2024.12,1675.16C2026.92,1674.99 2029.72,1674.73 2032.52,1674.4C2036.14,1673.98 2039.76,1673.42 2043.35,1672.73C2045.67,1672.29 2047.98,1671.8 2050.28,1671.25L2051.69,1670.89C2055,1670.04 2058.34,1669.06 2061.64,1667.9C2063.11,1667.37 2064.58,1666.83 2066.02,1666.23C2066.78,1665.92 2067.54,1665.59 2068.29,1665.26C2070.44,1664.29 2072.56,1663.23 2074.59,1662.05C2078.03,1660.05 2081.26,1657.75 2084.16,1655.07L2084.37,1654.87L2084.36,1654.87L2084.39,1654.84C2087.13,1650.9 2089,1646.2 2087.05,1642.09Z" style="fill:rgb(146,211,244);fill-rule:nonzero;"/>
        </g>
        <g transform="matrix(4.16667,0,0,4.16667,-6950.43,-5155.6)">
            <path d="M2040.86,1650.87C2038.42,1651.61 2035.96,1652.21 2033.44,1652.68C2031.56,1653.03 2029.66,1653.32 2027.72,1653.55L2026.59,1653.68C2026.59,1652.67 2026.82,1651.77 2027.12,1650.93C2027.5,1649.86 2028,1648.85 2028.34,1647.67C2029.02,1645.25 2027.46,1644.36 2025.53,1644.03C2024.5,1643.86 2023.37,1643.83 2022.4,1643.83C2019.82,1643.87 2017.28,1644.14 2014.76,1644.55C2014.03,1644.67 2013.3,1644.81 2012.58,1644.96C2002.66,1646.96 1993.03,1651.05 1983.09,1652.68C1981.38,1652.94 1979.66,1653.17 1977.92,1653.37C1975.92,1653.58 1973.91,1653.72 1971.89,1653.83C1966.12,1654.12 1960.29,1653.93 1954.55,1653.25C1950.63,1652.79 1946.77,1652.12 1942.99,1651.21C1942.17,1651.01 1941.36,1650.81 1940.56,1650.6L1939.24,1650.22C1937.4,1649.69 1935.62,1649.06 1933.91,1648.34C1929.73,1646.58 1925.92,1644.24 1922.53,1641.12C1921.74,1640.38 1920.98,1639.6 1920.23,1638.8C1918.81,1637.23 1916.96,1635.72 1915.86,1633.94L1915.47,1633.15C1915.04,1632.11 1914.88,1631.01 1914.45,1629.95C1913.98,1628.74 1911.44,1622.78 1909.87,1626.04C1908.55,1628.79 1909.29,1631.53 1910.83,1634.02C1911.55,1635.16 1912.44,1636.27 1913.37,1637.32C1914.98,1639.07 1916.72,1640.63 1918.02,1641.88C1918.85,1642.68 1919.72,1643.46 1920.6,1644.22C1924.25,1647.36 1928.26,1650.11 1932.39,1652.63C1933.55,1653.35 1934.72,1654.07 1935.91,1654.74C1937.44,1655.63 1939.01,1656.49 1940.59,1657.34L1940.61,1657.36C1952.88,1659.95 1965.94,1660.23 1978.21,1658.26C1991.39,1656.13 2004.03,1649.58 2017.53,1649.42C2020.27,1649.4 2024.5,1649.53 2023.46,1653.25C2022.86,1655.37 2021.71,1656.96 2021.71,1659.27C2029.5,1658.45 2036.72,1656.72 2043.89,1653.48C2052.86,1649.43 2061.23,1644.01 2070.44,1640.5C2075.16,1638.72 2084.14,1635.92 2087.05,1642.09C2089,1646.2 2087.13,1650.9 2084.39,1654.84L2084.53,1654.7L2084.57,1654.67L2085.13,1654.12L2085.44,1653.82L2085.99,1653.23L2086.32,1652.88L2086.87,1652.26L2087.22,1651.88L2087.75,1651.24L2087.86,1651.11L2088.1,1650.8L2088.6,1650.17L2088.97,1649.66L2089.42,1649.02L2089.78,1648.48L2090.19,1647.84L2090.53,1647.25L2090.89,1646.62L2091.2,1645.99L2091.49,1645.38L2091.76,1644.7L2092,1644.11L2092.21,1643.42L2092.38,1642.82L2092.53,1642.12L2092.63,1641.54L2092.69,1640.81L2092.73,1640.25L2092.69,1639.49L2092.66,1638.99L2092.48,1638.14L2092.39,1637.73L2091.93,1636.49C2090.04,1632.49 2085.61,1632.27 2081.44,1633.11C2080.59,1633.27 2079.76,1633.48 2078.96,1633.71C2078.05,1633.97 2077.17,1634.26 2076.39,1634.53L2075.32,1634.92C2073.63,1635.57 2071.98,1636.29 2070.34,1637.03C2067.5,1638.34 2064.71,1639.76 2061.93,1641.22C2057.57,1643.5 2053.25,1645.88 2048.77,1647.9L2047.63,1648.38C2046.95,1648.68 2046.25,1648.96 2045.56,1649.23C2044.01,1649.84 2042.44,1650.4 2040.86,1650.87Z" style="fill:rgb(166,216,245);fill-rule:nonzero;"/>
        </g>
        <g transform="matrix(4.16667,0,0,4.16667,-6950.43,-5155.6)">
            <path d="M2084.37,1654.87C2084.37,1654.86 2084.38,1654.85 2084.39,1654.84L2084.36,1654.87L2084.37,1654.87Z" style="fill:rgb(166,216,245);fill-rule:nonzero;"/>
        </g>
        <g transform="matrix(4.16667,0,0,4.16667,-6950.43,-5155.6)">
            <path d="M1918.07,1530.72C1924.04,1531.98 1929.66,1535.23 1935.81,1535.59C1937.07,1535.66 1939,1535.67 1938.61,1533.97C1938.37,1532.97 1937.88,1532.23 1937.93,1531.17C1941.46,1531.71 1944.73,1532.67 1947.93,1534.29C1951.93,1536.3 1955.63,1538.96 1959.76,1540.76C1961.88,1541.68 1965.91,1543.13 1967.36,1540.41C1968.34,1538.55 1967.59,1536.38 1966.42,1534.51L1966.4,1534.49L1966.41,1534.49L1966.33,1534.41C1964.26,1532.3 1961.77,1530.66 1959.11,1529.35C1956.57,1528.07 1953.87,1527.11 1951.21,1526.33C1948.64,1525.56 1946.03,1524.97 1943.37,1524.53L1943.31,1524.53C1939.27,1523.86 1935.16,1523.51 1931.06,1523.5C1921.61,1523.45 1912.35,1525.24 1903.69,1529.07C1902.77,1529.47 1901.83,1529.9 1900.91,1530.34C1906.55,1529.42 1912.52,1529.56 1918.07,1530.72Z" style="fill:rgb(146,211,244);fill-rule:nonzero;"/>
        </g>
        <g transform="matrix(4.16667,0,0,4.16667,-6950.43,-5155.6)">
            <path d="M1888.39,1542.3L1888.4,1542.3L1888.4,1542.29C1888.67,1541.69 1888.76,1541.04 1889.12,1540.51C1889.67,1539.71 1890.54,1539.06 1891.22,1538.38C1893.88,1535.71 1897.06,1534.24 1900.73,1533.44C1903.57,1532.81 1906.52,1532.48 1909.47,1532.4C1910.23,1532.39 1911,1532.4 1911.77,1532.43C1914.62,1532.49 1917.45,1532.81 1920.17,1533.37C1922.48,1533.86 1924.75,1534.64 1927,1535.44C1930.57,1536.7 1934.14,1538.01 1937.93,1538.23C1939.18,1538.3 1941.1,1538.33 1940.71,1536.61C1940.47,1535.63 1939.99,1534.88 1940.04,1533.83C1943.57,1534.36 1946.83,1535.3 1950.03,1536.94C1954.04,1538.96 1957.74,1541.63 1961.87,1543.4C1963.98,1544.32 1968.02,1545.79 1969.48,1543.04L1969.71,1542.49L1969.76,1542.32L1969.87,1541.93L1969.89,1541.71L1969.92,1541.34L1969.92,1541.1L1969.9,1540.76L1969.87,1540.49L1969.82,1540.17L1969.75,1539.88L1969.67,1539.57L1969.56,1539.27L1969.47,1538.97L1969.33,1538.66L1969.21,1538.4L1969.05,1538.08L1968.92,1537.84L1968.73,1537.51L1968.6,1537.29L1968.38,1536.94L1968.25,1536.76L1968,1536.39L1967.89,1536.23L1967.6,1535.87L1967.52,1535.75L1967.22,1535.4L1967.13,1535.3L1966.83,1534.95L1966.76,1534.88L1966.44,1534.54L1966.42,1534.51C1967.59,1536.38 1968.34,1538.55 1967.36,1540.41C1965.91,1543.13 1961.88,1541.68 1959.76,1540.76C1955.63,1538.96 1951.93,1536.3 1947.93,1534.29C1944.73,1532.67 1941.46,1531.71 1937.93,1531.17C1937.88,1532.23 1938.37,1532.97 1938.61,1533.97C1939,1535.67 1937.07,1535.66 1935.81,1535.59C1929.66,1535.23 1924.04,1531.98 1918.07,1530.72C1912.52,1529.56 1906.55,1529.42 1900.91,1530.34L1900.9,1530.36C1900.15,1530.69 1899.42,1531.06 1898.7,1531.44C1895.74,1532.97 1892.79,1534.72 1890.27,1536.92C1889.29,1537.79 1887.77,1538.97 1886.83,1540.37C1886.13,1541.37 1885.75,1542.51 1886.13,1543.68L1886.22,1543.98C1886.87,1545.5 1888.13,1542.87 1888.39,1542.3Z" style="fill:rgb(166,216,245);fill-rule:nonzero;"/>
        </g>
        <g transform="matrix(4.16667,0,0,4.16667,-6950.43,-5155.6)">
            <path d="M1966.4,1534.49L1966.42,1534.51C1966.42,1534.5 1966.41,1534.5 1966.41,1534.49L1966.4,1534.49Z" style="fill:rgb(166,216,245);fill-rule:nonzero;"/>
        </g>
        <g transform="matrix(4.16667,0,0,4.16667,-6950.43,-5155.6)">
            <path d="M2035.76,1589.87C2032.39,1592.24 2027.62,1593.18 2024.88,1596.23C2024.33,1596.83 2023.53,1597.84 2025.03,1598.72C2025.89,1599.21 2026.67,1599.42 2027.46,1600.1C2025.64,1601.63 2023.6,1602.77 2021.05,1603.44C2017.86,1604.29 2014.32,1604.58 2011.27,1605.66C2009.71,1606.19 2006.96,1607.42 2008.52,1609.91C2009.57,1611.57 2011.58,1612.54 2013.49,1613.07L2013.5,1613.07L2013.49,1613.07L2013.6,1613.09C2018.42,1613.53 2022.53,1612.02 2025.96,1610.16C2030.05,1607.9 2033.46,1604.83 2036.2,1601.27C2040.03,1596.29 2042.33,1590.28 2042.8,1583.3C2042.85,1582.56 2042.89,1581.8 2042.91,1581.03C2041.37,1584.6 2038.88,1587.68 2035.76,1589.87Z" style="fill:rgb(146,211,244);fill-rule:nonzero;"/>
        </g>
        <g transform="matrix(4.16667,0,0,4.16667,-6950.43,-5155.6)">
            <path d="M2022.12,1598.17C2022.98,1598.66 2023.76,1598.87 2024.56,1599.56C2022.73,1601.08 2020.69,1602.22 2018.14,1602.89C2014.96,1603.75 2011.4,1604.04 2008.37,1605.11C2006.81,1605.66 2004.04,1606.87 2005.62,1609.35L2006.31,1610.24L2006.33,1610.26L2007.19,1610.99L2007.21,1611.01L2008.19,1611.6L2008.23,1611.63L2009.26,1612.1L2009.32,1612.13L2010.38,1612.47L2010.44,1612.5L2011.47,1612.74L2011.55,1612.79L2012.51,1612.96L2012.59,1612.96L2013.44,1613.07L2013.49,1613.07C2011.58,1612.54 2009.57,1611.57 2008.52,1609.91C2006.96,1607.42 2009.71,1606.19 2011.27,1605.66C2014.32,1604.58 2017.86,1604.29 2021.05,1603.44C2023.6,1602.77 2025.64,1601.63 2027.46,1600.1C2026.67,1599.42 2025.89,1599.21 2025.03,1598.72C2023.53,1597.84 2024.33,1596.83 2024.88,1596.23C2027.62,1593.18 2032.39,1592.24 2035.76,1589.87C2038.88,1587.68 2041.37,1584.6 2042.91,1581.03C2042.93,1580.42 2042.94,1579.8 2042.94,1579.17C2042.92,1576.65 2042.75,1574.01 2042.02,1571.3C2041.74,1570.23 2041.42,1568.69 2040.72,1567.31C2040.16,1566.23 2039.35,1565.27 2038.14,1564.74C2036.7,1564.13 2038.26,1566.48 2038.59,1566.94C2038.94,1567.46 2039.42,1567.93 2039.69,1568.45C2040.1,1569.22 2040.26,1570.11 2040.52,1570.88C2041.54,1573.96 2041.4,1576.57 2040.58,1579.02C2039.13,1583.21 2036.39,1586.82 2032.85,1589.32C2029.48,1591.72 2024.7,1592.64 2021.97,1595.68C2021.42,1596.29 2020.62,1597.31 2022.12,1598.17Z" style="fill:rgb(166,216,245);fill-rule:nonzero;"/>
        </g>
        <g transform="matrix(4.16667,0,0,4.16667,-6950.43,-5155.6)">
            <path d="M2013.49,1613.07L2013.5,1613.07" style="fill:none;"/>
        </g>
    </g>
</svg>
