<?xml version="1.0" encoding="UTF-8" standalone="no"?>
<!DOCTYPE svg PUBLIC "-//W3C//DTD SVG 1.1//EN" "http://www.w3.org/Graphics/SVG/1.1/DTD/svg11.dtd">
<svg width="100%" height="100%" viewBox="0 0 1234 1232" version="1.1" xmlns="http://www.w3.org/2000/svg" xmlns:xlink="http://www.w3.org/1999/xlink" xml:space="preserve" xmlns:serif="http://www.serif.com/" style="fill-rule:evenodd;clip-rule:evenodd;stroke-linejoin:round;stroke-miterlimit:2;">
    <g transform="matrix(1,0,0,1,-623.407,-2547.98)">
        <g transform="matrix(4.16667,0,0,4.16667,-6932.01,-14.7188)">
            <path d="M2102.69,752.357L2102.6,751.33L2102.67,752.111L2102.69,752.357Z" style="fill:rgb(238,69,93);fill-rule:nonzero;"/>
        </g>
        <g transform="matrix(4.16667,0,0,4.16667,-6932.01,-14.7188)">
            <path d="M1837.14,832.059L1837.4,832.52L1837.29,832.305L1837.14,832.059Z" style="fill:rgb(238,69,93);fill-rule:nonzero;"/>
        </g>
        <g transform="matrix(4.16667,0,0,4.16667,-6932.01,-14.7188)">
            <path d="M1837.96,833.482C1838.63,834.66 1839.3,835.822 1840,836.959L1839.88,836.734C1839.22,835.676 1838.59,834.576 1837.96,833.482Z" style="fill:rgb(238,69,93);fill-rule:nonzero;"/>
        </g>
        <g transform="matrix(4.16667,0,0,4.16667,-6932.01,-14.7188)">
            <path d="M1831.04,819.791C1829.74,816.834 1828.58,813.791 1827.48,810.724C1828.58,813.791 1829.74,816.828 1831.04,819.791Z" style="fill:rgb(238,69,93);fill-rule:nonzero;"/>
        </g>
        <g transform="matrix(4.16667,0,0,4.16667,-6932.01,-14.7188)">
            <path d="M1874.13,818.273C1878,820.755 1883.23,822.802 1887.66,825.247C1889.1,825.289 1890.53,825.299 1891.97,825.299C1908.49,825.299 1924.36,822.473 1939.11,817.289C1936.46,814.441 1934.08,811.352 1932.12,807.985C1935.4,810.189 1938.34,811.514 1940.6,814.545C1941.08,815.205 1941.6,815.729 1942.15,816.179C1995.79,795.896 2033.93,744.08 2033.93,683.346C2033.93,666.965 2031.15,651.227 2026.04,636.587C2006.59,626.545 1984.5,620.891 1961.12,620.891C1942.8,620.891 1925.29,624.357 1909.21,630.682C1912.47,629.886 1915.31,629.687 1917.22,630.341C1918.12,630.629 1918.92,631.027 1919.67,631.473C1941.07,625.258 1961.48,627.76 1975.19,640.357C1977.54,642.514 1979.62,644.901 1981.41,647.477C1984.04,647.027 1986.71,646.65 1989.43,646.42C2002.91,645.352 2017.31,648.367 2016.34,660.535C2015.79,667.361 2020.85,676.551 2017.36,682.729C2012.93,690.54 2000.68,692.482 1996.74,701.021C1995.27,704.221 1994.5,706.524 1990.88,708.629C1988.76,709.886 1986.01,710.588 1983.78,711.781C1978.85,724.493 1971.21,737.294 1961.02,749.08C1963.87,748.739 1966.73,748.922 1969.7,749.342C1973.79,749.938 1975.33,750.755 1978.91,748.473C1982.69,746.084 1986.4,743.822 1990.85,743.404C1994.37,743.08 1997.15,742.357 1999.32,739.467C2001.58,736.44 2004.52,735.084 2007.8,732.906C2004.77,738.098 2000.75,742.66 1996.26,746.64C1995.09,747.687 1993.98,748.231 1992.98,749.143L1992.43,749.687L1992.38,749.739L1991.83,750.467C1990.79,752.012 1990.36,753.949 1989.01,755.31C1987.13,757.227 1986.62,756.221 1984.22,756.729C1982.03,757.143 1981.14,758.713 1979.46,760.068C1977.57,761.645 1976.1,761.687 1973.77,762.189C1971.21,762.755 1970.5,763.514 1968.8,765.394C1967.16,767.194 1966.16,767.414 1963.62,767.184C1961.91,767.017 1959.46,765.655 1957.8,766.199C1956.17,766.703 1954.48,769.143 1952.86,770.032C1949.45,771.906 1946.46,772.275 1942.69,771.99C1940.17,771.791 1937.69,772.199 1935.21,772.294C1929.45,776.252 1923.55,779.608 1917.64,782.328L1917.41,782.755C1915.94,785.938 1915.17,788.252 1911.56,790.373C1908.52,792.163 1904.14,792.797 1901.98,795.409C1900.47,797.195 1901.48,800.326 1899.78,801.786C1897.37,803.844 1892.3,802.535 1889.2,801.99L1880.9,802.965C1877.16,797.09 1867.19,795.928 1865.82,789.352L1865.7,788.54C1859.14,786.556 1853.19,783.299 1848.14,778.703C1835.6,767.174 1831.01,749.33 1833.67,729.655C1832.96,728.299 1832.27,727.032 1831.99,725.404C1831.54,722.933 1832.06,720.535 1832.11,718.059C1832.14,715.969 1831.45,714.529 1830.91,712.545C1830.38,710.545 1830.56,708.389 1830.91,706.221C1823.36,723.566 1819.14,742.713 1819.14,762.859C1819.14,779.268 1821.97,794.996 1827.1,809.645C1836.64,814.545 1846.81,818.425 1857.47,821.068C1859.06,815.54 1864.16,811.886 1874.13,818.273Z" style="fill:rgb(238,69,93);fill-rule:nonzero;"/>
        </g>
        <g transform="matrix(4.16667,0,0,4.16667,-6932.01,-14.7188)">
            <path d="M1851.13,852.619L1850.82,852.242C1851.33,852.865 1851.84,853.473 1852.35,854.096L1851.83,853.457L1851.13,852.619Z" style="fill:rgb(238,69,93);fill-rule:nonzero;"/>
        </g>
        <g transform="matrix(4.16667,0,0,4.16667,-6932.01,-14.7188)">
            <path d="M1956.78,904.75L1957.78,904.775L1956.79,904.75L1956.78,904.75Z" style="fill:rgb(238,69,93);fill-rule:nonzero;"/>
        </g>
        <g transform="matrix(4.16667,0,0,4.16667,-6932.01,-14.7188)">
            <path d="M1848.58,849.383C1849.24,850.247 1849.91,851.101 1850.59,851.943C1849.95,851.158 1849.32,850.357 1848.7,849.535L1848.58,849.383Z" style="fill:rgb(238,69,93);fill-rule:nonzero;"/>
        </g>
        <g transform="matrix(4.16667,0,0,4.16667,-6932.01,-14.7188)">
            <path d="M1838.33,701.053C1838.77,702.451 1839.68,703.64 1840.49,704.881C1845.91,691.797 1854.19,678.702 1865.14,666.781C1870.71,660.723 1876.65,655.32 1882.78,650.619C1882.94,649.928 1883.13,649.227 1883.43,648.477C1884.82,645.048 1888.16,641.629 1892.28,638.682C1869.88,651.132 1851.2,669.445 1838.33,691.571C1839.3,693.917 1837.63,698.771 1838.33,701.053Z" style="fill:rgb(238,69,93);fill-rule:nonzero;"/>
        </g>
        <g transform="matrix(4.16667,0,0,4.16667,-6932.01,-14.7188)">
            <path d="M1840.37,837.524L1840.04,837.012C1840.85,838.314 1841.67,839.613 1842.5,840.881L1842.36,840.65C1841.68,839.624 1841.03,838.576 1840.37,837.524Z" style="fill:rgb(238,69,93);fill-rule:nonzero;"/>
        </g>
        <g transform="matrix(4.16667,0,0,4.16667,-6932.01,-14.7188)">
            <path d="M2085.96,695.268L2086.32,695.906C2085.62,694.607 2084.92,693.33 2084.2,692.053L2084.8,693.197C2085.2,693.867 2085.58,694.556 2085.96,695.268Z" style="fill:rgb(238,69,93);fill-rule:nonzero;"/>
        </g>
        <g transform="matrix(4.16667,0,0,4.16667,-6932.01,-14.7188)">
            <path d="M2072.9,675.378L2073.29,675.854C2073.12,675.635 2072.94,675.425 2072.77,675.205L2072.78,675.215L2072.9,675.378Z" style="fill:rgb(238,69,93);fill-rule:nonzero;"/>
        </g>
        <g transform="matrix(4.16667,0,0,4.16667,-6932.01,-14.7188)">
            <path d="M2090.68,704.766C2090.29,703.906 2089.9,703.059 2089.5,702.211C2089.8,702.859 2090.1,703.509 2090.39,704.137L2090.68,704.766Z" style="fill:rgb(238,69,93);fill-rule:nonzero;"/>
        </g>
        <g transform="matrix(4.16667,0,0,4.16667,-6932.01,-14.7188)">
            <path d="M2091.52,706.697C2091.33,706.278 2091.16,705.854 2090.98,705.436L2091.15,705.865C2091.27,706.137 2091.39,706.42 2091.52,706.697Z" style="fill:rgb(238,69,93);fill-rule:nonzero;"/>
        </g>
        <g transform="matrix(4.16667,0,0,4.16667,-6932.01,-14.7188)">
            <path d="M2089.47,702.143L2088.83,700.813L2089.12,701.451L2089.47,702.143Z" style="fill:rgb(238,69,93);fill-rule:nonzero;"/>
        </g>
        <g transform="matrix(4.16667,0,0,4.16667,-6932.01,-14.7188)">
            <path d="M2076.05,679.529C2075.55,678.85 2075.04,678.179 2074.54,677.509C2074.83,677.896 2075.13,678.283 2075.42,678.691L2076.05,679.529Z" style="fill:rgb(238,69,93);fill-rule:nonzero;"/>
        </g>
        <g transform="matrix(4.16667,0,0,4.16667,-6932.01,-14.7188)">
            <path d="M2079.03,683.786C2078.68,683.273 2078.32,682.766 2077.96,682.252C2078.09,682.44 2078.22,682.629 2078.35,682.822L2079.03,683.786Z" style="fill:rgb(238,69,93);fill-rule:nonzero;"/>
        </g>
        <g transform="matrix(4.16667,0,0,4.16667,-6932.01,-14.7188)">
            <path d="M2080.29,685.729C2079.97,685.236 2079.66,684.734 2079.33,684.242L2079.5,684.514C2079.77,684.912 2080.02,685.325 2080.29,685.729Z" style="fill:rgb(238,69,93);fill-rule:nonzero;"/>
        </g>
        <g transform="matrix(4.16667,0,0,4.16667,-6932.01,-14.7188)">
            <path d="M1857.99,860.414C1858.46,860.922 1858.95,861.414 1859.44,861.906L1858.27,860.703L1857.99,860.414Z" style="fill:rgb(238,69,93);fill-rule:nonzero;"/>
        </g>
        <g transform="matrix(4.16667,0,0,4.16667,-6932.01,-14.7188)">
            <path d="M1915.11,897.195L1914.92,897.132L1915.65,897.394L1915.29,897.258L1915.11,897.195Z" style="fill:rgb(238,69,93);fill-rule:nonzero;"/>
        </g>
        <g transform="matrix(4.16667,0,0,4.16667,-6932.01,-14.7188)">
            <path d="M1925.43,900.299L1926.33,900.524L1925.7,900.352L1925.43,900.299Z" style="fill:rgb(238,69,93);fill-rule:nonzero;"/>
        </g>
        <g transform="matrix(4.16667,0,0,4.16667,-6932.01,-14.7188)">
            <path d="M1905,893.289L1906.15,893.791L1906.09,893.75L1905,893.289Z" style="fill:rgb(238,69,93);fill-rule:nonzero;"/>
        </g>
        <g transform="matrix(4.16667,0,0,4.16667,-6932.01,-14.7188)">
            <path d="M1893.03,887.457L1893.88,887.917L1893.25,887.572L1893.03,887.457Z" style="fill:rgb(238,69,93);fill-rule:nonzero;"/>
        </g>
        <g transform="matrix(4.16667,0,0,4.16667,-6932.01,-14.7188)">
            <path d="M1895.54,888.791C1896.03,889.048 1896.53,889.299 1897.02,889.561L1897,889.545C1896.5,889.289 1896.03,889.048 1895.54,888.791Z" style="fill:rgb(238,69,93);fill-rule:nonzero;"/>
        </g>
        <g transform="matrix(4.16667,0,0,4.16667,-6932.01,-14.7188)">
            <path d="M1949.94,904.389L1950.44,904.42L1950.29,904.398L1949.94,904.389Z" style="fill:rgb(238,69,93);fill-rule:nonzero;"/>
        </g>
        <g transform="matrix(4.16667,0,0,4.16667,-6932.01,-14.7188)">
            <path d="M1939.01,903.111L1940,903.252L1939.9,903.236L1939.01,903.111Z" style="fill:rgb(238,69,93);fill-rule:nonzero;"/>
        </g>
        <g transform="matrix(4.16667,0,0,4.16667,-6932.01,-14.7188)">
            <path d="M1861.94,864.414C1862.84,865.299 1863.75,866.174 1864.68,867.027L1864.54,866.881C1863.66,866.08 1862.79,865.258 1861.94,864.414Z" style="fill:rgb(238,69,93);fill-rule:nonzero;"/>
        </g>
        <g transform="matrix(4.16667,0,0,4.16667,-6932.01,-14.7188)">
            <path d="M1859.9,862.389L1861.26,863.76L1861.02,863.509L1859.9,862.389Z" style="fill:rgb(238,69,93);fill-rule:nonzero;"/>
        </g>
        <g transform="matrix(4.16667,0,0,4.16667,-6932.01,-14.7188)">
            <path d="M2092.93,710.068L2092.86,709.886L2092.86,709.922L2092.93,710.068Z" style="fill:rgb(238,69,93);fill-rule:nonzero;"/>
        </g>
        <g transform="matrix(4.16667,0,0,4.16667,-6932.01,-14.7188)">
            <path d="M1867.65,869.697L1868.56,870.504L1868.23,870.199L1867.65,869.697Z" style="fill:rgb(238,69,93);fill-rule:nonzero;"/>
        </g>
        <g transform="matrix(4.16667,0,0,4.16667,-6932.01,-14.7188)">
            <path d="M1868.77,870.666L1869.17,871.017L1868.97,870.839L1868.77,870.666Z" style="fill:rgb(238,69,93);fill-rule:nonzero;"/>
        </g>
        <g transform="matrix(4.16667,0,0,4.16667,-6932.01,-14.7188)">
            <path d="M1884.39,882.326L1885.73,883.168L1884.55,882.42L1884.39,882.326Z" style="fill:rgb(238,69,93);fill-rule:nonzero;"/>
        </g>
        <g transform="matrix(4.16667,0,0,4.16667,-6932.01,-14.7188)">
            <path d="M1876.66,876.953C1876.9,877.132 1877.13,877.326 1877.37,877.504L1876.68,876.97L1876.66,876.953Z" style="fill:rgb(238,69,93);fill-rule:nonzero;"/>
        </g>
        <g transform="matrix(4.16667,0,0,4.16667,-6932.01,-14.7188)">
            <path d="M1852.64,854.43C1853.25,855.143 1853.86,855.838 1854.48,856.566L1854.42,856.493C1853.82,855.82 1853.22,855.121 1852.64,854.43Z" style="fill:rgb(238,69,93);fill-rule:nonzero;"/>
        </g>
        <g transform="matrix(4.16667,0,0,4.16667,-6932.01,-14.7188)">
            <path d="M2098.7,727.75L2098.5,727.032L2098.63,727.509L2098.7,727.75Z" style="fill:rgb(238,69,93);fill-rule:nonzero;"/>
        </g>
        <g transform="matrix(4.16667,0,0,4.16667,-6932.01,-14.7188)">
            <path d="M2100.94,738.189L2100.86,737.697L2100.91,738.059L2100.94,738.189Z" style="fill:rgb(238,69,93);fill-rule:nonzero;"/>
        </g>
        <g transform="matrix(4.16667,0,0,4.16667,-6932.01,-14.7188)">
            <path d="M2100.83,737.582L2100.77,737.268L2100.78,737.32L2100.83,737.582Z" style="fill:rgb(238,69,93);fill-rule:nonzero;"/>
        </g>
        <g transform="matrix(4.16667,0,0,4.16667,-6932.01,-14.7188)">
            <path d="M2094.86,715.168L2094.43,713.959L2094.69,714.707L2094.86,715.168Z" style="fill:rgb(238,69,93);fill-rule:nonzero;"/>
        </g>
        <g transform="matrix(4.16667,0,0,4.16667,-6932.01,-14.7188)">
            <path d="M2095.47,716.943C2095.38,716.691 2095.3,716.43 2095.21,716.179L2095.34,716.556L2095.47,716.943Z" style="fill:rgb(238,69,93);fill-rule:nonzero;"/>
        </g>
        <g transform="matrix(4.16667,0,0,4.16667,-6932.01,-14.7188)">
            <path d="M2101.45,741.383L2101.47,741.425L2101.27,740.221L2101.39,740.975L2101.45,741.383Z" style="fill:rgb(238,69,93);fill-rule:nonzero;"/>
        </g>
        <g transform="matrix(4.16667,0,0,4.16667,-6932.01,-14.7188)">
            <path d="M2096.84,721.121C2096.79,720.953 2096.73,720.786 2096.68,720.619L2096.74,720.822L2096.84,721.121Z" style="fill:rgb(238,69,93);fill-rule:nonzero;"/>
        </g>
        <g transform="matrix(4.16667,0,0,4.16667,-6932.01,-14.7188)">
            <path d="M2094.38,713.834L2094.13,713.163L2094.19,713.367L2094.38,713.834Z" style="fill:rgb(238,69,93);fill-rule:nonzero;"/>
        </g>
        <g transform="matrix(4.16667,0,0,4.16667,-6932.01,-14.7188)">
            <path d="M2103.03,759.451L2103.02,758.797L2103.02,758.943L2103.03,759.451Z" style="fill:rgb(238,69,93);fill-rule:nonzero;"/>
        </g>
        <g transform="matrix(4.16667,0,0,4.16667,-6932.01,-14.7188)">
            <path d="M1929.47,772.137C1924.89,774.99 1920,777.666 1917.64,782.328C1923.55,779.608 1929.45,776.252 1935.21,772.294C1934.02,772.336 1932.82,772.326 1931.62,772.137C1930.86,772.017 1930.16,772.053 1929.47,772.137Z" style="fill:rgb(241,96,107);fill-rule:nonzero;"/>
        </g>
        <g transform="matrix(4.16667,0,0,4.16667,-6932.01,-14.7188)">
            <path d="M1865.14,778.31C1863.34,775.053 1859.17,773.875 1856.11,771.514C1850.13,766.854 1849.31,759.655 1851.62,752.775C1850.3,752.473 1849.09,751.98 1848.12,750.891C1846.73,749.33 1847.12,747.053 1845.24,745.906C1843.29,744.734 1841.11,745.132 1839.19,743.394C1837.3,741.687 1836.38,739.498 1835.82,737.048C1835.34,734.959 1835.29,733.09 1834.4,731.132C1834.16,730.624 1833.91,730.116 1833.67,729.655C1831.01,749.33 1835.6,767.174 1848.14,778.703C1853.19,783.299 1859.14,786.556 1865.7,788.54C1865.35,785.137 1866.97,781.613 1865.14,778.31Z" style="fill:rgb(241,96,107);fill-rule:nonzero;"/>
        </g>
        <g transform="matrix(4.16667,0,0,4.16667,-6932.01,-14.7188)">
            <path d="M1933.89,638.723C1938.77,642.21 1940.66,648.456 1930.73,655.54C1925.14,659.529 1919.36,666.655 1913.43,669.32C1905.93,672.723 1900.73,670.132 1892.78,674.111C1889.82,675.592 1887.75,676.755 1885,676.938C1882.67,677.074 1880.86,676.137 1878.15,677.053C1876.29,677.676 1874.1,679.891 1872.44,680.252C1870.09,680.755 1869.62,678.42 1869.12,677.137L1865.89,675.184C1869.42,670.461 1867.36,666.697 1872.17,662.289C1874.83,659.838 1878.49,658.147 1880.72,655.378C1882.13,653.635 1882.42,652.158 1882.78,650.619C1876.65,655.32 1870.71,660.723 1865.14,666.781C1854.19,678.702 1845.91,691.797 1840.49,704.881C1840.97,705.604 1841.42,706.314 1841.72,707.121C1842.53,709.247 1841.75,711.294 1842.43,713.409C1843.45,716.607 1846.23,716.607 1848.79,718.1C1853.87,721.027 1852.12,727.54 1858.66,729.068C1862.45,729.969 1865.09,731.425 1867.66,734.436L1868.16,735.053C1868.96,734.755 1869.77,734.504 1870.58,734.305C1875.92,733.027 1881.75,732.922 1887.22,732.021C1894.86,730.766 1902.26,728.786 1910.1,728.147C1923.58,727.074 1937.99,730.096 1937.02,742.263C1936.77,745.336 1937.66,748.922 1938.39,752.473C1940.04,752.922 1941.71,753.283 1943.38,753.42C1948.04,753.771 1952.39,751.551 1956.67,750.063C1958.12,749.571 1959.56,749.263 1961.02,749.08C1971.21,737.294 1978.85,724.493 1983.78,711.781C1982.82,712.299 1981.95,712.891 1981.29,713.666C1979.8,715.457 1980.81,718.598 1979.11,720.063C1976.69,722.116 1971.62,720.797 1968.53,720.268L1960.23,721.227C1956.48,715.362 1946.52,714.199 1945.15,707.629C1944.4,703.99 1946.45,700.158 1944.48,696.588C1942.67,693.33 1938.5,692.168 1935.45,689.771C1922.07,679.414 1934.43,656.263 1949.91,652.576C1955.25,651.32 1961.08,651.205 1966.54,650.283C1971.54,649.467 1976.43,648.346 1981.41,647.477C1979.62,644.901 1977.54,642.514 1975.19,640.357C1961.48,627.76 1941.07,625.258 1919.67,631.473C1921.13,632.305 1922.45,633.31 1924,634.043C1927.28,635.624 1931.05,636.691 1933.89,638.723Z" style="fill:rgb(241,96,107);fill-rule:nonzero;"/>
        </g>
        <g transform="matrix(4.16667,0,0,4.16667,-6932.01,-14.7188)">
            <path d="M2102.7,752.655L2102.69,752.357L2102.67,752.111L2102.7,752.655Z" style="fill:rgb(235,29,64);fill-rule:nonzero;"/>
        </g>
        <g transform="matrix(4.16667,0,0,4.16667,-6932.01,-14.7188)">
            <path d="M1869.17,871.017L1869.93,871.666C1870.43,872.084 1870.94,872.504 1871.46,872.917L1872.06,873.404C1871.01,872.557 1869.99,871.719 1868.97,870.839L1869.17,871.017Z" style="fill:rgb(235,29,64);fill-rule:nonzero;"/>
        </g>
        <g transform="matrix(4.16667,0,0,4.16667,-6932.01,-14.7188)">
            <path d="M1879.07,878.713C1878.27,878.132 1877.46,877.557 1876.68,876.97L1877.37,877.504L1878.33,878.189C1878.8,878.524 1879.27,878.865 1879.75,879.195L1879.21,878.797L1879.07,878.713Z" style="fill:rgb(235,29,64);fill-rule:nonzero;"/>
        </g>
        <g transform="matrix(4.16667,0,0,4.16667,-6932.01,-14.7188)">
            <path d="M1882.49,881.059C1881.88,880.64 1881.26,880.231 1880.65,879.802L1880.84,879.959C1881.32,880.283 1881.79,880.608 1882.28,880.938L1883.41,881.676L1883.92,882.012L1883.07,881.436L1882.49,881.059Z" style="fill:rgb(235,29,64);fill-rule:nonzero;"/>
        </g>
        <g transform="matrix(4.16667,0,0,4.16667,-6932.01,-14.7188)">
            <path d="M1865.72,867.97C1866.18,868.389 1866.65,868.813 1867.11,869.216L1867.65,869.697L1868.23,870.199C1867.38,869.461 1866.55,868.713 1865.72,867.97Z" style="fill:rgb(235,29,64);fill-rule:nonzero;"/>
        </g>
        <g transform="matrix(4.16667,0,0,4.16667,-6932.01,-14.7188)">
            <path d="M1908.79,894.87L1909.67,895.195C1908.67,894.807 1907.68,894.409 1906.69,894.001C1907.39,894.294 1908.09,894.593 1908.79,894.87Z" style="fill:rgb(235,29,64);fill-rule:nonzero;"/>
        </g>
        <g transform="matrix(4.16667,0,0,4.16667,-6932.01,-14.7188)">
            <path d="M1861.63,864.116L1861.94,864.414C1862.79,865.258 1863.66,866.08 1864.54,866.881C1863.55,865.975 1862.58,865.043 1861.63,864.116Z" style="fill:rgb(235,29,64);fill-rule:nonzero;"/>
        </g>
        <g transform="matrix(4.16667,0,0,4.16667,-6932.01,-14.7188)">
            <path d="M1957.78,904.775C1958.88,904.803 1960,904.828 1961.12,904.828C1959.67,904.828 1958.23,904.791 1956.79,904.75L1957.78,904.775Z" style="fill:rgb(235,29,64);fill-rule:nonzero;"/>
        </g>
        <g transform="matrix(4.16667,0,0,4.16667,-6932.01,-14.7188)">
            <path d="M1932.66,901.97L1932.84,901.996L1932.13,901.854L1932.66,901.97Z" style="fill:rgb(235,29,64);fill-rule:nonzero;"/>
        </g>
        <g transform="matrix(4.16667,0,0,4.16667,-6932.01,-14.7188)">
            <path d="M1919.8,898.703L1919.92,898.744L1919.89,898.724L1919.8,898.703Z" style="fill:rgb(235,29,64);fill-rule:nonzero;"/>
        </g>
        <g transform="matrix(4.16667,0,0,4.16667,-6932.01,-14.7188)">
            <path d="M1921.02,899.068L1922.1,899.394L1922.91,899.613L1923.54,899.781L1922.26,899.414L1921.02,899.068Z" style="fill:rgb(235,29,64);fill-rule:nonzero;"/>
        </g>
        <g transform="matrix(4.16667,0,0,4.16667,-6932.01,-14.7188)">
            <path d="M1917.17,897.875C1917.49,897.98 1917.81,898.085 1918.13,898.189L1919.13,898.514L1919.47,898.598C1918.9,898.43 1918.36,898.242 1917.79,898.074C1917.58,898.001 1917.37,897.938 1917.17,897.875Z" style="fill:rgb(235,29,64);fill-rule:nonzero;"/>
        </g>
        <g transform="matrix(4.16667,0,0,4.16667,-6932.01,-14.7188)">
            <path d="M1945.87,904.001L1946.17,904.043L1946.44,904.074L1946.1,904.032L1945.87,904.001Z" style="fill:rgb(235,29,64);fill-rule:nonzero;"/>
        </g>
        <g transform="matrix(4.16667,0,0,4.16667,-6932.01,-14.7188)">
            <path d="M1925.7,900.352L1926.33,900.524C1926.89,900.66 1927.44,900.797 1928.01,900.934L1926.88,900.65L1925.7,900.352Z" style="fill:rgb(235,29,64);fill-rule:nonzero;"/>
        </g>
        <g transform="matrix(4.16667,0,0,4.16667,-6932.01,-14.7188)">
            <path d="M1913.9,896.755C1913.05,896.462 1912.21,896.168 1911.38,895.839L1911.89,896.053L1913.07,896.473C1913.69,896.691 1914.29,896.912 1914.92,897.132L1915.11,897.195L1913.9,896.755Z" style="fill:rgb(235,29,64);fill-rule:nonzero;"/>
        </g>
        <g transform="matrix(4.16667,0,0,4.16667,-6932.01,-14.7188)">
            <path d="M1924.39,900.021L1924.9,900.158L1924.57,900.064L1924.39,900.021Z" style="fill:rgb(235,29,64);fill-rule:nonzero;"/>
        </g>
        <g transform="matrix(4.16667,0,0,4.16667,-6932.01,-14.7188)">
            <path d="M1835.67,829.336C1836.13,830.205 1836.6,831.074 1837.09,831.943L1837.14,832.059L1837.29,832.305C1836.73,831.326 1836.2,830.326 1835.67,829.336Z" style="fill:rgb(235,29,64);fill-rule:nonzero;"/>
        </g>
        <g transform="matrix(4.16667,0,0,4.16667,-6932.01,-14.7188)">
            <path d="M1886.19,883.436C1885.65,883.09 1885.09,882.775 1884.55,882.42L1885.73,883.168L1887.15,884.043L1887.65,884.347L1887.05,883.97L1886.19,883.436Z" style="fill:rgb(235,29,64);fill-rule:nonzero;"/>
        </g>
        <g transform="matrix(4.16667,0,0,4.16667,-6932.01,-14.7188)">
            <path d="M1890.05,885.76L1889.03,885.174L1889.82,885.645L1891.19,886.42L1892.48,887.143L1891.09,886.336L1890.05,885.76Z" style="fill:rgb(235,29,64);fill-rule:nonzero;"/>
        </g>
        <g transform="matrix(4.16667,0,0,4.16667,-6932.01,-14.7188)">
            <path d="M1895.21,888.598L1894.05,888.001L1893.25,887.572L1893.88,887.917C1894.44,888.221 1894.98,888.504 1895.54,888.791C1896.03,889.048 1896.5,889.289 1897,889.545C1896.4,889.247 1895.81,888.912 1895.21,888.598Z" style="fill:rgb(235,29,64);fill-rule:nonzero;"/>
        </g>
        <g transform="matrix(4.16667,0,0,4.16667,-6932.01,-14.7188)">
            <path d="M1939,903.101L1938.17,902.965L1939.01,903.111L1939.9,903.236L1939,903.101Z" style="fill:rgb(235,29,64);fill-rule:nonzero;"/>
        </g>
        <g transform="matrix(4.16667,0,0,4.16667,-6932.01,-14.7188)">
            <path d="M1903.49,892.598L1902.39,892.127L1902.19,892.043L1903.32,892.545C1903.88,892.797 1904.44,893.048 1905,893.289L1906.09,893.75C1905.21,893.394 1904.36,892.996 1903.49,892.598Z" style="fill:rgb(235,29,64);fill-rule:nonzero;"/>
        </g>
        <g transform="matrix(4.16667,0,0,4.16667,-6932.01,-14.7188)">
            <path d="M1935.52,902.514L1935.78,902.566L1936.66,902.724L1937.01,902.775L1936.36,902.645L1935.52,902.514Z" style="fill:rgb(235,29,64);fill-rule:nonzero;"/>
        </g>
        <g transform="matrix(4.16667,0,0,4.16667,-6932.01,-14.7188)">
            <path d="M1898.17,890.127L1897.73,889.912C1898.22,890.152 1898.71,890.409 1899.19,890.64L1900.44,891.231L1901.21,891.582C1900.59,891.294 1899.98,890.996 1899.36,890.713L1898.17,890.127Z" style="fill:rgb(235,29,64);fill-rule:nonzero;"/>
        </g>
        <g transform="matrix(4.16667,0,0,4.16667,-6932.01,-14.7188)">
            <path d="M1942.62,903.608L1943.42,903.729L1944.72,903.875L1943.98,903.775L1942.62,903.608Z" style="fill:rgb(235,29,64);fill-rule:nonzero;"/>
        </g>
        <g transform="matrix(4.16667,0,0,4.16667,-6932.01,-14.7188)">
            <path d="M2091.15,705.865L2090.98,705.436L2090.68,704.766L2090.39,704.137C2090.66,704.713 2090.9,705.278 2091.15,705.865Z" style="fill:rgb(235,29,64);fill-rule:nonzero;"/>
        </g>
        <g transform="matrix(4.16667,0,0,4.16667,-6932.01,-14.7188)">
            <path d="M2088.83,700.813L2088.43,700.021L2088.43,700.012C2088.66,700.482 2088.89,700.959 2089.12,701.451L2088.83,700.813Z" style="fill:rgb(235,29,64);fill-rule:nonzero;"/>
        </g>
        <g transform="matrix(4.16667,0,0,4.16667,-6932.01,-14.7188)">
            <path d="M2086.71,696.66L2086.32,695.906L2085.96,695.268C2086.22,695.729 2086.47,696.189 2086.71,696.66Z" style="fill:rgb(235,29,64);fill-rule:nonzero;"/>
        </g>
        <g transform="matrix(4.16667,0,0,4.16667,-6932.01,-14.7188)">
            <path d="M2084.2,692.053L2084.15,691.99C2083.95,691.65 2083.75,691.33 2083.55,690.99C2083.97,691.707 2084.39,692.44 2084.8,693.197L2084.2,692.053Z" style="fill:rgb(235,29,64);fill-rule:nonzero;"/>
        </g>
        <g transform="matrix(4.16667,0,0,4.16667,-6932.01,-14.7188)">
            <path d="M2081.96,688.352L2081.58,687.75C2081.76,688.032 2081.93,688.314 2082.11,688.607C2082.05,688.524 2082.01,688.436 2081.96,688.352Z" style="fill:rgb(235,29,64);fill-rule:nonzero;"/>
        </g>
        <g transform="matrix(4.16667,0,0,4.16667,-6932.01,-14.7188)">
            <path d="M2092.55,709.152L2092.86,709.922L2092.86,709.886L2092.43,708.838C2092.41,708.802 2092.39,708.766 2092.38,708.729L2092.43,708.854L2092.55,709.152Z" style="fill:rgb(235,29,64);fill-rule:nonzero;"/>
        </g>
        <g transform="matrix(4.16667,0,0,4.16667,-6932.01,-14.7188)">
            <path d="M2094.69,714.707L2094.43,713.959L2094.38,713.834L2094.19,713.367L2094.69,714.707Z" style="fill:rgb(235,29,64);fill-rule:nonzero;"/>
        </g>
        <g transform="matrix(4.16667,0,0,4.16667,-6932.01,-14.7188)">
            <path d="M1844.21,843.404L1844.35,843.613C1844.45,843.76 1844.56,843.896 1844.66,844.037C1844.07,843.195 1843.48,842.342 1842.91,841.493C1843.33,842.121 1843.77,842.76 1844.21,843.404Z" style="fill:rgb(235,29,64);fill-rule:nonzero;"/>
        </g>
        <g transform="matrix(4.16667,0,0,4.16667,-6932.01,-14.7188)">
            <path d="M1859.66,848.755L1860.24,849.043C1857.6,845.771 1855.88,842.576 1855.73,840.199C1855.57,837.457 1856.5,835.121 1856.67,832.52C1856.91,828.881 1856.5,824.993 1857.33,821.598L1857.47,821.068C1846.81,818.425 1836.64,814.545 1827.1,809.645C1827.23,810.006 1827.35,810.367 1827.48,810.724C1828.58,813.791 1829.74,816.834 1831.04,819.791L1831.06,819.844C1831.69,821.278 1832.4,822.65 1833.07,824.053C1833.69,824.566 1834.29,825.068 1834.92,825.561C1842.21,834.247 1850.52,842.021 1859.66,848.755Z" style="fill:rgb(235,29,64);fill-rule:nonzero;"/>
        </g>
        <g transform="matrix(4.16667,0,0,4.16667,-6932.01,-14.7188)">
            <path d="M1942.15,816.179C1944.05,817.729 1946.35,818.236 1949.06,818.493C1953.52,818.901 1957.23,821.163 1961,823.561C1964.58,825.822 1966.13,825.032 1970.22,824.43C1974.69,823.771 1978.92,823.676 1983.25,825.168C1983.75,825.33 1984.25,825.52 1984.75,825.707C1985.37,824.006 1986.18,822.545 1987.87,821.068C1990.12,819.111 1993.45,818.195 1995,815.478C1996.05,813.604 1995.14,810.535 1996.38,808.975C1998.14,806.76 2002.1,807.771 2004.5,808.116L2010.85,806.65C2014,812.273 2021.72,812.828 2023.08,819.294C2023.34,820.527 2023.34,821.807 2023.3,823.101L2023.52,823.111C2031.65,815.08 2038.82,806.074 2044.84,796.294C2041.04,796.006 2037.35,794.818 2034.99,792.461C2031.16,788.613 2034.63,786.116 2035.54,782.147C2036.49,777.896 2032.06,776.059 2029.11,773.901C2025.66,771.394 2021.93,768.398 2024.83,764.032C2027.26,760.357 2032.89,758.576 2034.2,754.105C2035.46,749.739 2031,746.326 2028.88,743.063C2025.75,738.273 2026.3,733.891 2029.5,729.236C2032.72,724.545 2037.91,720.938 2040.3,715.691C2042.06,711.838 2040.62,708.545 2040.56,704.566C2040.43,694.707 2049.99,698.23 2056.21,696.607C2058.27,696.084 2060.59,693.607 2062.72,692.807C2059.37,676.891 2053.36,661.969 2045.18,648.504C2047.6,650.283 2049.95,652.158 2052.25,654.084C2051.65,653.582 2051.07,653.037 2050.45,652.54L2049.79,652.017C2048.7,651.132 2047.58,650.258 2046.46,649.404L2046.33,649.299C2045.13,648.404 2043.91,647.514 2042.67,646.65L2042.13,646.273C2041.05,645.54 2039.97,644.797 2038.88,644.074L2038.3,643.697C2037.03,642.875 2035.74,642.074 2034.45,641.278L2034.43,641.268C2033.19,640.52 2031.91,639.791 2030.64,639.068L2029.93,638.682C2028.65,637.969 2027.37,637.263 2026.06,636.598L2026.04,636.587C2031.15,651.227 2033.93,666.965 2033.93,683.346C2033.93,744.08 1995.79,795.896 1942.15,816.179Z" style="fill:rgb(235,29,64);fill-rule:nonzero;"/>
        </g>
        <g transform="matrix(4.16667,0,0,4.16667,-6932.01,-14.7188)">
            <path d="M2072.81,675.299L2072.78,675.215L2072.76,675.184L2072.76,675.189C2072.02,674.252 2071.28,673.32 2070.52,672.394L2070.5,672.361C2069.58,671.263 2068.65,670.174 2067.7,669.096L2067.08,668.409C2066.18,667.394 2065.28,666.398 2064.35,665.436L2064.12,665.174C2063.1,664.105 2062.06,663.04 2061,661.99L2060.5,661.488C2059.58,660.598 2058.66,659.729 2057.73,658.854L2057.16,658.32C2056.01,657.258 2054.79,656.268 2053.59,655.247C2060.63,661.299 2067.08,668.001 2072.81,675.299Z" style="fill:rgb(235,29,64);fill-rule:nonzero;"/>
        </g>
        <g transform="matrix(4.16667,0,0,4.16667,-6932.01,-14.7188)">
            <path d="M2074.14,676.969C2074.04,676.838 2073.94,676.702 2073.83,676.566L2073.29,675.854L2072.9,675.378C2073.32,675.901 2073.73,676.43 2074.14,676.969Z" style="fill:rgb(235,29,64);fill-rule:nonzero;"/>
        </g>
        <g transform="matrix(4.16667,0,0,4.16667,-6932.01,-14.7188)">
            <path d="M2076.96,680.822C2076.81,680.613 2076.67,680.398 2076.52,680.189L2076.05,679.529L2075.42,678.691C2075.93,679.394 2076.45,680.105 2076.96,680.822Z" style="fill:rgb(235,29,64);fill-rule:nonzero;"/>
        </g>
        <g transform="matrix(4.16667,0,0,4.16667,-6932.01,-14.7188)">
            <path d="M2079.5,684.514L2079.33,684.242L2079.03,683.786L2078.35,682.822C2078.75,683.373 2079.12,683.928 2079.5,684.514Z" style="fill:rgb(235,29,64);fill-rule:nonzero;"/>
        </g>
        <g transform="matrix(4.16667,0,0,4.16667,-6932.01,-14.7188)">
            <path d="M1848.7,849.535C1849.32,850.357 1849.95,851.158 1850.59,851.943L1850.82,852.242L1851.13,852.619C1850.31,851.593 1849.5,850.588 1848.7,849.535Z" style="fill:rgb(235,29,64);fill-rule:nonzero;"/>
        </g>
        <g transform="matrix(4.16667,0,0,4.16667,-6932.01,-14.7188)">
            <path d="M1953.27,904.598L1954.18,904.64C1953.56,904.598 1952.94,904.582 1952.34,904.545L1953.27,904.598Z" style="fill:rgb(235,29,64);fill-rule:nonzero;"/>
        </g>
        <g transform="matrix(4.16667,0,0,4.16667,-6932.01,-14.7188)">
            <path d="M1949.06,904.283C1948.46,904.252 1947.86,904.211 1947.24,904.143C1948.14,904.236 1949.04,904.305 1949.94,904.389L1950.29,904.398L1949.06,904.283Z" style="fill:rgb(235,29,64);fill-rule:nonzero;"/>
        </g>
        <g transform="matrix(4.16667,0,0,4.16667,-6932.01,-14.7188)">
            <path d="M1858.27,860.703L1859.44,861.906L1859.9,862.389L1861.02,863.509C1860.1,862.593 1859.17,861.66 1858.27,860.703Z" style="fill:rgb(235,29,64);fill-rule:nonzero;"/>
        </g>
        <g transform="matrix(4.16667,0,0,4.16667,-6932.01,-14.7188)">
            <path d="M1939.11,817.289C1924.36,822.473 1908.49,825.299 1891.97,825.299C1890.53,825.299 1889.1,825.289 1887.66,825.247C1889.84,826.441 1891.81,827.707 1893.35,829.195C1899.29,834.901 1898.82,840.703 1905.47,846.576C1907.94,848.775 1909.79,850.258 1910.99,852.766C1911.99,854.844 1911.79,856.901 1913.63,859.08C1914.91,860.566 1917.78,861.781 1918.74,863.195L1919.12,863.98C1920.67,864.021 1922.23,864.064 1923.79,864.064C1939.35,864.064 1954.33,861.545 1968.33,856.917C1967.89,853.938 1967.79,851.059 1968.72,848.566C1969.7,845.97 1971.33,843.938 1973.2,842.068C1972.49,841.791 1971.87,841.31 1971.11,840.473C1969.42,838.588 1968.71,837.844 1966.15,837.268C1963.82,836.766 1962.35,836.734 1960.45,835.163C1958.78,833.791 1957.88,832.242 1955.7,831.797C1953.29,831.305 1952.79,832.305 1950.9,830.398C1949.56,829.037 1949.12,827.101 1948.08,825.535L1947.54,824.838L1947.48,824.766L1946.94,824.211C1945.94,823.31 1944.82,822.766 1943.66,821.729C1942.06,820.314 1940.56,818.818 1939.11,817.289Z" style="fill:rgb(235,29,64);fill-rule:nonzero;"/>
        </g>
        <g transform="matrix(4.16667,0,0,4.16667,-6932.01,-14.7188)">
            <path d="M2100.82,737.571L2100.91,738.059L2100.86,737.697L2100.83,737.582L2100.78,737.32L2100.82,737.571Z" style="fill:rgb(235,29,64);fill-rule:nonzero;"/>
        </g>
        <g transform="matrix(4.16667,0,0,4.16667,-6932.01,-14.7188)">
            <path d="M2098.83,728.283L2098.7,727.75L2098.63,727.509L2098.83,728.283Z" style="fill:rgb(235,29,64);fill-rule:nonzero;"/>
        </g>
        <g transform="matrix(4.16667,0,0,4.16667,-6932.01,-14.7188)">
            <path d="M1851.83,853.457L1852.35,854.096L1852.64,854.43C1853.22,855.121 1853.82,855.82 1854.42,856.493C1853.54,855.488 1852.68,854.482 1851.83,853.457Z" style="fill:rgb(235,29,64);fill-rule:nonzero;"/>
        </g>
        <g transform="matrix(4.16667,0,0,4.16667,-6932.01,-14.7188)">
            <path d="M1915.29,897.258L1913.9,896.755L1915.11,897.195L1915.29,897.258Z" style="fill:rgb(161,27,49);fill-rule:nonzero;"/>
        </g>
        <g transform="matrix(4.16667,0,0,4.16667,-6932.01,-14.7188)">
            <path d="M2103.02,758.797L2103,758.346L2103.02,758.943L2103.02,758.797Z" style="fill:rgb(161,27,49);fill-rule:nonzero;"/>
        </g>
        <g transform="matrix(4.16667,0,0,4.16667,-6932.01,-14.7188)">
            <path d="M2100.78,737.32L2100.77,737.268L2100.67,736.729L2100.82,737.571L2100.78,737.32Z" style="fill:rgb(161,27,49);fill-rule:nonzero;"/>
        </g>
        <g transform="matrix(4.16667,0,0,4.16667,-6932.01,-14.7188)">
            <path d="M1952.34,904.545C1952.94,904.582 1953.56,904.598 1954.18,904.64L1954.27,904.645C1953.22,904.588 1952.19,904.545 1951.15,904.473L1952.34,904.545Z" style="fill:rgb(161,27,49);fill-rule:nonzero;"/>
        </g>
        <g transform="matrix(4.16667,0,0,4.16667,-6932.01,-14.7188)">
            <path d="M1859.66,848.755L1860.47,849.352L1860.24,849.043L1859.66,848.755Z" style="fill:rgb(161,27,49);fill-rule:nonzero;"/>
        </g>
        <g transform="matrix(4.16667,0,0,4.16667,-6932.01,-14.7188)">
            <path d="M1892.57,864.744C1890.36,864.088 1888.84,864.394 1887.23,864.629C1892.11,866.744 1897.13,868.598 1902.28,870.163L1902.16,870.119C1898.9,868.557 1895.96,865.791 1892.57,864.744Z" style="fill:rgb(161,27,49);fill-rule:nonzero;"/>
        </g>
        <g transform="matrix(4.16667,0,0,4.16667,-6932.01,-14.7188)">
            <path d="M1928.01,900.934L1928.59,901.068L1928.84,901.121C1928.18,900.965 1927.53,900.803 1926.88,900.65L1928.01,900.934Z" style="fill:rgb(161,27,49);fill-rule:nonzero;"/>
        </g>
        <g transform="matrix(4.16667,0,0,4.16667,-6932.01,-14.7188)">
            <path d="M1968.33,856.917C1954.33,861.545 1939.35,864.064 1923.79,864.064C1922.23,864.064 1920.67,864.021 1919.12,863.98C1919.55,865.529 1917.94,866.629 1917.08,867.425L1916.46,871.158C1912.15,870.001 1909.55,871.593 1905.99,871.258C1918,874.54 1930.63,876.326 1943.7,876.326C1952.96,876.326 1962.01,875.436 1970.77,873.739C1970.62,872.775 1970.53,871.755 1970.55,870.655C1970.62,866.482 1969.03,861.556 1968.33,856.917Z" style="fill:rgb(161,27,49);fill-rule:nonzero;"/>
        </g>
        <g transform="matrix(4.16667,0,0,4.16667,-6932.01,-14.7188)">
            <path d="M2062.72,692.807L2063.96,692.556C2067.19,692.588 2067.47,697.43 2067.93,699.891C2067.99,701.514 2068.03,703.252 2068.46,704.828C2070.65,712.682 2080.92,714.305 2077.37,724.211C2075.67,728.965 2070.98,732.922 2070.73,738.158C2070.49,743.98 2075.8,748.791 2077.62,754.053C2082.42,767.928 2064.39,770.33 2062.52,782.001C2061.59,787.75 2061.12,792.389 2055.02,794.881C2052.24,796.017 2048.48,796.561 2044.84,796.294C2038.82,806.074 2031.65,815.08 2023.52,823.111C2024.83,823.207 2026.11,823.373 2027.32,823.624C2031.14,824.409 2033.99,825.582 2038.06,825.168C2041.72,824.807 2046.46,824.42 2049.5,822.263C2052.3,820.263 2054.34,817.176 2057.48,815.645C2058.47,815.166 2059.48,815.048 2060.47,815.09C2076.35,792.174 2085.67,764.357 2085.67,734.367C2085.67,713.278 2081.05,693.268 2072.81,675.299C2067.08,668.001 2060.63,661.299 2053.59,655.247C2053.14,654.859 2052.7,654.467 2052.25,654.084C2049.95,652.158 2047.6,650.283 2045.18,648.504C2053.36,661.969 2059.37,676.891 2062.72,692.807Z" style="fill:rgb(161,27,49);fill-rule:nonzero;"/>
        </g>
        <g transform="matrix(4.16667,0,0,4.16667,-6932.01,-14.7188)">
            <path d="M1946.1,904.032L1946.44,904.074L1946.67,904.096L1946.75,904.105L1947.24,904.143C1947.86,904.211 1948.46,904.252 1949.06,904.283C1948.06,904.211 1947.08,904.127 1946.1,904.032Z" style="fill:rgb(161,27,49);fill-rule:nonzero;"/>
        </g>
        <g transform="matrix(4.16667,0,0,4.16667,-6932.01,-14.7188)">
            <path d="M1917.79,898.074C1918.36,898.242 1918.9,898.43 1919.47,898.598L1919.8,898.703L1919.89,898.724C1919.19,898.514 1918.49,898.294 1917.79,898.074Z" style="fill:rgb(161,27,49);fill-rule:nonzero;"/>
        </g>
        <g transform="matrix(4.16667,0,0,4.16667,-6932.01,-14.7188)">
            <path d="M1936.36,902.645L1937.01,902.775L1938.17,902.965L1939,903.101C1938.12,902.965 1937.24,902.797 1936.36,902.645Z" style="fill:rgb(161,27,49);fill-rule:nonzero;"/>
        </g>
        <g transform="matrix(4.16667,0,0,4.16667,-6932.01,-14.7188)">
            <path d="M1922.26,899.414L1923.54,899.781L1924.39,900.021L1924.57,900.064C1923.79,899.844 1923.03,899.629 1922.26,899.414Z" style="fill:rgb(161,27,49);fill-rule:nonzero;"/>
        </g>
        <g transform="matrix(4.16667,0,0,4.16667,-6932.01,-14.7188)">
            <path d="M1932.13,901.854L1932.84,901.996L1932.87,902.001C1932.62,901.949 1932.36,901.896 1932.11,901.844L1932.13,901.854Z" style="fill:rgb(161,27,49);fill-rule:nonzero;"/>
        </g>
        <g transform="matrix(4.16667,0,0,4.16667,-6932.01,-14.7188)">
            <path d="M1956.78,904.75L1956.79,904.75C1958.23,904.791 1959.67,904.828 1961.12,904.828C1959.54,904.828 1957.97,904.791 1956.42,904.729L1956.78,904.75Z" style="fill:rgb(161,27,49);fill-rule:nonzero;"/>
        </g>
        <g transform="matrix(4.16667,0,0,4.16667,-6932.01,-14.7188)">
            <path d="M1942.48,903.588L1942.62,903.608L1943.98,903.775C1943.48,903.713 1942.98,903.65 1942.48,903.588Z" style="fill:rgb(161,27,49);fill-rule:nonzero;"/>
        </g>
        <g transform="matrix(4.16667,0,0,4.16667,-6932.01,-14.7188)">
            <path d="M2072.78,675.215L2072.81,675.299C2081.05,693.268 2085.67,713.278 2085.67,734.367C2085.67,764.357 2076.35,792.174 2060.47,815.09C2062.6,815.174 2064.74,815.922 2066.9,815.08C2069.17,814.227 2070.76,811.247 2072.26,809.509C2074.83,806.524 2077.47,805.048 2081.26,804.158C2087.79,802.629 2086.05,796.105 2091.13,793.189C2093.69,791.711 2096.47,791.711 2097.49,788.498C2098.16,786.394 2097.39,784.338 2098.2,782.199C2099.02,780.032 2100.9,778.342 2101.58,776.143C2102.33,773.775 2100.5,768.613 2101.77,766.42C2101.77,766.389 2101.76,766.357 2101.76,766.326L2102.03,765.969L2102.57,765.624L2103.04,765.488C2103.05,764.624 2103.06,763.75 2103.06,762.859C2103.06,761.719 2103.05,760.576 2103.03,759.451L2103.02,758.943L2103,758.346C2102.97,757.582 2102.95,756.807 2102.91,756.063L2102.84,754.766C2102.8,754.053 2102.75,753.367 2102.7,752.655L2102.67,752.111L2102.6,751.33C2102.56,750.629 2102.49,749.922 2102.42,749.236L2102.42,749.227L2102.29,747.959C2102.22,747.174 2102.13,746.394 2102.03,745.613L2101.99,745.242L2101.91,744.64C2101.78,743.571 2101.63,742.498 2101.47,741.425L2101.45,741.383L2101.39,740.975L2101.27,740.221C2101.16,739.545 2101.05,738.87 2100.94,738.189L2100.91,738.059L2100.82,737.571L2100.67,736.729C2100.56,736.152 2100.45,735.551 2100.34,734.99C2100.23,734.482 2100.13,733.959 2100.01,733.445C2099.9,732.886 2099.79,732.325 2099.66,731.797C2099.54,731.268 2099.43,730.744 2099.29,730.221C2099.17,729.697 2099.04,729.184 2098.93,728.66L2098.87,728.473L2098.83,728.283L2098.63,727.509L2098.5,727.032L2098.16,725.75L2097.96,725.006L2097.87,724.682L2097.55,723.529L2097.27,722.582L2097.14,722.179L2096.84,721.121L2096.74,720.822L2096.68,720.619C2096.53,720.147 2096.38,719.676 2096.23,719.205L2095.88,718.111C2095.74,717.719 2095.6,717.33 2095.47,716.943L2095.34,716.556L2095.21,716.179L2094.86,715.168L2094.69,714.707L2094.19,713.367L2094.13,713.163L2093.82,712.383C2093.55,711.645 2093.27,710.912 2092.98,710.199L2092.93,710.068L2092.86,709.922L2092.55,709.152L2092.43,708.854L2092.38,708.729C2092.1,708.053 2091.8,707.373 2091.52,706.697C2091.39,706.42 2091.27,706.137 2091.15,705.865C2090.9,705.278 2090.66,704.713 2090.39,704.137C2090.1,703.509 2089.8,702.859 2089.5,702.211L2089.47,702.143L2089.12,701.451C2088.89,700.959 2088.66,700.482 2088.43,700.012L2088.29,699.729L2088.14,699.445C2087.75,698.629 2087.33,697.822 2086.92,697.037L2086.82,696.87L2086.8,696.817L2086.71,696.66C2086.47,696.189 2086.22,695.729 2085.96,695.268C2085.58,694.556 2085.2,693.867 2084.8,693.197C2084.39,692.44 2083.97,691.707 2083.55,690.99C2083.07,690.189 2082.6,689.383 2082.11,688.607C2081.93,688.314 2081.76,688.032 2081.58,687.75L2081.41,687.477C2081.04,686.891 2080.66,686.314 2080.29,685.729C2080.02,685.325 2079.77,684.912 2079.5,684.514C2079.12,683.928 2078.75,683.373 2078.35,682.822C2078.22,682.629 2078.09,682.44 2077.96,682.252C2077.63,681.771 2077.3,681.299 2076.96,680.822C2076.45,680.105 2075.93,679.394 2075.42,678.691C2075.13,678.283 2074.83,677.896 2074.54,677.509C2074.4,677.33 2074.27,677.147 2074.14,676.969C2073.73,676.43 2073.32,675.901 2072.9,675.378L2072.78,675.215Z" style="fill:rgb(93,1,29);fill-rule:nonzero;"/>
        </g>
        <g transform="matrix(4.16667,0,0,4.16667,-6932.01,-14.7188)">
            <path d="M2072.78,675.215L2072.77,675.205C2072.77,675.205 2072.77,675.194 2072.76,675.189L2072.76,675.184L2072.78,675.215Z" style="fill:rgb(93,1,29);fill-rule:nonzero;"/>
        </g>
        <g transform="matrix(4.16667,0,0,4.16667,-6932.01,-14.7188)">
            <path d="M2079.23,833.373C2078.28,834.227 2074.37,834.965 2073.09,835.143C2072,835.294 2070.18,834.588 2069.33,834.996C2068.35,835.473 2067.91,837.713 2066.99,838.545C2065.65,839.775 2063.5,840.414 2061.76,840.619C2060.24,840.807 2057.83,839.953 2056.46,840.588C2055.07,841.215 2055.13,842.891 2053.9,843.624C2051.15,845.258 2047.15,842.891 2044.55,843.676C2042.85,844.168 2042.5,846.357 2041.02,846.996C2039.78,847.529 2037.78,846.807 2036.54,846.566L2036.19,846.493C2037.45,857.352 2030.63,871.143 2022.01,874.54C2017.97,876.127 2013.49,876.598 2009.33,877.834C2003.5,879.561 1997.91,881.99 1991.91,883.09C1982.53,884.822 1972.41,883.205 1970.77,873.739C1962.01,875.436 1952.96,876.326 1943.7,876.326C1930.63,876.326 1918,874.54 1905.99,871.258C1904.87,871.121 1903.66,870.818 1902.28,870.163C1897.13,868.598 1892.11,866.744 1887.23,864.629C1886.57,864.724 1885.9,864.807 1885.15,864.797C1877.42,864.775 1866.61,856.854 1860.47,849.352L1859.66,848.755C1850.52,842.021 1842.21,834.247 1834.92,825.561C1834.29,825.068 1833.69,824.566 1833.07,824.053C1833.75,825.445 1834.37,826.87 1835.09,828.242L1835.25,828.582C1835.39,828.834 1835.53,829.084 1835.67,829.336C1836.2,830.326 1836.73,831.326 1837.29,832.305L1837.4,832.52L1837.56,832.807C1837.69,833.037 1837.83,833.26 1837.96,833.482C1838.59,834.576 1839.22,835.676 1839.88,836.734L1840,836.959L1840.04,837.012L1840.37,837.524C1841.03,838.576 1841.68,839.624 1842.36,840.65L1842.5,840.881L1842.8,841.32C1842.83,841.378 1842.88,841.436 1842.91,841.493C1843.48,842.342 1844.07,843.195 1844.66,844.037C1845.82,845.691 1847,847.334 1848.22,848.906L1848.58,849.383L1848.7,849.535C1849.5,850.588 1850.31,851.593 1851.13,852.619L1851.83,853.457C1852.68,854.482 1853.54,855.488 1854.42,856.493L1854.48,856.566L1854.87,857.001C1855.84,858.101 1856.84,859.189 1857.86,860.263L1857.99,860.414L1858.27,860.703C1859.17,861.66 1860.1,862.593 1861.02,863.509L1861.26,863.76L1861.63,864.116C1862.58,865.043 1863.55,865.975 1864.54,866.881L1864.68,867.027L1865.09,867.404C1865.29,867.604 1865.51,867.781 1865.72,867.97C1866.55,868.713 1867.38,869.461 1868.23,870.199L1868.56,870.504L1868.77,870.666L1868.97,870.839C1869.99,871.719 1871.01,872.557 1872.06,873.404L1872.65,873.886C1873.97,874.934 1875.31,875.949 1876.66,876.953L1876.68,876.97C1877.46,877.557 1878.27,878.132 1879.07,878.713L1879.21,878.797L1879.75,879.195C1879.76,879.199 1879.77,879.205 1879.78,879.216L1879.94,879.33L1880.65,879.802C1881.26,880.231 1881.88,880.64 1882.49,881.059L1883.07,881.436L1883.92,882.012L1884.33,882.273L1884.39,882.326L1884.55,882.42C1885.09,882.775 1885.65,883.09 1886.19,883.436L1887.05,883.97L1887.65,884.347L1888.27,884.724L1889.03,885.174L1890.05,885.76L1891.09,886.336L1892.48,887.143L1893.03,887.457L1893.25,887.572L1894.05,888.001L1895.21,888.598C1895.81,888.912 1896.4,889.247 1897,889.545L1897.02,889.561L1897.73,889.912L1898.17,890.127L1899.36,890.713C1899.98,890.996 1900.59,891.294 1901.21,891.582L1902.03,891.98L1902.04,891.98L1902.19,892.043L1902.39,892.127L1903.49,892.598C1904.36,892.996 1905.21,893.394 1906.09,893.75L1906.15,893.791L1906.69,894.001C1907.68,894.409 1908.67,894.807 1909.67,895.195L1909.75,895.227L1910.37,895.478L1911.38,895.839C1912.21,896.168 1913.05,896.462 1913.9,896.755L1915.29,897.258L1915.65,897.394L1916.12,897.529C1916.47,897.645 1916.82,897.76 1917.17,897.875C1917.37,897.938 1917.58,898.001 1917.79,898.074C1918.49,898.294 1919.19,898.514 1919.89,898.724L1919.92,898.744L1921.02,899.068L1922.26,899.414C1923.03,899.629 1923.79,899.844 1924.57,900.064L1924.9,900.158L1925.43,900.299L1925.7,900.352L1926.88,900.65C1927.53,900.803 1928.18,900.965 1928.84,901.121L1929.5,901.268L1929.81,901.352L1930.91,901.593L1931.86,901.791L1932.11,901.844C1932.36,901.896 1932.62,901.949 1932.87,902.001L1933.37,902.085L1934.6,902.336L1935.52,902.514L1936.36,902.645C1937.24,902.797 1938.12,902.965 1939,903.101L1939.9,903.236L1940,903.252L1940.99,903.394L1941.43,903.445L1942.48,903.588C1942.98,903.65 1943.48,903.713 1943.98,903.775L1944.72,903.875L1945.87,904.001L1946.1,904.032C1947.08,904.127 1948.06,904.211 1949.06,904.283L1950.29,904.398L1950.44,904.42L1951.15,904.473C1952.19,904.545 1953.22,904.588 1954.27,904.645L1954.4,904.65L1955.15,904.697L1956.42,904.729C1957.97,904.791 1959.54,904.828 1961.12,904.828C2016,904.828 2063.6,873.666 2087.23,828.084C2085.07,828.445 2082.78,828.582 2081.09,830.105C2080.04,831.048 2080.19,832.535 2079.23,833.373Z" style="fill:rgb(93,1,29);fill-rule:nonzero;"/>
        </g>
        <g transform="matrix(4.16667,0,0,4.16667,-6932.01,-14.7188)">
            <path d="M1961.12,910.666C2000.6,910.666 2037.72,895.289 2065.63,867.378C2079.45,853.556 2090.19,837.482 2097.52,819.98C2096.55,820.231 2095.59,820.445 2094.68,820.996C2092.8,822.137 2093.19,824.42 2091.79,825.99C2090.58,827.347 2088.95,827.791 2087.23,828.084C2063.6,873.666 2016,904.828 1961.12,904.828C1960,904.828 1958.88,904.803 1957.78,904.775L1956.78,904.75L1956.42,904.729L1955.15,904.697L1954.4,904.65L1954.27,904.645L1954.18,904.64L1953.27,904.598L1952.34,904.545L1951.15,904.473L1950.44,904.42L1949.94,904.389C1949.04,904.305 1948.14,904.236 1947.24,904.143L1946.75,904.105L1946.67,904.096L1946.44,904.074L1946.17,904.043L1945.87,904.001L1944.72,903.875L1943.42,903.729L1942.62,903.608L1942.48,903.588L1941.43,903.445L1940.99,903.394L1940,903.252L1939.01,903.111L1938.17,902.965L1937.01,902.775L1936.66,902.724L1935.78,902.566L1935.52,902.514L1934.6,902.336L1933.37,902.085L1932.87,902.001L1932.84,901.996L1932.66,901.97L1932.13,901.854L1932.11,901.844L1931.86,901.791L1930.91,901.593L1929.81,901.352L1929.5,901.268L1928.84,901.121L1928.59,901.068L1928.01,900.934C1927.44,900.797 1926.89,900.66 1926.33,900.524L1925.43,900.299L1924.9,900.158L1924.39,900.021L1923.54,899.781L1922.91,899.613L1922.1,899.394L1921.02,899.068L1919.92,898.744L1919.8,898.703L1919.47,898.598L1919.13,898.514L1918.13,898.189C1917.81,898.085 1917.49,897.98 1917.17,897.875C1916.82,897.76 1916.47,897.645 1916.12,897.529L1915.65,897.394L1914.92,897.132C1914.29,896.912 1913.69,896.691 1913.07,896.473L1911.89,896.053L1911.38,895.839L1910.37,895.478L1909.75,895.227L1909.67,895.195L1908.79,894.87C1908.09,894.593 1907.39,894.294 1906.69,894.001L1906.15,893.791L1905,893.289C1904.44,893.048 1903.88,892.797 1903.32,892.545L1902.19,892.043L1902.04,891.98L1902.03,891.98L1901.21,891.582L1900.44,891.231L1899.19,890.64C1898.71,890.409 1898.22,890.152 1897.73,889.912L1897.02,889.561C1896.53,889.299 1896.03,889.048 1895.54,888.791C1894.98,888.504 1894.44,888.221 1893.88,887.917L1893.03,887.457L1892.48,887.143L1891.19,886.42L1889.82,885.645L1889.03,885.174L1888.27,884.724L1887.65,884.347L1887.15,884.043L1885.73,883.168L1884.39,882.326L1884.33,882.273L1883.92,882.012L1883.41,881.676L1882.28,880.938C1881.79,880.608 1881.32,880.283 1880.84,879.959L1880.65,879.802L1879.94,879.33L1879.78,879.216C1879.77,879.205 1879.76,879.199 1879.75,879.195C1879.27,878.865 1878.8,878.524 1878.33,878.189L1877.37,877.504C1877.13,877.326 1876.9,877.132 1876.66,876.953C1875.31,875.949 1873.97,874.934 1872.65,873.886L1872.06,873.404L1871.46,872.917C1870.94,872.504 1870.43,872.084 1869.93,871.666L1869.17,871.017L1868.77,870.666L1868.56,870.504L1867.65,869.697L1867.11,869.216C1866.65,868.813 1866.18,868.389 1865.72,867.97C1865.51,867.781 1865.29,867.604 1865.09,867.404L1864.68,867.027C1863.75,866.174 1862.84,865.299 1861.94,864.414L1861.63,864.116L1861.26,863.76L1859.9,862.389L1859.44,861.906C1858.95,861.414 1858.46,860.922 1857.99,860.414L1857.86,860.263C1856.84,859.189 1855.84,858.101 1854.87,857.001L1854.48,856.566C1853.86,855.838 1853.25,855.143 1852.64,854.43L1852.35,854.096C1851.84,853.473 1851.33,852.865 1850.82,852.242L1850.59,851.943C1849.91,851.101 1849.24,850.247 1848.58,849.383L1848.22,848.906C1847,847.334 1845.82,845.691 1844.66,844.037C1844.56,843.896 1844.45,843.76 1844.35,843.613L1844.21,843.404C1843.77,842.76 1843.33,842.121 1842.91,841.493C1842.88,841.436 1842.83,841.378 1842.8,841.32L1842.5,840.881C1841.67,839.613 1840.85,838.314 1840.04,837.012L1840,836.959C1839.3,835.822 1838.63,834.66 1837.96,833.482C1837.83,833.26 1837.69,833.037 1837.56,832.807L1837.4,832.52L1837.14,832.059L1837.09,831.943C1836.6,831.074 1836.13,830.205 1835.67,829.336C1835.53,829.084 1835.39,828.834 1835.25,828.582L1835.09,828.242C1834.37,826.87 1833.75,825.445 1833.07,824.053C1832.4,822.65 1831.69,821.278 1831.06,819.844L1831.04,819.791C1829.74,816.828 1828.58,813.791 1827.48,810.724C1827.35,810.367 1827.23,810.006 1827.1,809.645C1821.97,794.996 1819.14,779.268 1819.14,762.859C1819.14,742.713 1823.36,723.566 1830.91,706.221C1831.36,703.467 1832.11,700.65 1832.09,698.032C1832.07,695.613 1831.57,693.75 1833.28,691.655C1834.05,690.713 1836.13,690.037 1837.36,690.54L1837.88,690.891L1838.16,691.236L1838.33,691.571C1851.2,669.445 1869.88,651.132 1892.28,638.682C1897.47,634.964 1903.89,632.001 1909.21,630.682C1925.29,624.357 1942.8,620.891 1961.12,620.891C1984.5,620.891 2006.59,626.545 2026.04,636.587L2026.06,636.598C2027.37,637.263 2028.65,637.969 2029.93,638.682L2030.64,639.068C2031.91,639.791 2033.19,640.52 2034.43,641.268L2034.45,641.278C2035.74,642.074 2037.03,642.875 2038.3,643.697L2038.88,644.074C2039.97,644.797 2041.05,645.54 2042.13,646.273L2042.67,646.65C2043.91,647.514 2045.13,648.404 2046.33,649.299L2046.46,649.404C2047.58,650.258 2048.7,651.132 2049.79,652.017L2050.45,652.54C2051.07,653.037 2051.65,653.582 2052.25,654.084C2052.7,654.467 2053.14,654.859 2053.59,655.247C2054.79,656.268 2056.01,657.258 2057.16,658.32L2057.73,658.854C2058.66,659.729 2059.58,660.598 2060.5,661.488L2061,661.99C2062.06,663.04 2063.1,664.105 2064.12,665.174L2064.35,665.436C2065.28,666.398 2066.18,667.394 2067.08,668.409L2067.7,669.096C2068.65,670.174 2069.58,671.263 2070.5,672.361L2070.52,672.394C2071.28,673.32 2072.02,674.252 2072.76,675.189C2072.77,675.194 2072.77,675.199 2072.77,675.199C2072.94,675.425 2073.12,675.635 2073.29,675.854L2073.83,676.566C2073.94,676.702 2074.04,676.838 2074.14,676.969C2074.27,677.147 2074.4,677.33 2074.54,677.509C2075.04,678.179 2075.55,678.85 2076.05,679.529L2076.52,680.189C2076.67,680.398 2076.81,680.613 2076.96,680.822C2077.3,681.299 2077.63,681.771 2077.96,682.252C2078.32,682.766 2078.68,683.273 2079.03,683.786L2079.33,684.242C2079.66,684.734 2079.97,685.236 2080.29,685.729C2080.66,686.314 2081.04,686.891 2081.41,687.477L2081.58,687.75L2081.96,688.352C2082.01,688.436 2082.05,688.524 2082.11,688.607C2082.6,689.383 2083.07,690.189 2083.55,690.99C2083.75,691.33 2083.95,691.65 2084.15,691.99L2084.2,692.053C2084.92,693.33 2085.62,694.607 2086.32,695.906L2086.71,696.66L2086.8,696.817L2086.82,696.87L2086.92,697.037C2087.33,697.822 2087.75,698.629 2088.14,699.445L2088.29,699.729L2088.43,700.012L2088.43,700.021L2088.83,700.813L2089.47,702.143L2089.5,702.211C2089.9,703.059 2090.29,703.906 2090.68,704.766L2090.98,705.436C2091.16,705.854 2091.33,706.278 2091.52,706.697C2091.8,707.373 2092.1,708.053 2092.38,708.729C2092.39,708.766 2092.41,708.802 2092.43,708.838L2092.86,709.886L2092.93,710.068L2092.98,710.199C2093.27,710.912 2093.55,711.645 2093.82,712.383L2094.13,713.163L2094.38,713.834L2094.43,713.959L2094.86,715.168L2095.21,716.179C2095.3,716.43 2095.38,716.691 2095.47,716.943C2095.6,717.33 2095.74,717.719 2095.88,718.111L2096.23,719.205C2096.38,719.676 2096.53,720.147 2096.68,720.619C2096.73,720.786 2096.79,720.953 2096.84,721.121L2097.14,722.179L2097.27,722.582L2097.55,723.529L2097.87,724.682L2097.96,725.006L2098.16,725.75L2098.5,727.032L2098.7,727.75L2098.83,728.283L2098.87,728.473L2098.93,728.66C2099.04,729.184 2099.17,729.697 2099.29,730.221C2099.43,730.744 2099.54,731.268 2099.66,731.797C2099.79,732.325 2099.9,732.886 2100.01,733.445C2100.13,733.959 2100.23,734.482 2100.34,734.99C2100.45,735.551 2100.56,736.152 2100.67,736.729L2100.77,737.268L2100.83,737.582L2100.86,737.697L2100.94,738.189C2101.05,738.87 2101.16,739.545 2101.27,740.221L2101.47,741.425C2101.63,742.498 2101.78,743.571 2101.91,744.64L2101.99,745.242L2102.03,745.613C2102.13,746.394 2102.22,747.174 2102.29,747.959L2102.42,749.227L2102.42,749.236C2102.49,749.922 2102.56,750.629 2102.6,751.33L2102.69,752.357L2102.7,752.655C2102.75,753.367 2102.8,754.053 2102.84,754.766L2102.91,756.063C2102.95,756.807 2102.97,757.582 2103,758.346L2103.02,758.797L2103.03,759.451C2103.05,760.576 2103.06,761.719 2103.06,762.859C2103.06,763.75 2103.05,764.624 2103.04,765.488C2104.27,765.299 2105.96,765.901 2106.63,766.734C2108.35,768.838 2107.85,770.682 2107.83,773.132C2107.81,774.43 2108.01,775.781 2108.25,777.158C2108.69,772.42 2108.92,767.676 2108.92,762.859C2108.92,723.383 2093.55,686.273 2065.63,658.336C2037.72,630.42 2000.6,615.048 1961.12,615.048C1921.63,615.048 1884.52,630.42 1856.59,658.336C1828.67,686.273 1813.3,723.383 1813.3,762.859C1813.3,802.346 1828.67,839.457 1856.59,867.378C1884.52,895.289 1921.63,910.666 1961.12,910.666Z" style="fill:rgb(247,144,55);fill-rule:nonzero;"/>
        </g>
        <g transform="matrix(4.16667,0,0,4.16667,-6932.01,-14.7188)">
            <path d="M2038.92,788.566L2039.34,787.645C2039.88,786.498 2040.54,785.096 2040.92,783.362C2042.57,776.127 2036.65,772.275 2033.81,770.409C2033.32,770.084 2032.81,769.771 2032.37,769.445C2031.78,768.996 2030.14,767.813 2029.48,767.001C2030.02,766.263 2031.22,765.362 2032.37,764.473C2034.99,762.488 2038.25,759.99 2039.5,755.645C2041.26,749.592 2037.54,745.059 2035.08,742.059C2034.46,741.32 2033.88,740.608 2033.5,740.043C2032.02,737.75 2031.67,735.865 2034.05,732.362C2035.12,730.807 2036.58,729.263 2038.12,727.64C2040.67,724.948 2043.54,721.928 2045.34,717.993C2047.21,713.901 2046.73,710.314 2046.36,707.414C2046.22,706.378 2046.1,705.425 2046.09,704.504C2046.08,703.75 2046.16,703.325 2046.22,703.137C2047.03,702.797 2049.29,702.729 2050.69,702.707C2052.84,702.65 2055.26,702.588 2057.6,701.965C2059.42,701.504 2060.93,700.524 2062.27,699.561L2062.41,700.467C2062.47,702.152 2062.56,704.236 2063.14,706.305C2064.39,710.786 2067.24,713.666 2069.54,715.969C2072.69,719.152 2073.09,719.786 2072.17,722.336C2071.72,723.629 2070.76,725.08 2069.76,726.619C2067.82,729.571 2065.43,733.247 2065.22,737.917C2065,743.236 2067.68,747.608 2069.84,751.1C2070.91,752.828 2071.91,754.445 2072.39,755.854C2073.81,759.969 2072.25,761.802 2067.05,766.378C2063.09,769.865 2058.16,774.179 2057.06,781.127L2056.93,781.886C2056.05,787.465 2055.64,788.645 2052.92,789.755C2051.25,790.43 2048.98,790.828 2046.69,790.828C2043.3,790.828 2040.34,789.969 2038.92,788.566ZM2055.02,794.881C2061.12,792.389 2061.59,787.75 2062.52,782.001C2064.39,770.33 2082.42,767.928 2077.62,754.053C2075.8,748.791 2070.49,743.98 2070.73,738.158C2070.98,732.922 2075.67,728.965 2077.37,724.211C2080.92,714.305 2070.65,712.682 2068.46,704.828C2068.03,703.252 2067.99,701.514 2067.93,699.891C2067.47,697.43 2067.19,692.588 2063.96,692.556L2062.72,692.807C2060.59,693.607 2058.27,696.084 2056.21,696.607C2049.99,698.23 2040.43,694.707 2040.56,704.566C2040.62,708.545 2042.06,711.838 2040.3,715.691C2037.91,720.938 2032.72,724.545 2029.5,729.236C2026.3,733.891 2025.75,738.273 2028.88,743.063C2031,746.326 2035.46,749.739 2034.2,754.105C2032.89,758.576 2027.26,760.357 2024.83,764.032C2021.93,768.398 2025.66,771.394 2029.11,773.901C2032.06,776.059 2036.49,777.896 2035.54,782.147C2034.63,786.116 2031.16,788.613 2034.99,792.461C2037.35,794.818 2041.04,796.006 2044.84,796.294C2048.48,796.561 2052.24,796.017 2055.02,794.881Z" style="fill:rgb(161,27,49);fill-rule:nonzero;"/>
        </g>
        <g transform="matrix(4.16667,0,0,4.16667,-6932.01,-14.7188)">
            <path d="M2056.93,781.886L2057.06,781.127C2058.16,774.179 2063.09,769.865 2067.05,766.378C2072.25,761.802 2073.81,759.969 2072.39,755.854C2071.91,754.445 2070.91,752.828 2069.84,751.1C2067.68,747.608 2065,743.236 2065.22,737.917C2065.43,733.247 2067.82,729.571 2069.76,726.619C2070.76,725.08 2071.72,723.629 2072.17,722.336C2073.09,719.786 2072.69,719.152 2069.54,715.969C2067.24,713.666 2064.39,710.786 2063.14,706.305C2062.56,704.236 2062.47,702.152 2062.41,700.467L2062.27,699.561C2060.93,700.524 2059.42,701.504 2057.6,701.965C2055.26,702.588 2052.84,702.65 2050.69,702.707C2049.29,702.729 2047.03,702.797 2046.22,703.137C2046.16,703.325 2046.08,703.75 2046.09,704.504C2046.1,705.425 2046.22,706.378 2046.36,707.414C2046.73,710.314 2047.21,713.901 2045.34,717.993C2043.54,721.928 2040.67,724.948 2038.12,727.64C2036.58,729.263 2035.12,730.807 2034.05,732.362C2031.67,735.865 2032.02,737.75 2033.5,740.043C2033.88,740.608 2034.46,741.32 2035.08,742.059C2037.54,745.059 2041.26,749.592 2039.5,755.645C2038.25,759.99 2034.99,762.488 2032.37,764.473C2031.22,765.362 2030.02,766.263 2029.48,767.001C2030.14,767.813 2031.78,768.996 2032.37,769.445C2032.81,769.771 2033.32,770.084 2033.81,770.409C2036.65,772.275 2042.57,776.127 2040.92,783.362C2040.54,785.096 2039.88,786.498 2039.34,787.645L2038.92,788.566C2040.34,789.969 2043.3,790.828 2046.69,790.828C2048.98,790.828 2051.25,790.43 2052.92,789.755C2055.64,788.645 2056.05,787.465 2056.93,781.886Z" style="fill:rgb(93,1,29);fill-rule:nonzero;"/>
        </g>
        <g transform="matrix(4.16667,0,0,4.16667,-6932.01,-14.7188)">
            <path d="M1991.49,825.247C1991.95,824.85 1992.69,824.409 1993.49,823.943C1995.43,822.775 1998.11,821.199 1999.81,818.211C2000.81,816.441 2001.02,814.629 2001.11,813.189C2001.62,813.252 2002.15,813.33 2002.65,813.425L2003.72,813.588L2004.75,813.734L2008.67,812.828C2010.33,814.496 2012.18,815.697 2013.78,816.734C2016.34,818.42 2017.41,819.205 2017.67,820.445C2017.81,821.132 2017.8,822.084 2017.77,823.143C2019.61,822.985 2021.49,822.949 2023.3,823.101C2023.34,821.807 2023.34,820.527 2023.08,819.294C2021.72,812.828 2014,812.273 2010.85,806.65L2004.5,808.116C2002.1,807.771 1998.14,806.76 1996.38,808.975C1995.14,810.535 1996.05,813.604 1995,815.478C1993.45,818.195 1990.12,819.111 1987.87,821.068C1986.18,822.545 1985.37,824.006 1984.75,825.707C1986.46,826.347 1988.2,827.037 1989.96,827.572C1990.35,826.504 1990.73,825.906 1991.49,825.247Z" style="fill:rgb(161,27,49);fill-rule:nonzero;"/>
        </g>
        <g transform="matrix(4.16667,0,0,4.16667,-6932.01,-14.7188)">
            <path d="M1968.33,856.917C1969.03,861.556 1970.62,866.482 1970.55,870.655C1970.53,871.755 1970.62,872.775 1970.77,873.739C1972.41,883.205 1982.53,884.822 1991.91,883.09C1997.91,881.99 2003.5,879.561 2009.33,877.834C2013.49,876.598 2017.97,876.127 2022.01,874.54C2030.63,871.143 2037.45,857.352 2036.19,846.493C2034.3,846.174 2033.5,846.314 2031.65,846.744L2030.67,846.922C2030.99,849.362 2030.7,851.719 2030.47,853.059C2029.17,860.414 2024.56,867.593 2019.99,869.398C2018.01,870.163 2015.75,870.655 2013.34,871.174C2011.53,871.572 2009.65,871.959 2007.75,872.535C2005.63,873.174 2003.55,873.875 2001.54,874.576C1997.88,875.828 1994.43,877.017 1990.91,877.655C1989.05,878.006 1987.26,878.189 1985.58,878.189C1981.95,878.189 1979.14,877.357 1977.67,875.854C1976.57,874.734 1976.04,873.059 1976.07,870.734C1976.13,867.425 1975.4,864.064 1974.7,860.797C1973.88,856.901 1973.01,852.875 1973.9,850.514C1974.88,847.917 1977.1,845.886 1979.68,843.551C1980.47,842.807 1981.29,842.068 1982.12,841.278C1980.45,840.755 1978,842.111 1976.29,842.263C1974.92,842.398 1974.01,842.378 1973.2,842.068C1971.33,843.938 1969.7,845.97 1968.72,848.566C1967.79,851.059 1967.89,853.938 1968.33,856.917Z" style="fill:rgb(161,27,49);fill-rule:nonzero;"/>
        </g>
        <g transform="matrix(4.16667,0,0,4.16667,-6932.01,-14.7188)">
            <path d="M1973.9,850.514C1973.01,852.875 1973.88,856.901 1974.7,860.797C1975.4,864.064 1976.13,867.425 1976.07,870.734C1976.04,873.059 1976.57,874.734 1977.67,875.854C1979.14,877.357 1981.95,878.189 1985.58,878.189C1987.26,878.189 1989.05,878.006 1990.91,877.655C1994.43,877.017 1997.88,875.828 2001.54,874.576C2003.55,873.875 2005.63,873.174 2007.75,872.535C2009.65,871.959 2011.53,871.572 2013.34,871.174C2015.75,870.655 2018.01,870.163 2019.99,869.398C2024.56,867.593 2029.17,860.414 2030.47,853.059C2030.7,851.719 2030.99,849.362 2030.67,846.922C2029.23,847.143 2028.65,846.791 2026.77,845.822C2021.95,843.347 2019.11,848.221 2014.07,847.828C2012.06,847.655 2010.35,846.891 2008.3,847.221C2004.56,847.828 2000.94,846.791 1997.24,847.068C1993.46,847.373 1990.47,846.996 1987.06,845.121C1985.44,844.231 1983.75,841.771 1982.13,841.278L1982.12,841.278C1981.29,842.068 1980.47,842.807 1979.68,843.551C1977.1,845.886 1974.88,847.917 1973.9,850.514Z" style="fill:rgb(93,1,29);fill-rule:nonzero;"/>
        </g>
        <g transform="matrix(4.16667,0,0,4.16667,-6932.01,-14.7188)">
            <path d="M2017.67,820.445C2017.41,819.205 2016.34,818.42 2013.78,816.734C2012.18,815.697 2010.33,814.496 2008.67,812.828L2004.75,813.734L2003.72,813.588L2002.65,813.425C2002.15,813.33 2001.62,813.252 2001.11,813.189C2001.02,814.629 2000.81,816.441 1999.81,818.211C1998.11,821.199 1995.43,822.775 1993.49,823.943C1992.69,824.409 1991.95,824.85 1991.49,825.247C1990.73,825.906 1990.35,826.504 1989.96,827.572C1992.09,828.242 1994.28,828.66 1996.53,828.498C2001.68,828.096 2006.73,825.635 2011.64,824.231C2013.56,823.687 2015.65,823.33 2017.77,823.143C2017.8,822.084 2017.81,821.132 2017.67,820.445Z" style="fill:rgb(93,1,29);fill-rule:nonzero;"/>
        </g>
        <g transform="matrix(4.16667,0,0,4.16667,-6932.01,-14.7188)">
            <path d="M1912.68,864.147L1912.25,864.545L1911.87,866.859C1909.96,866.734 1908.4,866.953 1907.06,867.147C1904.9,867.457 1903.91,867.54 1902.79,866.996C1902.05,866.64 1901.07,865.985 1900.05,865.32C1897.89,863.901 1895.2,862.137 1891.96,861.132C1888.55,860.084 1886.23,860.457 1884.54,860.703C1883.89,860.807 1883.27,860.891 1882.72,860.886C1878.72,860.875 1873.49,857.163 1871.43,855.572C1865.59,851.048 1860.87,845.08 1860.69,841.98C1860.6,840.64 1860.86,839.33 1861.13,837.938C1861.32,836.881 1861.54,835.781 1861.62,834.601C1861.7,833.289 1861.71,831.933 1861.72,830.629C1861.73,828.252 1861.74,826.012 1862.22,824.017C1862.48,822.985 1862.86,822.053 1863.35,821.278C1864.41,819.572 1865.94,818.713 1867.63,818.807C1868.9,818.901 1870.47,819.561 1872.44,820.807C1875.22,822.588 1878.29,824.048 1881.25,825.478C1884.78,827.152 1888.45,828.891 1890.19,830.566C1892.1,832.409 1893.16,834.524 1894.39,836.985C1896.07,840.336 1897.98,844.137 1902.57,848.199L1903.28,848.828C1905.29,850.608 1905.89,851.158 1906.4,852.221C1906.6,852.66 1906.76,853.236 1906.93,853.854C1907.33,855.375 1907.88,857.457 1909.91,859.854C1911.12,861.258 1912.58,862.336 1913.79,863.137L1913.13,863.734L1912.68,864.147ZM1916.46,871.158L1917.08,867.425C1917.94,866.629 1919.55,865.529 1919.12,863.98L1918.74,863.195C1917.78,861.781 1914.91,860.566 1913.63,859.08C1911.79,856.901 1911.99,854.844 1910.99,852.766C1909.79,850.258 1907.94,848.775 1905.47,846.576C1898.82,840.703 1899.29,834.901 1893.35,829.195C1891.81,827.707 1889.84,826.441 1887.66,825.247C1883.23,822.802 1878,820.755 1874.13,818.273C1864.16,811.886 1859.06,815.54 1857.47,821.068L1857.33,821.598C1856.5,824.993 1856.91,828.881 1856.67,832.52C1856.5,835.121 1855.57,837.457 1855.73,840.199C1855.88,842.576 1857.6,845.771 1860.24,849.043L1860.47,849.352C1866.61,856.854 1877.42,864.775 1885.15,864.797C1885.9,864.807 1886.57,864.724 1887.23,864.629C1888.84,864.394 1890.36,864.088 1892.57,864.744C1895.96,865.791 1898.9,868.557 1902.16,870.119L1902.28,870.163C1903.66,870.818 1904.87,871.121 1905.99,871.258C1909.55,871.593 1912.15,870.001 1916.46,871.158Z" style="fill:rgb(161,27,49);fill-rule:nonzero;"/>
        </g>
        <g transform="matrix(4.16667,0,0,4.16667,-6932.01,-14.7188)">
            <path d="M1909.91,859.854C1907.88,857.457 1907.33,855.375 1906.93,853.854C1906.76,853.236 1906.6,852.66 1906.4,852.221C1905.89,851.158 1905.29,850.608 1903.28,848.828L1902.57,848.199C1897.98,844.137 1896.07,840.336 1894.39,836.985C1893.16,834.524 1892.1,832.409 1890.19,830.566C1888.45,828.891 1884.78,827.152 1881.25,825.478C1878.29,824.048 1875.22,822.588 1872.44,820.807C1870.47,819.561 1868.9,818.901 1867.63,818.807C1865.94,818.713 1864.41,819.572 1863.35,821.278C1862.86,822.053 1862.48,822.985 1862.22,824.017C1861.74,826.012 1861.73,828.252 1861.72,830.629C1861.71,831.933 1861.7,833.289 1861.62,834.601C1861.54,835.781 1861.32,836.881 1861.13,837.938C1860.86,839.33 1860.6,840.64 1860.69,841.98C1860.87,845.08 1865.59,851.048 1871.43,855.572C1873.49,857.163 1878.72,860.875 1882.72,860.886C1883.27,860.891 1883.89,860.807 1884.54,860.703C1886.23,860.457 1888.55,860.084 1891.96,861.132C1895.2,862.137 1897.89,863.901 1900.05,865.32C1901.07,865.985 1902.05,866.64 1902.79,866.996C1903.91,867.54 1904.9,867.457 1907.06,867.147C1908.4,866.953 1909.96,866.734 1911.87,866.859L1912.25,864.545L1912.68,864.147L1913.13,863.734L1913.79,863.137C1912.58,862.336 1911.12,861.258 1909.91,859.854Z" style="fill:rgb(93,1,29);fill-rule:nonzero;"/>
        </g>
        <g transform="matrix(4.16667,0,0,4.16667,-6932.01,-14.7188)">
            <path d="M1887.96,647.687C1889.47,643.964 1894.86,640.498 1897.11,639.174C1903.48,635.445 1910.78,633.268 1913.72,634.252C1915,634.682 1916.11,635.414 1917.31,636.168C1918.22,636.755 1919.15,637.352 1920.22,637.854C1921.42,638.44 1922.67,638.938 1923.88,639.43C1926.07,640.325 1928.15,641.174 1929.8,642.357C1930.68,642.984 1931.4,643.676 1931.95,644.43L1931.96,644.43C1933.12,646.053 1933.37,647.781 1932.63,649.32C1932.09,650.451 1930.89,651.687 1929,653.043C1926.3,654.953 1923.81,657.247 1921.39,659.488C1918.51,662.137 1915.53,664.896 1913.33,665.875C1910.91,666.975 1908.55,667.163 1905.82,667.394C1902.09,667.707 1897.84,668.063 1892.36,670.817L1891.51,671.236C1889.13,672.436 1888.39,672.797 1887.2,672.881C1886.72,672.901 1886.13,672.817 1885.49,672.755C1883.92,672.556 1881.78,672.31 1878.81,673.31C1877.06,673.886 1875.53,674.87 1874.32,675.676L1874.01,674.854L1873.8,674.273L1873.59,673.729L1871.59,672.514C1872.41,670.786 1872.78,669.258 1873.1,667.933C1873.63,665.802 1873.93,664.859 1874.83,664.032C1875.45,663.477 1876.4,662.814 1877.42,662.1C1879.54,660.629 1882.17,658.794 1884.31,656.158C1886.54,653.394 1887.08,651.1 1887.47,649.436C1887.62,648.797 1887.76,648.189 1887.96,647.687ZM1883.43,648.477C1883.13,649.227 1882.94,649.928 1882.78,650.619C1882.42,652.158 1882.13,653.635 1880.72,655.378C1878.49,658.147 1874.83,659.838 1872.17,662.289C1867.36,666.697 1869.42,670.461 1865.89,675.184L1869.12,677.137C1869.62,678.42 1870.09,680.755 1872.44,680.252C1874.1,679.891 1876.29,677.676 1878.15,677.053C1880.86,676.137 1882.67,677.074 1885,676.938C1887.75,676.755 1889.82,675.592 1892.78,674.111C1900.73,670.132 1905.93,672.723 1913.43,669.32C1919.36,666.655 1925.14,659.529 1930.73,655.54C1940.66,648.456 1938.77,642.21 1933.89,638.723C1931.05,636.691 1927.28,635.624 1924,634.043C1922.45,633.31 1921.13,632.305 1919.67,631.473C1918.92,631.027 1918.12,630.629 1917.22,630.341C1915.31,629.687 1912.47,629.886 1909.21,630.682C1903.89,632.001 1897.47,634.964 1892.28,638.682C1888.16,641.629 1884.82,645.048 1883.43,648.477Z" style="fill:rgb(241,96,107);fill-rule:nonzero;"/>
        </g>
        <g transform="matrix(4.16667,0,0,4.16667,-6932.01,-14.7188)">
            <path d="M1877.42,662.1C1876.4,662.814 1875.45,663.477 1874.83,664.032C1873.93,664.859 1873.63,665.802 1873.1,667.933C1872.78,669.258 1872.41,670.786 1871.59,672.514L1873.59,673.729L1873.8,674.273L1874.01,674.854L1874.32,675.676C1875.53,674.87 1877.06,673.886 1878.81,673.31C1881.78,672.31 1883.92,672.556 1885.49,672.755C1886.13,672.817 1886.72,672.901 1887.2,672.881C1888.39,672.797 1889.13,672.436 1891.51,671.236L1892.36,670.817C1897.84,668.063 1902.09,667.707 1905.82,667.394C1908.55,667.163 1910.91,666.975 1913.33,665.875C1915.53,664.896 1918.51,662.137 1921.39,659.488C1923.81,657.247 1926.3,654.953 1929,653.043C1930.89,651.687 1932.09,650.451 1932.63,649.32C1933.37,647.781 1933.12,646.053 1931.96,644.43L1931.95,644.43C1931.4,643.676 1930.68,642.984 1929.8,642.357C1928.15,641.174 1926.07,640.325 1923.88,639.43C1922.67,638.938 1921.42,638.44 1920.22,637.854C1919.15,637.352 1918.22,636.755 1917.31,636.168C1916.11,635.414 1915,634.682 1913.72,634.252C1910.78,633.268 1903.48,635.445 1897.11,639.174C1894.86,640.498 1889.47,643.964 1887.96,647.687C1887.76,648.189 1887.62,648.797 1887.47,649.436C1887.08,651.1 1886.54,653.394 1884.31,656.158C1882.17,658.794 1879.54,660.629 1877.42,662.1Z" style="fill:rgb(238,69,93);fill-rule:nonzero;"/>
        </g>
        <g transform="matrix(4.16667,0,0,4.16667,-6932.01,-14.7188)">
            <path d="M1976.43,654.179C1981.25,653.21 1985.8,652.283 1990.39,651.943C1992.82,651.738 1995.15,651.697 1997.32,651.838L1997.33,651.838C2002.03,652.127 2005.62,653.168 2007.44,654.791C2008.79,655.969 2009.37,657.691 2009.18,660.017C2008.92,663.314 2009.65,666.744 2010.35,670.048C2011.19,674.001 2012.06,678.1 2010.77,680.383C2009.34,682.891 2006.33,684.744 2002.86,686.881C1998.09,689.802 1992.69,693.121 1989.98,699.017L1989.56,699.938C1988.39,702.504 1987.99,703.273 1986.42,704.189C1985.81,704.545 1984.81,704.943 1983.76,705.346C1981.17,706.346 1977.62,707.713 1975.24,710.571C1973.83,712.258 1973.44,714.027 1973.25,715.467C1972.59,715.373 1971.9,715.236 1971.26,715.132C1970.77,715.027 1970.32,714.943 1969.89,714.859L1968.57,714.645L1963.43,715.236C1961.37,713.43 1959.05,712.084 1957.05,710.912C1953.82,709.059 1952.49,708.184 1952.23,706.933C1952.06,706.084 1952.19,704.943 1952.32,703.707C1952.59,701.143 1952.94,697.948 1951.05,694.545C1949.07,690.984 1945.58,688.99 1943.02,687.54C1942.03,686.975 1941.1,686.451 1940.45,685.938C1935.67,682.23 1936.89,675.891 1937.63,673.361C1939.77,666.115 1946.16,659.32 1952.23,657.886C1954.83,657.247 1957.8,656.953 1960.92,656.624C1963.3,656.383 1965.77,656.127 1968.26,655.707C1971.06,655.252 1973.79,654.702 1976.43,654.179ZM1949.91,652.576C1934.43,656.263 1922.07,679.414 1935.45,689.771C1938.5,692.168 1942.67,693.33 1944.48,696.588C1946.45,700.158 1944.4,703.99 1945.15,707.629C1946.52,714.199 1956.48,715.362 1960.23,721.227L1968.53,720.268C1971.62,720.797 1976.69,722.116 1979.11,720.063C1980.81,718.598 1979.8,715.457 1981.29,713.666C1981.95,712.891 1982.82,712.299 1983.78,711.781C1986.01,710.588 1988.76,709.886 1990.88,708.629C1994.5,706.524 1995.27,704.221 1996.74,701.021C2000.68,692.482 2012.93,690.54 2017.36,682.729C2020.85,676.551 2015.79,667.361 2016.34,660.535C2017.31,648.367 2002.91,645.352 1989.43,646.42C1986.71,646.65 1984.04,647.027 1981.41,647.477C1976.43,648.346 1971.54,649.467 1966.54,650.283C1961.08,651.205 1955.25,651.32 1949.91,652.576Z" style="fill:rgb(238,69,93);fill-rule:nonzero;"/>
        </g>
        <g transform="matrix(4.16667,0,0,4.16667,-6932.01,-14.7188)">
            <path d="M1952.23,657.886C1946.16,659.32 1939.77,666.115 1937.63,673.361C1936.89,675.891 1935.67,682.23 1940.45,685.938C1941.1,686.451 1942.03,686.975 1943.02,687.54C1945.58,688.99 1949.07,690.984 1951.05,694.545C1952.94,697.948 1952.59,701.143 1952.32,703.707C1952.19,704.943 1952.06,706.084 1952.23,706.933C1952.49,708.184 1953.82,709.059 1957.05,710.912C1959.05,712.084 1961.37,713.43 1963.43,715.236L1968.57,714.645L1969.89,714.859C1970.32,714.943 1970.77,715.027 1971.26,715.132C1971.9,715.236 1972.59,715.373 1973.25,715.467C1973.44,714.027 1973.83,712.258 1975.24,710.571C1977.62,707.713 1981.17,706.346 1983.76,705.346C1984.81,704.943 1985.81,704.545 1986.42,704.189C1987.99,703.273 1988.39,702.504 1989.56,699.938L1989.98,699.017C1992.69,693.121 1998.09,689.802 2002.86,686.881C2006.33,684.744 2009.34,682.891 2010.77,680.383C2012.06,678.1 2011.19,674.001 2010.35,670.048C2009.65,666.744 2008.92,663.314 2009.18,660.017C2009.37,657.691 2008.79,655.969 2007.44,654.791C2005.62,653.168 2002.03,652.127 1997.33,651.838L1997.32,651.838C1995.15,651.697 1992.82,651.738 1990.39,651.943C1985.8,652.283 1981.25,653.21 1976.43,654.179C1973.79,654.702 1971.06,655.252 1968.26,655.707C1965.77,656.127 1963.3,656.383 1960.92,656.624C1957.8,656.953 1954.83,657.247 1952.23,657.886Z" style="fill:rgb(235,29,64);fill-rule:nonzero;"/>
        </g>
        <g transform="matrix(4.16667,0,0,4.16667,-6932.01,-14.7188)">
            <path d="M1929.47,772.137C1928.27,772.294 1927.12,772.645 1925.84,772.739C1923.43,772.933 1921.52,771.906 1919.65,771.068C1916.08,773.478 1912.64,776.42 1910.65,780.739L1910.23,781.658C1909.07,784.231 1908.66,784.996 1907.1,785.928C1906.48,786.278 1905.49,786.671 1904.44,787.068C1901.84,788.068 1898.29,789.445 1895.91,792.305C1894.49,793.98 1894.11,795.76 1893.92,797.205C1893.26,797.111 1892.57,796.965 1891.93,796.859C1891.44,796.766 1890.99,796.666 1890.56,796.588L1889.24,796.367L1884.1,796.965C1882.04,795.152 1879.72,793.813 1877.71,792.64C1874.49,790.775 1873.16,789.906 1872.91,788.655C1872.73,787.813 1872.85,786.66 1873,785.436C1873.27,782.87 1873.61,779.676 1871.73,776.273C1869.75,772.713 1866.25,770.713 1863.69,769.263C1862.7,768.691 1861.77,768.184 1861.12,767.676C1856.34,763.969 1857.57,757.624 1858.32,755.074L1858.44,754.713C1856.49,753.263 1853.9,753.305 1851.62,752.775C1849.31,759.655 1850.13,766.854 1856.11,771.514C1859.17,773.875 1863.34,775.053 1865.14,778.31C1866.97,781.613 1865.35,785.137 1865.7,788.54L1865.82,789.352C1867.19,795.928 1877.16,797.09 1880.9,802.965L1889.2,801.99C1892.3,802.535 1897.37,803.844 1899.78,801.786C1901.48,800.326 1900.47,797.195 1901.98,795.409C1904.14,792.797 1908.52,792.163 1911.56,790.373C1915.17,788.252 1915.94,785.938 1917.41,782.755L1917.64,782.328C1920,777.666 1924.89,774.99 1929.47,772.137Z" style="fill:rgb(238,69,93);fill-rule:nonzero;"/>
        </g>
        <g transform="matrix(4.16667,0,0,4.16667,-6932.01,-14.7188)">
            <path d="M1910.1,728.147C1902.26,728.786 1894.86,730.766 1887.22,732.021C1881.75,732.922 1875.92,733.027 1870.58,734.305C1869.77,734.504 1868.96,734.755 1868.16,735.053C1869.39,736.65 1870.73,738.768 1872.47,739.729L1872.9,739.598C1875.5,738.985 1878.46,738.682 1881.6,738.346C1883.97,738.098 1886.44,737.844 1888.93,737.43C1891.73,736.975 1894.46,736.43 1897.11,735.896C1901.92,734.943 1906.46,734.021 1911.07,733.676C1913.49,733.467 1915.82,733.445 1918,733.561C1922.69,733.859 1926.29,734.891 1928.11,736.504C1929.47,737.707 1930.04,739.425 1929.86,741.75C1929.65,744.42 1930.08,747.174 1930.63,749.886C1933.19,750.744 1935.77,751.739 1938.39,752.473C1937.66,748.922 1936.77,745.336 1937.02,742.263C1937.99,730.096 1923.58,727.074 1910.1,728.147Z" style="fill:rgb(238,69,93);fill-rule:nonzero;"/>
        </g>
        <g transform="matrix(4.16667,0,0,4.16667,-6932.01,-14.7188)">
            <path d="M1928.11,736.504C1926.29,734.891 1922.69,733.859 1918,733.561C1915.82,733.445 1913.49,733.467 1911.07,733.676C1906.46,734.021 1901.92,734.943 1897.11,735.896C1894.46,736.43 1891.73,736.975 1888.93,737.43C1886.44,737.844 1883.97,738.098 1881.6,738.346C1878.46,738.682 1875.5,738.985 1872.9,739.598L1872.47,739.729L1873.03,740.012C1876.2,741.205 1879.33,739.043 1882.44,740.545C1885.58,742.096 1887.61,745.194 1890.4,747.184C1893.45,749.342 1898.19,749.719 1901.84,750.084C1905.92,750.493 1908.78,749.33 1912.59,748.535C1917.57,747.524 1923.45,747.755 1928.27,749.143C1929.06,749.373 1929.84,749.624 1930.63,749.886C1930.08,747.174 1929.65,744.42 1929.86,741.75C1930.04,739.425 1929.47,737.707 1928.11,736.504Z" style="fill:rgb(235,29,64);fill-rule:nonzero;"/>
        </g>
        <g transform="matrix(4.16667,0,0,4.16667,-6932.01,-14.7188)">
            <path d="M1861.12,767.676C1861.77,768.184 1862.7,768.691 1863.69,769.263C1866.25,770.713 1869.75,772.713 1871.73,776.273C1873.61,779.676 1873.27,782.87 1873,785.436C1872.85,786.66 1872.73,787.813 1872.91,788.655C1873.16,789.906 1874.49,790.775 1877.71,792.64C1879.72,793.813 1882.04,795.152 1884.1,796.965L1889.24,796.367L1890.56,796.588C1890.99,796.666 1891.44,796.766 1891.93,796.859C1892.57,796.965 1893.26,797.111 1893.92,797.205C1894.11,795.76 1894.49,793.98 1895.91,792.305C1898.29,789.445 1901.84,788.068 1904.44,787.068C1905.49,786.671 1906.48,786.278 1907.1,785.928C1908.66,784.996 1909.07,784.231 1910.23,781.658L1910.65,780.739C1912.64,776.42 1916.08,773.478 1919.65,771.068C1917.63,770.158 1915.65,769.457 1913.14,770.744C1910.89,771.906 1910.53,772.168 1908.28,771.65C1906.31,771.194 1905.53,771.068 1903.37,771.482C1902.13,771.729 1900.14,772.451 1898.89,771.917C1897.42,771.278 1897.07,769.09 1895.37,768.598C1892.77,767.822 1888.76,770.179 1886.01,768.545C1884.78,767.822 1884.85,766.147 1883.47,765.498C1882.09,764.87 1879.68,765.723 1878.16,765.529C1876.41,765.33 1874.27,764.687 1872.93,763.473C1872.01,762.64 1871.57,760.409 1870.59,759.917C1869.74,759.504 1867.92,760.227 1866.84,760.059C1865.56,759.875 1861.64,759.137 1860.69,758.283C1859.73,757.445 1859.88,755.949 1858.83,755.021L1858.44,754.713L1858.32,755.074C1857.57,757.624 1856.34,763.969 1861.12,767.676Z" style="fill:rgb(235,29,64);fill-rule:nonzero;"/>
        </g>
        <g transform="matrix(4.16667,0,0,4.16667,-6932.01,-14.7188)">
            <path d="M2101.58,776.143C2100.9,778.342 2099.02,780.032 2098.2,782.199C2097.39,784.338 2098.16,786.394 2097.49,788.498C2096.47,791.711 2093.69,791.711 2091.13,793.189C2086.05,796.105 2087.79,802.629 2081.26,804.158C2077.47,805.048 2074.83,806.524 2072.26,809.509C2070.76,811.247 2069.17,814.227 2066.9,815.08C2064.74,815.922 2062.6,815.174 2060.47,815.09C2059.48,815.048 2058.47,815.166 2057.48,815.645C2054.34,817.176 2052.3,820.263 2049.5,822.263C2046.46,824.42 2041.72,824.807 2038.06,825.168C2033.99,825.582 2031.14,824.409 2027.32,823.624C2026.11,823.373 2024.83,823.207 2023.52,823.111L2023.3,823.101C2021.49,822.949 2019.61,822.985 2017.77,823.143C2015.65,823.33 2013.56,823.687 2011.64,824.231C2006.73,825.635 2001.68,828.096 1996.53,828.498C1994.28,828.66 1992.09,828.242 1989.96,827.572C1988.2,827.037 1986.46,826.347 1984.75,825.707C1984.25,825.52 1983.75,825.33 1983.25,825.168C1978.92,823.676 1974.69,823.771 1970.22,824.43C1966.13,825.032 1964.58,825.822 1961,823.561C1957.23,821.163 1953.52,818.901 1949.06,818.493C1946.35,818.236 1944.05,817.729 1942.15,816.179C1941.6,815.729 1941.08,815.205 1940.6,814.545C1938.34,811.514 1935.4,810.189 1932.12,807.985C1934.08,811.352 1936.46,814.441 1939.11,817.289C1940.56,818.818 1942.06,820.314 1943.66,821.729C1944.82,822.766 1945.94,823.31 1946.94,824.211C1947.63,824.283 1948.36,824.137 1949.62,824.394C1951.79,824.838 1952.7,826.398 1954.36,827.76C1956.26,829.32 1957.73,829.362 1960.06,829.886C1962.63,830.441 1963.34,831.184 1965.03,833.08C1966.66,834.886 1967.67,835.09 1970.21,834.859C1971.92,834.703 1974.37,833.342 1976.04,833.875C1977.67,834.389 1979.34,836.818 1980.98,837.713C1984.39,839.582 1987.37,839.953 1991.14,839.676C1994.86,839.394 1998.47,840.414 2002.21,839.818C2004.26,839.488 2005.96,840.263 2007.99,840.414C2013.02,840.807 2015.87,835.959 2020.69,838.43C2022.94,839.582 2023.3,839.859 2025.56,839.33C2027.52,838.875 2028.3,838.755 2030.46,839.163C2031.7,839.404 2033.68,840.147 2034.93,839.582C2036.42,838.965 2036.77,836.766 2038.46,836.263C2041.07,835.509 2045.07,837.854 2047.82,836.221C2049.04,835.509 2048.98,833.813 2050.36,833.189C2051.75,832.545 2054.15,833.404 2055.68,833.227C2057.42,833.012 2059.55,832.367 2060.9,831.152C2061.81,830.32 2062.26,828.068 2063.24,827.582C2064.09,827.163 2065.91,827.906 2067,827.75C2068.27,827.551 2072.19,826.813 2073.14,825.97C2074.1,825.137 2073.96,823.645 2075,822.707C2078.04,819.969 2082.96,821.682 2085.71,818.576C2087.1,817.012 2086.71,814.739 2088.59,813.588C2090.54,812.409 2092.71,812.818 2094.65,811.059C2096.53,809.373 2097.46,807.174 2098.01,804.744C2098.5,802.64 2098.54,800.766 2099.43,798.813C2100.32,796.85 2101.45,795.268 2101.85,793.096C2102.29,790.588 2101.77,788.231 2101.73,785.755C2101.69,783.655 2102.39,782.221 2102.91,780.215C2104.05,775.886 2101.95,770.928 2101.77,766.42C2100.5,768.613 2102.33,773.775 2101.58,776.143Z" style="fill:rgb(254,193,57);fill-rule:nonzero;"/>
        </g>
        <g transform="matrix(4.16667,0,0,4.16667,-6932.01,-14.7188)">
            <path d="M2106.63,766.734C2105.96,765.901 2104.27,765.299 2103.04,765.488L2102.57,765.624L2102.03,765.969L2101.76,766.326C2101.76,766.357 2101.77,766.389 2101.77,766.42C2101.95,770.928 2104.05,775.886 2102.91,780.215C2102.39,782.221 2101.69,783.655 2101.73,785.755C2101.77,788.231 2102.29,790.588 2101.85,793.096C2101.45,795.268 2100.32,796.85 2099.43,798.813C2098.54,800.766 2098.5,802.64 2098.01,804.744C2097.46,807.174 2096.53,809.373 2094.65,811.059C2092.71,812.818 2090.54,812.409 2088.59,813.588C2086.71,814.739 2087.1,817.012 2085.71,818.576C2082.96,821.682 2078.04,819.969 2075,822.707C2073.96,823.645 2074.1,825.137 2073.14,825.97C2072.19,826.813 2068.27,827.551 2067,827.75C2065.91,827.906 2064.09,827.163 2063.24,827.582C2062.26,828.068 2061.81,830.32 2060.9,831.152C2059.55,832.367 2057.42,833.012 2055.68,833.227C2054.15,833.404 2051.75,832.545 2050.36,833.189C2048.98,833.813 2049.04,835.509 2047.82,836.221C2045.07,837.854 2041.07,835.509 2038.46,836.263C2036.77,836.766 2036.42,838.965 2034.93,839.582C2033.68,840.147 2031.7,839.404 2030.46,839.163C2028.3,838.755 2027.52,838.875 2025.56,839.33C2023.3,839.859 2022.94,839.582 2020.69,838.43C2015.87,835.959 2013.02,840.807 2007.99,840.414C2005.96,840.263 2004.26,839.488 2002.21,839.818C1998.47,840.414 1994.86,839.394 1991.14,839.676C1987.37,839.953 1984.39,839.582 1980.98,837.713C1979.34,836.818 1977.67,834.389 1976.04,833.875C1974.37,833.342 1971.92,834.703 1970.21,834.859C1967.67,835.09 1966.66,834.886 1965.03,833.08C1963.34,831.184 1962.63,830.441 1960.06,829.886C1957.73,829.362 1956.26,829.32 1954.36,827.76C1952.7,826.398 1951.79,824.838 1949.62,824.394C1948.36,824.137 1947.63,824.283 1946.94,824.211L1947.48,824.766L1947.54,824.838L1948.08,825.535C1949.12,827.101 1949.56,829.037 1950.9,830.398C1952.79,832.305 1953.29,831.305 1955.7,831.797C1957.88,832.242 1958.78,833.791 1960.45,835.163C1962.35,836.734 1963.82,836.766 1966.15,837.268C1968.71,837.844 1969.42,838.588 1971.11,840.473C1971.87,841.31 1972.49,841.791 1973.2,842.068C1974.01,842.378 1974.92,842.398 1976.29,842.263C1978,842.111 1980.45,840.755 1982.12,841.278L1982.13,841.278C1983.75,841.771 1985.44,844.231 1987.06,845.121C1990.47,846.996 1993.46,847.373 1997.24,847.068C2000.94,846.791 2004.56,847.828 2008.3,847.221C2010.35,846.891 2012.06,847.655 2014.07,847.828C2019.11,848.221 2021.95,843.347 2026.77,845.822C2028.65,846.791 2029.23,847.143 2030.67,846.922L2031.65,846.744C2033.5,846.314 2034.3,846.174 2036.19,846.493L2036.54,846.566C2037.78,846.807 2039.78,847.529 2041.02,846.996C2042.5,846.357 2042.85,844.168 2044.55,843.676C2047.15,842.891 2051.15,845.258 2053.9,843.624C2055.13,842.891 2055.07,841.215 2056.46,840.588C2057.83,839.953 2060.24,840.807 2061.76,840.619C2063.5,840.414 2065.65,839.775 2066.99,838.545C2067.91,837.713 2068.35,835.473 2069.33,834.996C2070.18,834.588 2072,835.294 2073.09,835.143C2074.37,834.965 2078.28,834.227 2079.23,833.373C2080.19,832.535 2080.04,831.048 2081.09,830.105C2082.78,828.582 2085.07,828.445 2087.23,828.084C2088.95,827.791 2090.58,827.347 2091.79,825.99C2093.19,824.42 2092.8,822.137 2094.68,820.996C2095.59,820.445 2096.55,820.231 2097.52,819.98C2098.62,819.719 2099.71,819.389 2100.73,818.482C2102.62,816.766 2103.54,814.588 2104.1,812.137C2104.59,810.032 2104.63,808.168 2105.52,806.211C2106.41,804.252 2107.54,802.682 2107.94,800.493C2108.38,798.001 2107.85,795.635 2107.81,793.158C2107.78,791.048 2108.47,789.624 2109,787.629C2109.87,784.338 2108.87,780.697 2108.25,777.158C2108.01,775.781 2107.81,774.43 2107.83,773.132C2107.85,770.682 2108.35,768.838 2106.63,766.734Z" style="fill:rgb(247,144,55);fill-rule:nonzero;"/>
        </g>
        <g transform="matrix(4.16667,0,0,4.16667,-6932.01,-14.7188)">
            <path d="M1837,705.143C1837.52,707.132 1838.23,708.566 1838.19,710.666C1838.15,713.132 1837.63,715.509 1838.07,718.006C1838.47,720.194 1839.59,721.75 1840.49,723.734C1841.37,725.676 1841.42,727.551 1841.9,729.655C1842.46,732.084 1843.38,734.283 1845.27,735.98C1847.2,737.729 1849.38,737.31 1851.32,738.509C1853.2,739.65 1852.82,741.928 1854.21,743.498C1856.94,746.604 1861.88,744.891 1864.92,747.619C1865.97,748.535 1865.82,750.037 1866.78,750.87C1867.73,751.723 1871.65,752.473 1872.92,752.655C1874.01,752.817 1875.83,752.1 1876.68,752.504C1877.66,752.996 1878.11,755.236 1879.01,756.063C1880.36,757.273 1882.49,757.933 1884.24,758.137C1885.76,758.31 1888.17,757.457 1889.56,758.096C1890.93,758.734 1890.88,760.43 1892.1,761.132C1894.84,762.775 1898.85,760.43 1901.46,761.211C1903.15,761.687 1903.5,763.886 1904.98,764.504C1906.23,765.048 1908.22,764.326 1909.47,764.096C1911.62,763.671 1912.39,763.781 1914.36,764.242C1916.62,764.755 1916.98,764.493 1919.23,763.33C1924.05,760.883 1926.9,765.739 1931.92,765.33C1933.94,765.179 1935.65,764.409 1937.71,764.729C1941.45,765.33 1945.06,764.314 1948.78,764.582C1952.55,764.87 1955.53,764.504 1958.94,762.64C1960.57,761.739 1962.26,759.299 1963.88,758.775C1965.54,758.273 1968,759.613 1969.71,759.781C1972.25,760.017 1973.25,759.813 1974.9,757.996C1976.58,756.111 1977.29,755.342 1979.86,754.797C1982.19,754.273 1983.66,754.231 1985.55,752.682C1987.23,751.31 1988.12,749.739 1990.3,749.305C1991.56,749.059 1992.29,749.215 1992.98,749.143C1993.98,748.231 1995.09,747.687 1996.26,746.64C2000.75,742.66 2004.77,738.098 2007.8,732.906C2004.52,735.084 2001.58,736.44 1999.32,739.467C1997.15,742.357 1994.37,743.08 1990.85,743.404C1986.4,743.822 1982.69,746.084 1978.91,748.473C1975.33,750.755 1973.79,749.938 1969.7,749.342C1966.73,748.922 1963.87,748.739 1961.02,749.08C1959.56,749.263 1958.12,749.571 1956.67,750.063C1952.39,751.551 1948.04,753.771 1943.38,753.42C1941.71,753.283 1940.04,752.922 1938.39,752.473C1935.77,751.739 1933.19,750.744 1930.63,749.886C1929.84,749.624 1929.06,749.373 1928.27,749.143C1923.45,747.755 1917.57,747.524 1912.59,748.535C1908.78,749.33 1905.92,750.493 1901.84,750.084C1898.19,749.719 1893.45,749.342 1890.4,747.184C1887.61,745.194 1885.58,742.096 1882.44,740.545C1879.33,739.043 1876.2,741.205 1873.03,740.012L1872.47,739.729C1870.73,738.768 1869.39,736.65 1868.16,735.053L1867.66,734.436C1865.09,731.425 1862.45,729.969 1858.66,729.068C1852.12,727.54 1853.87,721.027 1848.79,718.1C1846.23,716.607 1843.45,716.607 1842.43,713.409C1841.75,711.294 1842.53,709.247 1841.72,707.121C1841.42,706.314 1840.97,705.604 1840.49,704.881C1839.68,703.64 1838.77,702.451 1838.33,701.053C1837.63,698.771 1839.3,693.917 1838.33,691.571L1838.16,691.236C1838,695.771 1835.86,700.781 1837,705.143Z" style="fill:rgb(254,193,57);fill-rule:nonzero;"/>
        </g>
        <g transform="matrix(4.16667,0,0,4.16667,-6932.01,-14.7188)">
            <path d="M1830.91,712.545C1831.45,714.529 1832.14,715.969 1832.11,718.059C1832.06,720.535 1831.54,722.933 1831.99,725.404C1832.27,727.032 1832.96,728.299 1833.67,729.655C1833.91,730.116 1834.16,730.624 1834.4,731.132C1835.29,733.09 1835.34,734.959 1835.82,737.048C1836.38,739.498 1837.3,741.687 1839.19,743.394C1841.11,745.132 1843.29,744.734 1845.24,745.906C1847.12,747.053 1846.73,749.33 1848.12,750.891C1849.09,751.98 1850.3,752.473 1851.62,752.775C1853.9,753.305 1856.49,753.263 1858.44,754.713L1858.83,755.021C1859.88,755.949 1859.73,757.445 1860.69,758.283C1861.64,759.137 1865.56,759.875 1866.84,760.059C1867.92,760.227 1869.74,759.504 1870.59,759.917C1871.57,760.409 1872.01,762.64 1872.93,763.473C1874.27,764.687 1876.41,765.33 1878.16,765.529C1879.68,765.723 1882.09,764.87 1883.47,765.498C1884.85,766.147 1884.78,767.822 1886.01,768.545C1888.76,770.179 1892.77,767.822 1895.37,768.598C1897.07,769.09 1897.42,771.278 1898.89,771.917C1900.14,772.451 1902.13,771.729 1903.37,771.482C1905.53,771.068 1906.31,771.194 1908.28,771.65C1910.53,772.168 1910.89,771.906 1913.14,770.744C1915.65,769.457 1917.63,770.158 1919.65,771.068C1921.52,771.906 1923.43,772.933 1925.84,772.739C1927.12,772.645 1928.27,772.294 1929.47,772.137C1930.16,772.053 1930.86,772.017 1931.62,772.137C1932.82,772.326 1934.02,772.336 1935.21,772.294C1937.69,772.199 1940.17,771.791 1942.69,771.99C1946.46,772.275 1949.45,771.906 1952.86,770.032C1954.48,769.143 1956.17,766.703 1957.8,766.199C1959.46,765.655 1961.91,767.017 1963.62,767.184C1966.16,767.414 1967.16,767.194 1968.8,765.394C1970.5,763.514 1971.21,762.755 1973.77,762.189C1976.1,761.687 1977.57,761.645 1979.46,760.068C1981.14,758.713 1982.03,757.143 1984.22,756.729C1986.62,756.221 1987.13,757.227 1989.01,755.31C1990.36,753.949 1990.79,752.012 1991.83,750.467L1992.38,749.739L1992.43,749.687L1992.98,749.143C1992.29,749.215 1991.56,749.059 1990.3,749.305C1988.12,749.739 1987.23,751.31 1985.55,752.682C1983.66,754.231 1982.19,754.273 1979.86,754.797C1977.29,755.342 1976.58,756.111 1974.9,757.996C1973.25,759.813 1972.25,760.017 1969.71,759.781C1968,759.613 1965.54,758.273 1963.88,758.775C1962.26,759.299 1960.57,761.739 1958.94,762.64C1955.53,764.504 1952.55,764.87 1948.78,764.582C1945.06,764.314 1941.45,765.33 1937.71,764.729C1935.65,764.409 1933.94,765.179 1931.92,765.33C1926.9,765.739 1924.05,760.883 1919.23,763.33C1916.98,764.493 1916.62,764.755 1914.36,764.242C1912.39,763.781 1911.62,763.671 1909.47,764.096C1908.22,764.326 1906.23,765.048 1904.98,764.504C1903.5,763.886 1903.15,761.687 1901.46,761.211C1898.85,760.43 1894.84,762.775 1892.1,761.132C1890.88,760.43 1890.93,758.734 1889.56,758.096C1888.17,757.457 1885.76,758.31 1884.24,758.137C1882.49,757.933 1880.36,757.273 1879.01,756.063C1878.11,755.236 1877.66,752.996 1876.68,752.504C1875.83,752.1 1874.01,752.817 1872.92,752.655C1871.65,752.473 1867.73,751.723 1866.78,750.87C1865.82,750.037 1865.97,748.535 1864.92,747.619C1861.88,744.891 1856.94,746.604 1854.21,743.498C1852.82,741.928 1853.2,739.65 1851.32,738.509C1849.38,737.31 1847.2,737.729 1845.27,735.98C1843.38,734.283 1842.46,732.084 1841.9,729.655C1841.42,727.551 1841.37,725.676 1840.49,723.734C1839.59,721.75 1838.47,720.194 1838.07,718.006C1837.63,715.509 1838.15,713.132 1838.19,710.666C1838.23,708.566 1837.52,707.132 1837,705.143C1835.86,700.781 1838,695.771 1838.16,691.236L1837.88,690.891L1837.36,690.54C1836.13,690.037 1834.05,690.713 1833.28,691.655C1831.57,693.75 1832.07,695.613 1832.09,698.032C1832.11,700.65 1831.36,703.467 1830.91,706.221C1830.56,708.389 1830.38,710.545 1830.91,712.545Z" style="fill:rgb(247,144,55);fill-rule:nonzero;"/>
        </g>
    </g>
</svg>
